solid mini-plate
facet normal 0.0 0.0 -1.0
  outer loop
    vertex -12.149999999999993 16.424999999999862 0.0
    vertex -6.9000000000001 15.350000000000028 0.0
    vertex -12.149999999999894 -2.624999999999943 0.0
  endloop
endfacet
facet normal 0.0 0.0 -1.0
  outer loop
    vertex -6.9000000000001 15.350000000000028 0.0
    vertex -12.149999999999993 16.424999999999862 0.0
    vertex 25.949999999999886 16.42499999999985 0.0
  endloop
endfacet
facet normal 0.0 0.0 -1.0
  outer loop
    vertex -12.149999999999894 -2.624999999999943 0.0
    vertex -6.9000000000001 15.350000000000028 0.0
    vertex -8.250000000000098 10.700000000000035 0.0
  endloop
endfacet
facet normal 0.0 0.0 -1.0
  outer loop
    vertex -6.9000000000001 15.350000000000028 0.0
    vertex 25.949999999999886 16.42499999999985 0.0
    vertex -3.299999999999994 15.350000000000028 0.0
  endloop
endfacet
facet normal 0.0 0.0 -1.0
  outer loop
    vertex -3.299999999999994 15.350000000000028 0.0
    vertex 25.949999999999886 16.42499999999985 0.0
    vertex 0.0 13.8 0.0
  endloop
endfacet
facet normal 0.0 0.0 -1.0
  outer loop
    vertex -3.299999999999994 15.350000000000028 0.0
    vertex 0.0 13.8 0.0
    vertex -3.299999999999994 10.700000000000056 0.0
  endloop
endfacet
facet normal 0.0 0.0 -1.0
  outer loop
    vertex -3.299999999999994 10.700000000000056 0.0
    vertex 0.0 13.8 0.0
    vertex -1.9499999999999964 10.700000000000069 0.0
  endloop
endfacet
facet normal 0.0 0.0 -1.0
  outer loop
    vertex 0.0 13.8 0.0
    vertex 25.949999999999886 16.42499999999985 0.0
    vertex 17.1 15.35 1.4099832412739487e-15
  endloop
endfacet
facet normal 0.0 0.0 -1.0
  outer loop
    vertex 0.0 13.8 0.0
    vertex 17.1 15.35 1.4099832412739487e-15
    vertex 13.8 13.8 0.0
  endloop
endfacet
facet normal 0.0 0.0 -1.0
  outer loop
    vertex 13.8 13.8 0.0
    vertex 17.1 15.35 1.4099832412739487e-15
    vertex 15.749999999999996 10.699999999999987 1.4099832412739487e-15
  endloop
endfacet
facet normal 0.0 0.0 -1.0
  outer loop
    vertex 13.8 13.8 0.0
    vertex 15.749999999999996 10.699999999999987 1.4099832412739487e-15
    vertex 13.8 0.0 0.0
  endloop
endfacet
facet normal 0.0 0.0 -1.0
  outer loop
    vertex 17.1 15.35 1.4099832412739487e-15
    vertex 25.949999999999886 16.42499999999985 0.0
    vertex 20.700000000000106 15.35 1.4099832412739487e-15
  endloop
endfacet
facet normal 0.0 0.0 -1.0
  outer loop
    vertex 20.700000000000106 15.35 1.4099832412739487e-15
    vertex 25.949999999999886 16.42499999999985 0.0
    vertex 20.700000000000106 10.700000000000014 1.4099832412739487e-15
  endloop
endfacet
facet normal 0.0 0.0 -1.0
  outer loop
    vertex 20.700000000000106 10.700000000000014 1.4099832412739487e-15
    vertex 25.949999999999886 16.42499999999985 0.0
    vertex 22.050000000000104 10.70000000000002 1.4099832412739487e-15
  endloop
endfacet
facet normal 0.0 0.0 -1.0
  outer loop
    vertex -12.149999999999894 -2.624999999999943 0.0
    vertex 0.0 0.0 0.0
    vertex 25.949999999999985 -2.6249999999998246 0.0
  endloop
endfacet
facet normal 0.0 0.0 -1.0
  outer loop
    vertex 0.0 0.0 0.0
    vertex -12.149999999999894 -2.624999999999943 0.0
    vertex -8.250000000000087 3.8499999999999646 0.0
  endloop
endfacet
facet normal 0.0 0.0 -1.0
  outer loop
    vertex -8.250000000000087 3.8499999999999646 0.0
    vertex -12.149999999999894 -2.624999999999943 0.0
    vertex -8.250000000000098 10.700000000000035 0.0
  endloop
endfacet
facet normal 0.0 0.0 -1.0
  outer loop
    vertex 0.0 0.0 0.0
    vertex -8.250000000000087 3.8499999999999646 0.0
    vertex -1.9500000000001543 3.849999999999982 0.0
  endloop
endfacet
facet normal 0.0 0.0 -1.0
  outer loop
    vertex 0.0 0.0 0.0
    vertex -1.9500000000001543 3.849999999999982 0.0
    vertex -1.9499999999999964 10.700000000000069 0.0
  endloop
endfacet
facet normal 0.0 0.0 -1.0
  outer loop
    vertex 0.0 0.0 0.0
    vertex -1.9499999999999964 10.700000000000069 0.0
    vertex 0.0 13.8 0.0
  endloop
endfacet
facet normal 0.0 0.0 -1.0
  outer loop
    vertex 25.949999999999985 -2.6249999999998246 0.0
    vertex 0.0 0.0 0.0
    vertex 13.8 0.0 0.0
  endloop
endfacet
facet normal 0.0 0.0 -1.0
  outer loop
    vertex 25.949999999999985 -2.6249999999998246 0.0
    vertex 13.8 0.0 0.0
    vertex 15.750000000000014 3.8499999999999646 1.4099832412739487e-15
  endloop
endfacet
facet normal 0.0 0.0 -1.0
  outer loop
    vertex 15.750000000000014 3.8499999999999646 1.4099832412739487e-15
    vertex 13.8 0.0 0.0
    vertex 15.749999999999996 10.699999999999987 1.4099832412739487e-15
  endloop
endfacet
facet normal 0.0 0.0 -1.0
  outer loop
    vertex 25.949999999999985 -2.6249999999998246 0.0
    vertex 15.750000000000014 3.8499999999999646 1.4099832412739487e-15
    vertex 22.049999999999958 3.849999999999982 1.4099832412739487e-15
  endloop
endfacet
facet normal 0.0 0.0 -1.0
  outer loop
    vertex 25.949999999999985 -2.6249999999998246 0.0
    vertex 22.049999999999958 3.849999999999982 1.4099832412739487e-15
    vertex 22.050000000000104 10.70000000000002 1.4099832412739487e-15
  endloop
endfacet
facet normal 0.0 0.0 -1.0
  outer loop
    vertex 25.949999999999985 -2.6249999999998246 0.0
    vertex 22.050000000000104 10.70000000000002 1.4099832412739487e-15
    vertex 25.949999999999886 16.42499999999985 0.0
  endloop
endfacet
facet normal 0.0 0.0 -1.0
  outer loop
    vertex 17.1 10.699999999999998 1.4099832412739487e-15
    vertex 15.749999999999996 10.699999999999987 1.4099832412739487e-15
    vertex 17.1 15.35 1.4099832412739487e-15
  endloop
endfacet
facet normal 0.0 0.0 -1.0
  outer loop
    vertex -6.9000000000001 10.700000000000035 0.0
    vertex -8.250000000000098 10.700000000000035 0.0
    vertex -6.9000000000001 15.350000000000028 0.0
  endloop
endfacet
facet normal -0.0 -0.0 1.0
  outer loop
    vertex -1.9499999999999964 10.700000000000069 1.2
    vertex -3.299999999999994 15.350000000000028 1.2
    vertex -3.299999999999994 10.700000000000056 1.2
  endloop
endfacet
facet normal -0.0 -0.0 1.0
  outer loop
    vertex 22.050000000000104 10.70000000000002 1.2000000000000013
    vertex 20.700000000000106 15.35 1.2000000000000013
    vertex 20.700000000000106 10.700000000000014 1.2000000000000013
  endloop
endfacet
facet normal -0.0 -0.0 1.0
  outer loop
    vertex -12.149999999999894 -2.624999999999943 1.2
    vertex -8.250000000000087 3.8499999999999646 1.2
    vertex -8.250000000000098 10.700000000000035 1.2
  endloop
endfacet
facet normal -0.0 -0.0 1.0
  outer loop
    vertex -8.250000000000087 3.8499999999999646 1.2
    vertex -12.149999999999894 -2.624999999999943 1.2
    vertex 0.0 0.0 1.2
  endloop
endfacet
facet normal -0.0 -0.0 1.0
  outer loop
    vertex 0.0 0.0 1.2
    vertex -12.149999999999894 -2.624999999999943 1.2
    vertex 25.949999999999985 -2.6249999999998246 1.2
  endloop
endfacet
facet normal -0.0 -0.0 1.0
  outer loop
    vertex -8.250000000000087 3.8499999999999646 1.2
    vertex 0.0 0.0 1.2
    vertex -1.9500000000001543 3.849999999999982 1.2
  endloop
endfacet
facet normal -0.0 -0.0 1.0
  outer loop
    vertex -1.9500000000001543 3.849999999999982 1.2
    vertex 0.0 0.0 1.2
    vertex -1.9499999999999964 10.700000000000069 1.2
  endloop
endfacet
facet normal -0.0 -0.0 1.0
  outer loop
    vertex 0.0 0.0 1.2
    vertex 25.949999999999985 -2.6249999999998246 1.2
    vertex 13.8 0.0 1.2
  endloop
endfacet
facet normal -0.0 -0.0 1.0
  outer loop
    vertex 13.8 0.0 1.2
    vertex 25.949999999999985 -2.6249999999998246 1.2
    vertex 15.750000000000014 3.8499999999999646 1.2000000000000013
  endloop
endfacet
facet normal -0.0 -0.0 1.0
  outer loop
    vertex 13.8 0.0 1.2
    vertex 15.750000000000014 3.8499999999999646 1.2000000000000013
    vertex 13.8 13.8 1.2
  endloop
endfacet
facet normal -0.0 -0.0 1.0
  outer loop
    vertex 13.8 13.8 1.2
    vertex 15.750000000000014 3.8499999999999646 1.2000000000000013
    vertex 15.749999999999996 10.699999999999987 1.2000000000000013
  endloop
endfacet
facet normal -0.0 -0.0 1.0
  outer loop
    vertex 15.750000000000014 3.8499999999999646 1.2000000000000013
    vertex 25.949999999999985 -2.6249999999998246 1.2
    vertex 22.049999999999958 3.849999999999982 1.2000000000000013
  endloop
endfacet
facet normal -0.0 -0.0 1.0
  outer loop
    vertex 22.049999999999958 3.849999999999982 1.2000000000000013
    vertex 25.949999999999985 -2.6249999999998246 1.2
    vertex 22.050000000000104 10.70000000000002 1.2000000000000013
  endloop
endfacet
facet normal -0.0 -0.0 1.0
  outer loop
    vertex 22.050000000000104 10.70000000000002 1.2000000000000013
    vertex 25.949999999999985 -2.6249999999998246 1.2
    vertex 25.949999999999886 16.42499999999985 1.2
  endloop
endfacet
facet normal -0.0 -0.0 1.0
  outer loop
    vertex -12.149999999999993 16.424999999999862 1.2
    vertex -6.9000000000001 15.350000000000028 1.2
    vertex 25.949999999999886 16.42499999999985 1.2
  endloop
endfacet
facet normal -0.0 -0.0 1.0
  outer loop
    vertex -6.9000000000001 15.350000000000028 1.2
    vertex -12.149999999999993 16.424999999999862 1.2
    vertex -12.149999999999894 -2.624999999999943 1.2
  endloop
endfacet
facet normal -0.0 -0.0 1.0
  outer loop
    vertex -6.9000000000001 15.350000000000028 1.2
    vertex -12.149999999999894 -2.624999999999943 1.2
    vertex -8.250000000000098 10.700000000000035 1.2
  endloop
endfacet
facet normal -0.0 -0.0 1.0
  outer loop
    vertex -6.9000000000001 15.350000000000028 1.2
    vertex -8.250000000000098 10.700000000000035 1.2
    vertex -6.9000000000001 10.700000000000035 1.2
  endloop
endfacet
facet normal -0.0 -0.0 1.0
  outer loop
    vertex 25.949999999999886 16.42499999999985 1.2
    vertex -6.9000000000001 15.350000000000028 1.2
    vertex -3.299999999999994 15.350000000000028 1.2
  endloop
endfacet
facet normal -0.0 -0.0 1.0
  outer loop
    vertex 25.949999999999886 16.42499999999985 1.2
    vertex -3.299999999999994 15.350000000000028 1.2
    vertex 0.0 13.8 1.2
  endloop
endfacet
facet normal -0.0 -0.0 1.0
  outer loop
    vertex 0.0 13.8 1.2
    vertex -3.299999999999994 15.350000000000028 1.2
    vertex -1.9499999999999964 10.700000000000069 1.2
  endloop
endfacet
facet normal -0.0 -0.0 1.0
  outer loop
    vertex 0.0 13.8 1.2
    vertex -1.9499999999999964 10.700000000000069 1.2
    vertex 0.0 0.0 1.2
  endloop
endfacet
facet normal -0.0 -0.0 1.0
  outer loop
    vertex 25.949999999999886 16.42499999999985 1.2
    vertex 0.0 13.8 1.2
    vertex 17.1 15.35 1.2000000000000013
  endloop
endfacet
facet normal -0.0 -0.0 1.0
  outer loop
    vertex 17.1 15.35 1.2000000000000013
    vertex 0.0 13.8 1.2
    vertex 13.8 13.8 1.2
  endloop
endfacet
facet normal -0.0 -0.0 1.0
  outer loop
    vertex 17.1 15.35 1.2000000000000013
    vertex 13.8 13.8 1.2
    vertex 15.749999999999996 10.699999999999987 1.2000000000000013
  endloop
endfacet
facet normal -0.0 -0.0 1.0
  outer loop
    vertex 17.1 15.35 1.2000000000000013
    vertex 15.749999999999996 10.699999999999987 1.2000000000000013
    vertex 17.1 10.699999999999998 1.2000000000000013
  endloop
endfacet
facet normal -0.0 -0.0 1.0
  outer loop
    vertex 25.949999999999886 16.42499999999985 1.2
    vertex 17.1 15.35 1.2000000000000013
    vertex 20.700000000000106 15.35 1.2000000000000013
  endloop
endfacet
facet normal -0.0 -0.0 1.0
  outer loop
    vertex 25.949999999999886 16.42499999999985 1.2
    vertex 20.700000000000106 15.35 1.2000000000000013
    vertex 22.050000000000104 10.70000000000002 1.2000000000000013
  endloop
endfacet
facet normal 3.1086244689504478e-15 -1.0 0.0
  outer loop
    vertex 25.949999999999985 -2.6249999999998246 1.2
    vertex -12.149999999999894 -2.624999999999943 0.0
    vertex 25.949999999999985 -2.6249999999998246 0.0
  endloop
endfacet
facet normal 3.1086244689504478e-15 -1.0 0.0
  outer loop
    vertex -12.149999999999894 -2.624999999999943 0.0
    vertex 25.949999999999985 -2.6249999999998246 1.2
    vertex -12.149999999999894 -2.624999999999943 1.2
  endloop
endfacet
facet normal -1.0 -5.1810407815841164e-15 -0.0
  outer loop
    vertex -12.149999999999993 16.424999999999862 1.2
    vertex -12.149999999999894 -2.624999999999943 0.0
    vertex -12.149999999999894 -2.624999999999943 1.2
  endloop
endfacet
facet normal -1.0 -5.1810407815841164e-15 -0.0
  outer loop
    vertex -12.149999999999894 -2.624999999999943 0.0
    vertex -12.149999999999993 16.424999999999862 1.2
    vertex -12.149999999999993 16.424999999999862 0.0
  endloop
endfacet
facet normal 2.96059473233376e-16 1.0 0.0
  outer loop
    vertex -12.149999999999993 16.424999999999862 1.2
    vertex 25.949999999999886 16.42499999999985 0.0
    vertex -12.149999999999993 16.424999999999862 0.0
  endloop
endfacet
facet normal 2.96059473233376e-16 1.0 0.0
  outer loop
    vertex 25.949999999999886 16.42499999999985 0.0
    vertex -12.149999999999993 16.424999999999862 1.2
    vertex 25.949999999999886 16.42499999999985 1.2
  endloop
endfacet
facet normal 1.0 5.329070518200841e-15 0.0
  outer loop
    vertex 25.949999999999886 16.42499999999985 0.0
    vertex 25.949999999999985 -2.6249999999998246 1.2
    vertex 25.949999999999985 -2.6249999999998246 0.0
  endloop
endfacet
facet normal 1.0 5.329070518200841e-15 0.0
  outer loop
    vertex 25.949999999999985 -2.6249999999998246 1.2
    vertex 25.949999999999886 16.42499999999985 0.0
    vertex 25.949999999999886 16.42499999999985 1.2
  endloop
endfacet
facet normal -0.0 1.0 0.0
  outer loop
    vertex 0.0 0.0 1.2
    vertex 13.8 0.0 0.0
    vertex 0.0 0.0 0.0
  endloop
endfacet
facet normal -0.0 1.0 0.0
  outer loop
    vertex 13.8 0.0 0.0
    vertex 0.0 0.0 1.2
    vertex 13.8 0.0 1.2
  endloop
endfacet
facet normal -1.0 0.0 0.0
  outer loop
    vertex 13.8 13.8 1.2
    vertex 13.8 0.0 0.0
    vertex 13.8 0.0 1.2
  endloop
endfacet
facet normal -1.0 0.0 0.0
  outer loop
    vertex 13.8 0.0 0.0
    vertex 13.8 13.8 1.2
    vertex 13.8 13.8 0.0
  endloop
endfacet
facet normal -0.0 -1.0 -0.0
  outer loop
    vertex 13.8 13.8 1.2
    vertex 0.0 13.8 0.0
    vertex 13.8 13.8 0.0
  endloop
endfacet
facet normal -0.0 -1.0 -0.0
  outer loop
    vertex 0.0 13.8 0.0
    vertex 13.8 13.8 1.2
    vertex 0.0 13.8 1.2
  endloop
endfacet
facet normal 1.0 0.0 0.0
  outer loop
    vertex 0.0 13.8 0.0
    vertex 0.0 0.0 1.2
    vertex 0.0 0.0 0.0
  endloop
endfacet
facet normal 1.0 0.0 0.0
  outer loop
    vertex 0.0 0.0 1.2
    vertex 0.0 13.8 0.0
    vertex 0.0 13.8 1.2
  endloop
endfacet
facet normal -0.0 -1.0 -0.0
  outer loop
    vertex -6.9000000000001 10.700000000000035 1.2
    vertex -8.250000000000098 10.700000000000035 0.0
    vertex -6.9000000000001 10.700000000000035 0.0
  endloop
endfacet
facet normal -0.0 -1.0 -0.0
  outer loop
    vertex -8.250000000000098 10.700000000000035 0.0
    vertex -6.9000000000001 10.700000000000035 1.2
    vertex -8.250000000000098 10.700000000000035 1.2
  endloop
endfacet
facet normal 1.0 1.6466957562323322e-15 0.0
  outer loop
    vertex -8.250000000000098 10.700000000000035 0.0
    vertex -8.250000000000087 3.8499999999999646 1.2
    vertex -8.250000000000087 3.8499999999999646 0.0
  endloop
endfacet
facet normal 1.0 1.6466957562323322e-15 0.0
  outer loop
    vertex -8.250000000000087 3.8499999999999646 1.2
    vertex -8.250000000000098 10.700000000000035 0.0
    vertex -8.250000000000098 10.700000000000035 1.2
  endloop
endfacet
facet normal -2.68568236433136e-15 1.0 0.0
  outer loop
    vertex -8.250000000000087 3.8499999999999646 1.2
    vertex -1.9500000000001543 3.849999999999982 0.0
    vertex -8.250000000000087 3.8499999999999646 0.0
  endloop
endfacet
facet normal -2.68568236433136e-15 1.0 0.0
  outer loop
    vertex -1.9500000000001543 3.849999999999982 0.0
    vertex -8.250000000000087 3.8499999999999646 1.2
    vertex -1.9500000000001543 3.849999999999982 1.2
  endloop
endfacet
facet normal -1.0 2.3053740587252597e-14 0.0
  outer loop
    vertex -1.9499999999999964 10.700000000000069 1.2
    vertex -1.9500000000001543 3.849999999999982 0.0
    vertex -1.9500000000001543 3.849999999999982 1.2
  endloop
endfacet
facet normal -1.0 2.3053740587252597e-14 0.0
  outer loop
    vertex -1.9500000000001543 3.849999999999982 0.0
    vertex -1.9499999999999964 10.700000000000069 1.2
    vertex -1.9499999999999964 10.700000000000069 0.0
  endloop
endfacet
facet normal 8.355456244586378e-15 -1.0 0.0
  outer loop
    vertex -1.9499999999999964 10.700000000000069 1.2
    vertex -3.299999999999994 10.700000000000056 0.0
    vertex -1.9499999999999964 10.700000000000069 0.0
  endloop
endfacet
facet normal 8.355456244586378e-15 -1.0 0.0
  outer loop
    vertex -3.299999999999994 10.700000000000056 0.0
    vertex -1.9499999999999964 10.700000000000069 1.2
    vertex -3.299999999999994 10.700000000000056 1.2
  endloop
endfacet
facet normal -1.0 0.0 0.0
  outer loop
    vertex -3.299999999999994 15.350000000000028 1.2
    vertex -3.299999999999994 10.700000000000056 0.0
    vertex -3.299999999999994 10.700000000000056 1.2
  endloop
endfacet
facet normal -1.0 0.0 0.0
  outer loop
    vertex -3.299999999999994 10.700000000000056 0.0
    vertex -3.299999999999994 15.350000000000028 1.2
    vertex -3.299999999999994 15.350000000000028 0.0
  endloop
endfacet
facet normal -0.0 -1.0 -0.0
  outer loop
    vertex -3.299999999999994 15.350000000000028 1.2
    vertex -6.9000000000001 15.350000000000028 0.0
    vertex -3.299999999999994 15.350000000000028 0.0
  endloop
endfacet
facet normal -0.0 -1.0 -0.0
  outer loop
    vertex -6.9000000000001 15.350000000000028 0.0
    vertex -3.299999999999994 15.350000000000028 1.2
    vertex -6.9000000000001 15.350000000000028 1.2
  endloop
endfacet
facet normal 1.0 0.0 0.0
  outer loop
    vertex -6.9000000000001 15.350000000000028 0.0
    vertex -6.9000000000001 10.700000000000035 1.2
    vertex -6.9000000000001 10.700000000000035 0.0
  endloop
endfacet
facet normal 1.0 0.0 0.0
  outer loop
    vertex -6.9000000000001 10.700000000000035 1.2
    vertex -6.9000000000001 15.350000000000028 0.0
    vertex -6.9000000000001 15.350000000000028 1.2
  endloop
endfacet
facet normal 8.355456244586344e-15 -1.0 0.0
  outer loop
    vertex 17.1 10.699999999999998 1.2000000000000013
    vertex 15.749999999999996 10.699999999999987 1.4099832412739487e-15
    vertex 17.1 10.699999999999998 1.4099832412739487e-15
  endloop
endfacet
facet normal 8.355456244586344e-15 -1.0 0.0
  outer loop
    vertex 15.749999999999996 10.699999999999987 1.4099832412739487e-15
    vertex 17.1 10.699999999999998 1.2000000000000013
    vertex 15.749999999999996 10.699999999999987 1.2000000000000013
  endloop
endfacet
facet normal 1.0 2.4700436343485156e-15 0.0
  outer loop
    vertex 15.749999999999996 10.699999999999987 1.4099832412739487e-15
    vertex 15.750000000000014 3.8499999999999646 1.2000000000000013
    vertex 15.750000000000014 3.8499999999999646 1.4099832412739487e-15
  endloop
endfacet
facet normal 1.0 2.4700436343485156e-15 0.0
  outer loop
    vertex 15.750000000000014 3.8499999999999646 1.2000000000000013
    vertex 15.749999999999996 10.699999999999987 1.4099832412739487e-15
    vertex 15.749999999999996 10.699999999999987 1.2000000000000013
  endloop
endfacet
facet normal -2.6856823643313554e-15 1.0 0.0
  outer loop
    vertex 15.750000000000014 3.8499999999999646 1.2000000000000013
    vertex 22.049999999999958 3.849999999999982 1.4099832412739487e-15
    vertex 15.750000000000014 3.8499999999999646 1.4099832412739487e-15
  endloop
endfacet
facet normal -2.6856823643313554e-15 1.0 0.0
  outer loop
    vertex 22.049999999999958 3.849999999999982 1.4099832412739487e-15
    vertex 15.750000000000014 3.8499999999999646 1.2000000000000013
    vertex 22.049999999999958 3.849999999999982 1.2000000000000013
  endloop
endfacet
facet normal -1.0 2.1407044831020414e-14 0.0
  outer loop
    vertex 22.050000000000104 10.70000000000002 1.2000000000000013
    vertex 22.049999999999958 3.849999999999982 1.4099832412739487e-15
    vertex 22.049999999999958 3.849999999999982 1.2000000000000013
  endloop
endfacet
facet normal -1.0 2.1407044831020414e-14 0.0
  outer loop
    vertex 22.049999999999958 3.849999999999982 1.4099832412739487e-15
    vertex 22.050000000000104 10.70000000000002 1.2000000000000013
    vertex 22.050000000000104 10.70000000000002 1.4099832412739487e-15
  endloop
endfacet
facet normal 4.177728122293189e-15 -1.0 0.0
  outer loop
    vertex 22.050000000000104 10.70000000000002 1.2000000000000013
    vertex 20.700000000000106 10.700000000000014 1.4099832412739487e-15
    vertex 22.050000000000104 10.70000000000002 1.4099832412739487e-15
  endloop
endfacet
facet normal 4.177728122293189e-15 -1.0 0.0
  outer loop
    vertex 20.700000000000106 10.700000000000014 1.4099832412739487e-15
    vertex 22.050000000000104 10.70000000000002 1.2000000000000013
    vertex 20.700000000000106 10.700000000000014 1.2000000000000013
  endloop
endfacet
facet normal -1.0 0.0 0.0
  outer loop
    vertex 20.700000000000106 15.35 1.2000000000000013
    vertex 20.700000000000106 10.700000000000014 1.4099832412739487e-15
    vertex 20.700000000000106 10.700000000000014 1.2000000000000013
  endloop
endfacet
facet normal -1.0 0.0 0.0
  outer loop
    vertex 20.700000000000106 10.700000000000014 1.4099832412739487e-15
    vertex 20.700000000000106 15.35 1.2000000000000013
    vertex 20.700000000000106 15.35 1.4099832412739487e-15
  endloop
endfacet
facet normal -0.0 -1.0 -0.0
  outer loop
    vertex 20.700000000000106 15.35 1.2000000000000013
    vertex 17.1 15.35 1.4099832412739487e-15
    vertex 20.700000000000106 15.35 1.4099832412739487e-15
  endloop
endfacet
facet normal -0.0 -1.0 -0.0
  outer loop
    vertex 17.1 15.35 1.4099832412739487e-15
    vertex 20.700000000000106 15.35 1.2000000000000013
    vertex 17.1 15.35 1.2000000000000013
  endloop
endfacet
facet normal 1.0 0.0 0.0
  outer loop
    vertex 17.1 15.35 1.4099832412739487e-15
    vertex 17.1 10.699999999999998 1.2000000000000013
    vertex 17.1 10.699999999999998 1.4099832412739487e-15
  endloop
endfacet
facet normal 1.0 0.0 0.0
  outer loop
    vertex 17.1 10.699999999999998 1.2000000000000013
    vertex 17.1 15.35 1.4099832412739487e-15
    vertex 17.1 15.35 1.2000000000000013
  endloop
endfacet
endsolid mini-plate
