%FSLAX45Y45*%
G04 Gerber Fmt 4.5, Leading zero omitted, Abs format (unit mm)*
G04 Created by KiCad (PCBNEW (5.1.10)-1) date 2022-02-10 09:55:50*
%MOMM*%
%LPD*%
G01*
G04 APERTURE LIST*
%TA.AperFunction,Profile*%
%ADD10C,0.050000*%
%TD*%
%TA.AperFunction,Profile*%
%ADD11C,0.100000*%
%TD*%
%ADD12C,0.200000*%
%ADD13C,0.300000*%
G04 APERTURE END LIST*
D10*
X3140000Y-16115000D02*
G75*
G02*
X2840000Y-15815000I0J300000D01*
G01*
X2840000Y-5815000D02*
G75*
G02*
X3140000Y-5515000I300000J0D01*
G01*
X34040000Y-5515000D02*
G75*
G02*
X34340000Y-5815000I0J-300000D01*
G01*
X34340000Y-15815000D02*
G75*
G02*
X34040000Y-16115000I-300000J0D01*
G01*
D11*
X2840000Y-15815000D02*
X2840000Y-5815000D01*
X3140000Y-5515000D02*
X34040000Y-5515000D01*
X34040000Y-16115000D02*
X3140000Y-16115000D01*
X34340000Y-5815000D02*
X34340000Y-15815000D01*
D10*
X32239290Y-12310830D02*
X32239290Y-12810830D01*
X33639290Y-12310830D02*
X32239290Y-12310830D01*
X33639290Y-12810830D02*
X33639290Y-12310830D01*
X32239290Y-12810830D02*
X33639290Y-12810830D01*
D12*
X16648750Y-9901875D02*
X16688750Y-9941875D01*
X16688750Y-9901875D02*
X16648750Y-9941875D01*
X18553750Y-9902500D02*
X18593750Y-9942500D01*
X18593750Y-9902500D02*
X18553750Y-9942500D01*
X21173125Y-11568750D02*
X21213125Y-11608750D01*
X21213125Y-11568750D02*
X21173125Y-11608750D01*
X23236875Y-11727500D02*
X23276875Y-11767500D01*
X23276875Y-11727500D02*
X23236875Y-11767500D01*
X25221250Y-11806875D02*
X25261250Y-11846875D01*
X25261250Y-11806875D02*
X25221250Y-11846875D01*
X29507500Y-9505000D02*
X29547500Y-9545000D01*
X29547500Y-9505000D02*
X29507500Y-9545000D01*
X31395625Y-11155000D02*
X31435625Y-11195000D01*
X31435625Y-11155000D02*
X31395625Y-11195000D01*
X31491875Y-8631875D02*
X31531875Y-8671875D01*
X31531875Y-8631875D02*
X31491875Y-8671875D01*
X31888750Y-11410000D02*
X31928750Y-11450000D01*
X31928750Y-11410000D02*
X31888750Y-11450000D01*
X32189375Y-11075625D02*
X32229375Y-11115625D01*
X32229375Y-11075625D02*
X32189375Y-11115625D01*
X32206250Y-10457500D02*
X32246250Y-10497500D01*
X32246250Y-10457500D02*
X32206250Y-10497500D01*
X32727500Y-10791840D02*
G75*
G03*
X32727500Y-10791840I-37500J0D01*
G01*
X32977500Y-10791840D02*
G75*
G03*
X32977500Y-10791840I-37500J0D01*
G01*
X33227500Y-10791840D02*
G75*
G03*
X33227500Y-10791840I-37500J0D01*
G01*
X5238750Y-6538125D02*
X5238750Y-6638125D01*
X5188750Y-6588125D02*
X5288750Y-6588125D01*
X5238750Y-7318125D02*
X5238750Y-7418125D01*
X5188750Y-7368125D02*
X5288750Y-7368125D01*
X5640000Y-8448595D02*
X5640000Y-8548595D01*
X5590000Y-8498595D02*
X5690000Y-8498595D01*
X5640000Y-9228595D02*
X5640000Y-9328595D01*
X5590000Y-9278595D02*
X5690000Y-9278595D01*
X6191250Y-14158125D02*
X6191250Y-14258125D01*
X6141250Y-14208125D02*
X6241250Y-14208125D01*
X6191250Y-14938125D02*
X6191250Y-15038125D01*
X6141250Y-14988125D02*
X6241250Y-14988125D01*
X7064375Y-10348125D02*
X7064375Y-10448125D01*
X7014375Y-10398125D02*
X7114375Y-10398125D01*
X7064375Y-11128125D02*
X7064375Y-11228125D01*
X7014375Y-11178125D02*
X7114375Y-11178125D01*
X7143750Y-6538125D02*
X7143750Y-6638125D01*
X7093750Y-6588125D02*
X7193750Y-6588125D01*
X7143750Y-7318125D02*
X7143750Y-7418125D01*
X7093750Y-7368125D02*
X7193750Y-7368125D01*
X7618260Y-12256695D02*
X7618260Y-12356695D01*
X7568260Y-12306695D02*
X7668260Y-12306695D01*
X7618260Y-13036695D02*
X7618260Y-13136695D01*
X7568260Y-13086695D02*
X7668260Y-13086695D01*
X8094480Y-8446935D02*
X8094480Y-8546935D01*
X8044480Y-8496935D02*
X8144480Y-8496935D01*
X8094480Y-9226935D02*
X8094480Y-9326935D01*
X8044480Y-9276935D02*
X8144480Y-9276935D01*
X9046920Y-10351815D02*
X9046920Y-10451815D01*
X8996920Y-10401815D02*
X9096920Y-10401815D01*
X9046920Y-11131815D02*
X9046920Y-11231815D01*
X8996920Y-11181815D02*
X9096920Y-11181815D01*
X9048750Y-6542055D02*
X9048750Y-6642055D01*
X8998750Y-6592055D02*
X9098750Y-6592055D01*
X9048750Y-7322055D02*
X9048750Y-7422055D01*
X8998750Y-7372055D02*
X9098750Y-7372055D01*
X9048750Y-14165000D02*
X9048750Y-14265000D01*
X8998750Y-14215000D02*
X9098750Y-14215000D01*
X9048750Y-14945000D02*
X9048750Y-15045000D01*
X8998750Y-14995000D02*
X9098750Y-14995000D01*
X9999360Y-8446935D02*
X9999360Y-8546935D01*
X9949360Y-8496935D02*
X10049360Y-8496935D01*
X9999360Y-9226935D02*
X9999360Y-9326935D01*
X9949360Y-9276935D02*
X10049360Y-9276935D01*
X9999360Y-12256695D02*
X9999360Y-12356695D01*
X9949360Y-12306695D02*
X10049360Y-12306695D01*
X9999360Y-13036695D02*
X9999360Y-13136695D01*
X9949360Y-13086695D02*
X10049360Y-13086695D01*
X10951800Y-6542055D02*
X10951800Y-6642055D01*
X10901800Y-6592055D02*
X11001800Y-6592055D01*
X10951800Y-7322055D02*
X10951800Y-7422055D01*
X10901800Y-7372055D02*
X11001800Y-7372055D01*
X10951800Y-10351815D02*
X10951800Y-10451815D01*
X10901800Y-10401815D02*
X11001800Y-10401815D01*
X10951800Y-11131815D02*
X10951800Y-11231815D01*
X10901800Y-11181815D02*
X11001800Y-11181815D01*
X11904240Y-8446935D02*
X11904240Y-8546935D01*
X11854240Y-8496935D02*
X11954240Y-8496935D01*
X11904240Y-9226935D02*
X11904240Y-9326935D01*
X11854240Y-9276935D02*
X11954240Y-9276935D01*
X11904240Y-12256695D02*
X11904240Y-12356695D01*
X11854240Y-12306695D02*
X11954240Y-12306695D01*
X11904240Y-13036695D02*
X11904240Y-13136695D01*
X11854240Y-13086695D02*
X11954240Y-13086695D01*
X11906250Y-14165000D02*
X11906250Y-14265000D01*
X11856250Y-14215000D02*
X11956250Y-14215000D01*
X11906250Y-14945000D02*
X11906250Y-15045000D01*
X11856250Y-14995000D02*
X11956250Y-14995000D01*
X12856680Y-6542055D02*
X12856680Y-6642055D01*
X12806680Y-6592055D02*
X12906680Y-6592055D01*
X12856680Y-7322055D02*
X12856680Y-7422055D01*
X12806680Y-7372055D02*
X12906680Y-7372055D01*
X12856680Y-10351815D02*
X12856680Y-10451815D01*
X12806680Y-10401815D02*
X12906680Y-10401815D01*
X12856680Y-11131815D02*
X12856680Y-11231815D01*
X12806680Y-11181815D02*
X12906680Y-11181815D01*
X13809120Y-8446935D02*
X13809120Y-8546935D01*
X13759120Y-8496935D02*
X13859120Y-8496935D01*
X13809120Y-9226935D02*
X13809120Y-9326935D01*
X13759120Y-9276935D02*
X13859120Y-9276935D01*
X13809120Y-12256695D02*
X13809120Y-12356695D01*
X13759120Y-12306695D02*
X13859120Y-12306695D01*
X13809120Y-13036695D02*
X13809120Y-13136695D01*
X13759120Y-13086695D02*
X13859120Y-13086695D01*
X14761560Y-6542055D02*
X14761560Y-6642055D01*
X14711560Y-6592055D02*
X14811560Y-6592055D01*
X14761560Y-7322055D02*
X14761560Y-7422055D01*
X14711560Y-7372055D02*
X14811560Y-7372055D01*
X14761560Y-10351815D02*
X14761560Y-10451815D01*
X14711560Y-10401815D02*
X14811560Y-10401815D01*
X14761560Y-11131815D02*
X14761560Y-11231815D01*
X14711560Y-11181815D02*
X14811560Y-11181815D01*
X14763750Y-14165000D02*
X14763750Y-14265000D01*
X14713750Y-14215000D02*
X14813750Y-14215000D01*
X14763750Y-14945000D02*
X14763750Y-15045000D01*
X14713750Y-14995000D02*
X14813750Y-14995000D01*
X15714000Y-8446935D02*
X15714000Y-8546935D01*
X15664000Y-8496935D02*
X15764000Y-8496935D01*
X15714000Y-9226935D02*
X15714000Y-9326935D01*
X15664000Y-9276935D02*
X15764000Y-9276935D01*
X15714000Y-12256695D02*
X15714000Y-12356695D01*
X15664000Y-12306695D02*
X15764000Y-12306695D01*
X15714000Y-13036695D02*
X15714000Y-13136695D01*
X15664000Y-13086695D02*
X15764000Y-13086695D01*
X16666440Y-6542055D02*
X16666440Y-6642055D01*
X16616440Y-6592055D02*
X16716440Y-6592055D01*
X16666440Y-7322055D02*
X16666440Y-7422055D01*
X16616440Y-7372055D02*
X16716440Y-7372055D01*
X16666440Y-10351815D02*
X16666440Y-10451815D01*
X16616440Y-10401815D02*
X16716440Y-10401815D01*
X16666440Y-11131815D02*
X16666440Y-11231815D01*
X16616440Y-11181815D02*
X16716440Y-11181815D01*
X17618880Y-8446935D02*
X17618880Y-8546935D01*
X17568880Y-8496935D02*
X17668880Y-8496935D01*
X17618880Y-9226935D02*
X17618880Y-9326935D01*
X17568880Y-9276935D02*
X17668880Y-9276935D01*
X17618880Y-12256695D02*
X17618880Y-12356695D01*
X17568880Y-12306695D02*
X17668880Y-12306695D01*
X17618880Y-13036695D02*
X17618880Y-13136695D01*
X17568880Y-13086695D02*
X17668880Y-13086695D01*
X18571320Y-6542055D02*
X18571320Y-6642055D01*
X18521320Y-6592055D02*
X18621320Y-6592055D01*
X18571320Y-7322055D02*
X18571320Y-7422055D01*
X18521320Y-7372055D02*
X18621320Y-7372055D01*
X18571320Y-10351815D02*
X18571320Y-10451815D01*
X18521320Y-10401815D02*
X18621320Y-10401815D01*
X18571320Y-11131815D02*
X18571320Y-11231815D01*
X18521320Y-11181815D02*
X18621320Y-11181815D01*
X19446875Y-14158125D02*
X19446875Y-14258125D01*
X19396875Y-14208125D02*
X19496875Y-14208125D01*
X19446875Y-14938125D02*
X19446875Y-15038125D01*
X19396875Y-14988125D02*
X19496875Y-14988125D01*
X19523760Y-8446935D02*
X19523760Y-8546935D01*
X19473760Y-8496935D02*
X19573760Y-8496935D01*
X19523760Y-9226935D02*
X19523760Y-9326935D01*
X19473760Y-9276935D02*
X19573760Y-9276935D01*
X19523760Y-12256695D02*
X19523760Y-12356695D01*
X19473760Y-12306695D02*
X19573760Y-12306695D01*
X19523760Y-13036695D02*
X19523760Y-13136695D01*
X19473760Y-13086695D02*
X19573760Y-13086695D01*
X20476200Y-6542055D02*
X20476200Y-6642055D01*
X20426200Y-6592055D02*
X20526200Y-6592055D01*
X20476200Y-7322055D02*
X20476200Y-7422055D01*
X20426200Y-7372055D02*
X20526200Y-7372055D01*
X20476200Y-10351815D02*
X20476200Y-10451815D01*
X20426200Y-10401815D02*
X20526200Y-10401815D01*
X20476200Y-11131815D02*
X20476200Y-11231815D01*
X20426200Y-11181815D02*
X20526200Y-11181815D01*
X21428640Y-8446935D02*
X21428640Y-8546935D01*
X21378640Y-8496935D02*
X21478640Y-8496935D01*
X21428640Y-9226935D02*
X21428640Y-9326935D01*
X21378640Y-9276935D02*
X21478640Y-9276935D01*
X21428640Y-12256695D02*
X21428640Y-12356695D01*
X21378640Y-12306695D02*
X21478640Y-12306695D01*
X21428640Y-13036695D02*
X21428640Y-13136695D01*
X21378640Y-13086695D02*
X21478640Y-13086695D01*
X22381080Y-6542055D02*
X22381080Y-6642055D01*
X22331080Y-6592055D02*
X22431080Y-6592055D01*
X22381080Y-7322055D02*
X22381080Y-7422055D01*
X22331080Y-7372055D02*
X22431080Y-7372055D01*
X22381080Y-10351815D02*
X22381080Y-10451815D01*
X22331080Y-10401815D02*
X22431080Y-10401815D01*
X22381080Y-11131815D02*
X22381080Y-11231815D01*
X22331080Y-11181815D02*
X22431080Y-11181815D01*
X23256875Y-14158125D02*
X23256875Y-14258125D01*
X23206875Y-14208125D02*
X23306875Y-14208125D01*
X23256875Y-14938125D02*
X23256875Y-15038125D01*
X23206875Y-14988125D02*
X23306875Y-14988125D01*
X23333520Y-8446935D02*
X23333520Y-8546935D01*
X23283520Y-8496935D02*
X23383520Y-8496935D01*
X23333520Y-9226935D02*
X23333520Y-9326935D01*
X23283520Y-9276935D02*
X23383520Y-9276935D01*
X23333520Y-12256695D02*
X23333520Y-12356695D01*
X23283520Y-12306695D02*
X23383520Y-12306695D01*
X23333520Y-13036695D02*
X23333520Y-13136695D01*
X23283520Y-13086695D02*
X23383520Y-13086695D01*
X24285960Y-6542055D02*
X24285960Y-6642055D01*
X24235960Y-6592055D02*
X24335960Y-6592055D01*
X24285960Y-7322055D02*
X24285960Y-7422055D01*
X24235960Y-7372055D02*
X24335960Y-7372055D01*
X24285960Y-10351815D02*
X24285960Y-10451815D01*
X24235960Y-10401815D02*
X24335960Y-10401815D01*
X24285960Y-11131815D02*
X24285960Y-11231815D01*
X24235960Y-11181815D02*
X24335960Y-11181815D01*
X25238400Y-8446935D02*
X25238400Y-8546935D01*
X25188400Y-8496935D02*
X25288400Y-8496935D01*
X25238400Y-9226935D02*
X25238400Y-9326935D01*
X25188400Y-9276935D02*
X25288400Y-9276935D01*
X25238400Y-12256695D02*
X25238400Y-12356695D01*
X25188400Y-12306695D02*
X25288400Y-12306695D01*
X25238400Y-13036695D02*
X25238400Y-13136695D01*
X25188400Y-13086695D02*
X25288400Y-13086695D01*
X25238400Y-14158125D02*
X25238400Y-14258125D01*
X25188400Y-14208125D02*
X25288400Y-14208125D01*
X25238400Y-14938125D02*
X25238400Y-15038125D01*
X25188400Y-14988125D02*
X25288400Y-14988125D01*
X26190840Y-6542055D02*
X26190840Y-6642055D01*
X26140840Y-6592055D02*
X26240840Y-6592055D01*
X26190840Y-7322055D02*
X26190840Y-7422055D01*
X26140840Y-7372055D02*
X26240840Y-7372055D01*
X26190840Y-10351815D02*
X26190840Y-10451815D01*
X26140840Y-10401815D02*
X26240840Y-10401815D01*
X26190840Y-11131815D02*
X26190840Y-11231815D01*
X26140840Y-11181815D02*
X26240840Y-11181815D01*
X27143280Y-8446935D02*
X27143280Y-8546935D01*
X27093280Y-8496935D02*
X27193280Y-8496935D01*
X27143280Y-9226935D02*
X27143280Y-9326935D01*
X27093280Y-9276935D02*
X27193280Y-9276935D01*
X27143280Y-12256695D02*
X27143280Y-12356695D01*
X27093280Y-12306695D02*
X27193280Y-12306695D01*
X27143280Y-13036695D02*
X27143280Y-13136695D01*
X27093280Y-13086695D02*
X27193280Y-13086695D01*
X27143280Y-14165000D02*
X27143280Y-14265000D01*
X27093280Y-14215000D02*
X27193280Y-14215000D01*
X27143280Y-14945000D02*
X27143280Y-15045000D01*
X27093280Y-14995000D02*
X27193280Y-14995000D01*
X28095720Y-6542055D02*
X28095720Y-6642055D01*
X28045720Y-6592055D02*
X28145720Y-6592055D01*
X28095720Y-7322055D02*
X28095720Y-7422055D01*
X28045720Y-7372055D02*
X28145720Y-7372055D01*
X28098750Y-10351815D02*
X28098750Y-10451815D01*
X28048750Y-10401815D02*
X28148750Y-10401815D01*
X28098750Y-11131815D02*
X28098750Y-11231815D01*
X28048750Y-11181815D02*
X28148750Y-11181815D01*
X28098750Y-14158125D02*
X28098750Y-14258125D01*
X28048750Y-14208125D02*
X28148750Y-14208125D01*
X28098750Y-14938125D02*
X28098750Y-15038125D01*
X28048750Y-14988125D02*
X28148750Y-14988125D01*
X28336875Y-10351815D02*
X28336875Y-10451815D01*
X28286875Y-10401815D02*
X28386875Y-10401815D01*
X28336875Y-11131815D02*
X28336875Y-11231815D01*
X28286875Y-11181815D02*
X28386875Y-11181815D01*
X29048160Y-8446935D02*
X29048160Y-8546935D01*
X28998160Y-8496935D02*
X29098160Y-8496935D01*
X29048160Y-9226935D02*
X29048160Y-9326935D01*
X28998160Y-9276935D02*
X29098160Y-9276935D01*
X29524380Y-8443125D02*
X29524380Y-8543125D01*
X29474380Y-8493125D02*
X29574380Y-8493125D01*
X29524380Y-9223125D02*
X29524380Y-9323125D01*
X29474380Y-9273125D02*
X29574380Y-9273125D01*
X29524380Y-12256695D02*
X29524380Y-12356695D01*
X29474380Y-12306695D02*
X29574380Y-12306695D01*
X29524380Y-13036695D02*
X29524380Y-13136695D01*
X29474380Y-13086695D02*
X29574380Y-13086695D01*
X29843540Y-12257415D02*
X29843540Y-12357415D01*
X29793540Y-12307415D02*
X29893540Y-12307415D01*
X29843540Y-13037415D02*
X29843540Y-13137415D01*
X29793540Y-13087415D02*
X29893540Y-13087415D01*
X30000600Y-14158125D02*
X30000600Y-14258125D01*
X29950600Y-14208125D02*
X30050600Y-14208125D01*
X30000600Y-14938125D02*
X30000600Y-15038125D01*
X29950600Y-14988125D02*
X30050600Y-14988125D01*
X31750000Y-6538125D02*
X31750000Y-6638125D01*
X31700000Y-6588125D02*
X31800000Y-6588125D01*
X31750000Y-7318125D02*
X31750000Y-7418125D01*
X31700000Y-7368125D02*
X31800000Y-7368125D01*
X31905480Y-14158125D02*
X31905480Y-14258125D01*
X31855480Y-14208125D02*
X31955480Y-14208125D01*
X31905480Y-14938125D02*
X31905480Y-15038125D01*
X31855480Y-14988125D02*
X31955480Y-14988125D01*
X33413510Y-9948140D02*
X33413510Y-10048140D01*
X33363510Y-9998140D02*
X33463510Y-9998140D01*
X33667510Y-9948140D02*
X33667510Y-10048140D01*
X33617510Y-9998140D02*
X33717510Y-9998140D01*
X32213905Y-6456615D02*
X32213905Y-6379384D01*
X32136674Y-6379384D01*
X32136674Y-6456615D01*
X32213905Y-6456615D01*
X32213905Y-6710615D02*
X32213905Y-6633384D01*
X32136674Y-6633384D01*
X32136674Y-6710615D01*
X32213905Y-6710615D01*
X32213905Y-6964615D02*
X32213905Y-6887384D01*
X32136674Y-6887384D01*
X32136674Y-6964615D01*
X32213905Y-6964615D01*
X32213905Y-7218615D02*
X32213905Y-7141384D01*
X32136674Y-7141384D01*
X32136674Y-7218615D01*
X32213905Y-7218615D01*
X32213905Y-7472615D02*
X32213905Y-7395384D01*
X32136674Y-7395384D01*
X32136674Y-7472615D01*
X32213905Y-7472615D01*
X32213905Y-7726615D02*
X32213905Y-7649384D01*
X32136674Y-7649384D01*
X32136674Y-7726615D01*
X32213905Y-7726615D01*
X32213905Y-7980615D02*
X32213905Y-7903384D01*
X32136674Y-7903384D01*
X32136674Y-7980615D01*
X32213905Y-7980615D01*
X32213905Y-8234615D02*
X32213905Y-8157384D01*
X32136674Y-8157384D01*
X32136674Y-8234615D01*
X32213905Y-8234615D01*
X32213905Y-8488616D02*
X32213905Y-8411385D01*
X32136674Y-8411385D01*
X32136674Y-8488616D01*
X32213905Y-8488616D01*
X32213905Y-8742616D02*
X32213905Y-8665385D01*
X32136674Y-8665385D01*
X32136674Y-8742616D01*
X32213905Y-8742616D01*
X32213905Y-8996616D02*
X32213905Y-8919385D01*
X32136674Y-8919385D01*
X32136674Y-8996616D01*
X32213905Y-8996616D01*
X32213905Y-9250616D02*
X32213905Y-9173385D01*
X32136674Y-9173385D01*
X32136674Y-9250616D01*
X32213905Y-9250616D01*
X32975905Y-8742616D02*
X32975905Y-8665385D01*
X32898674Y-8665385D01*
X32898674Y-8742616D01*
X32975905Y-8742616D01*
X33229905Y-8742616D02*
X33229905Y-8665385D01*
X33152674Y-8665385D01*
X33152674Y-8742616D01*
X33229905Y-8742616D01*
X33483905Y-8742616D02*
X33483905Y-8665385D01*
X33406674Y-8665385D01*
X33406674Y-8742616D01*
X33483905Y-8742616D01*
X33737906Y-6456615D02*
X33737906Y-6379384D01*
X33660675Y-6379384D01*
X33660675Y-6456615D01*
X33737906Y-6456615D01*
X33737906Y-6710615D02*
X33737906Y-6633384D01*
X33660675Y-6633384D01*
X33660675Y-6710615D01*
X33737906Y-6710615D01*
X33737906Y-6964615D02*
X33737906Y-6887384D01*
X33660675Y-6887384D01*
X33660675Y-6964615D01*
X33737906Y-6964615D01*
X33737906Y-7218615D02*
X33737906Y-7141384D01*
X33660675Y-7141384D01*
X33660675Y-7218615D01*
X33737906Y-7218615D01*
X33737906Y-7472615D02*
X33737906Y-7395384D01*
X33660675Y-7395384D01*
X33660675Y-7472615D01*
X33737906Y-7472615D01*
X33737906Y-7726615D02*
X33737906Y-7649384D01*
X33660675Y-7649384D01*
X33660675Y-7726615D01*
X33737906Y-7726615D01*
X33737906Y-7980615D02*
X33737906Y-7903384D01*
X33660675Y-7903384D01*
X33660675Y-7980615D01*
X33737906Y-7980615D01*
X33737906Y-8234615D02*
X33737906Y-8157384D01*
X33660675Y-8157384D01*
X33660675Y-8234615D01*
X33737906Y-8234615D01*
X33737906Y-8488616D02*
X33737906Y-8411385D01*
X33660675Y-8411385D01*
X33660675Y-8488616D01*
X33737906Y-8488616D01*
X33737906Y-8742616D02*
X33737906Y-8665385D01*
X33660675Y-8665385D01*
X33660675Y-8742616D01*
X33737906Y-8742616D01*
X33737906Y-8996616D02*
X33737906Y-8919385D01*
X33660675Y-8919385D01*
X33660675Y-8996616D01*
X33737906Y-8996616D01*
X33737906Y-9250616D02*
X33737906Y-9173385D01*
X33660675Y-9173385D01*
X33660675Y-9250616D01*
X33737906Y-9250616D01*
X3786250Y-7425000D02*
X3846250Y-7365000D01*
X3786250Y-7305000D01*
X3726250Y-7365000D01*
X3786250Y-7425000D01*
X4262194Y-9329429D02*
X4322194Y-9269429D01*
X4262194Y-9209429D01*
X4202194Y-9269429D01*
X4262194Y-9329429D01*
X4262194Y-15044062D02*
X4322194Y-14984062D01*
X4262194Y-14924062D01*
X4202194Y-14984062D01*
X4262194Y-15044062D01*
X4286250Y-7635000D02*
X4346250Y-7575000D01*
X4286250Y-7515000D01*
X4226250Y-7575000D01*
X4286250Y-7635000D01*
X4738750Y-11235000D02*
X4798750Y-11175000D01*
X4738750Y-11115000D01*
X4678750Y-11175000D01*
X4738750Y-11235000D01*
X4762194Y-9539429D02*
X4822194Y-9479429D01*
X4762194Y-9419429D01*
X4702194Y-9479429D01*
X4762194Y-9539429D01*
X4762194Y-15254062D02*
X4822194Y-15194062D01*
X4762194Y-15134062D01*
X4702194Y-15194062D01*
X4762194Y-15254062D01*
X5215000Y-13140000D02*
X5275000Y-13080000D01*
X5215000Y-13020000D01*
X5155000Y-13080000D01*
X5215000Y-13140000D01*
X5238750Y-11445000D02*
X5298750Y-11385000D01*
X5238750Y-11325000D01*
X5178750Y-11385000D01*
X5238750Y-11445000D01*
X5691250Y-7425000D02*
X5751250Y-7365000D01*
X5691250Y-7305000D01*
X5631250Y-7365000D01*
X5691250Y-7425000D01*
X5715000Y-13350000D02*
X5775000Y-13290000D01*
X5715000Y-13230000D01*
X5655000Y-13290000D01*
X5715000Y-13350000D01*
X6191250Y-7635000D02*
X6251250Y-7575000D01*
X6191250Y-7515000D01*
X6131250Y-7575000D01*
X6191250Y-7635000D01*
X6642040Y-9330000D02*
X6702040Y-9270000D01*
X6642040Y-9210000D01*
X6582040Y-9270000D01*
X6642040Y-9330000D01*
X7120000Y-15045000D02*
X7180000Y-14985000D01*
X7120000Y-14925000D01*
X7060000Y-14985000D01*
X7120000Y-15045000D01*
X7142040Y-9540000D02*
X7202040Y-9480000D01*
X7142040Y-9420000D01*
X7082040Y-9480000D01*
X7142040Y-9540000D01*
X7596250Y-7425000D02*
X7656250Y-7365000D01*
X7596250Y-7305000D01*
X7536250Y-7365000D01*
X7596250Y-7425000D01*
X7596250Y-11235000D02*
X7656250Y-11175000D01*
X7596250Y-11115000D01*
X7536250Y-11175000D01*
X7596250Y-11235000D01*
X7620000Y-15255000D02*
X7680000Y-15195000D01*
X7620000Y-15135000D01*
X7560000Y-15195000D01*
X7620000Y-15255000D01*
X8096250Y-7635000D02*
X8156250Y-7575000D01*
X8096250Y-7515000D01*
X8036250Y-7575000D01*
X8096250Y-7635000D01*
X8096250Y-11445000D02*
X8156250Y-11385000D01*
X8096250Y-11325000D01*
X8036250Y-11385000D01*
X8096250Y-11445000D01*
X8546920Y-9330000D02*
X8606920Y-9270000D01*
X8546920Y-9210000D01*
X8486920Y-9270000D01*
X8546920Y-9330000D01*
X8546920Y-13140000D02*
X8606920Y-13080000D01*
X8546920Y-13020000D01*
X8486920Y-13080000D01*
X8546920Y-13140000D01*
X9046920Y-9540000D02*
X9106920Y-9480000D01*
X9046920Y-9420000D01*
X8986920Y-9480000D01*
X9046920Y-9540000D01*
X9046920Y-13350000D02*
X9106920Y-13290000D01*
X9046920Y-13230000D01*
X8986920Y-13290000D01*
X9046920Y-13350000D01*
X9501250Y-7425000D02*
X9561250Y-7365000D01*
X9501250Y-7305000D01*
X9441250Y-7365000D01*
X9501250Y-7425000D01*
X9501250Y-11235000D02*
X9561250Y-11175000D01*
X9501250Y-11115000D01*
X9441250Y-11175000D01*
X9501250Y-11235000D01*
X9977500Y-15045000D02*
X10037500Y-14985000D01*
X9977500Y-14925000D01*
X9917500Y-14985000D01*
X9977500Y-15045000D01*
X10001250Y-7635000D02*
X10061250Y-7575000D01*
X10001250Y-7515000D01*
X9941250Y-7575000D01*
X10001250Y-7635000D01*
X10001250Y-11445000D02*
X10061250Y-11385000D01*
X10001250Y-11325000D01*
X9941250Y-11385000D01*
X10001250Y-11445000D01*
X10451800Y-9330000D02*
X10511800Y-9270000D01*
X10451800Y-9210000D01*
X10391800Y-9270000D01*
X10451800Y-9330000D01*
X10453750Y-13140000D02*
X10513750Y-13080000D01*
X10453750Y-13020000D01*
X10393750Y-13080000D01*
X10453750Y-13140000D01*
X10477500Y-15255000D02*
X10537500Y-15195000D01*
X10477500Y-15135000D01*
X10417500Y-15195000D01*
X10477500Y-15255000D01*
X10951800Y-9540000D02*
X11011800Y-9480000D01*
X10951800Y-9420000D01*
X10891800Y-9480000D01*
X10951800Y-9540000D01*
X10953750Y-13350000D02*
X11013750Y-13290000D01*
X10953750Y-13230000D01*
X10893750Y-13290000D01*
X10953750Y-13350000D01*
X11406250Y-7425000D02*
X11466250Y-7365000D01*
X11406250Y-7305000D01*
X11346250Y-7365000D01*
X11406250Y-7425000D01*
X11406250Y-11235000D02*
X11466250Y-11175000D01*
X11406250Y-11115000D01*
X11346250Y-11175000D01*
X11406250Y-11235000D01*
X11906250Y-7635000D02*
X11966250Y-7575000D01*
X11906250Y-7515000D01*
X11846250Y-7575000D01*
X11906250Y-7635000D01*
X11906250Y-11445000D02*
X11966250Y-11385000D01*
X11906250Y-11325000D01*
X11846250Y-11385000D01*
X11906250Y-11445000D01*
X12356680Y-9330000D02*
X12416680Y-9270000D01*
X12356680Y-9210000D01*
X12296680Y-9270000D01*
X12356680Y-9330000D01*
X12358750Y-13140000D02*
X12418750Y-13080000D01*
X12358750Y-13020000D01*
X12298750Y-13080000D01*
X12358750Y-13140000D01*
X12835000Y-15045000D02*
X12895000Y-14985000D01*
X12835000Y-14925000D01*
X12775000Y-14985000D01*
X12835000Y-15045000D01*
X12856680Y-9540000D02*
X12916680Y-9480000D01*
X12856680Y-9420000D01*
X12796680Y-9480000D01*
X12856680Y-9540000D01*
X12858750Y-13350000D02*
X12918750Y-13290000D01*
X12858750Y-13230000D01*
X12798750Y-13290000D01*
X12858750Y-13350000D01*
X13309120Y-7425000D02*
X13369120Y-7365000D01*
X13309120Y-7305000D01*
X13249120Y-7365000D01*
X13309120Y-7425000D01*
X13311250Y-11235000D02*
X13371250Y-11175000D01*
X13311250Y-11115000D01*
X13251250Y-11175000D01*
X13311250Y-11235000D01*
X13335000Y-15255000D02*
X13395000Y-15195000D01*
X13335000Y-15135000D01*
X13275000Y-15195000D01*
X13335000Y-15255000D01*
X13809120Y-7635000D02*
X13869120Y-7575000D01*
X13809120Y-7515000D01*
X13749120Y-7575000D01*
X13809120Y-7635000D01*
X13811250Y-11445000D02*
X13871250Y-11385000D01*
X13811250Y-11325000D01*
X13751250Y-11385000D01*
X13811250Y-11445000D01*
X14263750Y-9330000D02*
X14323750Y-9270000D01*
X14263750Y-9210000D01*
X14203750Y-9270000D01*
X14263750Y-9330000D01*
X14263750Y-13140000D02*
X14323750Y-13080000D01*
X14263750Y-13020000D01*
X14203750Y-13080000D01*
X14263750Y-13140000D01*
X14763750Y-9540000D02*
X14823750Y-9480000D01*
X14763750Y-9420000D01*
X14703750Y-9480000D01*
X14763750Y-9540000D01*
X14763750Y-13350000D02*
X14823750Y-13290000D01*
X14763750Y-13230000D01*
X14703750Y-13290000D01*
X14763750Y-13350000D01*
X15214000Y-7425000D02*
X15274000Y-7365000D01*
X15214000Y-7305000D01*
X15154000Y-7365000D01*
X15214000Y-7425000D01*
X15216250Y-11235000D02*
X15276250Y-11175000D01*
X15216250Y-11115000D01*
X15156250Y-11175000D01*
X15216250Y-11235000D01*
X15714000Y-7635000D02*
X15774000Y-7575000D01*
X15714000Y-7515000D01*
X15654000Y-7575000D01*
X15714000Y-7635000D01*
X15716250Y-11445000D02*
X15776250Y-11385000D01*
X15716250Y-11325000D01*
X15656250Y-11385000D01*
X15716250Y-11445000D01*
X16166440Y-9330000D02*
X16226440Y-9270000D01*
X16166440Y-9210000D01*
X16106440Y-9270000D01*
X16166440Y-9330000D01*
X16168750Y-13140000D02*
X16228750Y-13080000D01*
X16168750Y-13020000D01*
X16108750Y-13080000D01*
X16168750Y-13140000D01*
X16645000Y-15045000D02*
X16705000Y-14985000D01*
X16645000Y-14925000D01*
X16585000Y-14985000D01*
X16645000Y-15045000D01*
X16666440Y-9540000D02*
X16726440Y-9480000D01*
X16666440Y-9420000D01*
X16606440Y-9480000D01*
X16666440Y-9540000D01*
X16668750Y-13350000D02*
X16728750Y-13290000D01*
X16668750Y-13230000D01*
X16608750Y-13290000D01*
X16668750Y-13350000D01*
X17118880Y-7425000D02*
X17178880Y-7365000D01*
X17118880Y-7305000D01*
X17058880Y-7365000D01*
X17118880Y-7425000D01*
X17121250Y-11235000D02*
X17181250Y-11175000D01*
X17121250Y-11115000D01*
X17061250Y-11175000D01*
X17121250Y-11235000D01*
X17145000Y-15255000D02*
X17205000Y-15195000D01*
X17145000Y-15135000D01*
X17085000Y-15195000D01*
X17145000Y-15255000D01*
X17618880Y-7635000D02*
X17678880Y-7575000D01*
X17618880Y-7515000D01*
X17558880Y-7575000D01*
X17618880Y-7635000D01*
X17621250Y-11445000D02*
X17681250Y-11385000D01*
X17621250Y-11325000D01*
X17561250Y-11385000D01*
X17621250Y-11445000D01*
X18071320Y-9330000D02*
X18131320Y-9270000D01*
X18071320Y-9210000D01*
X18011320Y-9270000D01*
X18071320Y-9330000D01*
X18073750Y-13140000D02*
X18133750Y-13080000D01*
X18073750Y-13020000D01*
X18013750Y-13080000D01*
X18073750Y-13140000D01*
X18571320Y-9540000D02*
X18631320Y-9480000D01*
X18571320Y-9420000D01*
X18511320Y-9480000D01*
X18571320Y-9540000D01*
X18573750Y-13350000D02*
X18633750Y-13290000D01*
X18573750Y-13230000D01*
X18513750Y-13290000D01*
X18573750Y-13350000D01*
X19023760Y-7425000D02*
X19083760Y-7365000D01*
X19023760Y-7305000D01*
X18963760Y-7365000D01*
X19023760Y-7425000D01*
X19026250Y-11235000D02*
X19086250Y-11175000D01*
X19026250Y-11115000D01*
X18966250Y-11175000D01*
X19026250Y-11235000D01*
X19523760Y-7635000D02*
X19583760Y-7575000D01*
X19523760Y-7515000D01*
X19463760Y-7575000D01*
X19523760Y-7635000D01*
X19526250Y-11445000D02*
X19586250Y-11385000D01*
X19526250Y-11325000D01*
X19466250Y-11385000D01*
X19526250Y-11445000D01*
X19978750Y-9330000D02*
X20038750Y-9270000D01*
X19978750Y-9210000D01*
X19918750Y-9270000D01*
X19978750Y-9330000D01*
X19978750Y-13140000D02*
X20038750Y-13080000D01*
X19978750Y-13020000D01*
X19918750Y-13080000D01*
X19978750Y-13140000D01*
X20478750Y-9540000D02*
X20538750Y-9480000D01*
X20478750Y-9420000D01*
X20418750Y-9480000D01*
X20478750Y-9540000D01*
X20478750Y-13350000D02*
X20538750Y-13290000D01*
X20478750Y-13230000D01*
X20418750Y-13290000D01*
X20478750Y-13350000D01*
X20928640Y-7425000D02*
X20988640Y-7365000D01*
X20928640Y-7305000D01*
X20868640Y-7365000D01*
X20928640Y-7425000D01*
X20931250Y-11235000D02*
X20991250Y-11175000D01*
X20931250Y-11115000D01*
X20871250Y-11175000D01*
X20931250Y-11235000D01*
X20931250Y-15045000D02*
X20991250Y-14985000D01*
X20931250Y-14925000D01*
X20871250Y-14985000D01*
X20931250Y-15045000D01*
X21428640Y-7635000D02*
X21488640Y-7575000D01*
X21428640Y-7515000D01*
X21368640Y-7575000D01*
X21428640Y-7635000D01*
X21431250Y-11445000D02*
X21491250Y-11385000D01*
X21431250Y-11325000D01*
X21371250Y-11385000D01*
X21431250Y-11445000D01*
X21431250Y-15255000D02*
X21491250Y-15195000D01*
X21431250Y-15135000D01*
X21371250Y-15195000D01*
X21431250Y-15255000D01*
X21883750Y-9330000D02*
X21943750Y-9270000D01*
X21883750Y-9210000D01*
X21823750Y-9270000D01*
X21883750Y-9330000D01*
X21883750Y-13140000D02*
X21943750Y-13080000D01*
X21883750Y-13020000D01*
X21823750Y-13080000D01*
X21883750Y-13140000D01*
X22383750Y-9540000D02*
X22443750Y-9480000D01*
X22383750Y-9420000D01*
X22323750Y-9480000D01*
X22383750Y-9540000D01*
X22383750Y-13350000D02*
X22443750Y-13290000D01*
X22383750Y-13230000D01*
X22323750Y-13290000D01*
X22383750Y-13350000D01*
X22833520Y-7425000D02*
X22893520Y-7365000D01*
X22833520Y-7305000D01*
X22773520Y-7365000D01*
X22833520Y-7425000D01*
X22836250Y-11235000D02*
X22896250Y-11175000D01*
X22836250Y-11115000D01*
X22776250Y-11175000D01*
X22836250Y-11235000D01*
X23333520Y-7635000D02*
X23393520Y-7575000D01*
X23333520Y-7515000D01*
X23273520Y-7575000D01*
X23333520Y-7635000D01*
X23336250Y-11445000D02*
X23396250Y-11385000D01*
X23336250Y-11325000D01*
X23276250Y-11385000D01*
X23336250Y-11445000D01*
X23788750Y-9330000D02*
X23848750Y-9270000D01*
X23788750Y-9210000D01*
X23728750Y-9270000D01*
X23788750Y-9330000D01*
X23788750Y-13140000D02*
X23848750Y-13080000D01*
X23788750Y-13020000D01*
X23728750Y-13080000D01*
X23788750Y-13140000D01*
X23788750Y-15045000D02*
X23848750Y-14985000D01*
X23788750Y-14925000D01*
X23728750Y-14985000D01*
X23788750Y-15045000D01*
X24288750Y-9540000D02*
X24348750Y-9480000D01*
X24288750Y-9420000D01*
X24228750Y-9480000D01*
X24288750Y-9540000D01*
X24288750Y-13350000D02*
X24348750Y-13290000D01*
X24288750Y-13230000D01*
X24228750Y-13290000D01*
X24288750Y-13350000D01*
X24288750Y-15255000D02*
X24348750Y-15195000D01*
X24288750Y-15135000D01*
X24228750Y-15195000D01*
X24288750Y-15255000D01*
X24738400Y-7425000D02*
X24798400Y-7365000D01*
X24738400Y-7305000D01*
X24678400Y-7365000D01*
X24738400Y-7425000D01*
X24741250Y-11235000D02*
X24801250Y-11175000D01*
X24741250Y-11115000D01*
X24681250Y-11175000D01*
X24741250Y-11235000D01*
X25238400Y-7635000D02*
X25298400Y-7575000D01*
X25238400Y-7515000D01*
X25178400Y-7575000D01*
X25238400Y-7635000D01*
X25241250Y-11445000D02*
X25301250Y-11385000D01*
X25241250Y-11325000D01*
X25181250Y-11385000D01*
X25241250Y-11445000D01*
X25693750Y-9330000D02*
X25753750Y-9270000D01*
X25693750Y-9210000D01*
X25633750Y-9270000D01*
X25693750Y-9330000D01*
X25693750Y-13140000D02*
X25753750Y-13080000D01*
X25693750Y-13020000D01*
X25633750Y-13080000D01*
X25693750Y-13140000D01*
X25693750Y-15045000D02*
X25753750Y-14985000D01*
X25693750Y-14925000D01*
X25633750Y-14985000D01*
X25693750Y-15045000D01*
X26193750Y-9540000D02*
X26253750Y-9480000D01*
X26193750Y-9420000D01*
X26133750Y-9480000D01*
X26193750Y-9540000D01*
X26193750Y-13350000D02*
X26253750Y-13290000D01*
X26193750Y-13230000D01*
X26133750Y-13290000D01*
X26193750Y-13350000D01*
X26193750Y-15255000D02*
X26253750Y-15195000D01*
X26193750Y-15135000D01*
X26133750Y-15195000D01*
X26193750Y-15255000D01*
X26643280Y-7425000D02*
X26703280Y-7365000D01*
X26643280Y-7305000D01*
X26583280Y-7365000D01*
X26643280Y-7425000D01*
X26646250Y-11235000D02*
X26706250Y-11175000D01*
X26646250Y-11115000D01*
X26586250Y-11175000D01*
X26646250Y-11235000D01*
X27143280Y-7635000D02*
X27203280Y-7575000D01*
X27143280Y-7515000D01*
X27083280Y-7575000D01*
X27143280Y-7635000D01*
X27146250Y-11445000D02*
X27206250Y-11385000D01*
X27146250Y-11325000D01*
X27086250Y-11385000D01*
X27146250Y-11445000D01*
X27598750Y-9330000D02*
X27658750Y-9270000D01*
X27598750Y-9210000D01*
X27538750Y-9270000D01*
X27598750Y-9330000D01*
X28075000Y-13140000D02*
X28135000Y-13080000D01*
X28075000Y-13020000D01*
X28015000Y-13080000D01*
X28075000Y-13140000D01*
X28098750Y-9540000D02*
X28158750Y-9480000D01*
X28098750Y-9420000D01*
X28038750Y-9480000D01*
X28098750Y-9540000D01*
X28548160Y-15045000D02*
X28608160Y-14985000D01*
X28548160Y-14925000D01*
X28488160Y-14985000D01*
X28548160Y-15045000D01*
X28575000Y-13350000D02*
X28635000Y-13290000D01*
X28575000Y-13230000D01*
X28515000Y-13290000D01*
X28575000Y-13350000D01*
X29048160Y-15255000D02*
X29108160Y-15195000D01*
X29048160Y-15135000D01*
X28988160Y-15195000D01*
X29048160Y-15255000D01*
X29500600Y-7425000D02*
X29560600Y-7365000D01*
X29500600Y-7305000D01*
X29440600Y-7365000D01*
X29500600Y-7425000D01*
X29503750Y-11235000D02*
X29563750Y-11175000D01*
X29503750Y-11115000D01*
X29443750Y-11175000D01*
X29503750Y-11235000D01*
X29982410Y-9330000D02*
X30042410Y-9270000D01*
X29982410Y-9210000D01*
X29922410Y-9270000D01*
X29982410Y-9330000D01*
X30000600Y-7635000D02*
X30060600Y-7575000D01*
X30000600Y-7515000D01*
X29940600Y-7575000D01*
X30000600Y-7635000D01*
X30003750Y-11445000D02*
X30063750Y-11385000D01*
X30003750Y-11325000D01*
X29943750Y-11385000D01*
X30003750Y-11445000D01*
X30456250Y-13140000D02*
X30516250Y-13080000D01*
X30456250Y-13020000D01*
X30396250Y-13080000D01*
X30456250Y-13140000D01*
X30456250Y-15045000D02*
X30516250Y-14985000D01*
X30456250Y-14925000D01*
X30396250Y-14985000D01*
X30456250Y-15045000D01*
X30482410Y-9540000D02*
X30542410Y-9480000D01*
X30482410Y-9420000D01*
X30422410Y-9480000D01*
X30482410Y-9540000D01*
X30956250Y-13350000D02*
X31016250Y-13290000D01*
X30956250Y-13230000D01*
X30896250Y-13290000D01*
X30956250Y-13350000D01*
X30956250Y-15255000D02*
X31016250Y-15195000D01*
X30956250Y-15135000D01*
X30896250Y-15195000D01*
X30956250Y-15255000D01*
X32361250Y-15045000D02*
X32421250Y-14985000D01*
X32361250Y-14925000D01*
X32301250Y-14985000D01*
X32361250Y-15045000D01*
X32861250Y-15255000D02*
X32921250Y-15195000D01*
X32861250Y-15135000D01*
X32801250Y-15195000D01*
X32861250Y-15255000D01*
D13*
X3121428Y-16585714D02*
X3121428Y-16285714D01*
X3192857Y-16285714D01*
X3235714Y-16300000D01*
X3264286Y-16328571D01*
X3278571Y-16357143D01*
X3292857Y-16414286D01*
X3292857Y-16457143D01*
X3278571Y-16514286D01*
X3264286Y-16542857D01*
X3235714Y-16571429D01*
X3192857Y-16585714D01*
X3121428Y-16585714D01*
X3421428Y-16585714D02*
X3421428Y-16385714D01*
X3421428Y-16442857D02*
X3435714Y-16414286D01*
X3450000Y-16400000D01*
X3478571Y-16385714D01*
X3507143Y-16385714D01*
X3607143Y-16585714D02*
X3607143Y-16385714D01*
X3607143Y-16285714D02*
X3592857Y-16300000D01*
X3607143Y-16314286D01*
X3621428Y-16300000D01*
X3607143Y-16285714D01*
X3607143Y-16314286D01*
X3792857Y-16585714D02*
X3764286Y-16571429D01*
X3750000Y-16542857D01*
X3750000Y-16285714D01*
X3950000Y-16585714D02*
X3921428Y-16571429D01*
X3907143Y-16542857D01*
X3907143Y-16285714D01*
X4292857Y-16585714D02*
X4292857Y-16285714D01*
X4392857Y-16500000D01*
X4492857Y-16285714D01*
X4492857Y-16585714D01*
X4764286Y-16585714D02*
X4764286Y-16428571D01*
X4750000Y-16400000D01*
X4721428Y-16385714D01*
X4664286Y-16385714D01*
X4635714Y-16400000D01*
X4764286Y-16571429D02*
X4735714Y-16585714D01*
X4664286Y-16585714D01*
X4635714Y-16571429D01*
X4621428Y-16542857D01*
X4621428Y-16514286D01*
X4635714Y-16485714D01*
X4664286Y-16471429D01*
X4735714Y-16471429D01*
X4764286Y-16457143D01*
X4907143Y-16385714D02*
X4907143Y-16685714D01*
X4907143Y-16400000D02*
X4935714Y-16385714D01*
X4992857Y-16385714D01*
X5021428Y-16400000D01*
X5035714Y-16414286D01*
X5050000Y-16442857D01*
X5050000Y-16528571D01*
X5035714Y-16557143D01*
X5021428Y-16571429D01*
X4992857Y-16585714D01*
X4935714Y-16585714D01*
X4907143Y-16571429D01*
X5178571Y-16557143D02*
X5192857Y-16571429D01*
X5178571Y-16585714D01*
X5164286Y-16571429D01*
X5178571Y-16557143D01*
X5178571Y-16585714D01*
X5178571Y-16400000D02*
X5192857Y-16414286D01*
X5178571Y-16428571D01*
X5164286Y-16414286D01*
X5178571Y-16400000D01*
X5178571Y-16428571D01*
X2795000Y-17060000D02*
X2835000Y-17100000D01*
X2835000Y-17060000D02*
X2795000Y-17100000D01*
X3178571Y-16915714D02*
X3207143Y-16915714D01*
X3235714Y-16930000D01*
X3250000Y-16944286D01*
X3264286Y-16972857D01*
X3278571Y-17030000D01*
X3278571Y-17101429D01*
X3264286Y-17158572D01*
X3250000Y-17187143D01*
X3235714Y-17201429D01*
X3207143Y-17215714D01*
X3178571Y-17215714D01*
X3150000Y-17201429D01*
X3135714Y-17187143D01*
X3121428Y-17158572D01*
X3107143Y-17101429D01*
X3107143Y-17030000D01*
X3121428Y-16972857D01*
X3135714Y-16944286D01*
X3150000Y-16930000D01*
X3178571Y-16915714D01*
X3407143Y-17187143D02*
X3421428Y-17201429D01*
X3407143Y-17215714D01*
X3392857Y-17201429D01*
X3407143Y-17187143D01*
X3407143Y-17215714D01*
X3678571Y-17015714D02*
X3678571Y-17215714D01*
X3607143Y-16901429D02*
X3535714Y-17115714D01*
X3721428Y-17115714D01*
X3892857Y-16915714D02*
X3921428Y-16915714D01*
X3950000Y-16930000D01*
X3964286Y-16944286D01*
X3978571Y-16972857D01*
X3992857Y-17030000D01*
X3992857Y-17101429D01*
X3978571Y-17158572D01*
X3964286Y-17187143D01*
X3950000Y-17201429D01*
X3921428Y-17215714D01*
X3892857Y-17215714D01*
X3864286Y-17201429D01*
X3850000Y-17187143D01*
X3835714Y-17158572D01*
X3821428Y-17101429D01*
X3821428Y-17030000D01*
X3835714Y-16972857D01*
X3850000Y-16944286D01*
X3864286Y-16930000D01*
X3892857Y-16915714D01*
X4178571Y-16915714D02*
X4207143Y-16915714D01*
X4235714Y-16930000D01*
X4250000Y-16944286D01*
X4264286Y-16972857D01*
X4278571Y-17030000D01*
X4278571Y-17101429D01*
X4264286Y-17158572D01*
X4250000Y-17187143D01*
X4235714Y-17201429D01*
X4207143Y-17215714D01*
X4178571Y-17215714D01*
X4150000Y-17201429D01*
X4135714Y-17187143D01*
X4121428Y-17158572D01*
X4107143Y-17101429D01*
X4107143Y-17030000D01*
X4121428Y-16972857D01*
X4135714Y-16944286D01*
X4150000Y-16930000D01*
X4178571Y-16915714D01*
X4407143Y-17215714D02*
X4407143Y-17015714D01*
X4407143Y-17044286D02*
X4421428Y-17030000D01*
X4450000Y-17015714D01*
X4492857Y-17015714D01*
X4521428Y-17030000D01*
X4535714Y-17058572D01*
X4535714Y-17215714D01*
X4535714Y-17058572D02*
X4550000Y-17030000D01*
X4578571Y-17015714D01*
X4621428Y-17015714D01*
X4650000Y-17030000D01*
X4664286Y-17058572D01*
X4664286Y-17215714D01*
X4807143Y-17215714D02*
X4807143Y-17015714D01*
X4807143Y-17044286D02*
X4821428Y-17030000D01*
X4850000Y-17015714D01*
X4892857Y-17015714D01*
X4921428Y-17030000D01*
X4935714Y-17058572D01*
X4935714Y-17215714D01*
X4935714Y-17058572D02*
X4950000Y-17030000D01*
X4978571Y-17015714D01*
X5021428Y-17015714D01*
X5050000Y-17030000D01*
X5064286Y-17058572D01*
X5064286Y-17215714D01*
X5650000Y-16901429D02*
X5392857Y-17287143D01*
X6035714Y-16915714D02*
X6064286Y-16915714D01*
X6092857Y-16930000D01*
X6107143Y-16944286D01*
X6121428Y-16972857D01*
X6135714Y-17030000D01*
X6135714Y-17101429D01*
X6121428Y-17158572D01*
X6107143Y-17187143D01*
X6092857Y-17201429D01*
X6064286Y-17215714D01*
X6035714Y-17215714D01*
X6007143Y-17201429D01*
X5992857Y-17187143D01*
X5978571Y-17158572D01*
X5964286Y-17101429D01*
X5964286Y-17030000D01*
X5978571Y-16972857D01*
X5992857Y-16944286D01*
X6007143Y-16930000D01*
X6035714Y-16915714D01*
X6264286Y-17187143D02*
X6278571Y-17201429D01*
X6264286Y-17215714D01*
X6250000Y-17201429D01*
X6264286Y-17187143D01*
X6264286Y-17215714D01*
X6464286Y-16915714D02*
X6492857Y-16915714D01*
X6521428Y-16930000D01*
X6535714Y-16944286D01*
X6550000Y-16972857D01*
X6564286Y-17030000D01*
X6564286Y-17101429D01*
X6550000Y-17158572D01*
X6535714Y-17187143D01*
X6521428Y-17201429D01*
X6492857Y-17215714D01*
X6464286Y-17215714D01*
X6435714Y-17201429D01*
X6421428Y-17187143D01*
X6407143Y-17158572D01*
X6392857Y-17101429D01*
X6392857Y-17030000D01*
X6407143Y-16972857D01*
X6421428Y-16944286D01*
X6435714Y-16930000D01*
X6464286Y-16915714D01*
X6850000Y-17215714D02*
X6678571Y-17215714D01*
X6764286Y-17215714D02*
X6764286Y-16915714D01*
X6735714Y-16958572D01*
X6707143Y-16987143D01*
X6678571Y-17001429D01*
X7121428Y-16915714D02*
X6978571Y-16915714D01*
X6964286Y-17058572D01*
X6978571Y-17044286D01*
X7007143Y-17030000D01*
X7078571Y-17030000D01*
X7107143Y-17044286D01*
X7121428Y-17058572D01*
X7135714Y-17087143D01*
X7135714Y-17158572D01*
X7121428Y-17187143D01*
X7107143Y-17201429D01*
X7078571Y-17215714D01*
X7007143Y-17215714D01*
X6978571Y-17201429D01*
X6964286Y-17187143D01*
X7235714Y-16915714D02*
X7435714Y-16915714D01*
X7307143Y-17215714D01*
X7535714Y-16915714D02*
X7535714Y-16972857D01*
X7650000Y-16915714D02*
X7650000Y-16972857D01*
X8092857Y-17330000D02*
X8078571Y-17315714D01*
X8050000Y-17272857D01*
X8035714Y-17244286D01*
X8021428Y-17201429D01*
X8007143Y-17130000D01*
X8007143Y-17072857D01*
X8021428Y-17001429D01*
X8035714Y-16958572D01*
X8050000Y-16930000D01*
X8078571Y-16887143D01*
X8092857Y-16872857D01*
X8364286Y-17215714D02*
X8192857Y-17215714D01*
X8278571Y-17215714D02*
X8278571Y-16915714D01*
X8250000Y-16958572D01*
X8221428Y-16987143D01*
X8192857Y-17001429D01*
X8650000Y-17215714D02*
X8478571Y-17215714D01*
X8564286Y-17215714D02*
X8564286Y-16915714D01*
X8535714Y-16958572D01*
X8507143Y-16987143D01*
X8478571Y-17001429D01*
X9007143Y-17215714D02*
X9007143Y-16915714D01*
X9135714Y-17215714D02*
X9135714Y-17058572D01*
X9121428Y-17030000D01*
X9092857Y-17015714D01*
X9050000Y-17015714D01*
X9021428Y-17030000D01*
X9007143Y-17044286D01*
X9321428Y-17215714D02*
X9292857Y-17201429D01*
X9278571Y-17187143D01*
X9264286Y-17158572D01*
X9264286Y-17072857D01*
X9278571Y-17044286D01*
X9292857Y-17030000D01*
X9321428Y-17015714D01*
X9364286Y-17015714D01*
X9392857Y-17030000D01*
X9407143Y-17044286D01*
X9421428Y-17072857D01*
X9421428Y-17158572D01*
X9407143Y-17187143D01*
X9392857Y-17201429D01*
X9364286Y-17215714D01*
X9321428Y-17215714D01*
X9592857Y-17215714D02*
X9564286Y-17201429D01*
X9550000Y-17172857D01*
X9550000Y-16915714D01*
X9821428Y-17201429D02*
X9792857Y-17215714D01*
X9735714Y-17215714D01*
X9707143Y-17201429D01*
X9692857Y-17172857D01*
X9692857Y-17058572D01*
X9707143Y-17030000D01*
X9735714Y-17015714D01*
X9792857Y-17015714D01*
X9821428Y-17030000D01*
X9835714Y-17058572D01*
X9835714Y-17087143D01*
X9692857Y-17115714D01*
X9950000Y-17201429D02*
X9978571Y-17215714D01*
X10035714Y-17215714D01*
X10064286Y-17201429D01*
X10078571Y-17172857D01*
X10078571Y-17158572D01*
X10064286Y-17130000D01*
X10035714Y-17115714D01*
X9992857Y-17115714D01*
X9964286Y-17101429D01*
X9950000Y-17072857D01*
X9950000Y-17058572D01*
X9964286Y-17030000D01*
X9992857Y-17015714D01*
X10035714Y-17015714D01*
X10064286Y-17030000D01*
X10178571Y-17330000D02*
X10192857Y-17315714D01*
X10221428Y-17272857D01*
X10235714Y-17244286D01*
X10250000Y-17201429D01*
X10264286Y-17130000D01*
X10264286Y-17072857D01*
X10250000Y-17001429D01*
X10235714Y-16958572D01*
X10221428Y-16930000D01*
X10192857Y-16887143D01*
X10178571Y-16872857D01*
X2835000Y-17476000D02*
G75*
G03*
X2835000Y-17476000I-37500J0D01*
G01*
X3178571Y-17311714D02*
X3207143Y-17311714D01*
X3235714Y-17326000D01*
X3250000Y-17340286D01*
X3264286Y-17368857D01*
X3278571Y-17426000D01*
X3278571Y-17497429D01*
X3264286Y-17554572D01*
X3250000Y-17583143D01*
X3235714Y-17597429D01*
X3207143Y-17611714D01*
X3178571Y-17611714D01*
X3150000Y-17597429D01*
X3135714Y-17583143D01*
X3121428Y-17554572D01*
X3107143Y-17497429D01*
X3107143Y-17426000D01*
X3121428Y-17368857D01*
X3135714Y-17340286D01*
X3150000Y-17326000D01*
X3178571Y-17311714D01*
X3407143Y-17583143D02*
X3421428Y-17597429D01*
X3407143Y-17611714D01*
X3392857Y-17597429D01*
X3407143Y-17583143D01*
X3407143Y-17611714D01*
X3521428Y-17311714D02*
X3721428Y-17311714D01*
X3592857Y-17611714D01*
X3978571Y-17311714D02*
X3835714Y-17311714D01*
X3821428Y-17454572D01*
X3835714Y-17440286D01*
X3864286Y-17426000D01*
X3935714Y-17426000D01*
X3964286Y-17440286D01*
X3978571Y-17454572D01*
X3992857Y-17483143D01*
X3992857Y-17554572D01*
X3978571Y-17583143D01*
X3964286Y-17597429D01*
X3935714Y-17611714D01*
X3864286Y-17611714D01*
X3835714Y-17597429D01*
X3821428Y-17583143D01*
X4178571Y-17311714D02*
X4207143Y-17311714D01*
X4235714Y-17326000D01*
X4250000Y-17340286D01*
X4264286Y-17368857D01*
X4278571Y-17426000D01*
X4278571Y-17497429D01*
X4264286Y-17554572D01*
X4250000Y-17583143D01*
X4235714Y-17597429D01*
X4207143Y-17611714D01*
X4178571Y-17611714D01*
X4150000Y-17597429D01*
X4135714Y-17583143D01*
X4121428Y-17554572D01*
X4107143Y-17497429D01*
X4107143Y-17426000D01*
X4121428Y-17368857D01*
X4135714Y-17340286D01*
X4150000Y-17326000D01*
X4178571Y-17311714D01*
X4407143Y-17611714D02*
X4407143Y-17411714D01*
X4407143Y-17440286D02*
X4421428Y-17426000D01*
X4450000Y-17411714D01*
X4492857Y-17411714D01*
X4521428Y-17426000D01*
X4535714Y-17454572D01*
X4535714Y-17611714D01*
X4535714Y-17454572D02*
X4550000Y-17426000D01*
X4578571Y-17411714D01*
X4621428Y-17411714D01*
X4650000Y-17426000D01*
X4664286Y-17454572D01*
X4664286Y-17611714D01*
X4807143Y-17611714D02*
X4807143Y-17411714D01*
X4807143Y-17440286D02*
X4821428Y-17426000D01*
X4850000Y-17411714D01*
X4892857Y-17411714D01*
X4921428Y-17426000D01*
X4935714Y-17454572D01*
X4935714Y-17611714D01*
X4935714Y-17454572D02*
X4950000Y-17426000D01*
X4978571Y-17411714D01*
X5021428Y-17411714D01*
X5050000Y-17426000D01*
X5064286Y-17454572D01*
X5064286Y-17611714D01*
X5650000Y-17297429D02*
X5392857Y-17683143D01*
X6035714Y-17311714D02*
X6064286Y-17311714D01*
X6092857Y-17326000D01*
X6107143Y-17340286D01*
X6121428Y-17368857D01*
X6135714Y-17426000D01*
X6135714Y-17497429D01*
X6121428Y-17554572D01*
X6107143Y-17583143D01*
X6092857Y-17597429D01*
X6064286Y-17611714D01*
X6035714Y-17611714D01*
X6007143Y-17597429D01*
X5992857Y-17583143D01*
X5978571Y-17554572D01*
X5964286Y-17497429D01*
X5964286Y-17426000D01*
X5978571Y-17368857D01*
X5992857Y-17340286D01*
X6007143Y-17326000D01*
X6035714Y-17311714D01*
X6264286Y-17583143D02*
X6278571Y-17597429D01*
X6264286Y-17611714D01*
X6250000Y-17597429D01*
X6264286Y-17583143D01*
X6264286Y-17611714D01*
X6464286Y-17311714D02*
X6492857Y-17311714D01*
X6521428Y-17326000D01*
X6535714Y-17340286D01*
X6550000Y-17368857D01*
X6564286Y-17426000D01*
X6564286Y-17497429D01*
X6550000Y-17554572D01*
X6535714Y-17583143D01*
X6521428Y-17597429D01*
X6492857Y-17611714D01*
X6464286Y-17611714D01*
X6435714Y-17597429D01*
X6421428Y-17583143D01*
X6407143Y-17554572D01*
X6392857Y-17497429D01*
X6392857Y-17426000D01*
X6407143Y-17368857D01*
X6421428Y-17340286D01*
X6435714Y-17326000D01*
X6464286Y-17311714D01*
X6678571Y-17340286D02*
X6692857Y-17326000D01*
X6721428Y-17311714D01*
X6792857Y-17311714D01*
X6821428Y-17326000D01*
X6835714Y-17340286D01*
X6850000Y-17368857D01*
X6850000Y-17397429D01*
X6835714Y-17440286D01*
X6664286Y-17611714D01*
X6850000Y-17611714D01*
X6992857Y-17611714D02*
X7050000Y-17611714D01*
X7078571Y-17597429D01*
X7092857Y-17583143D01*
X7121428Y-17540286D01*
X7135714Y-17483143D01*
X7135714Y-17368857D01*
X7121428Y-17340286D01*
X7107143Y-17326000D01*
X7078571Y-17311714D01*
X7021428Y-17311714D01*
X6992857Y-17326000D01*
X6978571Y-17340286D01*
X6964286Y-17368857D01*
X6964286Y-17440286D01*
X6978571Y-17468857D01*
X6992857Y-17483143D01*
X7021428Y-17497429D01*
X7078571Y-17497429D01*
X7107143Y-17483143D01*
X7121428Y-17468857D01*
X7135714Y-17440286D01*
X7407143Y-17311714D02*
X7264286Y-17311714D01*
X7250000Y-17454572D01*
X7264286Y-17440286D01*
X7292857Y-17426000D01*
X7364286Y-17426000D01*
X7392857Y-17440286D01*
X7407143Y-17454572D01*
X7421428Y-17483143D01*
X7421428Y-17554572D01*
X7407143Y-17583143D01*
X7392857Y-17597429D01*
X7364286Y-17611714D01*
X7292857Y-17611714D01*
X7264286Y-17597429D01*
X7250000Y-17583143D01*
X7535714Y-17311714D02*
X7535714Y-17368857D01*
X7650000Y-17311714D02*
X7650000Y-17368857D01*
X8092857Y-17726000D02*
X8078571Y-17711714D01*
X8050000Y-17668857D01*
X8035714Y-17640286D01*
X8021428Y-17597429D01*
X8007143Y-17526000D01*
X8007143Y-17468857D01*
X8021428Y-17397429D01*
X8035714Y-17354572D01*
X8050000Y-17326000D01*
X8078571Y-17283143D01*
X8092857Y-17268857D01*
X8178571Y-17311714D02*
X8364286Y-17311714D01*
X8264286Y-17426000D01*
X8307143Y-17426000D01*
X8335714Y-17440286D01*
X8350000Y-17454572D01*
X8364286Y-17483143D01*
X8364286Y-17554572D01*
X8350000Y-17583143D01*
X8335714Y-17597429D01*
X8307143Y-17611714D01*
X8221428Y-17611714D01*
X8192857Y-17597429D01*
X8178571Y-17583143D01*
X8721428Y-17611714D02*
X8721428Y-17311714D01*
X8850000Y-17611714D02*
X8850000Y-17454572D01*
X8835714Y-17426000D01*
X8807143Y-17411714D01*
X8764286Y-17411714D01*
X8735714Y-17426000D01*
X8721428Y-17440286D01*
X9035714Y-17611714D02*
X9007143Y-17597429D01*
X8992857Y-17583143D01*
X8978571Y-17554572D01*
X8978571Y-17468857D01*
X8992857Y-17440286D01*
X9007143Y-17426000D01*
X9035714Y-17411714D01*
X9078571Y-17411714D01*
X9107143Y-17426000D01*
X9121428Y-17440286D01*
X9135714Y-17468857D01*
X9135714Y-17554572D01*
X9121428Y-17583143D01*
X9107143Y-17597429D01*
X9078571Y-17611714D01*
X9035714Y-17611714D01*
X9307143Y-17611714D02*
X9278571Y-17597429D01*
X9264286Y-17568857D01*
X9264286Y-17311714D01*
X9535714Y-17597429D02*
X9507143Y-17611714D01*
X9450000Y-17611714D01*
X9421428Y-17597429D01*
X9407143Y-17568857D01*
X9407143Y-17454572D01*
X9421428Y-17426000D01*
X9450000Y-17411714D01*
X9507143Y-17411714D01*
X9535714Y-17426000D01*
X9550000Y-17454572D01*
X9550000Y-17483143D01*
X9407143Y-17511714D01*
X9664286Y-17597429D02*
X9692857Y-17611714D01*
X9750000Y-17611714D01*
X9778571Y-17597429D01*
X9792857Y-17568857D01*
X9792857Y-17554572D01*
X9778571Y-17526000D01*
X9750000Y-17511714D01*
X9707143Y-17511714D01*
X9678571Y-17497429D01*
X9664286Y-17468857D01*
X9664286Y-17454572D01*
X9678571Y-17426000D01*
X9707143Y-17411714D01*
X9750000Y-17411714D01*
X9778571Y-17426000D01*
X9892857Y-17726000D02*
X9907143Y-17711714D01*
X9935714Y-17668857D01*
X9950000Y-17640286D01*
X9964286Y-17597429D01*
X9978571Y-17526000D01*
X9978571Y-17468857D01*
X9964286Y-17397429D01*
X9950000Y-17354572D01*
X9935714Y-17326000D01*
X9907143Y-17283143D01*
X9892857Y-17268857D01*
X2785000Y-17822000D02*
X2785000Y-17922000D01*
X2735000Y-17872000D02*
X2835000Y-17872000D01*
X3278571Y-18007714D02*
X3107143Y-18007714D01*
X3192857Y-18007714D02*
X3192857Y-17707714D01*
X3164286Y-17750572D01*
X3135714Y-17779143D01*
X3107143Y-17793429D01*
X3407143Y-17979143D02*
X3421428Y-17993429D01*
X3407143Y-18007714D01*
X3392857Y-17993429D01*
X3407143Y-17979143D01*
X3407143Y-18007714D01*
X3607143Y-17707714D02*
X3635714Y-17707714D01*
X3664286Y-17722000D01*
X3678571Y-17736286D01*
X3692857Y-17764857D01*
X3707143Y-17822000D01*
X3707143Y-17893429D01*
X3692857Y-17950572D01*
X3678571Y-17979143D01*
X3664286Y-17993429D01*
X3635714Y-18007714D01*
X3607143Y-18007714D01*
X3578571Y-17993429D01*
X3564286Y-17979143D01*
X3550000Y-17950572D01*
X3535714Y-17893429D01*
X3535714Y-17822000D01*
X3550000Y-17764857D01*
X3564286Y-17736286D01*
X3578571Y-17722000D01*
X3607143Y-17707714D01*
X3892857Y-17707714D02*
X3921428Y-17707714D01*
X3950000Y-17722000D01*
X3964286Y-17736286D01*
X3978571Y-17764857D01*
X3992857Y-17822000D01*
X3992857Y-17893429D01*
X3978571Y-17950572D01*
X3964286Y-17979143D01*
X3950000Y-17993429D01*
X3921428Y-18007714D01*
X3892857Y-18007714D01*
X3864286Y-17993429D01*
X3850000Y-17979143D01*
X3835714Y-17950572D01*
X3821428Y-17893429D01*
X3821428Y-17822000D01*
X3835714Y-17764857D01*
X3850000Y-17736286D01*
X3864286Y-17722000D01*
X3892857Y-17707714D01*
X4178571Y-17707714D02*
X4207143Y-17707714D01*
X4235714Y-17722000D01*
X4250000Y-17736286D01*
X4264286Y-17764857D01*
X4278571Y-17822000D01*
X4278571Y-17893429D01*
X4264286Y-17950572D01*
X4250000Y-17979143D01*
X4235714Y-17993429D01*
X4207143Y-18007714D01*
X4178571Y-18007714D01*
X4150000Y-17993429D01*
X4135714Y-17979143D01*
X4121428Y-17950572D01*
X4107143Y-17893429D01*
X4107143Y-17822000D01*
X4121428Y-17764857D01*
X4135714Y-17736286D01*
X4150000Y-17722000D01*
X4178571Y-17707714D01*
X4407143Y-18007714D02*
X4407143Y-17807714D01*
X4407143Y-17836286D02*
X4421428Y-17822000D01*
X4450000Y-17807714D01*
X4492857Y-17807714D01*
X4521428Y-17822000D01*
X4535714Y-17850572D01*
X4535714Y-18007714D01*
X4535714Y-17850572D02*
X4550000Y-17822000D01*
X4578571Y-17807714D01*
X4621428Y-17807714D01*
X4650000Y-17822000D01*
X4664286Y-17850572D01*
X4664286Y-18007714D01*
X4807143Y-18007714D02*
X4807143Y-17807714D01*
X4807143Y-17836286D02*
X4821428Y-17822000D01*
X4850000Y-17807714D01*
X4892857Y-17807714D01*
X4921428Y-17822000D01*
X4935714Y-17850572D01*
X4935714Y-18007714D01*
X4935714Y-17850572D02*
X4950000Y-17822000D01*
X4978571Y-17807714D01*
X5021428Y-17807714D01*
X5050000Y-17822000D01*
X5064286Y-17850572D01*
X5064286Y-18007714D01*
X5650000Y-17693429D02*
X5392857Y-18079143D01*
X6035714Y-17707714D02*
X6064286Y-17707714D01*
X6092857Y-17722000D01*
X6107143Y-17736286D01*
X6121428Y-17764857D01*
X6135714Y-17822000D01*
X6135714Y-17893429D01*
X6121428Y-17950572D01*
X6107143Y-17979143D01*
X6092857Y-17993429D01*
X6064286Y-18007714D01*
X6035714Y-18007714D01*
X6007143Y-17993429D01*
X5992857Y-17979143D01*
X5978571Y-17950572D01*
X5964286Y-17893429D01*
X5964286Y-17822000D01*
X5978571Y-17764857D01*
X5992857Y-17736286D01*
X6007143Y-17722000D01*
X6035714Y-17707714D01*
X6264286Y-17979143D02*
X6278571Y-17993429D01*
X6264286Y-18007714D01*
X6250000Y-17993429D01*
X6264286Y-17979143D01*
X6264286Y-18007714D01*
X6464286Y-17707714D02*
X6492857Y-17707714D01*
X6521428Y-17722000D01*
X6535714Y-17736286D01*
X6550000Y-17764857D01*
X6564286Y-17822000D01*
X6564286Y-17893429D01*
X6550000Y-17950572D01*
X6535714Y-17979143D01*
X6521428Y-17993429D01*
X6492857Y-18007714D01*
X6464286Y-18007714D01*
X6435714Y-17993429D01*
X6421428Y-17979143D01*
X6407143Y-17950572D01*
X6392857Y-17893429D01*
X6392857Y-17822000D01*
X6407143Y-17764857D01*
X6421428Y-17736286D01*
X6435714Y-17722000D01*
X6464286Y-17707714D01*
X6664286Y-17707714D02*
X6850000Y-17707714D01*
X6750000Y-17822000D01*
X6792857Y-17822000D01*
X6821428Y-17836286D01*
X6835714Y-17850572D01*
X6850000Y-17879143D01*
X6850000Y-17950572D01*
X6835714Y-17979143D01*
X6821428Y-17993429D01*
X6792857Y-18007714D01*
X6707143Y-18007714D01*
X6678571Y-17993429D01*
X6664286Y-17979143D01*
X6992857Y-18007714D02*
X7050000Y-18007714D01*
X7078571Y-17993429D01*
X7092857Y-17979143D01*
X7121428Y-17936286D01*
X7135714Y-17879143D01*
X7135714Y-17764857D01*
X7121428Y-17736286D01*
X7107143Y-17722000D01*
X7078571Y-17707714D01*
X7021428Y-17707714D01*
X6992857Y-17722000D01*
X6978571Y-17736286D01*
X6964286Y-17764857D01*
X6964286Y-17836286D01*
X6978571Y-17864857D01*
X6992857Y-17879143D01*
X7021428Y-17893429D01*
X7078571Y-17893429D01*
X7107143Y-17879143D01*
X7121428Y-17864857D01*
X7135714Y-17836286D01*
X7392857Y-17807714D02*
X7392857Y-18007714D01*
X7321428Y-17693429D02*
X7250000Y-17907714D01*
X7435714Y-17907714D01*
X7535714Y-17707714D02*
X7535714Y-17764857D01*
X7650000Y-17707714D02*
X7650000Y-17764857D01*
X8092857Y-18122000D02*
X8078571Y-18107714D01*
X8050000Y-18064857D01*
X8035714Y-18036286D01*
X8021428Y-17993429D01*
X8007143Y-17922000D01*
X8007143Y-17864857D01*
X8021428Y-17793429D01*
X8035714Y-17750572D01*
X8050000Y-17722000D01*
X8078571Y-17679143D01*
X8092857Y-17664857D01*
X8364286Y-18007714D02*
X8192857Y-18007714D01*
X8278571Y-18007714D02*
X8278571Y-17707714D01*
X8250000Y-17750572D01*
X8221428Y-17779143D01*
X8192857Y-17793429D01*
X8464286Y-17707714D02*
X8650000Y-17707714D01*
X8550000Y-17822000D01*
X8592857Y-17822000D01*
X8621428Y-17836286D01*
X8635714Y-17850572D01*
X8650000Y-17879143D01*
X8650000Y-17950572D01*
X8635714Y-17979143D01*
X8621428Y-17993429D01*
X8592857Y-18007714D01*
X8507143Y-18007714D01*
X8478571Y-17993429D01*
X8464286Y-17979143D01*
X8764286Y-17736286D02*
X8778571Y-17722000D01*
X8807143Y-17707714D01*
X8878571Y-17707714D01*
X8907143Y-17722000D01*
X8921428Y-17736286D01*
X8935714Y-17764857D01*
X8935714Y-17793429D01*
X8921428Y-17836286D01*
X8750000Y-18007714D01*
X8935714Y-18007714D01*
X9292857Y-18007714D02*
X9292857Y-17707714D01*
X9421428Y-18007714D02*
X9421428Y-17850572D01*
X9407143Y-17822000D01*
X9378571Y-17807714D01*
X9335714Y-17807714D01*
X9307143Y-17822000D01*
X9292857Y-17836286D01*
X9607143Y-18007714D02*
X9578571Y-17993429D01*
X9564286Y-17979143D01*
X9550000Y-17950572D01*
X9550000Y-17864857D01*
X9564286Y-17836286D01*
X9578571Y-17822000D01*
X9607143Y-17807714D01*
X9650000Y-17807714D01*
X9678571Y-17822000D01*
X9692857Y-17836286D01*
X9707143Y-17864857D01*
X9707143Y-17950572D01*
X9692857Y-17979143D01*
X9678571Y-17993429D01*
X9650000Y-18007714D01*
X9607143Y-18007714D01*
X9878571Y-18007714D02*
X9850000Y-17993429D01*
X9835714Y-17964857D01*
X9835714Y-17707714D01*
X10107143Y-17993429D02*
X10078571Y-18007714D01*
X10021428Y-18007714D01*
X9992857Y-17993429D01*
X9978571Y-17964857D01*
X9978571Y-17850572D01*
X9992857Y-17822000D01*
X10021428Y-17807714D01*
X10078571Y-17807714D01*
X10107143Y-17822000D01*
X10121428Y-17850572D01*
X10121428Y-17879143D01*
X9978571Y-17907714D01*
X10235714Y-17993429D02*
X10264286Y-18007714D01*
X10321428Y-18007714D01*
X10350000Y-17993429D01*
X10364286Y-17964857D01*
X10364286Y-17950572D01*
X10350000Y-17922000D01*
X10321428Y-17907714D01*
X10278571Y-17907714D01*
X10250000Y-17893429D01*
X10235714Y-17864857D01*
X10235714Y-17850572D01*
X10250000Y-17822000D01*
X10278571Y-17807714D01*
X10321428Y-17807714D01*
X10350000Y-17822000D01*
X10464286Y-18122000D02*
X10478571Y-18107714D01*
X10507143Y-18064857D01*
X10521428Y-18036286D01*
X10535714Y-17993429D01*
X10550000Y-17922000D01*
X10550000Y-17864857D01*
X10535714Y-17793429D01*
X10521428Y-17750572D01*
X10507143Y-17722000D01*
X10478571Y-17679143D01*
X10464286Y-17664857D01*
X2819005Y-18306616D02*
X2819005Y-18229385D01*
X2741774Y-18229385D01*
X2741774Y-18306616D01*
X2819005Y-18306616D01*
X3278571Y-18403714D02*
X3107143Y-18403714D01*
X3192857Y-18403714D02*
X3192857Y-18103714D01*
X3164286Y-18146572D01*
X3135714Y-18175143D01*
X3107143Y-18189429D01*
X3407143Y-18375143D02*
X3421428Y-18389429D01*
X3407143Y-18403714D01*
X3392857Y-18389429D01*
X3407143Y-18375143D01*
X3407143Y-18403714D01*
X3607143Y-18103714D02*
X3635714Y-18103714D01*
X3664286Y-18118000D01*
X3678571Y-18132286D01*
X3692857Y-18160857D01*
X3707143Y-18218000D01*
X3707143Y-18289429D01*
X3692857Y-18346572D01*
X3678571Y-18375143D01*
X3664286Y-18389429D01*
X3635714Y-18403714D01*
X3607143Y-18403714D01*
X3578571Y-18389429D01*
X3564286Y-18375143D01*
X3550000Y-18346572D01*
X3535714Y-18289429D01*
X3535714Y-18218000D01*
X3550000Y-18160857D01*
X3564286Y-18132286D01*
X3578571Y-18118000D01*
X3607143Y-18103714D01*
X3850000Y-18403714D02*
X3907143Y-18403714D01*
X3935714Y-18389429D01*
X3950000Y-18375143D01*
X3978571Y-18332286D01*
X3992857Y-18275143D01*
X3992857Y-18160857D01*
X3978571Y-18132286D01*
X3964286Y-18118000D01*
X3935714Y-18103714D01*
X3878571Y-18103714D01*
X3850000Y-18118000D01*
X3835714Y-18132286D01*
X3821428Y-18160857D01*
X3821428Y-18232286D01*
X3835714Y-18260857D01*
X3850000Y-18275143D01*
X3878571Y-18289429D01*
X3935714Y-18289429D01*
X3964286Y-18275143D01*
X3978571Y-18260857D01*
X3992857Y-18232286D01*
X4107143Y-18132286D02*
X4121428Y-18118000D01*
X4150000Y-18103714D01*
X4221428Y-18103714D01*
X4250000Y-18118000D01*
X4264286Y-18132286D01*
X4278571Y-18160857D01*
X4278571Y-18189429D01*
X4264286Y-18232286D01*
X4092857Y-18403714D01*
X4278571Y-18403714D01*
X4407143Y-18403714D02*
X4407143Y-18203714D01*
X4407143Y-18232286D02*
X4421428Y-18218000D01*
X4450000Y-18203714D01*
X4492857Y-18203714D01*
X4521428Y-18218000D01*
X4535714Y-18246572D01*
X4535714Y-18403714D01*
X4535714Y-18246572D02*
X4550000Y-18218000D01*
X4578571Y-18203714D01*
X4621428Y-18203714D01*
X4650000Y-18218000D01*
X4664286Y-18246572D01*
X4664286Y-18403714D01*
X4807143Y-18403714D02*
X4807143Y-18203714D01*
X4807143Y-18232286D02*
X4821428Y-18218000D01*
X4850000Y-18203714D01*
X4892857Y-18203714D01*
X4921428Y-18218000D01*
X4935714Y-18246572D01*
X4935714Y-18403714D01*
X4935714Y-18246572D02*
X4950000Y-18218000D01*
X4978571Y-18203714D01*
X5021428Y-18203714D01*
X5050000Y-18218000D01*
X5064286Y-18246572D01*
X5064286Y-18403714D01*
X5650000Y-18089429D02*
X5392857Y-18475143D01*
X6035714Y-18103714D02*
X6064286Y-18103714D01*
X6092857Y-18118000D01*
X6107143Y-18132286D01*
X6121428Y-18160857D01*
X6135714Y-18218000D01*
X6135714Y-18289429D01*
X6121428Y-18346572D01*
X6107143Y-18375143D01*
X6092857Y-18389429D01*
X6064286Y-18403714D01*
X6035714Y-18403714D01*
X6007143Y-18389429D01*
X5992857Y-18375143D01*
X5978571Y-18346572D01*
X5964286Y-18289429D01*
X5964286Y-18218000D01*
X5978571Y-18160857D01*
X5992857Y-18132286D01*
X6007143Y-18118000D01*
X6035714Y-18103714D01*
X6264286Y-18375143D02*
X6278571Y-18389429D01*
X6264286Y-18403714D01*
X6250000Y-18389429D01*
X6264286Y-18375143D01*
X6264286Y-18403714D01*
X6464286Y-18103714D02*
X6492857Y-18103714D01*
X6521428Y-18118000D01*
X6535714Y-18132286D01*
X6550000Y-18160857D01*
X6564286Y-18218000D01*
X6564286Y-18289429D01*
X6550000Y-18346572D01*
X6535714Y-18375143D01*
X6521428Y-18389429D01*
X6492857Y-18403714D01*
X6464286Y-18403714D01*
X6435714Y-18389429D01*
X6421428Y-18375143D01*
X6407143Y-18346572D01*
X6392857Y-18289429D01*
X6392857Y-18218000D01*
X6407143Y-18160857D01*
X6421428Y-18132286D01*
X6435714Y-18118000D01*
X6464286Y-18103714D01*
X6821428Y-18203714D02*
X6821428Y-18403714D01*
X6750000Y-18089429D02*
X6678571Y-18303714D01*
X6864286Y-18303714D01*
X6950000Y-18103714D02*
X7135714Y-18103714D01*
X7035714Y-18218000D01*
X7078571Y-18218000D01*
X7107143Y-18232286D01*
X7121428Y-18246572D01*
X7135714Y-18275143D01*
X7135714Y-18346572D01*
X7121428Y-18375143D01*
X7107143Y-18389429D01*
X7078571Y-18403714D01*
X6992857Y-18403714D01*
X6964286Y-18389429D01*
X6950000Y-18375143D01*
X7321428Y-18103714D02*
X7350000Y-18103714D01*
X7378571Y-18118000D01*
X7392857Y-18132286D01*
X7407143Y-18160857D01*
X7421428Y-18218000D01*
X7421428Y-18289429D01*
X7407143Y-18346572D01*
X7392857Y-18375143D01*
X7378571Y-18389429D01*
X7350000Y-18403714D01*
X7321428Y-18403714D01*
X7292857Y-18389429D01*
X7278571Y-18375143D01*
X7264286Y-18346572D01*
X7250000Y-18289429D01*
X7250000Y-18218000D01*
X7264286Y-18160857D01*
X7278571Y-18132286D01*
X7292857Y-18118000D01*
X7321428Y-18103714D01*
X7535714Y-18103714D02*
X7535714Y-18160857D01*
X7650000Y-18103714D02*
X7650000Y-18160857D01*
X8092857Y-18518000D02*
X8078571Y-18503714D01*
X8050000Y-18460857D01*
X8035714Y-18432286D01*
X8021428Y-18389429D01*
X8007143Y-18318000D01*
X8007143Y-18260857D01*
X8021428Y-18189429D01*
X8035714Y-18146572D01*
X8050000Y-18118000D01*
X8078571Y-18075143D01*
X8092857Y-18060857D01*
X8192857Y-18132286D02*
X8207143Y-18118000D01*
X8235714Y-18103714D01*
X8307143Y-18103714D01*
X8335714Y-18118000D01*
X8350000Y-18132286D01*
X8364286Y-18160857D01*
X8364286Y-18189429D01*
X8350000Y-18232286D01*
X8178571Y-18403714D01*
X8364286Y-18403714D01*
X8464286Y-18103714D02*
X8664286Y-18103714D01*
X8535714Y-18403714D01*
X9007143Y-18403714D02*
X9007143Y-18103714D01*
X9135714Y-18403714D02*
X9135714Y-18246572D01*
X9121428Y-18218000D01*
X9092857Y-18203714D01*
X9050000Y-18203714D01*
X9021428Y-18218000D01*
X9007143Y-18232286D01*
X9321428Y-18403714D02*
X9292857Y-18389429D01*
X9278571Y-18375143D01*
X9264286Y-18346572D01*
X9264286Y-18260857D01*
X9278571Y-18232286D01*
X9292857Y-18218000D01*
X9321428Y-18203714D01*
X9364286Y-18203714D01*
X9392857Y-18218000D01*
X9407143Y-18232286D01*
X9421428Y-18260857D01*
X9421428Y-18346572D01*
X9407143Y-18375143D01*
X9392857Y-18389429D01*
X9364286Y-18403714D01*
X9321428Y-18403714D01*
X9592857Y-18403714D02*
X9564286Y-18389429D01*
X9550000Y-18360857D01*
X9550000Y-18103714D01*
X9821428Y-18389429D02*
X9792857Y-18403714D01*
X9735714Y-18403714D01*
X9707143Y-18389429D01*
X9692857Y-18360857D01*
X9692857Y-18246572D01*
X9707143Y-18218000D01*
X9735714Y-18203714D01*
X9792857Y-18203714D01*
X9821428Y-18218000D01*
X9835714Y-18246572D01*
X9835714Y-18275143D01*
X9692857Y-18303714D01*
X9950000Y-18389429D02*
X9978571Y-18403714D01*
X10035714Y-18403714D01*
X10064286Y-18389429D01*
X10078571Y-18360857D01*
X10078571Y-18346572D01*
X10064286Y-18318000D01*
X10035714Y-18303714D01*
X9992857Y-18303714D01*
X9964286Y-18289429D01*
X9950000Y-18260857D01*
X9950000Y-18246572D01*
X9964286Y-18218000D01*
X9992857Y-18203714D01*
X10035714Y-18203714D01*
X10064286Y-18218000D01*
X10178571Y-18518000D02*
X10192857Y-18503714D01*
X10221428Y-18460857D01*
X10235714Y-18432286D01*
X10250000Y-18389429D01*
X10264286Y-18318000D01*
X10264286Y-18260857D01*
X10250000Y-18189429D01*
X10235714Y-18146572D01*
X10221428Y-18118000D01*
X10192857Y-18075143D01*
X10178571Y-18060857D01*
X2775000Y-18724000D02*
X2835000Y-18664000D01*
X2775000Y-18604000D01*
X2715000Y-18664000D01*
X2775000Y-18724000D01*
X3278571Y-18799714D02*
X3107143Y-18799714D01*
X3192857Y-18799714D02*
X3192857Y-18499714D01*
X3164286Y-18542572D01*
X3135714Y-18571143D01*
X3107143Y-18585429D01*
X3407143Y-18771143D02*
X3421428Y-18785429D01*
X3407143Y-18799714D01*
X3392857Y-18785429D01*
X3407143Y-18771143D01*
X3407143Y-18799714D01*
X3535714Y-18528286D02*
X3550000Y-18514000D01*
X3578571Y-18499714D01*
X3650000Y-18499714D01*
X3678571Y-18514000D01*
X3692857Y-18528286D01*
X3707143Y-18556857D01*
X3707143Y-18585429D01*
X3692857Y-18628286D01*
X3521428Y-18799714D01*
X3707143Y-18799714D01*
X3892857Y-18499714D02*
X3921428Y-18499714D01*
X3950000Y-18514000D01*
X3964286Y-18528286D01*
X3978571Y-18556857D01*
X3992857Y-18614000D01*
X3992857Y-18685429D01*
X3978571Y-18742572D01*
X3964286Y-18771143D01*
X3950000Y-18785429D01*
X3921428Y-18799714D01*
X3892857Y-18799714D01*
X3864286Y-18785429D01*
X3850000Y-18771143D01*
X3835714Y-18742572D01*
X3821428Y-18685429D01*
X3821428Y-18614000D01*
X3835714Y-18556857D01*
X3850000Y-18528286D01*
X3864286Y-18514000D01*
X3892857Y-18499714D01*
X4178571Y-18499714D02*
X4207143Y-18499714D01*
X4235714Y-18514000D01*
X4250000Y-18528286D01*
X4264286Y-18556857D01*
X4278571Y-18614000D01*
X4278571Y-18685429D01*
X4264286Y-18742572D01*
X4250000Y-18771143D01*
X4235714Y-18785429D01*
X4207143Y-18799714D01*
X4178571Y-18799714D01*
X4150000Y-18785429D01*
X4135714Y-18771143D01*
X4121428Y-18742572D01*
X4107143Y-18685429D01*
X4107143Y-18614000D01*
X4121428Y-18556857D01*
X4135714Y-18528286D01*
X4150000Y-18514000D01*
X4178571Y-18499714D01*
X4407143Y-18799714D02*
X4407143Y-18599714D01*
X4407143Y-18628286D02*
X4421428Y-18614000D01*
X4450000Y-18599714D01*
X4492857Y-18599714D01*
X4521428Y-18614000D01*
X4535714Y-18642572D01*
X4535714Y-18799714D01*
X4535714Y-18642572D02*
X4550000Y-18614000D01*
X4578571Y-18599714D01*
X4621428Y-18599714D01*
X4650000Y-18614000D01*
X4664286Y-18642572D01*
X4664286Y-18799714D01*
X4807143Y-18799714D02*
X4807143Y-18599714D01*
X4807143Y-18628286D02*
X4821428Y-18614000D01*
X4850000Y-18599714D01*
X4892857Y-18599714D01*
X4921428Y-18614000D01*
X4935714Y-18642572D01*
X4935714Y-18799714D01*
X4935714Y-18642572D02*
X4950000Y-18614000D01*
X4978571Y-18599714D01*
X5021428Y-18599714D01*
X5050000Y-18614000D01*
X5064286Y-18642572D01*
X5064286Y-18799714D01*
X5650000Y-18485429D02*
X5392857Y-18871143D01*
X6035714Y-18499714D02*
X6064286Y-18499714D01*
X6092857Y-18514000D01*
X6107143Y-18528286D01*
X6121428Y-18556857D01*
X6135714Y-18614000D01*
X6135714Y-18685429D01*
X6121428Y-18742572D01*
X6107143Y-18771143D01*
X6092857Y-18785429D01*
X6064286Y-18799714D01*
X6035714Y-18799714D01*
X6007143Y-18785429D01*
X5992857Y-18771143D01*
X5978571Y-18742572D01*
X5964286Y-18685429D01*
X5964286Y-18614000D01*
X5978571Y-18556857D01*
X5992857Y-18528286D01*
X6007143Y-18514000D01*
X6035714Y-18499714D01*
X6264286Y-18771143D02*
X6278571Y-18785429D01*
X6264286Y-18799714D01*
X6250000Y-18785429D01*
X6264286Y-18771143D01*
X6264286Y-18799714D01*
X6464286Y-18499714D02*
X6492857Y-18499714D01*
X6521428Y-18514000D01*
X6535714Y-18528286D01*
X6550000Y-18556857D01*
X6564286Y-18614000D01*
X6564286Y-18685429D01*
X6550000Y-18742572D01*
X6535714Y-18771143D01*
X6521428Y-18785429D01*
X6492857Y-18799714D01*
X6464286Y-18799714D01*
X6435714Y-18785429D01*
X6421428Y-18771143D01*
X6407143Y-18742572D01*
X6392857Y-18685429D01*
X6392857Y-18614000D01*
X6407143Y-18556857D01*
X6421428Y-18528286D01*
X6435714Y-18514000D01*
X6464286Y-18499714D01*
X6821428Y-18599714D02*
X6821428Y-18799714D01*
X6750000Y-18485429D02*
X6678571Y-18699714D01*
X6864286Y-18699714D01*
X6950000Y-18499714D02*
X7150000Y-18499714D01*
X7021428Y-18799714D01*
X7250000Y-18528286D02*
X7264286Y-18514000D01*
X7292857Y-18499714D01*
X7364286Y-18499714D01*
X7392857Y-18514000D01*
X7407143Y-18528286D01*
X7421428Y-18556857D01*
X7421428Y-18585429D01*
X7407143Y-18628286D01*
X7235714Y-18799714D01*
X7421428Y-18799714D01*
X7535714Y-18499714D02*
X7535714Y-18556857D01*
X7650000Y-18499714D02*
X7650000Y-18556857D01*
X8092857Y-18914000D02*
X8078571Y-18899714D01*
X8050000Y-18856857D01*
X8035714Y-18828286D01*
X8021428Y-18785429D01*
X8007143Y-18714000D01*
X8007143Y-18656857D01*
X8021428Y-18585429D01*
X8035714Y-18542572D01*
X8050000Y-18514000D01*
X8078571Y-18471143D01*
X8092857Y-18456857D01*
X8364286Y-18799714D02*
X8192857Y-18799714D01*
X8278571Y-18799714D02*
X8278571Y-18499714D01*
X8250000Y-18542572D01*
X8221428Y-18571143D01*
X8192857Y-18585429D01*
X8464286Y-18499714D02*
X8650000Y-18499714D01*
X8550000Y-18614000D01*
X8592857Y-18614000D01*
X8621428Y-18628286D01*
X8635714Y-18642572D01*
X8650000Y-18671143D01*
X8650000Y-18742572D01*
X8635714Y-18771143D01*
X8621428Y-18785429D01*
X8592857Y-18799714D01*
X8507143Y-18799714D01*
X8478571Y-18785429D01*
X8464286Y-18771143D01*
X8835714Y-18499714D02*
X8864286Y-18499714D01*
X8892857Y-18514000D01*
X8907143Y-18528286D01*
X8921428Y-18556857D01*
X8935714Y-18614000D01*
X8935714Y-18685429D01*
X8921428Y-18742572D01*
X8907143Y-18771143D01*
X8892857Y-18785429D01*
X8864286Y-18799714D01*
X8835714Y-18799714D01*
X8807143Y-18785429D01*
X8792857Y-18771143D01*
X8778571Y-18742572D01*
X8764286Y-18685429D01*
X8764286Y-18614000D01*
X8778571Y-18556857D01*
X8792857Y-18528286D01*
X8807143Y-18514000D01*
X8835714Y-18499714D01*
X9292857Y-18799714D02*
X9292857Y-18499714D01*
X9421428Y-18799714D02*
X9421428Y-18642572D01*
X9407143Y-18614000D01*
X9378571Y-18599714D01*
X9335714Y-18599714D01*
X9307143Y-18614000D01*
X9292857Y-18628286D01*
X9607143Y-18799714D02*
X9578571Y-18785429D01*
X9564286Y-18771143D01*
X9550000Y-18742572D01*
X9550000Y-18656857D01*
X9564286Y-18628286D01*
X9578571Y-18614000D01*
X9607143Y-18599714D01*
X9650000Y-18599714D01*
X9678571Y-18614000D01*
X9692857Y-18628286D01*
X9707143Y-18656857D01*
X9707143Y-18742572D01*
X9692857Y-18771143D01*
X9678571Y-18785429D01*
X9650000Y-18799714D01*
X9607143Y-18799714D01*
X9878571Y-18799714D02*
X9850000Y-18785429D01*
X9835714Y-18756857D01*
X9835714Y-18499714D01*
X10107143Y-18785429D02*
X10078571Y-18799714D01*
X10021428Y-18799714D01*
X9992857Y-18785429D01*
X9978571Y-18756857D01*
X9978571Y-18642572D01*
X9992857Y-18614000D01*
X10021428Y-18599714D01*
X10078571Y-18599714D01*
X10107143Y-18614000D01*
X10121428Y-18642572D01*
X10121428Y-18671143D01*
X9978571Y-18699714D01*
X10235714Y-18785429D02*
X10264286Y-18799714D01*
X10321428Y-18799714D01*
X10350000Y-18785429D01*
X10364286Y-18756857D01*
X10364286Y-18742572D01*
X10350000Y-18714000D01*
X10321428Y-18699714D01*
X10278571Y-18699714D01*
X10250000Y-18685429D01*
X10235714Y-18656857D01*
X10235714Y-18642572D01*
X10250000Y-18614000D01*
X10278571Y-18599714D01*
X10321428Y-18599714D01*
X10350000Y-18614000D01*
X10464286Y-18914000D02*
X10478571Y-18899714D01*
X10507143Y-18856857D01*
X10521428Y-18828286D01*
X10535714Y-18785429D01*
X10550000Y-18714000D01*
X10550000Y-18656857D01*
X10535714Y-18585429D01*
X10521428Y-18542572D01*
X10507143Y-18514000D01*
X10478571Y-18471143D01*
X10464286Y-18456857D01*
M02*
