M48
; DRILL file {KiCad (5.1.10)-1} date 02/10/22 09:54:55
; FORMAT={-:-/ absolute / metric / decimal}
; #@! TF.CreationDate,2022-02-10T09:54:55+11:00
; #@! TF.GenerationSoftware,Kicad,Pcbnew,(5.1.10)-1
; #@! TF.FileFunction,NonPlated,1,2,NPTH
FMAT,2
METRIC
T1C1.200
T2C1.700
T3C2.200
T4C3.400
%
G90
G05
T1
X48.082Y-65.65
X52.842Y-84.694
X52.842Y-141.841
X57.607Y-103.75
X62.37Y-122.8
X67.132Y-65.65
X76.64Y-84.7
X81.42Y-141.85
X86.182Y-65.65
X86.182Y-103.75
X95.689Y-84.7
X95.689Y-122.8
X105.233Y-65.65
X105.233Y-103.75
X109.995Y-141.85
X114.738Y-84.7
X114.757Y-122.8
X124.282Y-65.65
X124.282Y-103.75
X133.787Y-84.7
X133.808Y-122.8
X138.57Y-141.85
X143.311Y-65.65
X143.332Y-103.75
X152.857Y-84.7
X152.857Y-122.8
X162.36Y-65.65
X162.382Y-103.75
X171.884Y-84.7
X171.907Y-122.8
X176.67Y-141.85
X181.409Y-65.65
X181.433Y-103.75
X190.933Y-84.7
X190.957Y-122.8
X200.458Y-65.65
X200.482Y-103.75
X210.007Y-84.7
X210.007Y-122.8
X219.506Y-65.65
X219.532Y-103.75
X219.532Y-141.85
X229.057Y-84.7
X229.057Y-122.8
X238.555Y-65.65
X238.582Y-103.75
X248.107Y-84.7
X248.107Y-122.8
X248.107Y-141.85
X257.604Y-65.65
X257.632Y-103.75
X267.157Y-84.7
X267.157Y-122.8
X267.157Y-141.85
X276.653Y-65.65
X276.683Y-103.75
X286.207Y-84.7
X290.97Y-122.8
X295.702Y-141.85
X305.226Y-65.65
X305.257Y-103.75
X310.044Y-84.7
X314.782Y-122.8
X314.782Y-141.85
X333.832Y-141.85
T2
X37.362Y-69.85
X42.122Y-88.894
X42.122Y-146.041
X46.887Y-107.95
X48.362Y-69.85
X51.65Y-127.0
X53.122Y-88.894
X53.122Y-146.041
X56.412Y-69.85
X57.887Y-107.95
X62.65Y-127.0
X65.92Y-88.9
X67.412Y-69.85
X70.7Y-146.05
X75.462Y-69.85
X75.462Y-107.95
X76.92Y-88.9
X81.7Y-146.05
X84.969Y-88.9
X84.969Y-127.0
X86.462Y-69.85
X86.462Y-107.95
X94.512Y-69.85
X94.512Y-107.95
X95.969Y-88.9
X95.969Y-127.0
X99.275Y-146.05
X104.018Y-88.9
X104.037Y-127.0
X105.512Y-69.85
X105.512Y-107.95
X110.275Y-146.05
X113.562Y-69.85
X113.562Y-107.95
X115.018Y-88.9
X115.037Y-127.0
X123.067Y-88.9
X123.087Y-127.0
X124.562Y-69.85
X124.562Y-107.95
X127.85Y-146.05
X132.591Y-69.85
X132.612Y-107.95
X134.067Y-88.9
X134.088Y-127.0
X138.85Y-146.05
X142.137Y-88.9
X142.137Y-127.0
X143.591Y-69.85
X143.612Y-107.95
X151.64Y-69.85
X151.662Y-107.95
X153.137Y-88.9
X153.137Y-127.0
X161.164Y-88.9
X161.188Y-127.0
X162.64Y-69.85
X162.662Y-107.95
X165.95Y-146.05
X170.689Y-69.85
X170.713Y-107.95
X172.164Y-88.9
X172.188Y-127.0
X176.95Y-146.05
X180.213Y-88.9
X180.237Y-127.0
X181.689Y-69.85
X181.713Y-107.95
X189.738Y-69.85
X189.762Y-107.95
X191.213Y-88.9
X191.237Y-127.0
X199.287Y-88.9
X199.287Y-127.0
X200.738Y-69.85
X200.762Y-107.95
X208.786Y-69.85
X208.812Y-107.95
X208.812Y-146.05
X210.287Y-88.9
X210.287Y-127.0
X218.337Y-88.9
X218.337Y-127.0
X219.786Y-69.85
X219.812Y-107.95
X219.812Y-146.05
X227.835Y-69.85
X227.862Y-107.95
X229.337Y-88.9
X229.337Y-127.0
X237.387Y-88.9
X237.387Y-127.0
X237.387Y-146.05
X238.835Y-69.85
X238.862Y-107.95
X246.884Y-69.85
X246.912Y-107.95
X248.387Y-88.9
X248.387Y-127.0
X248.387Y-146.05
X256.438Y-88.9
X256.438Y-127.0
X256.438Y-146.05
X257.884Y-69.85
X257.912Y-107.95
X265.933Y-69.85
X265.962Y-107.95
X267.438Y-88.9
X267.438Y-127.0
X267.438Y-146.05
X275.488Y-88.9
X276.933Y-69.85
X276.962Y-107.95
X280.25Y-127.0
X284.982Y-146.05
X286.488Y-88.9
X291.25Y-127.0
X294.506Y-69.85
X294.537Y-107.95
X295.982Y-146.05
X299.324Y-88.9
X304.062Y-127.0
X304.062Y-146.05
X305.506Y-69.85
X305.537Y-107.95
X310.324Y-88.9
X315.062Y-127.0
X315.062Y-146.05
X323.113Y-146.05
X334.113Y-146.05
T3
X31.0Y-58.0
X31.0Y-108.0
X31.0Y-158.0
X93.0Y-58.0
X93.0Y-158.0
X156.0Y-58.0
X156.0Y-158.0
X218.0Y-58.0
X218.0Y-158.0
X280.0Y-58.0
X280.0Y-158.0
X322.0Y-58.0
X337.0Y-58.0
X341.0Y-108.0
X341.0Y-158.0
T4
X42.862Y-69.85
X47.622Y-88.894
X47.622Y-146.041
X52.387Y-107.95
X57.15Y-127.0
X61.912Y-69.85
X71.42Y-88.9
X76.2Y-146.05
X80.962Y-69.85
X80.962Y-107.95
X90.469Y-88.9
X90.469Y-127.0
X100.012Y-69.85
X100.012Y-107.95
X104.775Y-146.05
X109.518Y-88.9
X109.537Y-127.0
X119.062Y-69.85
X119.062Y-107.95
X128.567Y-88.9
X128.588Y-127.0
X133.35Y-146.05
X138.091Y-69.85
X138.112Y-107.95
X147.637Y-88.9
X147.637Y-127.0
X157.14Y-69.85
X157.162Y-107.95
X166.664Y-88.9
X166.688Y-127.0
X171.45Y-146.05
X176.189Y-69.85
X176.213Y-107.95
X185.713Y-88.9
X185.737Y-127.0
X195.238Y-69.85
X195.262Y-107.95
X204.787Y-88.9
X204.787Y-127.0
X214.286Y-69.85
X214.312Y-107.95
X214.312Y-146.05
X223.837Y-88.9
X223.837Y-127.0
X233.335Y-69.85
X233.362Y-107.95
X242.887Y-88.9
X242.887Y-127.0
X242.887Y-146.05
X252.384Y-69.85
X252.412Y-107.95
X261.938Y-88.9
X261.938Y-127.0
X261.938Y-146.05
X271.433Y-69.85
X271.462Y-107.95
X280.988Y-88.9
X285.75Y-127.0
X290.482Y-146.05
X300.006Y-69.85
X300.037Y-107.95
X304.824Y-88.9
X309.562Y-127.0
X309.562Y-146.05
X328.613Y-146.05
T0
M30
