G04 #@! TF.GenerationSoftware,KiCad,Pcbnew,(5.1.10)-1*
G04 #@! TF.CreationDate,2022-02-10T09:54:13+11:00*
G04 #@! TF.ProjectId,mf68,6d663638-2e6b-4696-9361-645f70636258,rev?*
G04 #@! TF.SameCoordinates,Original*
G04 #@! TF.FileFunction,Legend,Top*
G04 #@! TF.FilePolarity,Positive*
%FSLAX46Y46*%
G04 Gerber Fmt 4.6, Leading zero omitted, Abs format (unit mm)*
G04 Created by KiCad (PCBNEW (5.1.10)-1) date 2022-02-10 09:54:13*
%MOMM*%
%LPD*%
G01*
G04 APERTURE LIST*
%ADD10C,0.300000*%
%ADD11C,0.120000*%
%ADD12C,0.381000*%
%ADD13C,0.200000*%
%ADD14C,0.150000*%
%ADD15C,2.200000*%
%ADD16C,1.700000*%
%ADD17C,2.000000*%
%ADD18C,3.400000*%
%ADD19C,1.200000*%
%ADD20R,1.600000X1.600000*%
%ADD21C,1.600000*%
%ADD22R,1.200000X1.600000*%
%ADD23O,1.700000X1.700000*%
%ADD24R,1.700000X1.700000*%
%ADD25C,1.500000*%
%ADD26C,1.752600*%
G04 APERTURE END LIST*
D10*
X326400000Y-110928571D02*
X326685714Y-110928571D01*
X326828571Y-111000000D01*
X326971428Y-111142857D01*
X327042857Y-111428571D01*
X327042857Y-111928571D01*
X326971428Y-112214285D01*
X326828571Y-112357142D01*
X326685714Y-112428571D01*
X326400000Y-112428571D01*
X326257142Y-112357142D01*
X326114285Y-112214285D01*
X326042857Y-111928571D01*
X326042857Y-111428571D01*
X326114285Y-111142857D01*
X326257142Y-111000000D01*
X326400000Y-110928571D01*
X327471428Y-111428571D02*
X328042857Y-111428571D01*
X327685714Y-112428571D02*
X327685714Y-111142857D01*
X327757142Y-111000000D01*
X327900000Y-110928571D01*
X328042857Y-110928571D01*
X328328571Y-111428571D02*
X328900000Y-111428571D01*
X328542857Y-112428571D02*
X328542857Y-111142857D01*
X328614285Y-111000000D01*
X328757142Y-110928571D01*
X328900000Y-110928571D01*
X330578571Y-110928571D02*
X330864285Y-110928571D01*
X331007142Y-111000000D01*
X331150000Y-111142857D01*
X331221428Y-111428571D01*
X331221428Y-111928571D01*
X331150000Y-112214285D01*
X331007142Y-112357142D01*
X330864285Y-112428571D01*
X330578571Y-112428571D01*
X330435714Y-112357142D01*
X330292857Y-112214285D01*
X330221428Y-111928571D01*
X330221428Y-111428571D01*
X330292857Y-111142857D01*
X330435714Y-111000000D01*
X330578571Y-110928571D01*
X331864285Y-111428571D02*
X331864285Y-112428571D01*
X331864285Y-111571428D02*
X331935714Y-111500000D01*
X332078571Y-111428571D01*
X332292857Y-111428571D01*
X332435714Y-111500000D01*
X332507142Y-111642857D01*
X332507142Y-112428571D01*
D11*
X327800000Y-107118400D02*
X327800000Y-108718400D01*
X328600000Y-108718400D02*
X328600000Y-107118400D01*
X328400000Y-108718400D02*
X328400000Y-107118400D01*
X328200000Y-108718400D02*
X328200000Y-107118400D01*
X328000000Y-108718400D02*
X328000000Y-107118400D01*
X327800000Y-108718400D02*
X328000000Y-108718400D01*
X327600000Y-108718400D02*
X331200000Y-108718400D01*
X327600000Y-107118400D02*
X327600000Y-108718400D01*
X331200000Y-107118400D02*
X327600000Y-107118400D01*
X331200000Y-108718400D02*
X331200000Y-107118400D01*
X325100000Y-109818400D02*
X333700000Y-109818400D01*
X325100000Y-106018400D02*
X325100000Y-109818400D01*
X333700000Y-106018400D02*
X325100000Y-106018400D01*
X333700000Y-109818400D02*
X333700000Y-106018400D01*
D12*
X320482900Y-60370000D02*
X338262900Y-60370000D01*
X338262900Y-60370000D02*
X338262900Y-93390000D01*
X338262900Y-93390000D02*
X320482900Y-93390000D01*
X320482900Y-93390000D02*
X320482900Y-60370000D01*
D13*
X132492857Y-140898571D02*
X132159523Y-140898571D01*
X132159523Y-141422380D02*
X132159523Y-140422380D01*
X132635714Y-140422380D01*
X133016666Y-141422380D02*
X133016666Y-140422380D01*
X133588095Y-141422380D01*
X133588095Y-140422380D01*
X134016666Y-140517619D02*
X134064285Y-140470000D01*
X134159523Y-140422380D01*
X134397619Y-140422380D01*
X134492857Y-140470000D01*
X134540476Y-140517619D01*
X134588095Y-140612857D01*
X134588095Y-140708095D01*
X134540476Y-140850952D01*
X133969047Y-141422380D01*
X134588095Y-141422380D01*
X170283333Y-141422380D02*
X169807142Y-141422380D01*
X169807142Y-140422380D01*
X170569047Y-141374761D02*
X170711904Y-141422380D01*
X170950000Y-141422380D01*
X171045238Y-141374761D01*
X171092857Y-141327142D01*
X171140476Y-141231904D01*
X171140476Y-141136666D01*
X171092857Y-141041428D01*
X171045238Y-140993809D01*
X170950000Y-140946190D01*
X170759523Y-140898571D01*
X170664285Y-140850952D01*
X170616666Y-140803333D01*
X170569047Y-140708095D01*
X170569047Y-140612857D01*
X170616666Y-140517619D01*
X170664285Y-140470000D01*
X170759523Y-140422380D01*
X170997619Y-140422380D01*
X171140476Y-140470000D01*
X171569047Y-141422380D02*
X171569047Y-140422380D01*
X171950000Y-140422380D01*
X172045238Y-140470000D01*
X172092857Y-140517619D01*
X172140476Y-140612857D01*
X172140476Y-140755714D01*
X172092857Y-140850952D01*
X172045238Y-140898571D01*
X171950000Y-140946190D01*
X171569047Y-140946190D01*
X173140476Y-141327142D02*
X173092857Y-141374761D01*
X172950000Y-141422380D01*
X172854761Y-141422380D01*
X172711904Y-141374761D01*
X172616666Y-141279523D01*
X172569047Y-141184285D01*
X172521428Y-140993809D01*
X172521428Y-140850952D01*
X172569047Y-140660476D01*
X172616666Y-140565238D01*
X172711904Y-140470000D01*
X172854761Y-140422380D01*
X172950000Y-140422380D01*
X173092857Y-140470000D01*
X173140476Y-140517619D01*
X298101238Y-64698571D02*
X298244095Y-64746190D01*
X298291714Y-64793809D01*
X298339333Y-64889047D01*
X298339333Y-65031904D01*
X298291714Y-65127142D01*
X298244095Y-65174761D01*
X298148857Y-65222380D01*
X297767904Y-65222380D01*
X297767904Y-64222380D01*
X298101238Y-64222380D01*
X298196476Y-64270000D01*
X298244095Y-64317619D01*
X298291714Y-64412857D01*
X298291714Y-64508095D01*
X298244095Y-64603333D01*
X298196476Y-64650952D01*
X298101238Y-64698571D01*
X297767904Y-64698571D01*
X298767904Y-65222380D02*
X298767904Y-64222380D01*
X299339333Y-65222380D02*
X298910761Y-64650952D01*
X299339333Y-64222380D02*
X298767904Y-64793809D01*
X299720285Y-65174761D02*
X299863142Y-65222380D01*
X300101238Y-65222380D01*
X300196476Y-65174761D01*
X300244095Y-65127142D01*
X300291714Y-65031904D01*
X300291714Y-64936666D01*
X300244095Y-64841428D01*
X300196476Y-64793809D01*
X300101238Y-64746190D01*
X299910761Y-64698571D01*
X299815523Y-64650952D01*
X299767904Y-64603333D01*
X299720285Y-64508095D01*
X299720285Y-64412857D01*
X299767904Y-64317619D01*
X299815523Y-64270000D01*
X299910761Y-64222380D01*
X300148857Y-64222380D01*
X300291714Y-64270000D01*
X300720285Y-65222380D02*
X300720285Y-64222380D01*
X301101238Y-64222380D01*
X301196476Y-64270000D01*
X301244095Y-64317619D01*
X301291714Y-64412857D01*
X301291714Y-64555714D01*
X301244095Y-64650952D01*
X301196476Y-64698571D01*
X301101238Y-64746190D01*
X300720285Y-64746190D01*
X302291714Y-65127142D02*
X302244095Y-65174761D01*
X302101238Y-65222380D01*
X302006000Y-65222380D01*
X301863142Y-65174761D01*
X301767904Y-65079523D01*
X301720285Y-64984285D01*
X301672666Y-64793809D01*
X301672666Y-64650952D01*
X301720285Y-64460476D01*
X301767904Y-64365238D01*
X301863142Y-64270000D01*
X302006000Y-64222380D01*
X302101238Y-64222380D01*
X302244095Y-64270000D01*
X302291714Y-64317619D01*
X213145833Y-141422380D02*
X212812500Y-140946190D01*
X212574404Y-141422380D02*
X212574404Y-140422380D01*
X212955357Y-140422380D01*
X213050595Y-140470000D01*
X213098214Y-140517619D01*
X213145833Y-140612857D01*
X213145833Y-140755714D01*
X213098214Y-140850952D01*
X213050595Y-140898571D01*
X212955357Y-140946190D01*
X212574404Y-140946190D01*
X213526785Y-141374761D02*
X213669642Y-141422380D01*
X213907738Y-141422380D01*
X214002976Y-141374761D01*
X214050595Y-141327142D01*
X214098214Y-141231904D01*
X214098214Y-141136666D01*
X214050595Y-141041428D01*
X214002976Y-140993809D01*
X213907738Y-140946190D01*
X213717261Y-140898571D01*
X213622023Y-140850952D01*
X213574404Y-140803333D01*
X213526785Y-140708095D01*
X213526785Y-140612857D01*
X213574404Y-140517619D01*
X213622023Y-140470000D01*
X213717261Y-140422380D01*
X213955357Y-140422380D01*
X214098214Y-140470000D01*
X214526785Y-141422380D02*
X214526785Y-140422380D01*
X214907738Y-140422380D01*
X215002976Y-140470000D01*
X215050595Y-140517619D01*
X215098214Y-140612857D01*
X215098214Y-140755714D01*
X215050595Y-140850952D01*
X215002976Y-140898571D01*
X214907738Y-140946190D01*
X214526785Y-140946190D01*
X216098214Y-141327142D02*
X216050595Y-141374761D01*
X215907738Y-141422380D01*
X215812500Y-141422380D01*
X215669642Y-141374761D01*
X215574404Y-141279523D01*
X215526785Y-141184285D01*
X215479166Y-140993809D01*
X215479166Y-140850952D01*
X215526785Y-140660476D01*
X215574404Y-140565238D01*
X215669642Y-140470000D01*
X215812500Y-140422380D01*
X215907738Y-140422380D01*
X216050595Y-140470000D01*
X216098214Y-140517619D01*
X297966071Y-102798571D02*
X298299404Y-102798571D01*
X298442261Y-103322380D02*
X297966071Y-103322380D01*
X297966071Y-102322380D01*
X298442261Y-102322380D01*
X298870833Y-103322380D02*
X298870833Y-102322380D01*
X299442261Y-103322380D01*
X299442261Y-102322380D01*
X299775595Y-102322380D02*
X300347023Y-102322380D01*
X300061309Y-103322380D02*
X300061309Y-102322380D01*
X300680357Y-102798571D02*
X301013690Y-102798571D01*
X301156547Y-103322380D02*
X300680357Y-103322380D01*
X300680357Y-102322380D01*
X301156547Y-102322380D01*
X302156547Y-103322380D02*
X301823214Y-102846190D01*
X301585119Y-103322380D02*
X301585119Y-102322380D01*
X301966071Y-102322380D01*
X302061309Y-102370000D01*
X302108928Y-102417619D01*
X302156547Y-102512857D01*
X302156547Y-102655714D01*
X302108928Y-102750952D01*
X302061309Y-102798571D01*
X301966071Y-102846190D01*
X301585119Y-102846190D01*
X51292261Y-103227142D02*
X51244642Y-103274761D01*
X51101785Y-103322380D01*
X51006547Y-103322380D01*
X50863690Y-103274761D01*
X50768452Y-103179523D01*
X50720833Y-103084285D01*
X50673214Y-102893809D01*
X50673214Y-102750952D01*
X50720833Y-102560476D01*
X50768452Y-102465238D01*
X50863690Y-102370000D01*
X51006547Y-102322380D01*
X51101785Y-102322380D01*
X51244642Y-102370000D01*
X51292261Y-102417619D01*
X51673214Y-103036666D02*
X52149404Y-103036666D01*
X51577976Y-103322380D02*
X51911309Y-102322380D01*
X52244642Y-103322380D01*
X52577976Y-103322380D02*
X52577976Y-102322380D01*
X52958928Y-102322380D01*
X53054166Y-102370000D01*
X53101785Y-102417619D01*
X53149404Y-102512857D01*
X53149404Y-102655714D01*
X53101785Y-102750952D01*
X53054166Y-102798571D01*
X52958928Y-102846190D01*
X52577976Y-102846190D01*
X53530357Y-103274761D02*
X53673214Y-103322380D01*
X53911309Y-103322380D01*
X54006547Y-103274761D01*
X54054166Y-103227142D01*
X54101785Y-103131904D01*
X54101785Y-103036666D01*
X54054166Y-102941428D01*
X54006547Y-102893809D01*
X53911309Y-102846190D01*
X53720833Y-102798571D01*
X53625595Y-102750952D01*
X53577976Y-102703333D01*
X53530357Y-102608095D01*
X53530357Y-102512857D01*
X53577976Y-102417619D01*
X53625595Y-102370000D01*
X53720833Y-102322380D01*
X53958928Y-102322380D01*
X54101785Y-102370000D01*
X128876323Y-84272380D02*
X128542990Y-83796190D01*
X128304895Y-84272380D02*
X128304895Y-83272380D01*
X128685847Y-83272380D01*
X128781085Y-83320000D01*
X128828704Y-83367619D01*
X128876323Y-83462857D01*
X128876323Y-83605714D01*
X128828704Y-83700952D01*
X128781085Y-83748571D01*
X128685847Y-83796190D01*
X128304895Y-83796190D01*
X308776785Y-121372380D02*
X308776785Y-122181904D01*
X308824404Y-122277142D01*
X308872023Y-122324761D01*
X308967261Y-122372380D01*
X309157738Y-122372380D01*
X309252976Y-122324761D01*
X309300595Y-122277142D01*
X309348214Y-122181904D01*
X309348214Y-121372380D01*
X309824404Y-122372380D02*
X309824404Y-121372380D01*
X310205357Y-121372380D01*
X310300595Y-121420000D01*
X310348214Y-121467619D01*
X310395833Y-121562857D01*
X310395833Y-121705714D01*
X310348214Y-121800952D01*
X310300595Y-121848571D01*
X310205357Y-121896190D01*
X309824404Y-121896190D01*
X327279166Y-141422380D02*
X326945833Y-140946190D01*
X326707738Y-141422380D02*
X326707738Y-140422380D01*
X327088690Y-140422380D01*
X327183928Y-140470000D01*
X327231547Y-140517619D01*
X327279166Y-140612857D01*
X327279166Y-140755714D01*
X327231547Y-140850952D01*
X327183928Y-140898571D01*
X327088690Y-140946190D01*
X326707738Y-140946190D01*
X327707738Y-141422380D02*
X327707738Y-140422380D01*
X328707738Y-140470000D02*
X328612500Y-140422380D01*
X328469642Y-140422380D01*
X328326785Y-140470000D01*
X328231547Y-140565238D01*
X328183928Y-140660476D01*
X328136309Y-140850952D01*
X328136309Y-140993809D01*
X328183928Y-141184285D01*
X328231547Y-141279523D01*
X328326785Y-141374761D01*
X328469642Y-141422380D01*
X328564880Y-141422380D01*
X328707738Y-141374761D01*
X328755357Y-141327142D01*
X328755357Y-140993809D01*
X328564880Y-140993809D01*
X329183928Y-141422380D02*
X329183928Y-140422380D01*
X329183928Y-140898571D02*
X329755357Y-140898571D01*
X329755357Y-141422380D02*
X329755357Y-140422380D01*
X330088690Y-140422380D02*
X330660119Y-140422380D01*
X330374404Y-141422380D02*
X330374404Y-140422380D01*
X307681547Y-141422380D02*
X307681547Y-140422380D01*
X307919642Y-140422380D01*
X308062500Y-140470000D01*
X308157738Y-140565238D01*
X308205357Y-140660476D01*
X308252976Y-140850952D01*
X308252976Y-140993809D01*
X308205357Y-141184285D01*
X308157738Y-141279523D01*
X308062500Y-141374761D01*
X307919642Y-141422380D01*
X307681547Y-141422380D01*
X308872023Y-140422380D02*
X309062500Y-140422380D01*
X309157738Y-140470000D01*
X309252976Y-140565238D01*
X309300595Y-140755714D01*
X309300595Y-141089047D01*
X309252976Y-141279523D01*
X309157738Y-141374761D01*
X309062500Y-141422380D01*
X308872023Y-141422380D01*
X308776785Y-141374761D01*
X308681547Y-141279523D01*
X308633928Y-141089047D01*
X308633928Y-140755714D01*
X308681547Y-140565238D01*
X308776785Y-140470000D01*
X308872023Y-140422380D01*
X309633928Y-140422380D02*
X309872023Y-141422380D01*
X310062500Y-140708095D01*
X310252976Y-141422380D01*
X310491071Y-140422380D01*
X310872023Y-141422380D02*
X310872023Y-140422380D01*
X311443452Y-141422380D01*
X311443452Y-140422380D01*
X289529219Y-141422380D02*
X289053028Y-141422380D01*
X289053028Y-140422380D01*
X289862552Y-140898571D02*
X290195885Y-140898571D01*
X290338742Y-141422380D02*
X289862552Y-141422380D01*
X289862552Y-140422380D01*
X290338742Y-140422380D01*
X291100647Y-140898571D02*
X290767314Y-140898571D01*
X290767314Y-141422380D02*
X290767314Y-140422380D01*
X291243504Y-140422380D01*
X291481600Y-140422380D02*
X292053028Y-140422380D01*
X291767314Y-141422380D02*
X291767314Y-140422380D01*
X260985119Y-141422380D02*
X260651785Y-140946190D01*
X260413690Y-141422380D02*
X260413690Y-140422380D01*
X260794642Y-140422380D01*
X260889880Y-140470000D01*
X260937500Y-140517619D01*
X260985119Y-140612857D01*
X260985119Y-140755714D01*
X260937500Y-140850952D01*
X260889880Y-140898571D01*
X260794642Y-140946190D01*
X260413690Y-140946190D01*
X261937500Y-140470000D02*
X261842261Y-140422380D01*
X261699404Y-140422380D01*
X261556547Y-140470000D01*
X261461309Y-140565238D01*
X261413690Y-140660476D01*
X261366071Y-140850952D01*
X261366071Y-140993809D01*
X261413690Y-141184285D01*
X261461309Y-141279523D01*
X261556547Y-141374761D01*
X261699404Y-141422380D01*
X261794642Y-141422380D01*
X261937500Y-141374761D01*
X261985119Y-141327142D01*
X261985119Y-140993809D01*
X261794642Y-140993809D01*
X262413690Y-140422380D02*
X262413690Y-141231904D01*
X262461309Y-141327142D01*
X262508928Y-141374761D01*
X262604166Y-141422380D01*
X262794642Y-141422380D01*
X262889880Y-141374761D01*
X262937500Y-141327142D01*
X262985119Y-141231904D01*
X262985119Y-140422380D01*
X263461309Y-141422380D02*
X263461309Y-140422380D01*
X241982738Y-141422380D02*
X241649404Y-140946190D01*
X241411309Y-141422380D02*
X241411309Y-140422380D01*
X241792261Y-140422380D01*
X241887500Y-140470000D01*
X241935119Y-140517619D01*
X241982738Y-140612857D01*
X241982738Y-140755714D01*
X241935119Y-140850952D01*
X241887500Y-140898571D01*
X241792261Y-140946190D01*
X241411309Y-140946190D01*
X242363690Y-141136666D02*
X242839880Y-141136666D01*
X242268452Y-141422380D02*
X242601785Y-140422380D01*
X242935119Y-141422380D01*
X243744642Y-141422380D02*
X243268452Y-141422380D01*
X243268452Y-140422380D01*
X243935119Y-140422380D02*
X244506547Y-140422380D01*
X244220833Y-141422380D02*
X244220833Y-140422380D01*
X259818452Y-122324761D02*
X259961309Y-122372380D01*
X260199404Y-122372380D01*
X260294642Y-122324761D01*
X260342261Y-122277142D01*
X260389880Y-122181904D01*
X260389880Y-122086666D01*
X260342261Y-121991428D01*
X260294642Y-121943809D01*
X260199404Y-121896190D01*
X260008928Y-121848571D01*
X259913690Y-121800952D01*
X259866071Y-121753333D01*
X259818452Y-121658095D01*
X259818452Y-121562857D01*
X259866071Y-121467619D01*
X259913690Y-121420000D01*
X260008928Y-121372380D01*
X260247023Y-121372380D01*
X260389880Y-121420000D01*
X261294642Y-122372380D02*
X260818452Y-122372380D01*
X260818452Y-121372380D01*
X261580357Y-122086666D02*
X262056547Y-122086666D01*
X261485119Y-122372380D02*
X261818452Y-121372380D01*
X262151785Y-122372380D01*
X262437500Y-122324761D02*
X262580357Y-122372380D01*
X262818452Y-122372380D01*
X262913690Y-122324761D01*
X262961309Y-122277142D01*
X263008928Y-122181904D01*
X263008928Y-122086666D01*
X262961309Y-121991428D01*
X262913690Y-121943809D01*
X262818452Y-121896190D01*
X262627976Y-121848571D01*
X262532738Y-121800952D01*
X262485119Y-121753333D01*
X262437500Y-121658095D01*
X262437500Y-121562857D01*
X262485119Y-121467619D01*
X262532738Y-121420000D01*
X262627976Y-121372380D01*
X262866071Y-121372380D01*
X263008928Y-121420000D01*
X263437500Y-122372380D02*
X263437500Y-121372380D01*
X263437500Y-121848571D02*
X264008928Y-121848571D01*
X264008928Y-122372380D02*
X264008928Y-121372380D01*
X241720833Y-122372380D02*
X241720833Y-121372380D01*
X241958928Y-121372380D01*
X242101785Y-121420000D01*
X242197023Y-121515238D01*
X242244642Y-121610476D01*
X242292261Y-121800952D01*
X242292261Y-121943809D01*
X242244642Y-122134285D01*
X242197023Y-122229523D01*
X242101785Y-122324761D01*
X241958928Y-122372380D01*
X241720833Y-122372380D01*
X242911309Y-121372380D02*
X243101785Y-121372380D01*
X243197023Y-121420000D01*
X243292261Y-121515238D01*
X243339880Y-121705714D01*
X243339880Y-122039047D01*
X243292261Y-122229523D01*
X243197023Y-122324761D01*
X243101785Y-122372380D01*
X242911309Y-122372380D01*
X242816071Y-122324761D01*
X242720833Y-122229523D01*
X242673214Y-122039047D01*
X242673214Y-121705714D01*
X242720833Y-121515238D01*
X242816071Y-121420000D01*
X242911309Y-121372380D01*
X243625595Y-121372380D02*
X244197023Y-121372380D01*
X243911309Y-122372380D02*
X243911309Y-121372380D01*
X222051785Y-122277142D02*
X222004166Y-122324761D01*
X221861309Y-122372380D01*
X221766071Y-122372380D01*
X221623214Y-122324761D01*
X221527976Y-122229523D01*
X221480357Y-122134285D01*
X221432738Y-121943809D01*
X221432738Y-121800952D01*
X221480357Y-121610476D01*
X221527976Y-121515238D01*
X221623214Y-121420000D01*
X221766071Y-121372380D01*
X221861309Y-121372380D01*
X222004166Y-121420000D01*
X222051785Y-121467619D01*
X222670833Y-121372380D02*
X222861309Y-121372380D01*
X222956547Y-121420000D01*
X223051785Y-121515238D01*
X223099404Y-121705714D01*
X223099404Y-122039047D01*
X223051785Y-122229523D01*
X222956547Y-122324761D01*
X222861309Y-122372380D01*
X222670833Y-122372380D01*
X222575595Y-122324761D01*
X222480357Y-122229523D01*
X222432738Y-122039047D01*
X222432738Y-121705714D01*
X222480357Y-121515238D01*
X222575595Y-121420000D01*
X222670833Y-121372380D01*
X223527976Y-122372380D02*
X223527976Y-121372380D01*
X223861309Y-122086666D01*
X224194642Y-121372380D01*
X224194642Y-122372380D01*
X224670833Y-122372380D02*
X224670833Y-121372380D01*
X225004166Y-122086666D01*
X225337500Y-121372380D01*
X225337500Y-122372380D01*
X225766071Y-122086666D02*
X226242261Y-122086666D01*
X225670833Y-122372380D02*
X226004166Y-121372380D01*
X226337500Y-122372380D01*
X204454166Y-122372380D02*
X204454166Y-121372380D01*
X204787500Y-122086666D01*
X205120833Y-121372380D01*
X205120833Y-122372380D01*
X185451785Y-122372380D02*
X185451785Y-121372380D01*
X186023214Y-122372380D01*
X186023214Y-121372380D01*
X166758928Y-121848571D02*
X166901785Y-121896190D01*
X166949404Y-121943809D01*
X166997023Y-122039047D01*
X166997023Y-122181904D01*
X166949404Y-122277142D01*
X166901785Y-122324761D01*
X166806547Y-122372380D01*
X166425595Y-122372380D01*
X166425595Y-121372380D01*
X166758928Y-121372380D01*
X166854166Y-121420000D01*
X166901785Y-121467619D01*
X166949404Y-121562857D01*
X166949404Y-121658095D01*
X166901785Y-121753333D01*
X166854166Y-121800952D01*
X166758928Y-121848571D01*
X166425595Y-121848571D01*
X147304166Y-121372380D02*
X147637500Y-122372380D01*
X147970833Y-121372380D01*
X128897023Y-122277142D02*
X128849404Y-122324761D01*
X128706547Y-122372380D01*
X128611309Y-122372380D01*
X128468452Y-122324761D01*
X128373214Y-122229523D01*
X128325595Y-122134285D01*
X128277976Y-121943809D01*
X128277976Y-121800952D01*
X128325595Y-121610476D01*
X128373214Y-121515238D01*
X128468452Y-121420000D01*
X128611309Y-121372380D01*
X128706547Y-121372380D01*
X128849404Y-121420000D01*
X128897023Y-121467619D01*
X109204166Y-121372380D02*
X109870833Y-122372380D01*
X109870833Y-121372380D02*
X109204166Y-122372380D01*
X90135866Y-121372380D02*
X90802533Y-121372380D01*
X90135866Y-122372380D01*
X90802533Y-122372380D01*
X269962500Y-103417619D02*
X269867261Y-103370000D01*
X269772023Y-103274761D01*
X269629166Y-103131904D01*
X269533928Y-103084285D01*
X269438690Y-103084285D01*
X269486309Y-103322380D02*
X269391071Y-103274761D01*
X269295833Y-103179523D01*
X269248214Y-102989047D01*
X269248214Y-102655714D01*
X269295833Y-102465238D01*
X269391071Y-102370000D01*
X269486309Y-102322380D01*
X269676785Y-102322380D01*
X269772023Y-102370000D01*
X269867261Y-102465238D01*
X269914880Y-102655714D01*
X269914880Y-102989047D01*
X269867261Y-103179523D01*
X269772023Y-103274761D01*
X269676785Y-103322380D01*
X269486309Y-103322380D01*
X270343452Y-102322380D02*
X270343452Y-103131904D01*
X270391071Y-103227142D01*
X270438690Y-103274761D01*
X270533928Y-103322380D01*
X270724404Y-103322380D01*
X270819642Y-103274761D01*
X270867261Y-103227142D01*
X270914880Y-103131904D01*
X270914880Y-102322380D01*
X271581547Y-102322380D02*
X271772023Y-102322380D01*
X271867261Y-102370000D01*
X271962500Y-102465238D01*
X272010119Y-102655714D01*
X272010119Y-102989047D01*
X271962500Y-103179523D01*
X271867261Y-103274761D01*
X271772023Y-103322380D01*
X271581547Y-103322380D01*
X271486309Y-103274761D01*
X271391071Y-103179523D01*
X271343452Y-102989047D01*
X271343452Y-102655714D01*
X271391071Y-102465238D01*
X271486309Y-102370000D01*
X271581547Y-102322380D01*
X272295833Y-102322380D02*
X272867261Y-102322380D01*
X272581547Y-103322380D02*
X272581547Y-102322380D01*
X273200595Y-102798571D02*
X273533928Y-102798571D01*
X273676785Y-103322380D02*
X273200595Y-103322380D01*
X273200595Y-102322380D01*
X273676785Y-102322380D01*
X248388690Y-103274761D02*
X248531547Y-103322380D01*
X248769642Y-103322380D01*
X248864880Y-103274761D01*
X248912500Y-103227142D01*
X248960119Y-103131904D01*
X248960119Y-103036666D01*
X248912500Y-102941428D01*
X248864880Y-102893809D01*
X248769642Y-102846190D01*
X248579166Y-102798571D01*
X248483928Y-102750952D01*
X248436309Y-102703333D01*
X248388690Y-102608095D01*
X248388690Y-102512857D01*
X248436309Y-102417619D01*
X248483928Y-102370000D01*
X248579166Y-102322380D01*
X248817261Y-102322380D01*
X248960119Y-102370000D01*
X249388690Y-102798571D02*
X249722023Y-102798571D01*
X249864880Y-103322380D02*
X249388690Y-103322380D01*
X249388690Y-102322380D01*
X249864880Y-102322380D01*
X250293452Y-103322380D02*
X250293452Y-102322380D01*
X250626785Y-103036666D01*
X250960119Y-102322380D01*
X250960119Y-103322380D01*
X251436309Y-103322380D02*
X251436309Y-102322380D01*
X252483928Y-103227142D02*
X252436309Y-103274761D01*
X252293452Y-103322380D01*
X252198214Y-103322380D01*
X252055357Y-103274761D01*
X251960119Y-103179523D01*
X251912500Y-103084285D01*
X251864880Y-102893809D01*
X251864880Y-102750952D01*
X251912500Y-102560476D01*
X251960119Y-102465238D01*
X252055357Y-102370000D01*
X252198214Y-102322380D01*
X252293452Y-102322380D01*
X252436309Y-102370000D01*
X252483928Y-102417619D01*
X253102976Y-102322380D02*
X253293452Y-102322380D01*
X253388690Y-102370000D01*
X253483928Y-102465238D01*
X253531547Y-102655714D01*
X253531547Y-102989047D01*
X253483928Y-103179523D01*
X253388690Y-103274761D01*
X253293452Y-103322380D01*
X253102976Y-103322380D01*
X253007738Y-103274761D01*
X252912500Y-103179523D01*
X252864880Y-102989047D01*
X252864880Y-102655714D01*
X252912500Y-102465238D01*
X253007738Y-102370000D01*
X253102976Y-102322380D01*
X254436309Y-103322380D02*
X253960119Y-103322380D01*
X253960119Y-102322380D01*
X254960119Y-102322380D02*
X255150595Y-102322380D01*
X255245833Y-102370000D01*
X255341071Y-102465238D01*
X255388690Y-102655714D01*
X255388690Y-102989047D01*
X255341071Y-103179523D01*
X255245833Y-103274761D01*
X255150595Y-103322380D01*
X254960119Y-103322380D01*
X254864880Y-103274761D01*
X254769642Y-103179523D01*
X254722023Y-102989047D01*
X254722023Y-102655714D01*
X254769642Y-102465238D01*
X254864880Y-102370000D01*
X254960119Y-102322380D01*
X255817261Y-103322380D02*
X255817261Y-102322380D01*
X256388690Y-103322380D01*
X256388690Y-102322380D01*
X233672023Y-103322380D02*
X233195833Y-103322380D01*
X233195833Y-102322380D01*
X214050595Y-103322380D02*
X214050595Y-102322380D01*
X214622023Y-103322380D02*
X214193452Y-102750952D01*
X214622023Y-102322380D02*
X214050595Y-102893809D01*
X195405357Y-102322380D02*
X195405357Y-103036666D01*
X195357738Y-103179523D01*
X195262500Y-103274761D01*
X195119642Y-103322380D01*
X195024404Y-103322380D01*
X175926785Y-103322380D02*
X175926785Y-102322380D01*
X175926785Y-102798571D02*
X176498214Y-102798571D01*
X176498214Y-103322380D02*
X176498214Y-102322380D01*
X157424404Y-102370000D02*
X157329166Y-102322380D01*
X157186309Y-102322380D01*
X157043452Y-102370000D01*
X156948214Y-102465238D01*
X156900595Y-102560476D01*
X156852976Y-102750952D01*
X156852976Y-102893809D01*
X156900595Y-103084285D01*
X156948214Y-103179523D01*
X157043452Y-103274761D01*
X157186309Y-103322380D01*
X157281547Y-103322380D01*
X157424404Y-103274761D01*
X157472023Y-103227142D01*
X157472023Y-102893809D01*
X157281547Y-102893809D01*
X138255357Y-102798571D02*
X137922023Y-102798571D01*
X137922023Y-103322380D02*
X137922023Y-102322380D01*
X138398214Y-102322380D01*
X118800595Y-103322380D02*
X118800595Y-102322380D01*
X119038690Y-102322380D01*
X119181547Y-102370000D01*
X119276785Y-102465238D01*
X119324404Y-102560476D01*
X119372023Y-102750952D01*
X119372023Y-102893809D01*
X119324404Y-103084285D01*
X119276785Y-103179523D01*
X119181547Y-103274761D01*
X119038690Y-103322380D01*
X118800595Y-103322380D01*
X99726785Y-103274761D02*
X99869642Y-103322380D01*
X100107738Y-103322380D01*
X100202976Y-103274761D01*
X100250595Y-103227142D01*
X100298214Y-103131904D01*
X100298214Y-103036666D01*
X100250595Y-102941428D01*
X100202976Y-102893809D01*
X100107738Y-102846190D01*
X99917261Y-102798571D01*
X99822023Y-102750952D01*
X99774404Y-102703333D01*
X99726785Y-102608095D01*
X99726785Y-102512857D01*
X99774404Y-102417619D01*
X99822023Y-102370000D01*
X99917261Y-102322380D01*
X100155357Y-102322380D01*
X100298214Y-102370000D01*
X80724404Y-103036666D02*
X81200595Y-103036666D01*
X80629166Y-103322380D02*
X80962500Y-102322380D01*
X81295833Y-103322380D01*
X280797023Y-84605714D02*
X281035119Y-84605714D01*
X281035119Y-83177142D01*
X280797023Y-83177142D01*
X262127976Y-84605714D02*
X261889880Y-84605714D01*
X261889880Y-83177142D01*
X262127976Y-83177142D01*
X242625595Y-84272380D02*
X242625595Y-83272380D01*
X243006547Y-83272380D01*
X243101785Y-83320000D01*
X243149404Y-83367619D01*
X243197023Y-83462857D01*
X243197023Y-83605714D01*
X243149404Y-83700952D01*
X243101785Y-83748571D01*
X243006547Y-83796190D01*
X242625595Y-83796190D01*
X223742261Y-83272380D02*
X223932738Y-83272380D01*
X224027976Y-83320000D01*
X224123214Y-83415238D01*
X224170833Y-83605714D01*
X224170833Y-83939047D01*
X224123214Y-84129523D01*
X224027976Y-84224761D01*
X223932738Y-84272380D01*
X223742261Y-84272380D01*
X223647023Y-84224761D01*
X223551785Y-84129523D01*
X223504166Y-83939047D01*
X223504166Y-83605714D01*
X223551785Y-83415238D01*
X223647023Y-83320000D01*
X223742261Y-83272380D01*
X204787500Y-84272380D02*
X204787500Y-83272380D01*
X185427485Y-83272380D02*
X185427485Y-84081904D01*
X185475104Y-84177142D01*
X185522723Y-84224761D01*
X185617961Y-84272380D01*
X185808438Y-84272380D01*
X185903676Y-84224761D01*
X185951295Y-84177142D01*
X185998914Y-84081904D01*
X185998914Y-83272380D01*
X166664400Y-83796190D02*
X166664400Y-84272380D01*
X166331066Y-83272380D02*
X166664400Y-83796190D01*
X166997733Y-83272380D01*
X147351785Y-83272380D02*
X147923214Y-83272380D01*
X147637500Y-84272380D02*
X147637500Y-83272380D01*
X109303714Y-83748571D02*
X109637047Y-83748571D01*
X109779904Y-84272380D02*
X109303714Y-84272380D01*
X109303714Y-83272380D01*
X109779904Y-83272380D01*
X90040628Y-83272380D02*
X90278723Y-84272380D01*
X90469200Y-83558095D01*
X90659676Y-84272380D01*
X90897771Y-83272380D01*
X71801352Y-84367619D02*
X71706114Y-84320000D01*
X71610876Y-84224761D01*
X71468019Y-84081904D01*
X71372780Y-84034285D01*
X71277542Y-84034285D01*
X71325161Y-84272380D02*
X71229923Y-84224761D01*
X71134685Y-84129523D01*
X71087066Y-83939047D01*
X71087066Y-83605714D01*
X71134685Y-83415238D01*
X71229923Y-83320000D01*
X71325161Y-83272380D01*
X71515638Y-83272380D01*
X71610876Y-83320000D01*
X71706114Y-83415238D01*
X71753733Y-83605714D01*
X71753733Y-83939047D01*
X71706114Y-84129523D01*
X71610876Y-84224761D01*
X71515638Y-84272380D01*
X71325161Y-84272380D01*
X269766133Y-65222380D02*
X269766133Y-64222380D01*
X270147085Y-64222380D01*
X270242323Y-64270000D01*
X270289942Y-64317619D01*
X270337561Y-64412857D01*
X270337561Y-64555714D01*
X270289942Y-64650952D01*
X270242323Y-64698571D01*
X270147085Y-64746190D01*
X269766133Y-64746190D01*
X271242323Y-65222380D02*
X270766133Y-65222380D01*
X270766133Y-64222380D01*
X271575657Y-64222380D02*
X271575657Y-65031904D01*
X271623276Y-65127142D01*
X271670895Y-65174761D01*
X271766133Y-65222380D01*
X271956609Y-65222380D01*
X272051847Y-65174761D01*
X272099466Y-65127142D01*
X272147085Y-65031904D01*
X272147085Y-64222380D01*
X272575657Y-65174761D02*
X272718514Y-65222380D01*
X272956609Y-65222380D01*
X273051847Y-65174761D01*
X273099466Y-65127142D01*
X273147085Y-65031904D01*
X273147085Y-64936666D01*
X273099466Y-64841428D01*
X273051847Y-64793809D01*
X272956609Y-64746190D01*
X272766133Y-64698571D01*
X272670895Y-64650952D01*
X272623276Y-64603333D01*
X272575657Y-64508095D01*
X272575657Y-64412857D01*
X272623276Y-64317619D01*
X272670895Y-64270000D01*
X272766133Y-64222380D01*
X273004228Y-64222380D01*
X273147085Y-64270000D01*
X250288761Y-65222380D02*
X250288761Y-64222380D01*
X250622095Y-64936666D01*
X250955428Y-64222380D01*
X250955428Y-65222380D01*
X251431619Y-65222380D02*
X251431619Y-64222380D01*
X251907809Y-65222380D02*
X251907809Y-64222380D01*
X252479238Y-65222380D01*
X252479238Y-64222380D01*
X252955428Y-64222380D02*
X252955428Y-65031904D01*
X253003047Y-65127142D01*
X253050666Y-65174761D01*
X253145904Y-65222380D01*
X253336380Y-65222380D01*
X253431619Y-65174761D01*
X253479238Y-65127142D01*
X253526857Y-65031904D01*
X253526857Y-64222380D01*
X253955428Y-65174761D02*
X254098285Y-65222380D01*
X254336380Y-65222380D01*
X254431619Y-65174761D01*
X254479238Y-65127142D01*
X254526857Y-65031904D01*
X254526857Y-64936666D01*
X254479238Y-64841428D01*
X254431619Y-64793809D01*
X254336380Y-64746190D01*
X254145904Y-64698571D01*
X254050666Y-64650952D01*
X254003047Y-64603333D01*
X253955428Y-64508095D01*
X253955428Y-64412857D01*
X254003047Y-64317619D01*
X254050666Y-64270000D01*
X254145904Y-64222380D01*
X254384000Y-64222380D01*
X254526857Y-64270000D01*
X232549485Y-64555714D02*
X233263771Y-64555714D01*
X232835200Y-64127142D02*
X232549485Y-65412857D01*
X233168533Y-64984285D02*
X232454247Y-64984285D01*
X232882819Y-65412857D02*
X233168533Y-64127142D01*
X233787580Y-64222380D02*
X233882819Y-64222380D01*
X233978057Y-64270000D01*
X234025676Y-64317619D01*
X234073295Y-64412857D01*
X234120914Y-64603333D01*
X234120914Y-64841428D01*
X234073295Y-65031904D01*
X234025676Y-65127142D01*
X233978057Y-65174761D01*
X233882819Y-65222380D01*
X233787580Y-65222380D01*
X233692342Y-65174761D01*
X233644723Y-65127142D01*
X233597104Y-65031904D01*
X233549485Y-64841428D01*
X233549485Y-64603333D01*
X233597104Y-64412857D01*
X233644723Y-64317619D01*
X233692342Y-64270000D01*
X233787580Y-64222380D01*
X213500685Y-64555714D02*
X214214971Y-64555714D01*
X213786400Y-64127142D02*
X213500685Y-65412857D01*
X214119733Y-64984285D02*
X213405447Y-64984285D01*
X213834019Y-65412857D02*
X214119733Y-64127142D01*
X214595923Y-65222380D02*
X214786400Y-65222380D01*
X214881638Y-65174761D01*
X214929257Y-65127142D01*
X215024495Y-64984285D01*
X215072114Y-64793809D01*
X215072114Y-64412857D01*
X215024495Y-64317619D01*
X214976876Y-64270000D01*
X214881638Y-64222380D01*
X214691161Y-64222380D01*
X214595923Y-64270000D01*
X214548304Y-64317619D01*
X214500685Y-64412857D01*
X214500685Y-64650952D01*
X214548304Y-64746190D01*
X214595923Y-64793809D01*
X214691161Y-64841428D01*
X214881638Y-64841428D01*
X214976876Y-64793809D01*
X215024495Y-64746190D01*
X215072114Y-64650952D01*
X194451885Y-64555714D02*
X195166171Y-64555714D01*
X194737600Y-64127142D02*
X194451885Y-65412857D01*
X195070933Y-64984285D02*
X194356647Y-64984285D01*
X194785219Y-65412857D02*
X195070933Y-64127142D01*
X195642361Y-64650952D02*
X195547123Y-64603333D01*
X195499504Y-64555714D01*
X195451885Y-64460476D01*
X195451885Y-64412857D01*
X195499504Y-64317619D01*
X195547123Y-64270000D01*
X195642361Y-64222380D01*
X195832838Y-64222380D01*
X195928076Y-64270000D01*
X195975695Y-64317619D01*
X196023314Y-64412857D01*
X196023314Y-64460476D01*
X195975695Y-64555714D01*
X195928076Y-64603333D01*
X195832838Y-64650952D01*
X195642361Y-64650952D01*
X195547123Y-64698571D01*
X195499504Y-64746190D01*
X195451885Y-64841428D01*
X195451885Y-65031904D01*
X195499504Y-65127142D01*
X195547123Y-65174761D01*
X195642361Y-65222380D01*
X195832838Y-65222380D01*
X195928076Y-65174761D01*
X195975695Y-65127142D01*
X196023314Y-65031904D01*
X196023314Y-64841428D01*
X195975695Y-64746190D01*
X195928076Y-64698571D01*
X195832838Y-64650952D01*
X175403085Y-64555714D02*
X176117371Y-64555714D01*
X175688800Y-64127142D02*
X175403085Y-65412857D01*
X176022133Y-64984285D02*
X175307847Y-64984285D01*
X175736419Y-65412857D02*
X176022133Y-64127142D01*
X176355466Y-64222380D02*
X177022133Y-64222380D01*
X176593561Y-65222380D01*
X156354285Y-64555714D02*
X157068571Y-64555714D01*
X156640000Y-64127142D02*
X156354285Y-65412857D01*
X156973333Y-64984285D02*
X156259047Y-64984285D01*
X156687619Y-65412857D02*
X156973333Y-64127142D01*
X157830476Y-64222380D02*
X157640000Y-64222380D01*
X157544761Y-64270000D01*
X157497142Y-64317619D01*
X157401904Y-64460476D01*
X157354285Y-64650952D01*
X157354285Y-65031904D01*
X157401904Y-65127142D01*
X157449523Y-65174761D01*
X157544761Y-65222380D01*
X157735238Y-65222380D01*
X157830476Y-65174761D01*
X157878095Y-65127142D01*
X157925714Y-65031904D01*
X157925714Y-64793809D01*
X157878095Y-64698571D01*
X157830476Y-64650952D01*
X157735238Y-64603333D01*
X157544761Y-64603333D01*
X157449523Y-64650952D01*
X157401904Y-64698571D01*
X157354285Y-64793809D01*
X137305485Y-64555714D02*
X138019771Y-64555714D01*
X137591200Y-64127142D02*
X137305485Y-65412857D01*
X137924533Y-64984285D02*
X137210247Y-64984285D01*
X137638819Y-65412857D02*
X137924533Y-64127142D01*
X138829295Y-64222380D02*
X138353104Y-64222380D01*
X138305485Y-64698571D01*
X138353104Y-64650952D01*
X138448342Y-64603333D01*
X138686438Y-64603333D01*
X138781676Y-64650952D01*
X138829295Y-64698571D01*
X138876914Y-64793809D01*
X138876914Y-65031904D01*
X138829295Y-65127142D01*
X138781676Y-65174761D01*
X138686438Y-65222380D01*
X138448342Y-65222380D01*
X138353104Y-65174761D01*
X138305485Y-65127142D01*
X118276785Y-64555714D02*
X118991071Y-64555714D01*
X118562500Y-64127142D02*
X118276785Y-65412857D01*
X118895833Y-64984285D02*
X118181547Y-64984285D01*
X118610119Y-65412857D02*
X118895833Y-64127142D01*
X119752976Y-64555714D02*
X119752976Y-65222380D01*
X119514880Y-64174761D02*
X119276785Y-64889047D01*
X119895833Y-64889047D01*
X99226785Y-64555714D02*
X99941071Y-64555714D01*
X99512500Y-64127142D02*
X99226785Y-65412857D01*
X99845833Y-64984285D02*
X99131547Y-64984285D01*
X99560119Y-65412857D02*
X99845833Y-64127142D01*
X100179166Y-64222380D02*
X100798214Y-64222380D01*
X100464880Y-64603333D01*
X100607738Y-64603333D01*
X100702976Y-64650952D01*
X100750595Y-64698571D01*
X100798214Y-64793809D01*
X100798214Y-65031904D01*
X100750595Y-65127142D01*
X100702976Y-65174761D01*
X100607738Y-65222380D01*
X100322023Y-65222380D01*
X100226785Y-65174761D01*
X100179166Y-65127142D01*
X80176785Y-64555714D02*
X80891071Y-64555714D01*
X80462500Y-64127142D02*
X80176785Y-65412857D01*
X80795833Y-64984285D02*
X80081547Y-64984285D01*
X80510119Y-65412857D02*
X80795833Y-64127142D01*
X81176785Y-64317619D02*
X81224404Y-64270000D01*
X81319642Y-64222380D01*
X81557738Y-64222380D01*
X81652976Y-64270000D01*
X81700595Y-64317619D01*
X81748214Y-64412857D01*
X81748214Y-64508095D01*
X81700595Y-64650952D01*
X81129166Y-65222380D01*
X81748214Y-65222380D01*
X61126785Y-64555714D02*
X61841071Y-64555714D01*
X61412500Y-64127142D02*
X61126785Y-65412857D01*
X61745833Y-64984285D02*
X61031547Y-64984285D01*
X61460119Y-65412857D02*
X61745833Y-64127142D01*
X62698214Y-65222380D02*
X62126785Y-65222380D01*
X62412500Y-65222380D02*
X62412500Y-64222380D01*
X62317261Y-64365238D01*
X62222023Y-64460476D01*
X62126785Y-64508095D01*
X41672023Y-64698571D02*
X42005357Y-64698571D01*
X42148214Y-65222380D02*
X41672023Y-65222380D01*
X41672023Y-64222380D01*
X42148214Y-64222380D01*
X42529166Y-65174761D02*
X42672023Y-65222380D01*
X42910119Y-65222380D01*
X43005357Y-65174761D01*
X43052976Y-65127142D01*
X43100595Y-65031904D01*
X43100595Y-64936666D01*
X43052976Y-64841428D01*
X43005357Y-64793809D01*
X42910119Y-64746190D01*
X42719642Y-64698571D01*
X42624404Y-64650952D01*
X42576785Y-64603333D01*
X42529166Y-64508095D01*
X42529166Y-64412857D01*
X42576785Y-64317619D01*
X42624404Y-64270000D01*
X42719642Y-64222380D01*
X42957738Y-64222380D01*
X43100595Y-64270000D01*
X44100595Y-65127142D02*
X44052976Y-65174761D01*
X43910119Y-65222380D01*
X43814880Y-65222380D01*
X43672023Y-65174761D01*
X43576785Y-65079523D01*
X43529166Y-64984285D01*
X43481547Y-64793809D01*
X43481547Y-64650952D01*
X43529166Y-64460476D01*
X43576785Y-64365238D01*
X43672023Y-64270000D01*
X43814880Y-64222380D01*
X43910119Y-64222380D01*
X44052976Y-64270000D01*
X44100595Y-64317619D01*
X103870238Y-141422380D02*
X103394047Y-141422380D01*
X103394047Y-140422380D01*
X104155952Y-141136666D02*
X104632142Y-141136666D01*
X104060714Y-141422380D02*
X104394047Y-140422380D01*
X104727380Y-141422380D01*
X105536904Y-141422380D02*
X105060714Y-141422380D01*
X105060714Y-140422380D01*
X105727380Y-140422380D02*
X106298809Y-140422380D01*
X106013095Y-141422380D02*
X106013095Y-140422380D01*
X75247619Y-141422380D02*
X74771428Y-141422380D01*
X74771428Y-140422380D01*
X76104761Y-140470000D02*
X76009523Y-140422380D01*
X75866666Y-140422380D01*
X75723809Y-140470000D01*
X75628571Y-140565238D01*
X75580952Y-140660476D01*
X75533333Y-140850952D01*
X75533333Y-140993809D01*
X75580952Y-141184285D01*
X75628571Y-141279523D01*
X75723809Y-141374761D01*
X75866666Y-141422380D01*
X75961904Y-141422380D01*
X76104761Y-141374761D01*
X76152380Y-141327142D01*
X76152380Y-140993809D01*
X75961904Y-140993809D01*
X76580952Y-140422380D02*
X76580952Y-141231904D01*
X76628571Y-141327142D01*
X76676190Y-141374761D01*
X76771428Y-141422380D01*
X76961904Y-141422380D01*
X77057142Y-141374761D01*
X77104761Y-141327142D01*
X77152380Y-141231904D01*
X77152380Y-140422380D01*
X77628571Y-141422380D02*
X77628571Y-140422380D01*
X46645749Y-141412996D02*
X46169559Y-141412996D01*
X46169559Y-140412996D01*
X47550511Y-141317758D02*
X47502892Y-141365377D01*
X47360035Y-141412996D01*
X47264797Y-141412996D01*
X47121940Y-141365377D01*
X47026701Y-141270139D01*
X46979082Y-141174901D01*
X46931463Y-140984425D01*
X46931463Y-140841568D01*
X46979082Y-140651092D01*
X47026701Y-140555854D01*
X47121940Y-140460616D01*
X47264797Y-140412996D01*
X47360035Y-140412996D01*
X47502892Y-140460616D01*
X47550511Y-140508235D01*
X47836225Y-140412996D02*
X48407654Y-140412996D01*
X48121940Y-141412996D02*
X48121940Y-140412996D01*
X49217178Y-141412996D02*
X48740987Y-141412996D01*
X48740987Y-140412996D01*
X301157433Y-83748571D02*
X301300290Y-83796190D01*
X301347909Y-83843809D01*
X301395528Y-83939047D01*
X301395528Y-84081904D01*
X301347909Y-84177142D01*
X301300290Y-84224761D01*
X301205052Y-84272380D01*
X300824100Y-84272380D01*
X300824100Y-83272380D01*
X301157433Y-83272380D01*
X301252671Y-83320000D01*
X301300290Y-83367619D01*
X301347909Y-83462857D01*
X301347909Y-83558095D01*
X301300290Y-83653333D01*
X301252671Y-83700952D01*
X301157433Y-83748571D01*
X300824100Y-83748571D01*
X301776480Y-83986666D02*
X302252671Y-83986666D01*
X301681242Y-84272380D02*
X302014576Y-83272380D01*
X302347909Y-84272380D01*
X303252671Y-84177142D02*
X303205052Y-84224761D01*
X303062195Y-84272380D01*
X302966957Y-84272380D01*
X302824100Y-84224761D01*
X302728861Y-84129523D01*
X302681242Y-84034285D01*
X302633623Y-83843809D01*
X302633623Y-83700952D01*
X302681242Y-83510476D01*
X302728861Y-83415238D01*
X302824100Y-83320000D01*
X302966957Y-83272380D01*
X303062195Y-83272380D01*
X303205052Y-83320000D01*
X303252671Y-83367619D01*
X303681242Y-84272380D02*
X303681242Y-83272380D01*
X304252671Y-84272380D02*
X303824100Y-83700952D01*
X304252671Y-83272380D02*
X303681242Y-83843809D01*
X304633623Y-84224761D02*
X304776480Y-84272380D01*
X305014576Y-84272380D01*
X305109814Y-84224761D01*
X305157433Y-84177142D01*
X305205052Y-84081904D01*
X305205052Y-83986666D01*
X305157433Y-83891428D01*
X305109814Y-83843809D01*
X305014576Y-83796190D01*
X304824100Y-83748571D01*
X304728861Y-83700952D01*
X304681242Y-83653333D01*
X304633623Y-83558095D01*
X304633623Y-83462857D01*
X304681242Y-83367619D01*
X304728861Y-83320000D01*
X304824100Y-83272380D01*
X305062195Y-83272380D01*
X305205052Y-83320000D01*
X306109814Y-84272380D02*
X305633623Y-84272380D01*
X305633623Y-83272380D01*
X306395528Y-83986666D02*
X306871719Y-83986666D01*
X306300290Y-84272380D02*
X306633623Y-83272380D01*
X306966957Y-84272380D01*
X307252671Y-84224761D02*
X307395528Y-84272380D01*
X307633623Y-84272380D01*
X307728861Y-84224761D01*
X307776480Y-84177142D01*
X307824100Y-84081904D01*
X307824100Y-83986666D01*
X307776480Y-83891428D01*
X307728861Y-83843809D01*
X307633623Y-83796190D01*
X307443147Y-83748571D01*
X307347909Y-83700952D01*
X307300290Y-83653333D01*
X307252671Y-83558095D01*
X307252671Y-83462857D01*
X307300290Y-83367619D01*
X307347909Y-83320000D01*
X307443147Y-83272380D01*
X307681242Y-83272380D01*
X307824100Y-83320000D01*
X308252671Y-84272380D02*
X308252671Y-83272380D01*
X308252671Y-83748571D02*
X308824100Y-83748571D01*
X308824100Y-84272380D02*
X308824100Y-83272380D01*
X284011904Y-122372380D02*
X283678571Y-121896190D01*
X283440476Y-122372380D02*
X283440476Y-121372380D01*
X283821428Y-121372380D01*
X283916666Y-121420000D01*
X283964285Y-121467619D01*
X284011904Y-121562857D01*
X284011904Y-121705714D01*
X283964285Y-121800952D01*
X283916666Y-121848571D01*
X283821428Y-121896190D01*
X283440476Y-121896190D01*
X284392857Y-122324761D02*
X284535714Y-122372380D01*
X284773809Y-122372380D01*
X284869047Y-122324761D01*
X284916666Y-122277142D01*
X284964285Y-122181904D01*
X284964285Y-122086666D01*
X284916666Y-121991428D01*
X284869047Y-121943809D01*
X284773809Y-121896190D01*
X284583333Y-121848571D01*
X284488095Y-121800952D01*
X284440476Y-121753333D01*
X284392857Y-121658095D01*
X284392857Y-121562857D01*
X284440476Y-121467619D01*
X284488095Y-121420000D01*
X284583333Y-121372380D01*
X284821428Y-121372380D01*
X284964285Y-121420000D01*
X285392857Y-122372380D02*
X285392857Y-121372380D01*
X285392857Y-121848571D02*
X285964285Y-121848571D01*
X285964285Y-122372380D02*
X285964285Y-121372380D01*
X286440476Y-122372380D02*
X286440476Y-121372380D01*
X287250000Y-121848571D02*
X286916666Y-121848571D01*
X286916666Y-122372380D02*
X286916666Y-121372380D01*
X287392857Y-121372380D01*
X287630952Y-121372380D02*
X288202380Y-121372380D01*
X287916666Y-122372380D02*
X287916666Y-121372380D01*
X55411904Y-122372380D02*
X54935714Y-122372380D01*
X54935714Y-121372380D01*
X55697619Y-122324761D02*
X55840476Y-122372380D01*
X56078571Y-122372380D01*
X56173809Y-122324761D01*
X56221428Y-122277142D01*
X56269047Y-122181904D01*
X56269047Y-122086666D01*
X56221428Y-121991428D01*
X56173809Y-121943809D01*
X56078571Y-121896190D01*
X55888095Y-121848571D01*
X55792857Y-121800952D01*
X55745238Y-121753333D01*
X55697619Y-121658095D01*
X55697619Y-121562857D01*
X55745238Y-121467619D01*
X55792857Y-121420000D01*
X55888095Y-121372380D01*
X56126190Y-121372380D01*
X56269047Y-121420000D01*
X56697619Y-122372380D02*
X56697619Y-121372380D01*
X56697619Y-121848571D02*
X57269047Y-121848571D01*
X57269047Y-122372380D02*
X57269047Y-121372380D01*
X57745238Y-122372380D02*
X57745238Y-121372380D01*
X58554761Y-121848571D02*
X58221428Y-121848571D01*
X58221428Y-122372380D02*
X58221428Y-121372380D01*
X58697619Y-121372380D01*
X58935714Y-121372380D02*
X59507142Y-121372380D01*
X59221428Y-122372380D02*
X59221428Y-121372380D01*
X46407654Y-83266668D02*
X46979082Y-83266668D01*
X46693368Y-84266668D02*
X46693368Y-83266668D01*
X47264797Y-83980954D02*
X47740987Y-83980954D01*
X47169559Y-84266668D02*
X47502892Y-83266668D01*
X47836225Y-84266668D01*
X48502892Y-83742859D02*
X48645749Y-83790478D01*
X48693368Y-83838097D01*
X48740987Y-83933335D01*
X48740987Y-84076192D01*
X48693368Y-84171430D01*
X48645749Y-84219049D01*
X48550511Y-84266668D01*
X48169559Y-84266668D01*
X48169559Y-83266668D01*
X48502892Y-83266668D01*
X48598130Y-83314288D01*
X48645749Y-83361907D01*
X48693368Y-83457145D01*
X48693368Y-83552383D01*
X48645749Y-83647621D01*
X48598130Y-83695240D01*
X48502892Y-83742859D01*
X48169559Y-83742859D01*
D14*
X325185714Y-105602380D02*
X325185714Y-104602380D01*
X325566666Y-104602380D01*
X325661904Y-104650000D01*
X325709523Y-104697619D01*
X325757142Y-104792857D01*
X325757142Y-104935714D01*
X325709523Y-105030952D01*
X325661904Y-105078571D01*
X325566666Y-105126190D01*
X325185714Y-105126190D01*
X326376190Y-104602380D02*
X326566666Y-104602380D01*
X326661904Y-104650000D01*
X326757142Y-104745238D01*
X326804761Y-104935714D01*
X326804761Y-105269047D01*
X326757142Y-105459523D01*
X326661904Y-105554761D01*
X326566666Y-105602380D01*
X326376190Y-105602380D01*
X326280952Y-105554761D01*
X326185714Y-105459523D01*
X326138095Y-105269047D01*
X326138095Y-104935714D01*
X326185714Y-104745238D01*
X326280952Y-104650000D01*
X326376190Y-104602380D01*
X327138095Y-104602380D02*
X327376190Y-105602380D01*
X327566666Y-104888095D01*
X327757142Y-105602380D01*
X327995238Y-104602380D01*
X328376190Y-105078571D02*
X328709523Y-105078571D01*
X328852380Y-105602380D02*
X328376190Y-105602380D01*
X328376190Y-104602380D01*
X328852380Y-104602380D01*
X329852380Y-105602380D02*
X329519047Y-105126190D01*
X329280952Y-105602380D02*
X329280952Y-104602380D01*
X329661904Y-104602380D01*
X329757142Y-104650000D01*
X329804761Y-104697619D01*
X329852380Y-104792857D01*
X329852380Y-104935714D01*
X329804761Y-105030952D01*
X329757142Y-105078571D01*
X329661904Y-105126190D01*
X329280952Y-105126190D01*
X330042857Y-105697619D02*
X330804761Y-105697619D01*
X330995238Y-105554761D02*
X331138095Y-105602380D01*
X331376190Y-105602380D01*
X331471428Y-105554761D01*
X331519047Y-105507142D01*
X331566666Y-105411904D01*
X331566666Y-105316666D01*
X331519047Y-105221428D01*
X331471428Y-105173809D01*
X331376190Y-105126190D01*
X331185714Y-105078571D01*
X331090476Y-105030952D01*
X331042857Y-104983333D01*
X330995238Y-104888095D01*
X330995238Y-104792857D01*
X331042857Y-104697619D01*
X331090476Y-104650000D01*
X331185714Y-104602380D01*
X331423809Y-104602380D01*
X331566666Y-104650000D01*
X331900000Y-104602380D02*
X332138095Y-105602380D01*
X332328571Y-104888095D01*
X332519047Y-105602380D01*
X332757142Y-104602380D01*
X333661904Y-105602380D02*
X333090476Y-105602380D01*
X333376190Y-105602380D02*
X333376190Y-104602380D01*
X333280952Y-104745238D01*
X333185714Y-104840476D01*
X333090476Y-104888095D01*
X334110090Y-66211904D02*
X334186280Y-66211904D01*
X334262470Y-66250000D01*
X334300566Y-66288095D01*
X334338661Y-66364285D01*
X334376756Y-66516666D01*
X334376756Y-66707142D01*
X334338661Y-66859523D01*
X334300566Y-66935714D01*
X334262470Y-66973809D01*
X334186280Y-67011904D01*
X334110090Y-67011904D01*
X334033899Y-66973809D01*
X333995804Y-66935714D01*
X333957709Y-66859523D01*
X333919613Y-66707142D01*
X333919613Y-66516666D01*
X333957709Y-66364285D01*
X333995804Y-66288095D01*
X334033899Y-66250000D01*
X334110090Y-66211904D01*
X334871994Y-66211904D02*
X334948185Y-66211904D01*
X335024375Y-66250000D01*
X335062470Y-66288095D01*
X335100566Y-66364285D01*
X335138661Y-66516666D01*
X335138661Y-66707142D01*
X335100566Y-66859523D01*
X335062470Y-66935714D01*
X335024375Y-66973809D01*
X334948185Y-67011904D01*
X334871994Y-67011904D01*
X334795804Y-66973809D01*
X334757709Y-66935714D01*
X334719613Y-66859523D01*
X334681518Y-66707142D01*
X334681518Y-66516666D01*
X334719613Y-66364285D01*
X334757709Y-66288095D01*
X334795804Y-66250000D01*
X334871994Y-66211904D01*
X335595804Y-66554761D02*
X335519613Y-66516666D01*
X335481518Y-66478571D01*
X335443423Y-66402380D01*
X335443423Y-66364285D01*
X335481518Y-66288095D01*
X335519613Y-66250000D01*
X335595804Y-66211904D01*
X335748185Y-66211904D01*
X335824375Y-66250000D01*
X335862470Y-66288095D01*
X335900566Y-66364285D01*
X335900566Y-66402380D01*
X335862470Y-66478571D01*
X335824375Y-66516666D01*
X335748185Y-66554761D01*
X335595804Y-66554761D01*
X335519613Y-66592857D01*
X335481518Y-66630952D01*
X335443423Y-66707142D01*
X335443423Y-66859523D01*
X335481518Y-66935714D01*
X335519613Y-66973809D01*
X335595804Y-67011904D01*
X335748185Y-67011904D01*
X335824375Y-66973809D01*
X335862470Y-66935714D01*
X335900566Y-66859523D01*
X335900566Y-66707142D01*
X335862470Y-66630952D01*
X335824375Y-66592857D01*
X335748185Y-66554761D01*
X334110090Y-76511904D02*
X334186280Y-76511904D01*
X334262470Y-76550000D01*
X334300566Y-76588095D01*
X334338661Y-76664285D01*
X334376756Y-76816666D01*
X334376756Y-77007142D01*
X334338661Y-77159523D01*
X334300566Y-77235714D01*
X334262470Y-77273809D01*
X334186280Y-77311904D01*
X334110090Y-77311904D01*
X334033899Y-77273809D01*
X333995804Y-77235714D01*
X333957709Y-77159523D01*
X333919613Y-77007142D01*
X333919613Y-76816666D01*
X333957709Y-76664285D01*
X333995804Y-76588095D01*
X334033899Y-76550000D01*
X334110090Y-76511904D01*
X334681518Y-76588095D02*
X334719613Y-76550000D01*
X334795804Y-76511904D01*
X334986280Y-76511904D01*
X335062470Y-76550000D01*
X335100566Y-76588095D01*
X335138661Y-76664285D01*
X335138661Y-76740476D01*
X335100566Y-76854761D01*
X334643423Y-77311904D01*
X335138661Y-77311904D01*
X335633899Y-76511904D02*
X335710090Y-76511904D01*
X335786280Y-76550000D01*
X335824375Y-76588095D01*
X335862470Y-76664285D01*
X335900566Y-76816666D01*
X335900566Y-77007142D01*
X335862470Y-77159523D01*
X335824375Y-77235714D01*
X335786280Y-77273809D01*
X335710090Y-77311904D01*
X335633899Y-77311904D01*
X335557709Y-77273809D01*
X335519613Y-77235714D01*
X335481518Y-77159523D01*
X335443423Y-77007142D01*
X335443423Y-76816666D01*
X335481518Y-76664285D01*
X335519613Y-76588095D01*
X335557709Y-76550000D01*
X335633899Y-76511904D01*
X334110090Y-73901904D02*
X334186280Y-73901904D01*
X334262470Y-73940000D01*
X334300566Y-73978095D01*
X334338661Y-74054285D01*
X334376756Y-74206666D01*
X334376756Y-74397142D01*
X334338661Y-74549523D01*
X334300566Y-74625714D01*
X334262470Y-74663809D01*
X334186280Y-74701904D01*
X334110090Y-74701904D01*
X334033899Y-74663809D01*
X333995804Y-74625714D01*
X333957709Y-74549523D01*
X333919613Y-74397142D01*
X333919613Y-74206666D01*
X333957709Y-74054285D01*
X333995804Y-73978095D01*
X334033899Y-73940000D01*
X334110090Y-73901904D01*
X335138661Y-74701904D02*
X334681518Y-74701904D01*
X334910090Y-74701904D02*
X334910090Y-73901904D01*
X334833899Y-74016190D01*
X334757709Y-74092380D01*
X334681518Y-74130476D01*
X335405328Y-73901904D02*
X335938661Y-73901904D01*
X335595804Y-74701904D01*
X334224376Y-71400000D02*
X334148185Y-71361904D01*
X334033900Y-71361904D01*
X333919614Y-71400000D01*
X333843423Y-71476190D01*
X333805328Y-71552380D01*
X333767233Y-71704761D01*
X333767233Y-71819047D01*
X333805328Y-71971428D01*
X333843423Y-72047619D01*
X333919614Y-72123809D01*
X334033900Y-72161904D01*
X334110090Y-72161904D01*
X334224376Y-72123809D01*
X334262471Y-72085714D01*
X334262471Y-71819047D01*
X334110090Y-71819047D01*
X334605328Y-72161904D02*
X334605328Y-71361904D01*
X335062471Y-72161904D01*
X335062471Y-71361904D01*
X335443423Y-72161904D02*
X335443423Y-71361904D01*
X335633900Y-71361904D01*
X335748185Y-71400000D01*
X335824376Y-71476190D01*
X335862471Y-71552380D01*
X335900566Y-71704761D01*
X335900566Y-71819047D01*
X335862471Y-71971428D01*
X335824376Y-72047619D01*
X335748185Y-72123809D01*
X335633900Y-72161904D01*
X335443423Y-72161904D01*
X334224376Y-68860000D02*
X334148185Y-68821904D01*
X334033900Y-68821904D01*
X333919614Y-68860000D01*
X333843423Y-68936190D01*
X333805328Y-69012380D01*
X333767233Y-69164761D01*
X333767233Y-69279047D01*
X333805328Y-69431428D01*
X333843423Y-69507619D01*
X333919614Y-69583809D01*
X334033900Y-69621904D01*
X334110090Y-69621904D01*
X334224376Y-69583809D01*
X334262471Y-69545714D01*
X334262471Y-69279047D01*
X334110090Y-69279047D01*
X334605328Y-69621904D02*
X334605328Y-68821904D01*
X335062471Y-69621904D01*
X335062471Y-68821904D01*
X335443423Y-69621904D02*
X335443423Y-68821904D01*
X335633900Y-68821904D01*
X335748185Y-68860000D01*
X335824376Y-68936190D01*
X335862471Y-69012380D01*
X335900566Y-69164761D01*
X335900566Y-69279047D01*
X335862471Y-69431428D01*
X335824376Y-69507619D01*
X335748185Y-69583809D01*
X335633900Y-69621904D01*
X335443423Y-69621904D01*
X334110090Y-79011904D02*
X334186280Y-79011904D01*
X334262470Y-79050000D01*
X334300566Y-79088095D01*
X334338661Y-79164285D01*
X334376756Y-79316666D01*
X334376756Y-79507142D01*
X334338661Y-79659523D01*
X334300566Y-79735714D01*
X334262470Y-79773809D01*
X334186280Y-79811904D01*
X334110090Y-79811904D01*
X334033899Y-79773809D01*
X333995804Y-79735714D01*
X333957709Y-79659523D01*
X333919613Y-79507142D01*
X333919613Y-79316666D01*
X333957709Y-79164285D01*
X333995804Y-79088095D01*
X334033899Y-79050000D01*
X334110090Y-79011904D01*
X334681518Y-79088095D02*
X334719613Y-79050000D01*
X334795804Y-79011904D01*
X334986280Y-79011904D01*
X335062470Y-79050000D01*
X335100566Y-79088095D01*
X335138661Y-79164285D01*
X335138661Y-79240476D01*
X335100566Y-79354761D01*
X334643423Y-79811904D01*
X335138661Y-79811904D01*
X335443423Y-79088095D02*
X335481518Y-79050000D01*
X335557709Y-79011904D01*
X335748185Y-79011904D01*
X335824375Y-79050000D01*
X335862470Y-79088095D01*
X335900566Y-79164285D01*
X335900566Y-79240476D01*
X335862470Y-79354761D01*
X335405328Y-79811904D01*
X335900566Y-79811904D01*
X334110090Y-81511904D02*
X334186280Y-81511904D01*
X334262470Y-81550000D01*
X334300566Y-81588095D01*
X334338661Y-81664285D01*
X334376756Y-81816666D01*
X334376756Y-82007142D01*
X334338661Y-82159523D01*
X334300566Y-82235714D01*
X334262470Y-82273809D01*
X334186280Y-82311904D01*
X334110090Y-82311904D01*
X334033899Y-82273809D01*
X333995804Y-82235714D01*
X333957709Y-82159523D01*
X333919613Y-82007142D01*
X333919613Y-81816666D01*
X333957709Y-81664285D01*
X333995804Y-81588095D01*
X334033899Y-81550000D01*
X334110090Y-81511904D01*
X334681518Y-81588095D02*
X334719613Y-81550000D01*
X334795804Y-81511904D01*
X334986280Y-81511904D01*
X335062470Y-81550000D01*
X335100566Y-81588095D01*
X335138661Y-81664285D01*
X335138661Y-81740476D01*
X335100566Y-81854761D01*
X334643423Y-82311904D01*
X335138661Y-82311904D01*
X335824375Y-81778571D02*
X335824375Y-82311904D01*
X335633899Y-81473809D02*
X335443423Y-82045238D01*
X335938661Y-82045238D01*
X334376756Y-84861904D02*
X333919613Y-84861904D01*
X334148185Y-84861904D02*
X334148185Y-84061904D01*
X334071994Y-84176190D01*
X333995804Y-84252380D01*
X333919613Y-84290476D01*
X334871994Y-84061904D02*
X334948185Y-84061904D01*
X335024375Y-84100000D01*
X335062470Y-84138095D01*
X335100566Y-84214285D01*
X335138661Y-84366666D01*
X335138661Y-84557142D01*
X335100566Y-84709523D01*
X335062470Y-84785714D01*
X335024375Y-84823809D01*
X334948185Y-84861904D01*
X334871994Y-84861904D01*
X334795804Y-84823809D01*
X334757709Y-84785714D01*
X334719613Y-84709523D01*
X334681518Y-84557142D01*
X334681518Y-84366666D01*
X334719613Y-84214285D01*
X334757709Y-84138095D01*
X334795804Y-84100000D01*
X334871994Y-84061904D01*
X335633899Y-84061904D02*
X335710090Y-84061904D01*
X335786280Y-84100000D01*
X335824375Y-84138095D01*
X335862470Y-84214285D01*
X335900566Y-84366666D01*
X335900566Y-84557142D01*
X335862470Y-84709523D01*
X335824375Y-84785714D01*
X335786280Y-84823809D01*
X335710090Y-84861904D01*
X335633899Y-84861904D01*
X335557709Y-84823809D01*
X335519613Y-84785714D01*
X335481518Y-84709523D01*
X335443423Y-84557142D01*
X335443423Y-84366666D01*
X335481518Y-84214285D01*
X335519613Y-84138095D01*
X335557709Y-84100000D01*
X335633899Y-84061904D01*
X334376756Y-89941904D02*
X333919613Y-89941904D01*
X334148185Y-89941904D02*
X334148185Y-89141904D01*
X334071994Y-89256190D01*
X333995804Y-89332380D01*
X333919613Y-89370476D01*
X334871994Y-89141904D02*
X334948185Y-89141904D01*
X335024375Y-89180000D01*
X335062470Y-89218095D01*
X335100566Y-89294285D01*
X335138661Y-89446666D01*
X335138661Y-89637142D01*
X335100566Y-89789523D01*
X335062470Y-89865714D01*
X335024375Y-89903809D01*
X334948185Y-89941904D01*
X334871994Y-89941904D01*
X334795804Y-89903809D01*
X334757709Y-89865714D01*
X334719613Y-89789523D01*
X334681518Y-89637142D01*
X334681518Y-89446666D01*
X334719613Y-89294285D01*
X334757709Y-89218095D01*
X334795804Y-89180000D01*
X334871994Y-89141904D01*
X335824375Y-89408571D02*
X335824375Y-89941904D01*
X335633899Y-89103809D02*
X335443423Y-89675238D01*
X335938661Y-89675238D01*
X323302375Y-87401904D02*
X322845232Y-87401904D01*
X323073804Y-87401904D02*
X323073804Y-86601904D01*
X322997613Y-86716190D01*
X322921423Y-86792380D01*
X322845232Y-86830476D01*
X324064280Y-87401904D02*
X323607137Y-87401904D01*
X323835709Y-87401904D02*
X323835709Y-86601904D01*
X323759518Y-86716190D01*
X323683328Y-86792380D01*
X323607137Y-86830476D01*
X324826185Y-87401904D02*
X324369042Y-87401904D01*
X324597613Y-87401904D02*
X324597613Y-86601904D01*
X324521423Y-86716190D01*
X324445232Y-86792380D01*
X324369042Y-86830476D01*
X323302375Y-84861904D02*
X322845232Y-84861904D01*
X323073804Y-84861904D02*
X323073804Y-84061904D01*
X322997613Y-84176190D01*
X322921423Y-84252380D01*
X322845232Y-84290476D01*
X324064280Y-84861904D02*
X323607137Y-84861904D01*
X323835709Y-84861904D02*
X323835709Y-84061904D01*
X323759518Y-84176190D01*
X323683328Y-84252380D01*
X323607137Y-84290476D01*
X324330947Y-84061904D02*
X324826185Y-84061904D01*
X324559518Y-84366666D01*
X324673804Y-84366666D01*
X324749994Y-84404761D01*
X324788089Y-84442857D01*
X324826185Y-84519047D01*
X324826185Y-84709523D01*
X324788089Y-84785714D01*
X324749994Y-84823809D01*
X324673804Y-84861904D01*
X324445232Y-84861904D01*
X324369042Y-84823809D01*
X324330947Y-84785714D01*
X323035709Y-73901904D02*
X323111899Y-73901904D01*
X323188089Y-73940000D01*
X323226185Y-73978095D01*
X323264280Y-74054285D01*
X323302375Y-74206666D01*
X323302375Y-74397142D01*
X323264280Y-74549523D01*
X323226185Y-74625714D01*
X323188089Y-74663809D01*
X323111899Y-74701904D01*
X323035709Y-74701904D01*
X322959518Y-74663809D01*
X322921423Y-74625714D01*
X322883328Y-74549523D01*
X322845232Y-74397142D01*
X322845232Y-74206666D01*
X322883328Y-74054285D01*
X322921423Y-73978095D01*
X322959518Y-73940000D01*
X323035709Y-73901904D01*
X323569042Y-73901904D02*
X324064280Y-73901904D01*
X323797613Y-74206666D01*
X323911899Y-74206666D01*
X323988089Y-74244761D01*
X324026185Y-74282857D01*
X324064280Y-74359047D01*
X324064280Y-74549523D01*
X324026185Y-74625714D01*
X323988089Y-74663809D01*
X323911899Y-74701904D01*
X323683328Y-74701904D01*
X323607137Y-74663809D01*
X323569042Y-74625714D01*
X324826185Y-74701904D02*
X324369042Y-74701904D01*
X324597613Y-74701904D02*
X324597613Y-73901904D01*
X324521423Y-74016190D01*
X324445232Y-74092380D01*
X324369042Y-74130476D01*
X322769042Y-71361904D02*
X323035709Y-72161904D01*
X323302375Y-71361904D01*
X324026185Y-72085714D02*
X323988089Y-72123809D01*
X323873804Y-72161904D01*
X323797613Y-72161904D01*
X323683328Y-72123809D01*
X323607137Y-72047619D01*
X323569042Y-71971428D01*
X323530947Y-71819047D01*
X323530947Y-71704761D01*
X323569042Y-71552380D01*
X323607137Y-71476190D01*
X323683328Y-71400000D01*
X323797613Y-71361904D01*
X323873804Y-71361904D01*
X323988089Y-71400000D01*
X324026185Y-71438095D01*
X324826185Y-72085714D02*
X324788089Y-72123809D01*
X324673804Y-72161904D01*
X324597613Y-72161904D01*
X324483328Y-72123809D01*
X324407137Y-72047619D01*
X324369042Y-71971428D01*
X324330947Y-71819047D01*
X324330947Y-71704761D01*
X324369042Y-71552380D01*
X324407137Y-71476190D01*
X324483328Y-71400000D01*
X324597613Y-71361904D01*
X324673804Y-71361904D01*
X324788089Y-71400000D01*
X324826185Y-71438095D01*
X323308709Y-66320000D02*
X323232518Y-66281904D01*
X323118233Y-66281904D01*
X323003947Y-66320000D01*
X322927756Y-66396190D01*
X322889661Y-66472380D01*
X322851566Y-66624761D01*
X322851566Y-66739047D01*
X322889661Y-66891428D01*
X322927756Y-66967619D01*
X323003947Y-67043809D01*
X323118233Y-67081904D01*
X323194423Y-67081904D01*
X323308709Y-67043809D01*
X323346804Y-67005714D01*
X323346804Y-66739047D01*
X323194423Y-66739047D01*
X323689661Y-67081904D02*
X323689661Y-66281904D01*
X324146804Y-67081904D01*
X324146804Y-66281904D01*
X324527756Y-67081904D02*
X324527756Y-66281904D01*
X324718233Y-66281904D01*
X324832518Y-66320000D01*
X324908709Y-66396190D01*
X324946804Y-66472380D01*
X324984899Y-66624761D01*
X324984899Y-66739047D01*
X324946804Y-66891428D01*
X324908709Y-66967619D01*
X324832518Y-67043809D01*
X324718233Y-67081904D01*
X324527756Y-67081904D01*
X323346804Y-64541904D02*
X323080137Y-64160952D01*
X322889661Y-64541904D02*
X322889661Y-63741904D01*
X323194423Y-63741904D01*
X323270613Y-63780000D01*
X323308708Y-63818095D01*
X323346804Y-63894285D01*
X323346804Y-64008571D01*
X323308708Y-64084761D01*
X323270613Y-64122857D01*
X323194423Y-64160952D01*
X322889661Y-64160952D01*
X323651565Y-64313333D02*
X324032518Y-64313333D01*
X323575375Y-64541904D02*
X323842042Y-63741904D01*
X324108708Y-64541904D01*
X324299185Y-63741904D02*
X324489661Y-64541904D01*
X324642042Y-63970476D01*
X324794423Y-64541904D01*
X324984899Y-63741904D01*
X323035709Y-76441904D02*
X323111899Y-76441904D01*
X323188089Y-76480000D01*
X323226185Y-76518095D01*
X323264280Y-76594285D01*
X323302375Y-76746666D01*
X323302375Y-76937142D01*
X323264280Y-77089523D01*
X323226185Y-77165714D01*
X323188089Y-77203809D01*
X323111899Y-77241904D01*
X323035709Y-77241904D01*
X322959518Y-77203809D01*
X322921423Y-77165714D01*
X322883328Y-77089523D01*
X322845232Y-76937142D01*
X322845232Y-76746666D01*
X322883328Y-76594285D01*
X322921423Y-76518095D01*
X322959518Y-76480000D01*
X323035709Y-76441904D01*
X323607137Y-76518095D02*
X323645232Y-76480000D01*
X323721423Y-76441904D01*
X323911899Y-76441904D01*
X323988089Y-76480000D01*
X324026185Y-76518095D01*
X324064280Y-76594285D01*
X324064280Y-76670476D01*
X324026185Y-76784761D01*
X323569042Y-77241904D01*
X324064280Y-77241904D01*
X324445232Y-77241904D02*
X324597613Y-77241904D01*
X324673804Y-77203809D01*
X324711899Y-77165714D01*
X324788089Y-77051428D01*
X324826185Y-76899047D01*
X324826185Y-76594285D01*
X324788089Y-76518095D01*
X324749994Y-76480000D01*
X324673804Y-76441904D01*
X324521423Y-76441904D01*
X324445232Y-76480000D01*
X324407137Y-76518095D01*
X324369042Y-76594285D01*
X324369042Y-76784761D01*
X324407137Y-76860952D01*
X324445232Y-76899047D01*
X324521423Y-76937142D01*
X324673804Y-76937142D01*
X324749994Y-76899047D01*
X324788089Y-76860952D01*
X324826185Y-76784761D01*
X323035709Y-78981904D02*
X323111899Y-78981904D01*
X323188089Y-79020000D01*
X323226185Y-79058095D01*
X323264280Y-79134285D01*
X323302375Y-79286666D01*
X323302375Y-79477142D01*
X323264280Y-79629523D01*
X323226185Y-79705714D01*
X323188089Y-79743809D01*
X323111899Y-79781904D01*
X323035709Y-79781904D01*
X322959518Y-79743809D01*
X322921423Y-79705714D01*
X322883328Y-79629523D01*
X322845232Y-79477142D01*
X322845232Y-79286666D01*
X322883328Y-79134285D01*
X322921423Y-79058095D01*
X322959518Y-79020000D01*
X323035709Y-78981904D01*
X323797613Y-78981904D02*
X323873804Y-78981904D01*
X323949994Y-79020000D01*
X323988089Y-79058095D01*
X324026185Y-79134285D01*
X324064280Y-79286666D01*
X324064280Y-79477142D01*
X324026185Y-79629523D01*
X323988089Y-79705714D01*
X323949994Y-79743809D01*
X323873804Y-79781904D01*
X323797613Y-79781904D01*
X323721423Y-79743809D01*
X323683328Y-79705714D01*
X323645232Y-79629523D01*
X323607137Y-79477142D01*
X323607137Y-79286666D01*
X323645232Y-79134285D01*
X323683328Y-79058095D01*
X323721423Y-79020000D01*
X323797613Y-78981904D01*
X324369042Y-79058095D02*
X324407137Y-79020000D01*
X324483328Y-78981904D01*
X324673804Y-78981904D01*
X324749994Y-79020000D01*
X324788089Y-79058095D01*
X324826185Y-79134285D01*
X324826185Y-79210476D01*
X324788089Y-79324761D01*
X324330947Y-79781904D01*
X324826185Y-79781904D01*
X323302375Y-82321904D02*
X322845232Y-82321904D01*
X323073804Y-82321904D02*
X323073804Y-81521904D01*
X322997613Y-81636190D01*
X322921423Y-81712380D01*
X322845232Y-81750476D01*
X324064280Y-82321904D02*
X323607137Y-82321904D01*
X323835709Y-82321904D02*
X323835709Y-81521904D01*
X323759518Y-81636190D01*
X323683328Y-81712380D01*
X323607137Y-81750476D01*
X324788089Y-81521904D02*
X324407137Y-81521904D01*
X324369042Y-81902857D01*
X324407137Y-81864761D01*
X324483328Y-81826666D01*
X324673804Y-81826666D01*
X324749994Y-81864761D01*
X324788089Y-81902857D01*
X324826185Y-81979047D01*
X324826185Y-82169523D01*
X324788089Y-82245714D01*
X324749994Y-82283809D01*
X324673804Y-82321904D01*
X324483328Y-82321904D01*
X324407137Y-82283809D01*
X324369042Y-82245714D01*
X323035709Y-89141904D02*
X323111899Y-89141904D01*
X323188089Y-89180000D01*
X323226185Y-89218095D01*
X323264280Y-89294285D01*
X323302375Y-89446666D01*
X323302375Y-89637142D01*
X323264280Y-89789523D01*
X323226185Y-89865714D01*
X323188089Y-89903809D01*
X323111899Y-89941904D01*
X323035709Y-89941904D01*
X322959518Y-89903809D01*
X322921423Y-89865714D01*
X322883328Y-89789523D01*
X322845232Y-89637142D01*
X322845232Y-89446666D01*
X322883328Y-89294285D01*
X322921423Y-89218095D01*
X322959518Y-89180000D01*
X323035709Y-89141904D01*
X324064280Y-89941904D02*
X323607137Y-89941904D01*
X323835709Y-89941904D02*
X323835709Y-89141904D01*
X323759518Y-89256190D01*
X323683328Y-89332380D01*
X323607137Y-89370476D01*
X324559518Y-89141904D02*
X324635709Y-89141904D01*
X324711899Y-89180000D01*
X324749994Y-89218095D01*
X324788089Y-89294285D01*
X324826185Y-89446666D01*
X324826185Y-89637142D01*
X324788089Y-89789523D01*
X324749994Y-89865714D01*
X324711899Y-89903809D01*
X324635709Y-89941904D01*
X324559518Y-89941904D01*
X324483328Y-89903809D01*
X324445232Y-89865714D01*
X324407137Y-89789523D01*
X324369042Y-89637142D01*
X324369042Y-89446666D01*
X324407137Y-89294285D01*
X324445232Y-89218095D01*
X324483328Y-89180000D01*
X324559518Y-89141904D01*
X334110090Y-63741904D02*
X334186280Y-63741904D01*
X334262470Y-63780000D01*
X334300566Y-63818095D01*
X334338661Y-63894285D01*
X334376756Y-64046666D01*
X334376756Y-64237142D01*
X334338661Y-64389523D01*
X334300566Y-64465714D01*
X334262470Y-64503809D01*
X334186280Y-64541904D01*
X334110090Y-64541904D01*
X334033899Y-64503809D01*
X333995804Y-64465714D01*
X333957709Y-64389523D01*
X333919613Y-64237142D01*
X333919613Y-64046666D01*
X333957709Y-63894285D01*
X333995804Y-63818095D01*
X334033899Y-63780000D01*
X334110090Y-63741904D01*
X334871994Y-63741904D02*
X334948185Y-63741904D01*
X335024375Y-63780000D01*
X335062470Y-63818095D01*
X335100566Y-63894285D01*
X335138661Y-64046666D01*
X335138661Y-64237142D01*
X335100566Y-64389523D01*
X335062470Y-64465714D01*
X335024375Y-64503809D01*
X334948185Y-64541904D01*
X334871994Y-64541904D01*
X334795804Y-64503809D01*
X334757709Y-64465714D01*
X334719613Y-64389523D01*
X334681518Y-64237142D01*
X334681518Y-64046666D01*
X334719613Y-63894285D01*
X334757709Y-63818095D01*
X334795804Y-63780000D01*
X334871994Y-63741904D01*
X335824375Y-63741904D02*
X335671994Y-63741904D01*
X335595804Y-63780000D01*
X335557709Y-63818095D01*
X335481518Y-63932380D01*
X335443423Y-64084761D01*
X335443423Y-64389523D01*
X335481518Y-64465714D01*
X335519613Y-64503809D01*
X335595804Y-64541904D01*
X335748185Y-64541904D01*
X335824375Y-64503809D01*
X335862470Y-64465714D01*
X335900566Y-64389523D01*
X335900566Y-64199047D01*
X335862470Y-64122857D01*
X335824375Y-64084761D01*
X335748185Y-64046666D01*
X335595804Y-64046666D01*
X335519613Y-64084761D01*
X335481518Y-64122857D01*
X335443423Y-64199047D01*
X323346804Y-69621904D02*
X323080138Y-69240952D01*
X322889661Y-69621904D02*
X322889661Y-68821904D01*
X323194423Y-68821904D01*
X323270614Y-68860000D01*
X323308709Y-68898095D01*
X323346804Y-68974285D01*
X323346804Y-69088571D01*
X323308709Y-69164761D01*
X323270614Y-69202857D01*
X323194423Y-69240952D01*
X322889661Y-69240952D01*
X323651566Y-69583809D02*
X323765852Y-69621904D01*
X323956328Y-69621904D01*
X324032519Y-69583809D01*
X324070614Y-69545714D01*
X324108709Y-69469523D01*
X324108709Y-69393333D01*
X324070614Y-69317142D01*
X324032519Y-69279047D01*
X323956328Y-69240952D01*
X323803947Y-69202857D01*
X323727757Y-69164761D01*
X323689661Y-69126666D01*
X323651566Y-69050476D01*
X323651566Y-68974285D01*
X323689661Y-68898095D01*
X323727757Y-68860000D01*
X323803947Y-68821904D01*
X323994423Y-68821904D01*
X324108709Y-68860000D01*
X324337280Y-68821904D02*
X324794423Y-68821904D01*
X324565852Y-69621904D02*
X324565852Y-68821904D01*
%LPC*%
D15*
X322000000Y-58000000D03*
X341000000Y-108000000D03*
X337000000Y-58000000D03*
X280000000Y-58000000D03*
X218000000Y-58000000D03*
X156000000Y-58000000D03*
X31000000Y-58000000D03*
X93000000Y-58000000D03*
X218000000Y-158000000D03*
X280000000Y-158000000D03*
X156000000Y-158000000D03*
X93000000Y-158000000D03*
X31000000Y-108000000D03*
X341000000Y-158000000D03*
X31000000Y-158000000D03*
D16*
X138850000Y-146050000D03*
X127850000Y-146050000D03*
D17*
X128350000Y-149850000D03*
X133350000Y-151950000D03*
D18*
X133350000Y-146050000D03*
D19*
X138570000Y-141850000D03*
D16*
X176950000Y-146050000D03*
X165950000Y-146050000D03*
D17*
X166450000Y-149850000D03*
X171450000Y-151950000D03*
D18*
X171450000Y-146050000D03*
D19*
X176670000Y-141850000D03*
D16*
X305506000Y-69850000D03*
X294506000Y-69850000D03*
D17*
X295006000Y-73650000D03*
X300006000Y-75750000D03*
D18*
X300006000Y-69850000D03*
D19*
X305226000Y-65650000D03*
D16*
X219812500Y-146050000D03*
X208812500Y-146050000D03*
D17*
X209312500Y-149850000D03*
X214312500Y-151950000D03*
D18*
X214312500Y-146050000D03*
D19*
X219532500Y-141850000D03*
D16*
X305537500Y-107950000D03*
X294537500Y-107950000D03*
D17*
X295037500Y-111750000D03*
X300037500Y-113850000D03*
D18*
X300037500Y-107950000D03*
D19*
X305257500Y-103750000D03*
D16*
X57887500Y-107950000D03*
X46887500Y-107950000D03*
D17*
X47387500Y-111750000D03*
X52387500Y-113850000D03*
D18*
X52387500Y-107950000D03*
D19*
X57607500Y-103750000D03*
D20*
X317500000Y-65881250D03*
D21*
X317500000Y-73681250D03*
D22*
X317500000Y-68381250D03*
X317500000Y-71181250D03*
D20*
X298435400Y-123074150D03*
D21*
X298435400Y-130874150D03*
D22*
X298435400Y-125574150D03*
X298435400Y-128374150D03*
D20*
X319054800Y-142081250D03*
D21*
X319054800Y-149881250D03*
D22*
X319054800Y-144581250D03*
X319054800Y-147381250D03*
D20*
X300006000Y-142081250D03*
D21*
X300006000Y-149881250D03*
D22*
X300006000Y-144581250D03*
X300006000Y-147381250D03*
D20*
X280987500Y-142081250D03*
D21*
X280987500Y-149881250D03*
D22*
X280987500Y-144581250D03*
X280987500Y-147381250D03*
D20*
X271432800Y-142150000D03*
D21*
X271432800Y-149950000D03*
D22*
X271432800Y-144650000D03*
X271432800Y-147450000D03*
D20*
X252384000Y-142081250D03*
D21*
X252384000Y-149881250D03*
D22*
X252384000Y-144581250D03*
X252384000Y-147381250D03*
D20*
X232568750Y-142081250D03*
D21*
X232568750Y-149881250D03*
D22*
X232568750Y-144581250D03*
X232568750Y-147381250D03*
D20*
X194468750Y-142081250D03*
D21*
X194468750Y-149881250D03*
D22*
X194468750Y-144581250D03*
X194468750Y-147381250D03*
D20*
X147637500Y-142150000D03*
D21*
X147637500Y-149950000D03*
D22*
X147637500Y-144650000D03*
X147637500Y-147450000D03*
D20*
X119062500Y-142150000D03*
D21*
X119062500Y-149950000D03*
D22*
X119062500Y-144650000D03*
X119062500Y-147450000D03*
D20*
X90487500Y-142150000D03*
D21*
X90487500Y-149950000D03*
D22*
X90487500Y-144650000D03*
X90487500Y-147450000D03*
D20*
X61912500Y-142081250D03*
D21*
X61912500Y-149881250D03*
D22*
X61912500Y-144581250D03*
X61912500Y-147381250D03*
D20*
X295243800Y-84931250D03*
D21*
X295243800Y-92731250D03*
D22*
X295243800Y-87431250D03*
X295243800Y-90231250D03*
D20*
X295243800Y-123066950D03*
D21*
X295243800Y-130866950D03*
D22*
X295243800Y-125566950D03*
X295243800Y-128366950D03*
D20*
X271432800Y-123066950D03*
D21*
X271432800Y-130866950D03*
D22*
X271432800Y-125566950D03*
X271432800Y-128366950D03*
D20*
X252384000Y-123066950D03*
D21*
X252384000Y-130866950D03*
D22*
X252384000Y-125566950D03*
X252384000Y-128366950D03*
D20*
X233335200Y-123066950D03*
D21*
X233335200Y-130866950D03*
D22*
X233335200Y-125566950D03*
X233335200Y-128366950D03*
D20*
X214286400Y-123066950D03*
D21*
X214286400Y-130866950D03*
D22*
X214286400Y-125566950D03*
X214286400Y-128366950D03*
D20*
X195237600Y-123066950D03*
D21*
X195237600Y-130866950D03*
D22*
X195237600Y-125566950D03*
X195237600Y-128366950D03*
D20*
X176188800Y-123066950D03*
D21*
X176188800Y-130866950D03*
D22*
X176188800Y-125566950D03*
X176188800Y-128366950D03*
D20*
X157140000Y-123066950D03*
D21*
X157140000Y-130866950D03*
D22*
X157140000Y-125566950D03*
X157140000Y-128366950D03*
D20*
X138091200Y-123066950D03*
D21*
X138091200Y-130866950D03*
D22*
X138091200Y-125566950D03*
X138091200Y-128366950D03*
D20*
X119042400Y-123066950D03*
D21*
X119042400Y-130866950D03*
D22*
X119042400Y-125566950D03*
X119042400Y-128366950D03*
D20*
X99993600Y-123066950D03*
D21*
X99993600Y-130866950D03*
D22*
X99993600Y-125566950D03*
X99993600Y-128366950D03*
D20*
X76182600Y-123066950D03*
D21*
X76182600Y-130866950D03*
D22*
X76182600Y-125566950D03*
X76182600Y-128366950D03*
D20*
X283368750Y-104018150D03*
D21*
X283368750Y-111818150D03*
D22*
X283368750Y-106518150D03*
X283368750Y-109318150D03*
D20*
X280987500Y-104018150D03*
D21*
X280987500Y-111818150D03*
D22*
X280987500Y-106518150D03*
X280987500Y-109318150D03*
D20*
X261908400Y-104018150D03*
D21*
X261908400Y-111818150D03*
D22*
X261908400Y-106518150D03*
X261908400Y-109318150D03*
D20*
X242859600Y-104018150D03*
D21*
X242859600Y-111818150D03*
D22*
X242859600Y-106518150D03*
X242859600Y-109318150D03*
D20*
X223810800Y-104018150D03*
D21*
X223810800Y-111818150D03*
D22*
X223810800Y-106518150D03*
X223810800Y-109318150D03*
D20*
X204762000Y-104018150D03*
D21*
X204762000Y-111818150D03*
D22*
X204762000Y-106518150D03*
X204762000Y-109318150D03*
D20*
X185713200Y-104018150D03*
D21*
X185713200Y-111818150D03*
D22*
X185713200Y-106518150D03*
X185713200Y-109318150D03*
D20*
X166664400Y-104018150D03*
D21*
X166664400Y-111818150D03*
D22*
X166664400Y-106518150D03*
X166664400Y-109318150D03*
D20*
X147615600Y-104018150D03*
D21*
X147615600Y-111818150D03*
D22*
X147615600Y-106518150D03*
X147615600Y-109318150D03*
D20*
X128566800Y-104018150D03*
D21*
X128566800Y-111818150D03*
D22*
X128566800Y-106518150D03*
X128566800Y-109318150D03*
D20*
X109518000Y-104018150D03*
D21*
X109518000Y-111818150D03*
D22*
X109518000Y-106518150D03*
X109518000Y-109318150D03*
D20*
X90469200Y-104018150D03*
D21*
X90469200Y-111818150D03*
D22*
X90469200Y-106518150D03*
X90469200Y-109318150D03*
D20*
X70643750Y-103981250D03*
D21*
X70643750Y-111781250D03*
D22*
X70643750Y-106481250D03*
X70643750Y-109281250D03*
D20*
X290481600Y-84969350D03*
D21*
X290481600Y-92769350D03*
D22*
X290481600Y-87469350D03*
X290481600Y-90269350D03*
D20*
X271432800Y-84969350D03*
D21*
X271432800Y-92769350D03*
D22*
X271432800Y-87469350D03*
X271432800Y-90269350D03*
D20*
X252384000Y-84969350D03*
D21*
X252384000Y-92769350D03*
D22*
X252384000Y-87469350D03*
X252384000Y-90269350D03*
D20*
X233335200Y-84969350D03*
D21*
X233335200Y-92769350D03*
D22*
X233335200Y-87469350D03*
X233335200Y-90269350D03*
D20*
X214286400Y-84969350D03*
D21*
X214286400Y-92769350D03*
D22*
X214286400Y-87469350D03*
X214286400Y-90269350D03*
D20*
X195237600Y-84969350D03*
D21*
X195237600Y-92769350D03*
D22*
X195237600Y-87469350D03*
X195237600Y-90269350D03*
D20*
X176188800Y-84969350D03*
D21*
X176188800Y-92769350D03*
D22*
X176188800Y-87469350D03*
X176188800Y-90269350D03*
D20*
X157140000Y-84969350D03*
D21*
X157140000Y-92769350D03*
D22*
X157140000Y-87469350D03*
X157140000Y-90269350D03*
D20*
X138091200Y-84969350D03*
D21*
X138091200Y-92769350D03*
D22*
X138091200Y-87469350D03*
X138091200Y-90269350D03*
D20*
X119042400Y-84969350D03*
D21*
X119042400Y-92769350D03*
D22*
X119042400Y-87469350D03*
X119042400Y-90269350D03*
D20*
X99993600Y-84969350D03*
D21*
X99993600Y-92769350D03*
D22*
X99993600Y-87469350D03*
X99993600Y-90269350D03*
D20*
X80944800Y-84969350D03*
D21*
X80944800Y-92769350D03*
D22*
X80944800Y-87469350D03*
X80944800Y-90269350D03*
D20*
X56400000Y-84985946D03*
D21*
X56400000Y-92785946D03*
D22*
X56400000Y-87485946D03*
X56400000Y-90285946D03*
D20*
X280957200Y-65920550D03*
D21*
X280957200Y-73720550D03*
D22*
X280957200Y-68420550D03*
X280957200Y-71220550D03*
D20*
X261908400Y-65920550D03*
D21*
X261908400Y-73720550D03*
D22*
X261908400Y-68420550D03*
X261908400Y-71220550D03*
D20*
X242859600Y-65920550D03*
D21*
X242859600Y-73720550D03*
D22*
X242859600Y-68420550D03*
X242859600Y-71220550D03*
D20*
X223810800Y-65920550D03*
D21*
X223810800Y-73720550D03*
D22*
X223810800Y-68420550D03*
X223810800Y-71220550D03*
D20*
X204762000Y-65920550D03*
D21*
X204762000Y-73720550D03*
D22*
X204762000Y-68420550D03*
X204762000Y-71220550D03*
D20*
X185713200Y-65920550D03*
D21*
X185713200Y-73720550D03*
D22*
X185713200Y-68420550D03*
X185713200Y-71220550D03*
D20*
X166664400Y-65920550D03*
D21*
X166664400Y-73720550D03*
D22*
X166664400Y-68420550D03*
X166664400Y-71220550D03*
D20*
X147615600Y-65920550D03*
D21*
X147615600Y-73720550D03*
D22*
X147615600Y-68420550D03*
X147615600Y-71220550D03*
D20*
X128566800Y-65920550D03*
D21*
X128566800Y-73720550D03*
D22*
X128566800Y-68420550D03*
X128566800Y-71220550D03*
D20*
X109518000Y-65920550D03*
D21*
X109518000Y-73720550D03*
D22*
X109518000Y-68420550D03*
X109518000Y-71220550D03*
D20*
X90487500Y-65920550D03*
D21*
X90487500Y-73720550D03*
D22*
X90487500Y-68420550D03*
X90487500Y-71220550D03*
D20*
X71437500Y-65881250D03*
D21*
X71437500Y-73681250D03*
D22*
X71437500Y-68381250D03*
X71437500Y-71181250D03*
D20*
X52387500Y-65881250D03*
D21*
X52387500Y-73681250D03*
D22*
X52387500Y-68381250D03*
X52387500Y-71181250D03*
D16*
X134066800Y-88900000D03*
X123066800Y-88900000D03*
D17*
X123566800Y-92700000D03*
X128566800Y-94800000D03*
D18*
X128566800Y-88900000D03*
D19*
X133786800Y-84700000D03*
D16*
X315062500Y-127000000D03*
X304062500Y-127000000D03*
D17*
X304562500Y-130800000D03*
X309562500Y-132900000D03*
D18*
X309562500Y-127000000D03*
D19*
X314782500Y-122800000D03*
D16*
X334112500Y-146050000D03*
X323112500Y-146050000D03*
D17*
X323612500Y-149850000D03*
X328612500Y-151950000D03*
D18*
X328612500Y-146050000D03*
D19*
X333832500Y-141850000D03*
D16*
X315062500Y-146050000D03*
X304062500Y-146050000D03*
D17*
X304562500Y-149850000D03*
X309562500Y-151950000D03*
D18*
X309562500Y-146050000D03*
D19*
X314782500Y-141850000D03*
D16*
X295981600Y-146050000D03*
X284981600Y-146050000D03*
D17*
X285481600Y-149850000D03*
X290481600Y-151950000D03*
D18*
X290481600Y-146050000D03*
D19*
X295701600Y-141850000D03*
D16*
X267437500Y-146050000D03*
X256437500Y-146050000D03*
D17*
X256937500Y-149850000D03*
X261937500Y-151950000D03*
D18*
X261937500Y-146050000D03*
D19*
X267157500Y-141850000D03*
D16*
X248387500Y-146050000D03*
X237387500Y-146050000D03*
D17*
X237887500Y-149850000D03*
X242887500Y-151950000D03*
D18*
X242887500Y-146050000D03*
D19*
X248107500Y-141850000D03*
D16*
X267437500Y-127000000D03*
X256437500Y-127000000D03*
D17*
X256937500Y-130800000D03*
X261937500Y-132900000D03*
D18*
X261937500Y-127000000D03*
D19*
X267157500Y-122800000D03*
D16*
X248387500Y-127000000D03*
X237387500Y-127000000D03*
D17*
X237887500Y-130800000D03*
X242887500Y-132900000D03*
D18*
X242887500Y-127000000D03*
D19*
X248107500Y-122800000D03*
D16*
X229337500Y-127000000D03*
X218337500Y-127000000D03*
D17*
X218837500Y-130800000D03*
X223837500Y-132900000D03*
D18*
X223837500Y-127000000D03*
D19*
X229057500Y-122800000D03*
D16*
X210287500Y-127000000D03*
X199287500Y-127000000D03*
D17*
X199787500Y-130800000D03*
X204787500Y-132900000D03*
D18*
X204787500Y-127000000D03*
D19*
X210007500Y-122800000D03*
D16*
X191237500Y-127000000D03*
X180237500Y-127000000D03*
D17*
X180737500Y-130800000D03*
X185737500Y-132900000D03*
D18*
X185737500Y-127000000D03*
D19*
X190957500Y-122800000D03*
D16*
X172187500Y-127000000D03*
X161187500Y-127000000D03*
D17*
X161687500Y-130800000D03*
X166687500Y-132900000D03*
D18*
X166687500Y-127000000D03*
D19*
X171907500Y-122800000D03*
D16*
X153137500Y-127000000D03*
X142137500Y-127000000D03*
D17*
X142637500Y-130800000D03*
X147637500Y-132900000D03*
D18*
X147637500Y-127000000D03*
D19*
X152857500Y-122800000D03*
D16*
X134087500Y-127000000D03*
X123087500Y-127000000D03*
D17*
X123587500Y-130800000D03*
X128587500Y-132900000D03*
D18*
X128587500Y-127000000D03*
D19*
X133807500Y-122800000D03*
D16*
X115037500Y-127000000D03*
X104037500Y-127000000D03*
D17*
X104537500Y-130800000D03*
X109537500Y-132900000D03*
D18*
X109537500Y-127000000D03*
D19*
X114757500Y-122800000D03*
D16*
X95969200Y-127000000D03*
X84969200Y-127000000D03*
D17*
X85469200Y-130800000D03*
X90469200Y-132900000D03*
D18*
X90469200Y-127000000D03*
D19*
X95689200Y-122800000D03*
D16*
X276962500Y-107950000D03*
X265962500Y-107950000D03*
D17*
X266462500Y-111750000D03*
X271462500Y-113850000D03*
D18*
X271462500Y-107950000D03*
D19*
X276682500Y-103750000D03*
D16*
X257912500Y-107950000D03*
X246912500Y-107950000D03*
D17*
X247412500Y-111750000D03*
X252412500Y-113850000D03*
D18*
X252412500Y-107950000D03*
D19*
X257632500Y-103750000D03*
D16*
X238862500Y-107950000D03*
X227862500Y-107950000D03*
D17*
X228362500Y-111750000D03*
X233362500Y-113850000D03*
D18*
X233362500Y-107950000D03*
D19*
X238582500Y-103750000D03*
D16*
X219812500Y-107950000D03*
X208812500Y-107950000D03*
D17*
X209312500Y-111750000D03*
X214312500Y-113850000D03*
D18*
X214312500Y-107950000D03*
D19*
X219532500Y-103750000D03*
D16*
X200762500Y-107950000D03*
X189762500Y-107950000D03*
D17*
X190262500Y-111750000D03*
X195262500Y-113850000D03*
D18*
X195262500Y-107950000D03*
D19*
X200482500Y-103750000D03*
D16*
X181712500Y-107950000D03*
X170712500Y-107950000D03*
D17*
X171212500Y-111750000D03*
X176212500Y-113850000D03*
D18*
X176212500Y-107950000D03*
D19*
X181432500Y-103750000D03*
D16*
X162662500Y-107950000D03*
X151662500Y-107950000D03*
D17*
X152162500Y-111750000D03*
X157162500Y-113850000D03*
D18*
X157162500Y-107950000D03*
D19*
X162382500Y-103750000D03*
D16*
X143612500Y-107950000D03*
X132612500Y-107950000D03*
D17*
X133112500Y-111750000D03*
X138112500Y-113850000D03*
D18*
X138112500Y-107950000D03*
D19*
X143332500Y-103750000D03*
D16*
X124562500Y-107950000D03*
X113562500Y-107950000D03*
D17*
X114062500Y-111750000D03*
X119062500Y-113850000D03*
D18*
X119062500Y-107950000D03*
D19*
X124282500Y-103750000D03*
D16*
X105512500Y-107950000D03*
X94512500Y-107950000D03*
D17*
X95012500Y-111750000D03*
X100012500Y-113850000D03*
D18*
X100012500Y-107950000D03*
D19*
X105232500Y-103750000D03*
D16*
X86462500Y-107950000D03*
X75462500Y-107950000D03*
D17*
X75962500Y-111750000D03*
X80962500Y-113850000D03*
D18*
X80962500Y-107950000D03*
D19*
X86182500Y-103750000D03*
D16*
X286487500Y-88900000D03*
X275487500Y-88900000D03*
D17*
X275987500Y-92700000D03*
X280987500Y-94800000D03*
D18*
X280987500Y-88900000D03*
D19*
X286207500Y-84700000D03*
D16*
X267437500Y-88900000D03*
X256437500Y-88900000D03*
D17*
X256937500Y-92700000D03*
X261937500Y-94800000D03*
D18*
X261937500Y-88900000D03*
D19*
X267157500Y-84700000D03*
D16*
X248387500Y-88900000D03*
X237387500Y-88900000D03*
D17*
X237887500Y-92700000D03*
X242887500Y-94800000D03*
D18*
X242887500Y-88900000D03*
D19*
X248107500Y-84700000D03*
D16*
X229337500Y-88900000D03*
X218337500Y-88900000D03*
D17*
X218837500Y-92700000D03*
X223837500Y-94800000D03*
D18*
X223837500Y-88900000D03*
D19*
X229057500Y-84700000D03*
D16*
X210287500Y-88900000D03*
X199287500Y-88900000D03*
D17*
X199787500Y-92700000D03*
X204787500Y-94800000D03*
D18*
X204787500Y-88900000D03*
D19*
X210007500Y-84700000D03*
D16*
X191213200Y-88900000D03*
X180213200Y-88900000D03*
D17*
X180713200Y-92700000D03*
X185713200Y-94800000D03*
D18*
X185713200Y-88900000D03*
D19*
X190933200Y-84700000D03*
D16*
X172164400Y-88900000D03*
X161164400Y-88900000D03*
D17*
X161664400Y-92700000D03*
X166664400Y-94800000D03*
D18*
X166664400Y-88900000D03*
D19*
X171884400Y-84700000D03*
D16*
X153137500Y-88900000D03*
X142137500Y-88900000D03*
D17*
X142637500Y-92700000D03*
X147637500Y-94800000D03*
D18*
X147637500Y-88900000D03*
D19*
X152857500Y-84700000D03*
D16*
X115018000Y-88900000D03*
X104018000Y-88900000D03*
D17*
X104518000Y-92700000D03*
X109518000Y-94800000D03*
D18*
X109518000Y-88900000D03*
D19*
X114738000Y-84700000D03*
D16*
X95969200Y-88900000D03*
X84969200Y-88900000D03*
D17*
X85469200Y-92700000D03*
X90469200Y-94800000D03*
D18*
X90469200Y-88900000D03*
D19*
X95689200Y-84700000D03*
D16*
X76920400Y-88900000D03*
X65920400Y-88900000D03*
D17*
X66420400Y-92700000D03*
X71420400Y-94800000D03*
D18*
X71420400Y-88900000D03*
D19*
X76640400Y-84700000D03*
D16*
X276932800Y-69850000D03*
X265932800Y-69850000D03*
D17*
X266432800Y-73650000D03*
X271432800Y-75750000D03*
D18*
X271432800Y-69850000D03*
D19*
X276652800Y-65650000D03*
D16*
X257884000Y-69850000D03*
X246884000Y-69850000D03*
D17*
X247384000Y-73650000D03*
X252384000Y-75750000D03*
D18*
X252384000Y-69850000D03*
D19*
X257604000Y-65650000D03*
D16*
X238835200Y-69850000D03*
X227835200Y-69850000D03*
D17*
X228335200Y-73650000D03*
X233335200Y-75750000D03*
D18*
X233335200Y-69850000D03*
D19*
X238555200Y-65650000D03*
D16*
X219786400Y-69850000D03*
X208786400Y-69850000D03*
D17*
X209286400Y-73650000D03*
X214286400Y-75750000D03*
D18*
X214286400Y-69850000D03*
D19*
X219506400Y-65650000D03*
D16*
X200737600Y-69850000D03*
X189737600Y-69850000D03*
D17*
X190237600Y-73650000D03*
X195237600Y-75750000D03*
D18*
X195237600Y-69850000D03*
D19*
X200457600Y-65650000D03*
D16*
X181688800Y-69850000D03*
X170688800Y-69850000D03*
D17*
X171188800Y-73650000D03*
X176188800Y-75750000D03*
D18*
X176188800Y-69850000D03*
D19*
X181408800Y-65650000D03*
D16*
X162640000Y-69850000D03*
X151640000Y-69850000D03*
D17*
X152140000Y-73650000D03*
X157140000Y-75750000D03*
D18*
X157140000Y-69850000D03*
D19*
X162360000Y-65650000D03*
D16*
X143591200Y-69850000D03*
X132591200Y-69850000D03*
D17*
X133091200Y-73650000D03*
X138091200Y-75750000D03*
D18*
X138091200Y-69850000D03*
D19*
X143311200Y-65650000D03*
D16*
X124562500Y-69850000D03*
X113562500Y-69850000D03*
D17*
X114062500Y-73650000D03*
X119062500Y-75750000D03*
D18*
X119062500Y-69850000D03*
D19*
X124282500Y-65650000D03*
D16*
X105512500Y-69850000D03*
X94512500Y-69850000D03*
D17*
X95012500Y-73650000D03*
X100012500Y-75750000D03*
D18*
X100012500Y-69850000D03*
D19*
X105232500Y-65650000D03*
D16*
X86462500Y-69850000D03*
X75462500Y-69850000D03*
D17*
X75962500Y-73650000D03*
X80962500Y-75750000D03*
D18*
X80962500Y-69850000D03*
D19*
X86182500Y-65650000D03*
D16*
X67412500Y-69850000D03*
X56412500Y-69850000D03*
D17*
X56912500Y-73650000D03*
X61912500Y-75750000D03*
D18*
X61912500Y-69850000D03*
D19*
X67132500Y-65650000D03*
D16*
X48362500Y-69850000D03*
X37362500Y-69850000D03*
D17*
X37862500Y-73650000D03*
X42862500Y-75750000D03*
D18*
X42862500Y-69850000D03*
D19*
X48082500Y-65650000D03*
D16*
X110275000Y-146050000D03*
X99275000Y-146050000D03*
D17*
X99775000Y-149850000D03*
X104775000Y-151950000D03*
D18*
X104775000Y-146050000D03*
D19*
X109995000Y-141850000D03*
D16*
X81700000Y-146050000D03*
X70700000Y-146050000D03*
D17*
X71200000Y-149850000D03*
X76200000Y-151950000D03*
D18*
X76200000Y-146050000D03*
D19*
X81420000Y-141850000D03*
D16*
X53121940Y-146040616D03*
X42121940Y-146040616D03*
D17*
X42621940Y-149840616D03*
X47621940Y-151940616D03*
D18*
X47621940Y-146040616D03*
D19*
X52841940Y-141840616D03*
D16*
X310324100Y-88900000D03*
X299324100Y-88900000D03*
D17*
X299824100Y-92700000D03*
X304824100Y-94800000D03*
D18*
X304824100Y-88900000D03*
D19*
X310044100Y-84700000D03*
D16*
X291250000Y-127000000D03*
X280250000Y-127000000D03*
D17*
X280750000Y-130800000D03*
X285750000Y-132900000D03*
D18*
X285750000Y-127000000D03*
D19*
X290970000Y-122800000D03*
D16*
X62650000Y-127000000D03*
X51650000Y-127000000D03*
D17*
X52150000Y-130800000D03*
X57150000Y-132900000D03*
D18*
X57150000Y-127000000D03*
D19*
X62370000Y-122800000D03*
D16*
X53121940Y-88894288D03*
X42121940Y-88894288D03*
D17*
X42621940Y-92694288D03*
X47621940Y-94794288D03*
D18*
X47621940Y-88894288D03*
D19*
X52841940Y-84694288D03*
D23*
X336675100Y-99981400D03*
D24*
X334135100Y-99981400D03*
D25*
X331900000Y-107918400D03*
X329400000Y-107918400D03*
X326900000Y-107918400D03*
D26*
X336992900Y-64180000D03*
X336992900Y-66720000D03*
X336992900Y-69260000D03*
X336992900Y-71800000D03*
X336992900Y-74340000D03*
X336992900Y-76880000D03*
X336992900Y-79420000D03*
X336992900Y-81960000D03*
X336992900Y-84500000D03*
X336992900Y-87040000D03*
X336992900Y-89580000D03*
X321752900Y-92120000D03*
X321752900Y-89580000D03*
X321752900Y-87040000D03*
X321752900Y-84500000D03*
X321752900Y-81960000D03*
X321752900Y-79420000D03*
X321752900Y-76880000D03*
X321752900Y-74340000D03*
X321752900Y-71800000D03*
X321752900Y-69260000D03*
X321752900Y-66720000D03*
X336992900Y-92120000D03*
X321752900Y-64180000D03*
X334452900Y-87040000D03*
X331912900Y-87040000D03*
X329372900Y-87040000D03*
M02*
