G04 #@! TF.GenerationSoftware,KiCad,Pcbnew,(5.1.10)-1*
G04 #@! TF.CreationDate,2022-02-10T09:54:13+11:00*
G04 #@! TF.ProjectId,mf68,6d663638-2e6b-4696-9361-645f70636258,rev?*
G04 #@! TF.SameCoordinates,Original*
G04 #@! TF.FileFunction,Paste,Bot*
G04 #@! TF.FilePolarity,Positive*
%FSLAX46Y46*%
G04 Gerber Fmt 4.6, Leading zero omitted, Abs format (unit mm)*
G04 Created by KiCad (PCBNEW (5.1.10)-1) date 2022-02-10 09:54:13*
%MOMM*%
%LPD*%
G01*
G04 APERTURE LIST*
%ADD10R,1.200000X1.600000*%
G04 APERTURE END LIST*
D10*
X317500000Y-71181250D03*
X317500000Y-68381250D03*
X298435400Y-128374150D03*
X298435400Y-125574150D03*
X319054800Y-147381250D03*
X319054800Y-144581250D03*
X300006000Y-147381250D03*
X300006000Y-144581250D03*
X280987500Y-147381250D03*
X280987500Y-144581250D03*
X271432800Y-147450000D03*
X271432800Y-144650000D03*
X252384000Y-147381250D03*
X252384000Y-144581250D03*
X232568750Y-147381250D03*
X232568750Y-144581250D03*
X194468750Y-147381250D03*
X194468750Y-144581250D03*
X147637500Y-147450000D03*
X147637500Y-144650000D03*
X119062500Y-147450000D03*
X119062500Y-144650000D03*
X90487500Y-147450000D03*
X90487500Y-144650000D03*
X61912500Y-147381250D03*
X61912500Y-144581250D03*
X295243800Y-90231250D03*
X295243800Y-87431250D03*
X295243800Y-128366950D03*
X295243800Y-125566950D03*
X271432800Y-128366950D03*
X271432800Y-125566950D03*
X252384000Y-128366950D03*
X252384000Y-125566950D03*
X233335200Y-128366950D03*
X233335200Y-125566950D03*
X214286400Y-128366950D03*
X214286400Y-125566950D03*
X195237600Y-128366950D03*
X195237600Y-125566950D03*
X176188800Y-128366950D03*
X176188800Y-125566950D03*
X157140000Y-128366950D03*
X157140000Y-125566950D03*
X138091200Y-128366950D03*
X138091200Y-125566950D03*
X119042400Y-128366950D03*
X119042400Y-125566950D03*
X99993600Y-128366950D03*
X99993600Y-125566950D03*
X76182600Y-128366950D03*
X76182600Y-125566950D03*
X283368750Y-109318150D03*
X283368750Y-106518150D03*
X280987500Y-109318150D03*
X280987500Y-106518150D03*
X261908400Y-109318150D03*
X261908400Y-106518150D03*
X242859600Y-109318150D03*
X242859600Y-106518150D03*
X223810800Y-109318150D03*
X223810800Y-106518150D03*
X204762000Y-109318150D03*
X204762000Y-106518150D03*
X185713200Y-109318150D03*
X185713200Y-106518150D03*
X166664400Y-109318150D03*
X166664400Y-106518150D03*
X147615600Y-109318150D03*
X147615600Y-106518150D03*
X128566800Y-109318150D03*
X128566800Y-106518150D03*
X109518000Y-109318150D03*
X109518000Y-106518150D03*
X90469200Y-109318150D03*
X90469200Y-106518150D03*
X70643750Y-109281250D03*
X70643750Y-106481250D03*
X290481600Y-90269350D03*
X290481600Y-87469350D03*
X271432800Y-90269350D03*
X271432800Y-87469350D03*
X252384000Y-90269350D03*
X252384000Y-87469350D03*
X233335200Y-90269350D03*
X233335200Y-87469350D03*
X214286400Y-90269350D03*
X214286400Y-87469350D03*
X195237600Y-90269350D03*
X195237600Y-87469350D03*
X176188800Y-90269350D03*
X176188800Y-87469350D03*
X157140000Y-90269350D03*
X157140000Y-87469350D03*
X138091200Y-90269350D03*
X138091200Y-87469350D03*
X119042400Y-90269350D03*
X119042400Y-87469350D03*
X99993600Y-90269350D03*
X99993600Y-87469350D03*
X80944800Y-90269350D03*
X80944800Y-87469350D03*
X56400000Y-90285946D03*
X56400000Y-87485946D03*
X280957200Y-71220550D03*
X280957200Y-68420550D03*
X261908400Y-71220550D03*
X261908400Y-68420550D03*
X242859600Y-71220550D03*
X242859600Y-68420550D03*
X223810800Y-71220550D03*
X223810800Y-68420550D03*
X204762000Y-71220550D03*
X204762000Y-68420550D03*
X185713200Y-71220550D03*
X185713200Y-68420550D03*
X166664400Y-71220550D03*
X166664400Y-68420550D03*
X147615600Y-71220550D03*
X147615600Y-68420550D03*
X128566800Y-71220550D03*
X128566800Y-68420550D03*
X109518000Y-71220550D03*
X109518000Y-68420550D03*
X90487500Y-71220550D03*
X90487500Y-68420550D03*
X71437500Y-71181250D03*
X71437500Y-68381250D03*
X52387500Y-71181250D03*
X52387500Y-68381250D03*
M02*
