M48
; DRILL file {KiCad (5.1.10)-1} date 02/10/22 09:54:55
; FORMAT={-:-/ absolute / metric / decimal}
; #@! TF.CreationDate,2022-02-10T09:54:55+11:00
; #@! TF.GenerationSoftware,Kicad,Pcbnew,(5.1.10)-1
; #@! TF.FileFunction,Plated,1,2,PTH
FMAT,2
METRIC
T1C0.400
T2C0.750
T3C1.000
T4C1.092
T5C1.200
%
G90
G05
T1
X166.688Y-99.219
X185.737Y-99.225
X211.931Y-115.887
X232.569Y-117.475
X252.412Y-118.269
X295.275Y-95.25
X314.156Y-111.75
X315.119Y-86.519
X319.087Y-114.3
X322.094Y-110.956
X322.262Y-104.775
T2
X326.9Y-107.918
X329.4Y-107.918
X331.9Y-107.918
T3
X52.387Y-65.881
X52.387Y-73.681
X56.4Y-84.986
X56.4Y-92.786
X61.912Y-142.081
X61.912Y-149.881
X70.644Y-103.981
X70.644Y-111.781
X71.438Y-65.881
X71.438Y-73.681
X76.183Y-123.067
X76.183Y-130.867
X80.945Y-84.969
X80.945Y-92.769
X90.469Y-104.018
X90.469Y-111.818
X90.487Y-65.921
X90.487Y-73.721
X90.487Y-142.15
X90.487Y-149.95
X99.994Y-84.969
X99.994Y-92.769
X99.994Y-123.067
X99.994Y-130.867
X109.518Y-65.921
X109.518Y-73.721
X109.518Y-104.018
X109.518Y-111.818
X119.042Y-84.969
X119.042Y-92.769
X119.042Y-123.067
X119.042Y-130.867
X119.062Y-142.15
X119.062Y-149.95
X128.567Y-65.921
X128.567Y-73.721
X128.567Y-104.018
X128.567Y-111.818
X138.091Y-84.969
X138.091Y-92.769
X138.091Y-123.067
X138.091Y-130.867
X147.616Y-65.921
X147.616Y-73.721
X147.616Y-104.018
X147.616Y-111.818
X147.637Y-142.15
X147.637Y-149.95
X157.14Y-84.969
X157.14Y-92.769
X157.14Y-123.067
X157.14Y-130.867
X166.664Y-65.921
X166.664Y-73.721
X166.664Y-104.018
X166.664Y-111.818
X176.189Y-84.969
X176.189Y-92.769
X176.189Y-123.067
X176.189Y-130.867
X185.713Y-65.921
X185.713Y-73.721
X185.713Y-104.018
X185.713Y-111.818
X194.469Y-142.081
X194.469Y-149.881
X195.238Y-84.969
X195.238Y-92.769
X195.238Y-123.067
X195.238Y-130.867
X204.762Y-65.921
X204.762Y-73.721
X204.762Y-104.018
X204.762Y-111.818
X214.286Y-84.969
X214.286Y-92.769
X214.286Y-123.067
X214.286Y-130.867
X223.811Y-65.921
X223.811Y-73.721
X223.811Y-104.018
X223.811Y-111.818
X232.569Y-142.081
X232.569Y-149.881
X233.335Y-84.969
X233.335Y-92.769
X233.335Y-123.067
X233.335Y-130.867
X242.86Y-65.921
X242.86Y-73.721
X242.86Y-104.018
X242.86Y-111.818
X252.384Y-84.969
X252.384Y-92.769
X252.384Y-123.067
X252.384Y-130.867
X252.384Y-142.081
X252.384Y-149.881
X261.908Y-65.921
X261.908Y-73.721
X261.908Y-104.018
X261.908Y-111.818
X271.433Y-84.969
X271.433Y-92.769
X271.433Y-123.067
X271.433Y-130.867
X271.433Y-142.15
X271.433Y-149.95
X280.957Y-65.921
X280.957Y-73.721
X280.988Y-104.018
X280.988Y-111.818
X280.988Y-142.081
X280.988Y-149.881
X283.369Y-104.018
X283.369Y-111.818
X290.482Y-84.969
X290.482Y-92.769
X295.244Y-84.931
X295.244Y-92.731
X295.244Y-123.067
X295.244Y-130.867
X298.435Y-123.074
X298.435Y-130.874
X300.006Y-142.081
X300.006Y-149.881
X317.5Y-65.881
X317.5Y-73.681
X319.055Y-142.081
X319.055Y-149.881
X334.135Y-99.981
X336.675Y-99.981
T4
X321.753Y-64.18
X321.753Y-66.72
X321.753Y-69.26
X321.753Y-71.8
X321.753Y-74.34
X321.753Y-76.88
X321.753Y-79.42
X321.753Y-81.96
X321.753Y-84.5
X321.753Y-87.04
X321.753Y-89.58
X321.753Y-92.12
X329.373Y-87.04
X331.913Y-87.04
X334.453Y-87.04
X336.993Y-64.18
X336.993Y-66.72
X336.993Y-69.26
X336.993Y-71.8
X336.993Y-74.34
X336.993Y-76.88
X336.993Y-79.42
X336.993Y-81.96
X336.993Y-84.5
X336.993Y-87.04
X336.993Y-89.58
X336.993Y-92.12
T5
X37.862Y-73.65
X42.622Y-92.694
X42.622Y-149.841
X42.862Y-75.75
X47.387Y-111.75
X47.622Y-94.794
X47.622Y-151.941
X52.15Y-130.8
X52.387Y-113.85
X56.912Y-73.65
X57.15Y-132.9
X61.912Y-75.75
X66.42Y-92.7
X71.2Y-149.85
X71.42Y-94.8
X75.962Y-73.65
X75.962Y-111.75
X76.2Y-151.95
X80.962Y-75.75
X80.962Y-113.85
X85.469Y-92.7
X85.469Y-130.8
X90.469Y-94.8
X90.469Y-132.9
X95.012Y-73.65
X95.012Y-111.75
X99.775Y-149.85
X100.012Y-75.75
X100.012Y-113.85
X104.518Y-92.7
X104.537Y-130.8
X104.775Y-151.95
X109.518Y-94.8
X109.537Y-132.9
X114.062Y-73.65
X114.062Y-111.75
X119.062Y-75.75
X119.062Y-113.85
X123.567Y-92.7
X123.587Y-130.8
X128.35Y-149.85
X128.567Y-94.8
X128.588Y-132.9
X133.091Y-73.65
X133.112Y-111.75
X133.35Y-151.95
X138.091Y-75.75
X138.112Y-113.85
X142.637Y-92.7
X142.637Y-130.8
X147.637Y-94.8
X147.637Y-132.9
X152.14Y-73.65
X152.162Y-111.75
X157.14Y-75.75
X157.162Y-113.85
X161.664Y-92.7
X161.688Y-130.8
X166.45Y-149.85
X166.664Y-94.8
X166.688Y-132.9
X171.189Y-73.65
X171.213Y-111.75
X171.45Y-151.95
X176.189Y-75.75
X176.213Y-113.85
X180.713Y-92.7
X180.737Y-130.8
X185.713Y-94.8
X185.737Y-132.9
X190.238Y-73.65
X190.262Y-111.75
X195.238Y-75.75
X195.262Y-113.85
X199.787Y-92.7
X199.787Y-130.8
X204.787Y-94.8
X204.787Y-132.9
X209.286Y-73.65
X209.312Y-111.75
X209.312Y-149.85
X214.286Y-75.75
X214.312Y-113.85
X214.312Y-151.95
X218.837Y-92.7
X218.837Y-130.8
X223.837Y-94.8
X223.837Y-132.9
X228.335Y-73.65
X228.362Y-111.75
X233.335Y-75.75
X233.362Y-113.85
X237.887Y-92.7
X237.887Y-130.8
X237.887Y-149.85
X242.887Y-94.8
X242.887Y-132.9
X242.887Y-151.95
X247.384Y-73.65
X247.412Y-111.75
X252.384Y-75.75
X252.412Y-113.85
X256.938Y-92.7
X256.938Y-130.8
X256.938Y-149.85
X261.938Y-94.8
X261.938Y-132.9
X261.938Y-151.95
X266.433Y-73.65
X266.462Y-111.75
X271.433Y-75.75
X271.462Y-113.85
X275.988Y-92.7
X280.75Y-130.8
X280.988Y-94.8
X285.482Y-149.85
X285.75Y-132.9
X290.482Y-151.95
X295.006Y-73.65
X295.037Y-111.75
X299.824Y-92.7
X300.006Y-75.75
X300.037Y-113.85
X304.562Y-130.8
X304.562Y-149.85
X304.824Y-94.8
X309.562Y-132.9
X309.562Y-151.95
X323.613Y-149.85
X328.613Y-151.95
T0
M30
