G04 #@! TF.GenerationSoftware,KiCad,Pcbnew,(5.1.10)-1*
G04 #@! TF.CreationDate,2022-02-10T09:54:13+11:00*
G04 #@! TF.ProjectId,mf68,6d663638-2e6b-4696-9361-645f70636258,rev?*
G04 #@! TF.SameCoordinates,Original*
G04 #@! TF.FileFunction,Copper,L1,Top*
G04 #@! TF.FilePolarity,Positive*
%FSLAX46Y46*%
G04 Gerber Fmt 4.6, Leading zero omitted, Abs format (unit mm)*
G04 Created by KiCad (PCBNEW (5.1.10)-1) date 2022-02-10 09:54:13*
%MOMM*%
%LPD*%
G01*
G04 APERTURE LIST*
G04 #@! TA.AperFunction,ComponentPad*
%ADD10C,2.000000*%
G04 #@! TD*
G04 #@! TA.AperFunction,ComponentPad*
%ADD11R,1.600000X1.600000*%
G04 #@! TD*
G04 #@! TA.AperFunction,ComponentPad*
%ADD12C,1.600000*%
G04 #@! TD*
G04 #@! TA.AperFunction,SMDPad,CuDef*
%ADD13R,0.500000X2.900000*%
G04 #@! TD*
G04 #@! TA.AperFunction,SMDPad,CuDef*
%ADD14R,1.200000X1.600000*%
G04 #@! TD*
G04 #@! TA.AperFunction,ComponentPad*
%ADD15O,1.700000X1.700000*%
G04 #@! TD*
G04 #@! TA.AperFunction,ComponentPad*
%ADD16R,1.700000X1.700000*%
G04 #@! TD*
G04 #@! TA.AperFunction,ComponentPad*
%ADD17C,1.500000*%
G04 #@! TD*
G04 #@! TA.AperFunction,ComponentPad*
%ADD18C,1.752600*%
G04 #@! TD*
G04 #@! TA.AperFunction,ViaPad*
%ADD19C,0.800000*%
G04 #@! TD*
G04 #@! TA.AperFunction,Conductor*
%ADD20C,0.400000*%
G04 #@! TD*
G04 APERTURE END LIST*
D10*
X128350000Y-149850000D03*
X133350000Y-151950000D03*
X166450000Y-149850000D03*
X171450000Y-151950000D03*
X295006000Y-73650000D03*
X300006000Y-75750000D03*
X209312500Y-149850000D03*
X214312500Y-151950000D03*
X295037500Y-111750000D03*
X300037500Y-113850000D03*
X47387500Y-111750000D03*
X52387500Y-113850000D03*
D11*
X317500000Y-65881250D03*
D12*
X317500000Y-73681250D03*
D13*
X317500000Y-67281250D03*
D14*
X317500000Y-68381250D03*
X317500000Y-71181250D03*
D13*
X317500000Y-72281250D03*
D11*
X298435400Y-123074150D03*
D12*
X298435400Y-130874150D03*
D13*
X298435400Y-124474150D03*
D14*
X298435400Y-125574150D03*
X298435400Y-128374150D03*
D13*
X298435400Y-129474150D03*
D11*
X319054800Y-142081250D03*
D12*
X319054800Y-149881250D03*
D13*
X319054800Y-143481250D03*
D14*
X319054800Y-144581250D03*
X319054800Y-147381250D03*
D13*
X319054800Y-148481250D03*
D11*
X300006000Y-142081250D03*
D12*
X300006000Y-149881250D03*
D13*
X300006000Y-143481250D03*
D14*
X300006000Y-144581250D03*
X300006000Y-147381250D03*
D13*
X300006000Y-148481250D03*
D11*
X280987500Y-142081250D03*
D12*
X280987500Y-149881250D03*
D13*
X280987500Y-143481250D03*
D14*
X280987500Y-144581250D03*
X280987500Y-147381250D03*
D13*
X280987500Y-148481250D03*
D11*
X271432800Y-142150000D03*
D12*
X271432800Y-149950000D03*
D13*
X271432800Y-143550000D03*
D14*
X271432800Y-144650000D03*
X271432800Y-147450000D03*
D13*
X271432800Y-148550000D03*
D11*
X252384000Y-142081250D03*
D12*
X252384000Y-149881250D03*
D13*
X252384000Y-143481250D03*
D14*
X252384000Y-144581250D03*
X252384000Y-147381250D03*
D13*
X252384000Y-148481250D03*
D11*
X232568750Y-142081250D03*
D12*
X232568750Y-149881250D03*
D13*
X232568750Y-143481250D03*
D14*
X232568750Y-144581250D03*
X232568750Y-147381250D03*
D13*
X232568750Y-148481250D03*
D11*
X194468750Y-142081250D03*
D12*
X194468750Y-149881250D03*
D13*
X194468750Y-143481250D03*
D14*
X194468750Y-144581250D03*
X194468750Y-147381250D03*
D13*
X194468750Y-148481250D03*
D11*
X147637500Y-142150000D03*
D12*
X147637500Y-149950000D03*
D13*
X147637500Y-143550000D03*
D14*
X147637500Y-144650000D03*
X147637500Y-147450000D03*
D13*
X147637500Y-148550000D03*
D11*
X119062500Y-142150000D03*
D12*
X119062500Y-149950000D03*
D13*
X119062500Y-143550000D03*
D14*
X119062500Y-144650000D03*
X119062500Y-147450000D03*
D13*
X119062500Y-148550000D03*
D11*
X90487500Y-142150000D03*
D12*
X90487500Y-149950000D03*
D13*
X90487500Y-143550000D03*
D14*
X90487500Y-144650000D03*
X90487500Y-147450000D03*
D13*
X90487500Y-148550000D03*
D11*
X61912500Y-142081250D03*
D12*
X61912500Y-149881250D03*
D13*
X61912500Y-143481250D03*
D14*
X61912500Y-144581250D03*
X61912500Y-147381250D03*
D13*
X61912500Y-148481250D03*
D11*
X295243800Y-84931250D03*
D12*
X295243800Y-92731250D03*
D13*
X295243800Y-86331250D03*
D14*
X295243800Y-87431250D03*
X295243800Y-90231250D03*
D13*
X295243800Y-91331250D03*
D11*
X295243800Y-123066950D03*
D12*
X295243800Y-130866950D03*
D13*
X295243800Y-124466950D03*
D14*
X295243800Y-125566950D03*
X295243800Y-128366950D03*
D13*
X295243800Y-129466950D03*
D11*
X271432800Y-123066950D03*
D12*
X271432800Y-130866950D03*
D13*
X271432800Y-124466950D03*
D14*
X271432800Y-125566950D03*
X271432800Y-128366950D03*
D13*
X271432800Y-129466950D03*
D11*
X252384000Y-123066950D03*
D12*
X252384000Y-130866950D03*
D13*
X252384000Y-124466950D03*
D14*
X252384000Y-125566950D03*
X252384000Y-128366950D03*
D13*
X252384000Y-129466950D03*
D11*
X233335200Y-123066950D03*
D12*
X233335200Y-130866950D03*
D13*
X233335200Y-124466950D03*
D14*
X233335200Y-125566950D03*
X233335200Y-128366950D03*
D13*
X233335200Y-129466950D03*
D11*
X214286400Y-123066950D03*
D12*
X214286400Y-130866950D03*
D13*
X214286400Y-124466950D03*
D14*
X214286400Y-125566950D03*
X214286400Y-128366950D03*
D13*
X214286400Y-129466950D03*
D11*
X195237600Y-123066950D03*
D12*
X195237600Y-130866950D03*
D13*
X195237600Y-124466950D03*
D14*
X195237600Y-125566950D03*
X195237600Y-128366950D03*
D13*
X195237600Y-129466950D03*
D11*
X176188800Y-123066950D03*
D12*
X176188800Y-130866950D03*
D13*
X176188800Y-124466950D03*
D14*
X176188800Y-125566950D03*
X176188800Y-128366950D03*
D13*
X176188800Y-129466950D03*
D11*
X157140000Y-123066950D03*
D12*
X157140000Y-130866950D03*
D13*
X157140000Y-124466950D03*
D14*
X157140000Y-125566950D03*
X157140000Y-128366950D03*
D13*
X157140000Y-129466950D03*
D11*
X138091200Y-123066950D03*
D12*
X138091200Y-130866950D03*
D13*
X138091200Y-124466950D03*
D14*
X138091200Y-125566950D03*
X138091200Y-128366950D03*
D13*
X138091200Y-129466950D03*
D11*
X119042400Y-123066950D03*
D12*
X119042400Y-130866950D03*
D13*
X119042400Y-124466950D03*
D14*
X119042400Y-125566950D03*
X119042400Y-128366950D03*
D13*
X119042400Y-129466950D03*
D11*
X99993600Y-123066950D03*
D12*
X99993600Y-130866950D03*
D13*
X99993600Y-124466950D03*
D14*
X99993600Y-125566950D03*
X99993600Y-128366950D03*
D13*
X99993600Y-129466950D03*
D11*
X76182600Y-123066950D03*
D12*
X76182600Y-130866950D03*
D13*
X76182600Y-124466950D03*
D14*
X76182600Y-125566950D03*
X76182600Y-128366950D03*
D13*
X76182600Y-129466950D03*
D11*
X283368750Y-104018150D03*
D12*
X283368750Y-111818150D03*
D13*
X283368750Y-105418150D03*
D14*
X283368750Y-106518150D03*
X283368750Y-109318150D03*
D13*
X283368750Y-110418150D03*
D11*
X280987500Y-104018150D03*
D12*
X280987500Y-111818150D03*
D13*
X280987500Y-105418150D03*
D14*
X280987500Y-106518150D03*
X280987500Y-109318150D03*
D13*
X280987500Y-110418150D03*
D11*
X261908400Y-104018150D03*
D12*
X261908400Y-111818150D03*
D13*
X261908400Y-105418150D03*
D14*
X261908400Y-106518150D03*
X261908400Y-109318150D03*
D13*
X261908400Y-110418150D03*
D11*
X242859600Y-104018150D03*
D12*
X242859600Y-111818150D03*
D13*
X242859600Y-105418150D03*
D14*
X242859600Y-106518150D03*
X242859600Y-109318150D03*
D13*
X242859600Y-110418150D03*
D11*
X223810800Y-104018150D03*
D12*
X223810800Y-111818150D03*
D13*
X223810800Y-105418150D03*
D14*
X223810800Y-106518150D03*
X223810800Y-109318150D03*
D13*
X223810800Y-110418150D03*
D11*
X204762000Y-104018150D03*
D12*
X204762000Y-111818150D03*
D13*
X204762000Y-105418150D03*
D14*
X204762000Y-106518150D03*
X204762000Y-109318150D03*
D13*
X204762000Y-110418150D03*
D11*
X185713200Y-104018150D03*
D12*
X185713200Y-111818150D03*
D13*
X185713200Y-105418150D03*
D14*
X185713200Y-106518150D03*
X185713200Y-109318150D03*
D13*
X185713200Y-110418150D03*
D11*
X166664400Y-104018150D03*
D12*
X166664400Y-111818150D03*
D13*
X166664400Y-105418150D03*
D14*
X166664400Y-106518150D03*
X166664400Y-109318150D03*
D13*
X166664400Y-110418150D03*
D11*
X147615600Y-104018150D03*
D12*
X147615600Y-111818150D03*
D13*
X147615600Y-105418150D03*
D14*
X147615600Y-106518150D03*
X147615600Y-109318150D03*
D13*
X147615600Y-110418150D03*
D11*
X128566800Y-104018150D03*
D12*
X128566800Y-111818150D03*
D13*
X128566800Y-105418150D03*
D14*
X128566800Y-106518150D03*
X128566800Y-109318150D03*
D13*
X128566800Y-110418150D03*
D11*
X109518000Y-104018150D03*
D12*
X109518000Y-111818150D03*
D13*
X109518000Y-105418150D03*
D14*
X109518000Y-106518150D03*
X109518000Y-109318150D03*
D13*
X109518000Y-110418150D03*
D11*
X90469200Y-104018150D03*
D12*
X90469200Y-111818150D03*
D13*
X90469200Y-105418150D03*
D14*
X90469200Y-106518150D03*
X90469200Y-109318150D03*
D13*
X90469200Y-110418150D03*
D11*
X70643750Y-103981250D03*
D12*
X70643750Y-111781250D03*
D13*
X70643750Y-105381250D03*
D14*
X70643750Y-106481250D03*
X70643750Y-109281250D03*
D13*
X70643750Y-110381250D03*
D11*
X290481600Y-84969350D03*
D12*
X290481600Y-92769350D03*
D13*
X290481600Y-86369350D03*
D14*
X290481600Y-87469350D03*
X290481600Y-90269350D03*
D13*
X290481600Y-91369350D03*
D11*
X271432800Y-84969350D03*
D12*
X271432800Y-92769350D03*
D13*
X271432800Y-86369350D03*
D14*
X271432800Y-87469350D03*
X271432800Y-90269350D03*
D13*
X271432800Y-91369350D03*
D11*
X252384000Y-84969350D03*
D12*
X252384000Y-92769350D03*
D13*
X252384000Y-86369350D03*
D14*
X252384000Y-87469350D03*
X252384000Y-90269350D03*
D13*
X252384000Y-91369350D03*
D11*
X233335200Y-84969350D03*
D12*
X233335200Y-92769350D03*
D13*
X233335200Y-86369350D03*
D14*
X233335200Y-87469350D03*
X233335200Y-90269350D03*
D13*
X233335200Y-91369350D03*
D11*
X214286400Y-84969350D03*
D12*
X214286400Y-92769350D03*
D13*
X214286400Y-86369350D03*
D14*
X214286400Y-87469350D03*
X214286400Y-90269350D03*
D13*
X214286400Y-91369350D03*
D11*
X195237600Y-84969350D03*
D12*
X195237600Y-92769350D03*
D13*
X195237600Y-86369350D03*
D14*
X195237600Y-87469350D03*
X195237600Y-90269350D03*
D13*
X195237600Y-91369350D03*
D11*
X176188800Y-84969350D03*
D12*
X176188800Y-92769350D03*
D13*
X176188800Y-86369350D03*
D14*
X176188800Y-87469350D03*
X176188800Y-90269350D03*
D13*
X176188800Y-91369350D03*
D11*
X157140000Y-84969350D03*
D12*
X157140000Y-92769350D03*
D13*
X157140000Y-86369350D03*
D14*
X157140000Y-87469350D03*
X157140000Y-90269350D03*
D13*
X157140000Y-91369350D03*
D11*
X138091200Y-84969350D03*
D12*
X138091200Y-92769350D03*
D13*
X138091200Y-86369350D03*
D14*
X138091200Y-87469350D03*
X138091200Y-90269350D03*
D13*
X138091200Y-91369350D03*
D11*
X119042400Y-84969350D03*
D12*
X119042400Y-92769350D03*
D13*
X119042400Y-86369350D03*
D14*
X119042400Y-87469350D03*
X119042400Y-90269350D03*
D13*
X119042400Y-91369350D03*
D11*
X99993600Y-84969350D03*
D12*
X99993600Y-92769350D03*
D13*
X99993600Y-86369350D03*
D14*
X99993600Y-87469350D03*
X99993600Y-90269350D03*
D13*
X99993600Y-91369350D03*
D11*
X80944800Y-84969350D03*
D12*
X80944800Y-92769350D03*
D13*
X80944800Y-86369350D03*
D14*
X80944800Y-87469350D03*
X80944800Y-90269350D03*
D13*
X80944800Y-91369350D03*
D11*
X56400000Y-84985946D03*
D12*
X56400000Y-92785946D03*
D13*
X56400000Y-86385946D03*
D14*
X56400000Y-87485946D03*
X56400000Y-90285946D03*
D13*
X56400000Y-91385946D03*
D11*
X280957200Y-65920550D03*
D12*
X280957200Y-73720550D03*
D13*
X280957200Y-67320550D03*
D14*
X280957200Y-68420550D03*
X280957200Y-71220550D03*
D13*
X280957200Y-72320550D03*
D11*
X261908400Y-65920550D03*
D12*
X261908400Y-73720550D03*
D13*
X261908400Y-67320550D03*
D14*
X261908400Y-68420550D03*
X261908400Y-71220550D03*
D13*
X261908400Y-72320550D03*
D11*
X242859600Y-65920550D03*
D12*
X242859600Y-73720550D03*
D13*
X242859600Y-67320550D03*
D14*
X242859600Y-68420550D03*
X242859600Y-71220550D03*
D13*
X242859600Y-72320550D03*
D11*
X223810800Y-65920550D03*
D12*
X223810800Y-73720550D03*
D13*
X223810800Y-67320550D03*
D14*
X223810800Y-68420550D03*
X223810800Y-71220550D03*
D13*
X223810800Y-72320550D03*
D11*
X204762000Y-65920550D03*
D12*
X204762000Y-73720550D03*
D13*
X204762000Y-67320550D03*
D14*
X204762000Y-68420550D03*
X204762000Y-71220550D03*
D13*
X204762000Y-72320550D03*
D11*
X185713200Y-65920550D03*
D12*
X185713200Y-73720550D03*
D13*
X185713200Y-67320550D03*
D14*
X185713200Y-68420550D03*
X185713200Y-71220550D03*
D13*
X185713200Y-72320550D03*
D11*
X166664400Y-65920550D03*
D12*
X166664400Y-73720550D03*
D13*
X166664400Y-67320550D03*
D14*
X166664400Y-68420550D03*
X166664400Y-71220550D03*
D13*
X166664400Y-72320550D03*
D11*
X147615600Y-65920550D03*
D12*
X147615600Y-73720550D03*
D13*
X147615600Y-67320550D03*
D14*
X147615600Y-68420550D03*
X147615600Y-71220550D03*
D13*
X147615600Y-72320550D03*
D11*
X128566800Y-65920550D03*
D12*
X128566800Y-73720550D03*
D13*
X128566800Y-67320550D03*
D14*
X128566800Y-68420550D03*
X128566800Y-71220550D03*
D13*
X128566800Y-72320550D03*
D11*
X109518000Y-65920550D03*
D12*
X109518000Y-73720550D03*
D13*
X109518000Y-67320550D03*
D14*
X109518000Y-68420550D03*
X109518000Y-71220550D03*
D13*
X109518000Y-72320550D03*
D11*
X90487500Y-65920550D03*
D12*
X90487500Y-73720550D03*
D13*
X90487500Y-67320550D03*
D14*
X90487500Y-68420550D03*
X90487500Y-71220550D03*
D13*
X90487500Y-72320550D03*
D11*
X71437500Y-65881250D03*
D12*
X71437500Y-73681250D03*
D13*
X71437500Y-67281250D03*
D14*
X71437500Y-68381250D03*
X71437500Y-71181250D03*
D13*
X71437500Y-72281250D03*
D11*
X52387500Y-65881250D03*
D12*
X52387500Y-73681250D03*
D13*
X52387500Y-67281250D03*
D14*
X52387500Y-68381250D03*
X52387500Y-71181250D03*
D13*
X52387500Y-72281250D03*
D10*
X123566800Y-92700000D03*
X128566800Y-94800000D03*
X304562500Y-130800000D03*
X309562500Y-132900000D03*
X323612500Y-149850000D03*
X328612500Y-151950000D03*
X304562500Y-149850000D03*
X309562500Y-151950000D03*
X285481600Y-149850000D03*
X290481600Y-151950000D03*
X256937500Y-149850000D03*
X261937500Y-151950000D03*
X237887500Y-149850000D03*
X242887500Y-151950000D03*
X256937500Y-130800000D03*
X261937500Y-132900000D03*
X237887500Y-130800000D03*
X242887500Y-132900000D03*
X218837500Y-130800000D03*
X223837500Y-132900000D03*
X199787500Y-130800000D03*
X204787500Y-132900000D03*
X180737500Y-130800000D03*
X185737500Y-132900000D03*
X161687500Y-130800000D03*
X166687500Y-132900000D03*
X142637500Y-130800000D03*
X147637500Y-132900000D03*
X123587500Y-130800000D03*
X128587500Y-132900000D03*
X104537500Y-130800000D03*
X109537500Y-132900000D03*
X85469200Y-130800000D03*
X90469200Y-132900000D03*
X266462500Y-111750000D03*
X271462500Y-113850000D03*
X247412500Y-111750000D03*
X252412500Y-113850000D03*
X228362500Y-111750000D03*
X233362500Y-113850000D03*
X209312500Y-111750000D03*
X214312500Y-113850000D03*
X190262500Y-111750000D03*
X195262500Y-113850000D03*
X171212500Y-111750000D03*
X176212500Y-113850000D03*
X152162500Y-111750000D03*
X157162500Y-113850000D03*
X133112500Y-111750000D03*
X138112500Y-113850000D03*
X114062500Y-111750000D03*
X119062500Y-113850000D03*
X95012500Y-111750000D03*
X100012500Y-113850000D03*
X75962500Y-111750000D03*
X80962500Y-113850000D03*
X275987500Y-92700000D03*
X280987500Y-94800000D03*
X256937500Y-92700000D03*
X261937500Y-94800000D03*
X237887500Y-92700000D03*
X242887500Y-94800000D03*
X218837500Y-92700000D03*
X223837500Y-94800000D03*
X199787500Y-92700000D03*
X204787500Y-94800000D03*
X180713200Y-92700000D03*
X185713200Y-94800000D03*
X161664400Y-92700000D03*
X166664400Y-94800000D03*
X142637500Y-92700000D03*
X147637500Y-94800000D03*
X104518000Y-92700000D03*
X109518000Y-94800000D03*
X85469200Y-92700000D03*
X90469200Y-94800000D03*
X66420400Y-92700000D03*
X71420400Y-94800000D03*
X266432800Y-73650000D03*
X271432800Y-75750000D03*
X247384000Y-73650000D03*
X252384000Y-75750000D03*
X228335200Y-73650000D03*
X233335200Y-75750000D03*
X209286400Y-73650000D03*
X214286400Y-75750000D03*
X190237600Y-73650000D03*
X195237600Y-75750000D03*
X171188800Y-73650000D03*
X176188800Y-75750000D03*
X152140000Y-73650000D03*
X157140000Y-75750000D03*
X133091200Y-73650000D03*
X138091200Y-75750000D03*
X114062500Y-73650000D03*
X119062500Y-75750000D03*
X95012500Y-73650000D03*
X100012500Y-75750000D03*
X75962500Y-73650000D03*
X80962500Y-75750000D03*
X56912500Y-73650000D03*
X61912500Y-75750000D03*
X37862500Y-73650000D03*
X42862500Y-75750000D03*
X99775000Y-149850000D03*
X104775000Y-151950000D03*
X71200000Y-149850000D03*
X76200000Y-151950000D03*
X42621940Y-149840616D03*
X47621940Y-151940616D03*
X299824100Y-92700000D03*
X304824100Y-94800000D03*
X280750000Y-130800000D03*
X285750000Y-132900000D03*
X52150000Y-130800000D03*
X57150000Y-132900000D03*
X42621940Y-92694288D03*
X47621940Y-94794288D03*
D15*
X336675100Y-99981400D03*
D16*
X334135100Y-99981400D03*
D17*
X331900000Y-107918400D03*
X329400000Y-107918400D03*
X326900000Y-107918400D03*
D18*
X336992900Y-64180000D03*
X336992900Y-66720000D03*
X336992900Y-69260000D03*
X336992900Y-71800000D03*
X336992900Y-74340000D03*
X336992900Y-76880000D03*
X336992900Y-79420000D03*
X336992900Y-81960000D03*
X336992900Y-84500000D03*
X336992900Y-87040000D03*
X336992900Y-89580000D03*
X321752900Y-92120000D03*
X321752900Y-89580000D03*
X321752900Y-87040000D03*
X321752900Y-84500000D03*
X321752900Y-81960000D03*
X321752900Y-79420000D03*
X321752900Y-76880000D03*
X321752900Y-74340000D03*
X321752900Y-71800000D03*
X321752900Y-69260000D03*
X321752900Y-66720000D03*
X336992900Y-92120000D03*
X321752900Y-64180000D03*
X334452900Y-87040000D03*
X331912900Y-87040000D03*
X329372900Y-87040000D03*
D19*
X315118750Y-86518750D03*
X322262500Y-104775000D03*
X166687500Y-99218750D03*
X185737500Y-99225000D03*
X211931250Y-115887500D03*
X232568750Y-117475000D03*
X252412500Y-118268750D03*
X319087500Y-114300000D03*
X322093750Y-110956250D03*
X295275000Y-95250000D03*
X314156250Y-111750000D03*
D20*
X277812500Y-67468750D02*
X279400000Y-65881250D01*
X274637500Y-67468750D02*
X277812500Y-67468750D01*
X279400000Y-65881250D02*
X280987500Y-65881250D01*
X261937500Y-65881250D02*
X273050000Y-65881250D01*
X273050000Y-65881250D02*
X274637500Y-67468750D01*
X258762500Y-67468750D02*
X260350000Y-65881250D01*
X255587500Y-67468750D02*
X258762500Y-67468750D01*
X260350000Y-65881250D02*
X261937500Y-65881250D01*
X242887500Y-65881250D02*
X254000000Y-65881250D01*
X254000000Y-65881250D02*
X255587500Y-67468750D01*
X239712500Y-67468750D02*
X241300000Y-65881250D01*
X236537500Y-67468750D02*
X239712500Y-67468750D01*
X241300000Y-65881250D02*
X242887500Y-65881250D01*
X223837500Y-65881250D02*
X234950000Y-65881250D01*
X234950000Y-65881250D02*
X236537500Y-67468750D01*
X220662500Y-67468750D02*
X222250000Y-65881250D01*
X217487500Y-67468750D02*
X220662500Y-67468750D01*
X222250000Y-65881250D02*
X223837500Y-65881250D01*
X204787500Y-65881250D02*
X215900000Y-65881250D01*
X215900000Y-65881250D02*
X217487500Y-67468750D01*
X201612500Y-67468750D02*
X203200000Y-65881250D01*
X198437500Y-67468750D02*
X201612500Y-67468750D01*
X203200000Y-65881250D02*
X204787500Y-65881250D01*
X185737500Y-65881250D02*
X196850000Y-65881250D01*
X196850000Y-65881250D02*
X198437500Y-67468750D01*
X182562500Y-67468750D02*
X184150000Y-65881250D01*
X179387500Y-67468750D02*
X182562500Y-67468750D01*
X184150000Y-65881250D02*
X185737500Y-65881250D01*
X166687500Y-65881250D02*
X177800000Y-65881250D01*
X177800000Y-65881250D02*
X179387500Y-67468750D01*
X163512500Y-67468750D02*
X165100000Y-65881250D01*
X160337500Y-67468750D02*
X163512500Y-67468750D01*
X165100000Y-65881250D02*
X166687500Y-65881250D01*
X147637500Y-65881250D02*
X158750000Y-65881250D01*
X158750000Y-65881250D02*
X160337500Y-67468750D01*
X144462500Y-67468750D02*
X146050000Y-65881250D01*
X141287500Y-67468750D02*
X144462500Y-67468750D01*
X146050000Y-65881250D02*
X147637500Y-65881250D01*
X128587500Y-65881250D02*
X139700000Y-65881250D01*
X139700000Y-65881250D02*
X141287500Y-67468750D01*
X125412500Y-67468750D02*
X127000000Y-65881250D01*
X122237500Y-67468750D02*
X125412500Y-67468750D01*
X127000000Y-65881250D02*
X128587500Y-65881250D01*
X109537500Y-65881250D02*
X120650000Y-65881250D01*
X120650000Y-65881250D02*
X122237500Y-67468750D01*
X106362500Y-67468750D02*
X107950000Y-65881250D01*
X103187500Y-67468750D02*
X106362500Y-67468750D01*
X107950000Y-65881250D02*
X109537500Y-65881250D01*
X90487500Y-65881250D02*
X101600000Y-65881250D01*
X101600000Y-65881250D02*
X103187500Y-67468750D01*
X87312500Y-67468750D02*
X88900000Y-65881250D01*
X84137500Y-67468750D02*
X87312500Y-67468750D01*
X88900000Y-65881250D02*
X90487500Y-65881250D01*
X71437500Y-65881250D02*
X82550000Y-65881250D01*
X82550000Y-65881250D02*
X84137500Y-67468750D01*
X52387500Y-65881250D02*
X63500000Y-65881250D01*
X69850000Y-65881250D02*
X71437500Y-65881250D01*
X65087500Y-67468750D02*
X68262500Y-67468750D01*
X68262500Y-67468750D02*
X69850000Y-65881250D01*
X63500000Y-65881250D02*
X65087500Y-67468750D01*
X280957200Y-65920550D02*
X282535700Y-65920550D01*
X282535700Y-65920550D02*
X283368750Y-66753600D01*
X283368750Y-76993750D02*
X284143710Y-77768710D01*
X283368750Y-66753600D02*
X283368750Y-76993750D01*
X320098958Y-74340000D02*
X321752900Y-74340000D01*
X316670248Y-77768710D02*
X320098958Y-74340000D01*
X284143710Y-77768710D02*
X316670248Y-77768710D01*
X77787500Y-86518750D02*
X79375000Y-84931250D01*
X74612500Y-86518750D02*
X77787500Y-86518750D01*
X79375000Y-84931250D02*
X80962500Y-84931250D01*
X73025000Y-84931250D02*
X74612500Y-86518750D01*
X111125000Y-84931250D02*
X112712500Y-86518750D01*
X93662500Y-86518750D02*
X96837500Y-86518750D01*
X96837500Y-86518750D02*
X98425000Y-84931250D01*
X112712500Y-86518750D02*
X115887500Y-86518750D01*
X92075000Y-84931250D02*
X93662500Y-86518750D01*
X117475000Y-84931250D02*
X119062500Y-84931250D01*
X98425000Y-84931250D02*
X100012500Y-84931250D01*
X80962500Y-84931250D02*
X92075000Y-84931250D01*
X115887500Y-86518750D02*
X117475000Y-84931250D01*
X100012500Y-84931250D02*
X111125000Y-84931250D01*
X174625000Y-84931250D02*
X176212500Y-84931250D01*
X168275000Y-84931250D02*
X169862500Y-86518750D01*
X211137500Y-86518750D02*
X212725000Y-84931250D01*
X212725000Y-84931250D02*
X214312500Y-84931250D01*
X214312500Y-84931250D02*
X225425000Y-84931250D01*
X263525000Y-84931250D02*
X265112500Y-86518750D01*
X130175000Y-84931250D02*
X131762500Y-86518750D01*
X119062500Y-84931250D02*
X130175000Y-84931250D01*
X246062500Y-86518750D02*
X249237500Y-86518750D01*
X250825000Y-84931250D02*
X252412500Y-84931250D01*
X284162500Y-86518750D02*
X287337500Y-86518750D01*
X157162500Y-84931250D02*
X168275000Y-84931250D01*
X187325000Y-84931250D02*
X188912500Y-86518750D01*
X136525000Y-84931250D02*
X138112500Y-84931250D01*
X230187500Y-86518750D02*
X231775000Y-84931250D01*
X149225000Y-84931250D02*
X150812500Y-86518750D01*
X227012500Y-86518750D02*
X230187500Y-86518750D01*
X150812500Y-86518750D02*
X153987500Y-86518750D01*
X155575000Y-84931250D02*
X157162500Y-84931250D01*
X193675000Y-84931250D02*
X195262500Y-84931250D01*
X173037500Y-86518750D02*
X174625000Y-84931250D01*
X269875000Y-84931250D02*
X271462500Y-84931250D01*
X288925000Y-84931250D02*
X290512500Y-84931250D01*
X282575000Y-84931250D02*
X284162500Y-86518750D01*
X268287500Y-86518750D02*
X269875000Y-84931250D01*
X131762500Y-86518750D02*
X134937500Y-86518750D01*
X169862500Y-86518750D02*
X173037500Y-86518750D01*
X153987500Y-86518750D02*
X155575000Y-84931250D01*
X287337500Y-86518750D02*
X288925000Y-84931250D01*
X206375000Y-84931250D02*
X207962500Y-86518750D01*
X271462500Y-84931250D02*
X282575000Y-84931250D01*
X134937500Y-86518750D02*
X136525000Y-84931250D01*
X233362500Y-84931250D02*
X244475000Y-84931250D01*
X195262500Y-84931250D02*
X206375000Y-84931250D01*
X265112500Y-86518750D02*
X268287500Y-86518750D01*
X192087500Y-86518750D02*
X193675000Y-84931250D01*
X244475000Y-84931250D02*
X246062500Y-86518750D01*
X207962500Y-86518750D02*
X211137500Y-86518750D01*
X231775000Y-84931250D02*
X233362500Y-84931250D01*
X188912500Y-86518750D02*
X192087500Y-86518750D01*
X225425000Y-84931250D02*
X227012500Y-86518750D01*
X138112500Y-84931250D02*
X149225000Y-84931250D01*
X249237500Y-86518750D02*
X250825000Y-84931250D01*
X252412500Y-84931250D02*
X263525000Y-84931250D01*
X176212500Y-84931250D02*
X187325000Y-84931250D01*
X62651554Y-84985946D02*
X62706250Y-84931250D01*
X56400000Y-84985946D02*
X62651554Y-84985946D01*
X62706250Y-84931250D02*
X73025000Y-84931250D01*
X61912500Y-84931250D02*
X62706250Y-84931250D01*
X321480400Y-87312500D02*
X321752900Y-87040000D01*
X318021250Y-87040000D02*
X321752900Y-87040000D01*
X312737500Y-81756250D02*
X318021250Y-87040000D01*
X293687500Y-81756250D02*
X312737500Y-81756250D01*
X290481600Y-84962150D02*
X293687500Y-81756250D01*
X290481600Y-84969350D02*
X290481600Y-84962150D01*
X101600000Y-103981250D02*
X103187500Y-105568750D01*
X90487500Y-103981250D02*
X101600000Y-103981250D01*
X106362500Y-105568750D02*
X107950000Y-103981250D01*
X107950000Y-103981250D02*
X109537500Y-103981250D01*
X103187500Y-105568750D02*
X106362500Y-105568750D01*
X165100000Y-103981250D02*
X166687500Y-103981250D01*
X160337500Y-105568750D02*
X163512500Y-105568750D01*
X163512500Y-105568750D02*
X165100000Y-103981250D01*
X147637500Y-103981250D02*
X158750000Y-103981250D01*
X158750000Y-103981250D02*
X160337500Y-105568750D01*
X201612500Y-105568750D02*
X203200000Y-103981250D01*
X198437500Y-105568750D02*
X201612500Y-105568750D01*
X185737500Y-103981250D02*
X196850000Y-103981250D01*
X196850000Y-103981250D02*
X198437500Y-105568750D01*
X203200000Y-103981250D02*
X204787500Y-103981250D01*
X204787500Y-103981250D02*
X215900000Y-103981250D01*
X220662500Y-105568750D02*
X222250000Y-103981250D01*
X217487500Y-105568750D02*
X220662500Y-105568750D01*
X222250000Y-103981250D02*
X223837500Y-103981250D01*
X215900000Y-103981250D02*
X217487500Y-105568750D01*
X254000000Y-103981250D02*
X255587500Y-105568750D01*
X242887500Y-103981250D02*
X254000000Y-103981250D01*
X255587500Y-105568750D02*
X258762500Y-105568750D01*
X258762500Y-105568750D02*
X260350000Y-103981250D01*
X260350000Y-103981250D02*
X261937500Y-103981250D01*
X120650000Y-103981250D02*
X122237500Y-105568750D01*
X125412500Y-105568750D02*
X127000000Y-103981250D01*
X122237500Y-105568750D02*
X125412500Y-105568750D01*
X127000000Y-103981250D02*
X128587500Y-103981250D01*
X109537500Y-103981250D02*
X120650000Y-103981250D01*
X236537500Y-105568750D02*
X239712500Y-105568750D01*
X239712500Y-105568750D02*
X241300000Y-103981250D01*
X234950000Y-103981250D02*
X236537500Y-105568750D01*
X223837500Y-103981250D02*
X234950000Y-103981250D01*
X241300000Y-103981250D02*
X242887500Y-103981250D01*
X274637500Y-105568750D02*
X277812500Y-105568750D01*
X279400000Y-103981250D02*
X280987500Y-103981250D01*
X273050000Y-103981250D02*
X274637500Y-105568750D01*
X277812500Y-105568750D02*
X279400000Y-103981250D01*
X261937500Y-103981250D02*
X273050000Y-103981250D01*
X177800000Y-103981250D02*
X179387500Y-105568750D01*
X166687500Y-103981250D02*
X177800000Y-103981250D01*
X179387500Y-105568750D02*
X182562500Y-105568750D01*
X182562500Y-105568750D02*
X184150000Y-103981250D01*
X184150000Y-103981250D02*
X185737500Y-103981250D01*
X139700000Y-103981250D02*
X141287500Y-105568750D01*
X128587500Y-103981250D02*
X139700000Y-103981250D01*
X144462500Y-105568750D02*
X146050000Y-103981250D01*
X146050000Y-103981250D02*
X147637500Y-103981250D01*
X141287500Y-105568750D02*
X144462500Y-105568750D01*
X88900000Y-103981250D02*
X90487500Y-103981250D01*
X82550000Y-103981250D02*
X84137500Y-105568750D01*
X87312500Y-105568750D02*
X88900000Y-103981250D01*
X84137500Y-105568750D02*
X87312500Y-105568750D01*
X71437500Y-103981250D02*
X82550000Y-103981250D01*
X280987500Y-104018150D02*
X283368750Y-104018150D01*
X322565825Y-95850009D02*
X324643750Y-93772084D01*
X309811032Y-95850010D02*
X322565825Y-95850009D01*
X292513100Y-103568150D02*
X294481250Y-101600000D01*
X304061042Y-101600000D02*
X309811032Y-95850010D01*
X285369350Y-103568150D02*
X292513100Y-103568150D01*
X324643750Y-93772084D02*
X324643750Y-74861250D01*
X283368750Y-104018150D02*
X284919350Y-104018150D01*
X294481250Y-101600000D02*
X304061042Y-101600000D01*
X284919350Y-104018150D02*
X285369350Y-103568150D01*
X336992900Y-74340000D02*
X325165000Y-74340000D01*
X324643750Y-74861250D02*
X325165000Y-74340000D01*
X268287500Y-124618750D02*
X269875000Y-123031250D01*
X265112500Y-124618750D02*
X268287500Y-124618750D01*
X269875000Y-123031250D02*
X271462500Y-123031250D01*
X263525000Y-123031250D02*
X265112500Y-124618750D01*
X252412500Y-123031250D02*
X263525000Y-123031250D01*
X249237500Y-124618750D02*
X250825000Y-123031250D01*
X233362500Y-123031250D02*
X244475000Y-123031250D01*
X244475000Y-123031250D02*
X246062500Y-124618750D01*
X250825000Y-123031250D02*
X252412500Y-123031250D01*
X246062500Y-124618750D02*
X249237500Y-124618750D01*
X230187500Y-124618750D02*
X231775000Y-123031250D01*
X227012500Y-124618750D02*
X230187500Y-124618750D01*
X231775000Y-123031250D02*
X233362500Y-123031250D01*
X225425000Y-123031250D02*
X227012500Y-124618750D01*
X214312500Y-123031250D02*
X225425000Y-123031250D01*
X211137500Y-124618750D02*
X212725000Y-123031250D01*
X207962500Y-124618750D02*
X211137500Y-124618750D01*
X212725000Y-123031250D02*
X214312500Y-123031250D01*
X206375000Y-123031250D02*
X207962500Y-124618750D01*
X195262500Y-123031250D02*
X206375000Y-123031250D01*
X192087500Y-124618750D02*
X193675000Y-123031250D01*
X188912500Y-124618750D02*
X192087500Y-124618750D01*
X193675000Y-123031250D02*
X195262500Y-123031250D01*
X187325000Y-123031250D02*
X188912500Y-124618750D01*
X176212500Y-123031250D02*
X187325000Y-123031250D01*
X173037500Y-124618750D02*
X174625000Y-123031250D01*
X169862500Y-124618750D02*
X173037500Y-124618750D01*
X174625000Y-123031250D02*
X176212500Y-123031250D01*
X168275000Y-123031250D02*
X169862500Y-124618750D01*
X157162500Y-123031250D02*
X168275000Y-123031250D01*
X153987500Y-124618750D02*
X155575000Y-123031250D01*
X150812500Y-124618750D02*
X153987500Y-124618750D01*
X155575000Y-123031250D02*
X157162500Y-123031250D01*
X149225000Y-123031250D02*
X150812500Y-124618750D01*
X138112500Y-123031250D02*
X149225000Y-123031250D01*
X134937500Y-124618750D02*
X136525000Y-123031250D01*
X131762500Y-124618750D02*
X134937500Y-124618750D01*
X136525000Y-123031250D02*
X138112500Y-123031250D01*
X130175000Y-123031250D02*
X131762500Y-124618750D01*
X119062500Y-123031250D02*
X130175000Y-123031250D01*
X115887500Y-124618750D02*
X117475000Y-123031250D01*
X112712500Y-124618750D02*
X115887500Y-124618750D01*
X117475000Y-123031250D02*
X119062500Y-123031250D01*
X111125000Y-123031250D02*
X112712500Y-124618750D01*
X100012500Y-123031250D02*
X111125000Y-123031250D01*
X76182600Y-123066950D02*
X92833050Y-123066950D01*
X92833050Y-123066950D02*
X94384850Y-124618750D01*
X96837500Y-124618750D02*
X98425000Y-123031250D01*
X94384850Y-124618750D02*
X96837500Y-124618750D01*
X98460700Y-123066950D02*
X99993600Y-123066950D01*
X98425000Y-123031250D02*
X98460700Y-123066950D01*
X271468500Y-123031250D02*
X271432800Y-123066950D01*
X287337500Y-123031250D02*
X271468500Y-123031250D01*
X288925000Y-124618750D02*
X287337500Y-123031250D01*
X292100000Y-124618750D02*
X288925000Y-124618750D01*
X293687500Y-123031250D02*
X292100000Y-124618750D01*
X295275000Y-123031250D02*
X293687500Y-123031250D01*
X295243800Y-84931250D02*
X306387500Y-84931250D01*
X306387500Y-84931250D02*
X307975000Y-86518750D01*
X307975000Y-86518750D02*
X314325000Y-86518750D01*
X314325000Y-86518750D02*
X315118750Y-86518750D01*
X322262500Y-104775000D02*
X329406250Y-97631250D01*
X329406250Y-97631250D02*
X329406250Y-93662500D01*
X330948750Y-92120000D02*
X336992900Y-92120000D01*
X329406250Y-93662500D02*
X330948750Y-92120000D01*
X293210750Y-132900000D02*
X295243800Y-130866950D01*
X285750000Y-132900000D02*
X293210750Y-132900000D01*
X192156250Y-142150000D02*
X194400000Y-142150000D01*
X191706250Y-141700000D02*
X192156250Y-142150000D01*
X315912500Y-143668750D02*
X317500000Y-142081250D01*
X312737500Y-143668750D02*
X315912500Y-143668750D01*
X311150000Y-142081250D02*
X312737500Y-143668750D01*
X300037500Y-142081250D02*
X311150000Y-142081250D01*
X317500000Y-142081250D02*
X319087500Y-142081250D01*
X296862500Y-143668750D02*
X298450000Y-142081250D01*
X293687500Y-143668750D02*
X296862500Y-143668750D01*
X292100000Y-142081250D02*
X293687500Y-143668750D01*
X280987500Y-142081250D02*
X292100000Y-142081250D01*
X298450000Y-142081250D02*
X300037500Y-142081250D01*
X268287500Y-143668750D02*
X269875000Y-142081250D01*
X265112500Y-143668750D02*
X268287500Y-143668750D01*
X263525000Y-142081250D02*
X265112500Y-143668750D01*
X252412500Y-142081250D02*
X263525000Y-142081250D01*
X269875000Y-142081250D02*
X271462500Y-142081250D01*
X194537500Y-142081250D02*
X194468750Y-142150000D01*
X196056250Y-142081250D02*
X194537500Y-142081250D01*
X196437500Y-141700000D02*
X196056250Y-142081250D01*
X215518750Y-141700000D02*
X196437500Y-141700000D01*
X220662500Y-143668750D02*
X222250000Y-142081250D01*
X222250000Y-142081250D02*
X222281250Y-142081250D01*
X222281250Y-142081250D02*
X222662500Y-141700000D01*
X222662500Y-141700000D02*
X229012500Y-141700000D01*
X215518750Y-141700000D02*
X217487500Y-143668750D01*
X217487500Y-143668750D02*
X220662500Y-143668750D01*
X177800000Y-143668750D02*
X179387500Y-142081250D01*
X179418750Y-142081250D02*
X179800000Y-141700000D01*
X172656250Y-141700000D02*
X174625000Y-143668750D01*
X174625000Y-143668750D02*
X177800000Y-143668750D01*
X317500000Y-62706250D02*
X317500000Y-67281250D01*
X338931250Y-61118750D02*
X319087500Y-61118750D01*
X319087500Y-61118750D02*
X317500000Y-62706250D01*
X339725000Y-61912500D02*
X338931250Y-61118750D01*
X339725000Y-82550000D02*
X339725000Y-61912500D01*
X337775000Y-84500000D02*
X339725000Y-82550000D01*
X336992900Y-84500000D02*
X337775000Y-84500000D01*
X336992900Y-84500000D02*
X328250000Y-84500000D01*
X328250000Y-84500000D02*
X327818750Y-84931250D01*
X327818750Y-84931250D02*
X327818750Y-95765853D01*
X319493770Y-104090833D02*
X319493770Y-111676856D01*
X327818750Y-95765853D02*
X319493770Y-104090833D01*
X319493770Y-111676856D02*
X312901876Y-118268750D01*
X303240800Y-118268750D02*
X298435400Y-123074150D01*
X312901876Y-118268750D02*
X303240800Y-118268750D01*
X319054800Y-119029800D02*
X319054800Y-142081250D01*
X318293750Y-118268750D02*
X319054800Y-119029800D01*
X312901876Y-118268750D02*
X318293750Y-118268750D01*
X61912500Y-142081250D02*
X78581250Y-142081250D01*
X78581250Y-142081250D02*
X80168750Y-143668750D01*
X80168750Y-143668750D02*
X84137500Y-143668750D01*
X84137500Y-143668750D02*
X85725000Y-142081250D01*
X85793750Y-142150000D02*
X90487500Y-142150000D01*
X85725000Y-142081250D02*
X85793750Y-142150000D01*
X90487500Y-142150000D02*
X107087500Y-142150000D01*
X107087500Y-142150000D02*
X108606250Y-143668750D01*
X108606250Y-143668750D02*
X112712500Y-143668750D01*
X114231250Y-142150000D02*
X119062500Y-142150000D01*
X112712500Y-143668750D02*
X114231250Y-142150000D01*
X119131250Y-142081250D02*
X119062500Y-142150000D01*
X232500000Y-142150000D02*
X232568750Y-142081250D01*
X194400000Y-142150000D02*
X194468750Y-142081250D01*
X280918750Y-142150000D02*
X280987500Y-142081250D01*
X271432800Y-142150000D02*
X280918750Y-142150000D01*
X229806250Y-141700000D02*
X230256250Y-142150000D01*
X229012500Y-141700000D02*
X229806250Y-141700000D01*
X230256250Y-142150000D02*
X232500000Y-142150000D01*
X191706250Y-141700000D02*
X190881250Y-141700000D01*
X190881250Y-141700000D02*
X190912500Y-141700000D01*
X179800000Y-141700000D02*
X186118750Y-141700000D01*
X250825000Y-142081250D02*
X251618750Y-142081250D01*
X249237500Y-143668750D02*
X250825000Y-142081250D01*
X245268750Y-143668750D02*
X249237500Y-143668750D01*
X243681250Y-142081250D02*
X245268750Y-143668750D01*
X232568750Y-142081250D02*
X243681250Y-142081250D01*
X142806250Y-142150000D02*
X147637500Y-142150000D01*
X141287500Y-143668750D02*
X142806250Y-142150000D01*
X137181250Y-143668750D02*
X141287500Y-143668750D01*
X135662500Y-142150000D02*
X137181250Y-143668750D01*
X119062500Y-142150000D02*
X135662500Y-142150000D01*
X153918750Y-142150000D02*
X147637500Y-142150000D01*
X154368750Y-141700000D02*
X153918750Y-142150000D01*
X186118750Y-141700000D02*
X191706250Y-141700000D01*
X172656250Y-141700000D02*
X157543750Y-141700000D01*
X157543750Y-141700000D02*
X154368750Y-141700000D01*
X158337500Y-141700000D02*
X157543750Y-141700000D01*
X300461250Y-132900000D02*
X309562500Y-132900000D01*
X298435400Y-130874150D02*
X300461250Y-132900000D01*
X315431250Y-75750000D02*
X317500000Y-73681250D01*
X300006000Y-75750000D02*
X315431250Y-75750000D01*
X37862500Y-78343750D02*
X39687500Y-80168750D01*
X37862500Y-73650000D02*
X37862500Y-78343750D01*
X321752900Y-84500000D02*
X317068750Y-84500000D01*
X311150000Y-80168750D02*
X312737500Y-80168750D01*
X312737500Y-80168750D02*
X317068750Y-84500000D01*
X39687500Y-80168750D02*
X311150000Y-80168750D01*
X316116250Y-81960000D02*
X321752900Y-81960000D01*
X313724990Y-79568740D02*
X316116250Y-81960000D01*
X58931240Y-79568740D02*
X313724990Y-79568740D01*
X56912500Y-77550000D02*
X58931240Y-79568740D01*
X56912500Y-73650000D02*
X56912500Y-77550000D01*
X75962500Y-73650000D02*
X75962500Y-75962500D01*
X78968730Y-78968730D02*
X314712480Y-78968730D01*
X75962500Y-75962500D02*
X78968730Y-78968730D01*
X315163750Y-79420000D02*
X321752900Y-79420000D01*
X314712480Y-78968730D02*
X315163750Y-79420000D01*
X321752900Y-76880000D02*
X318407500Y-76880000D01*
X318407500Y-76880000D02*
X316918780Y-78368720D01*
X316918780Y-78368720D02*
X96624970Y-78368720D01*
X95012500Y-76756250D02*
X95012500Y-73650000D01*
X96624970Y-78368720D02*
X95012500Y-76756250D01*
X321707900Y-92075000D02*
X321752900Y-92120000D01*
X321004150Y-92868750D02*
X321752900Y-92120000D01*
X304006250Y-92868750D02*
X321004150Y-92868750D01*
X299243750Y-97631250D02*
X304006250Y-92868750D01*
X285804792Y-96043750D02*
X290457708Y-96043750D01*
X284217292Y-97631250D02*
X285804792Y-96043750D01*
X290457708Y-96043750D02*
X292045208Y-97631250D01*
X127000000Y-97631250D02*
X284217292Y-97631250D01*
X123566800Y-94198050D02*
X127000000Y-97631250D01*
X292045208Y-97631250D02*
X299243750Y-97631250D01*
X123566800Y-92700000D02*
X123566800Y-94198050D01*
X321639150Y-89693750D02*
X321752900Y-89580000D01*
X313928125Y-91678125D02*
X314518741Y-91087509D01*
X303609375Y-91678125D02*
X313928125Y-91678125D01*
X298450000Y-96837500D02*
X303609375Y-91678125D01*
X314518741Y-91087509D02*
X314518741Y-91032717D01*
X295275000Y-96837500D02*
X294481250Y-96837500D01*
X295275000Y-96837500D02*
X298450000Y-96837500D01*
X285750000Y-95250000D02*
X290512500Y-95250000D01*
X284162500Y-96837500D02*
X285750000Y-95250000D01*
X145256250Y-96837500D02*
X284162500Y-96837500D01*
X290512500Y-95250000D02*
X292100000Y-96837500D01*
X142637500Y-94218750D02*
X145256250Y-96837500D01*
X142637500Y-92700000D02*
X142637500Y-94218750D01*
X292100000Y-96837500D02*
X292893750Y-96837500D01*
X292893750Y-96837500D02*
X295275000Y-96837500D01*
X316026250Y-89580000D02*
X321752900Y-89580000D01*
X314518741Y-91087509D02*
X316026250Y-89580000D01*
X285859584Y-96837500D02*
X284272084Y-98425000D01*
X284272084Y-98425000D02*
X167481250Y-98425000D01*
X290402916Y-96837500D02*
X285859584Y-96837500D01*
X304800000Y-98425000D02*
X291990416Y-98425000D01*
X291990416Y-98425000D02*
X290402916Y-96837500D01*
X308768750Y-94456250D02*
X304800000Y-98425000D01*
X323249991Y-93468759D02*
X322262500Y-94456250D01*
X323249991Y-70450009D02*
X323249991Y-93468759D01*
X167481250Y-98425000D02*
X166687500Y-99218750D01*
X322262500Y-94456250D02*
X308768750Y-94456250D01*
X329520000Y-64180000D02*
X323249991Y-70450009D01*
X336992900Y-64180000D02*
X329520000Y-64180000D01*
X336947900Y-66675000D02*
X336992900Y-66720000D01*
X328612500Y-66675000D02*
X336947900Y-66675000D01*
X323850000Y-71437500D02*
X328612500Y-66675000D01*
X185743750Y-99218750D02*
X284162500Y-99218750D01*
X284162500Y-99218750D02*
X284356241Y-99025009D01*
X323850000Y-93717292D02*
X323850000Y-71437500D01*
X284356241Y-99025009D02*
X284520617Y-99025009D01*
X291935624Y-99218750D02*
X305593750Y-99218750D01*
X285914376Y-97631250D02*
X290348124Y-97631250D01*
X185737500Y-99225000D02*
X185743750Y-99218750D01*
X290348124Y-97631250D02*
X291935624Y-99218750D01*
X305593750Y-99218750D02*
X309562500Y-95250000D01*
X322456240Y-95056260D02*
X322511033Y-95056259D01*
X284520617Y-99025009D02*
X285914376Y-97631250D01*
X309562500Y-95250000D02*
X322262500Y-95250000D01*
X322262500Y-95250000D02*
X322456240Y-95056260D01*
X322511033Y-95056259D02*
X323850000Y-93717292D01*
X326345000Y-76880000D02*
X336992900Y-76880000D01*
X325437500Y-77787500D02*
X326345000Y-76880000D01*
X325437500Y-95250000D02*
X325437500Y-77787500D01*
X317500000Y-103187500D02*
X325437500Y-95250000D01*
X317500000Y-111125000D02*
X317500000Y-103187500D01*
X312737500Y-115887500D02*
X317500000Y-111125000D01*
X211931250Y-115887500D02*
X312737500Y-115887500D01*
X233362500Y-116681250D02*
X232568750Y-117475000D01*
X312792292Y-116681250D02*
X233362500Y-116681250D01*
X326037509Y-95498533D02*
X318293750Y-103242292D01*
X318293750Y-103242292D02*
X318293750Y-111179792D01*
X326037510Y-95443740D02*
X326037509Y-95498533D01*
X326231250Y-95250000D02*
X326037510Y-95443740D01*
X318293750Y-111179792D02*
X312792292Y-116681250D01*
X326231250Y-80168750D02*
X326231250Y-95250000D01*
X326980000Y-79420000D02*
X326231250Y-80168750D01*
X336992900Y-79420000D02*
X326980000Y-79420000D01*
X253206250Y-117475000D02*
X252412500Y-118268750D01*
X312847084Y-117475000D02*
X253206250Y-117475000D01*
X318893760Y-111428324D02*
X312847084Y-117475000D01*
X326831260Y-95553324D02*
X318893760Y-103490824D01*
X326831260Y-82743740D02*
X326831260Y-95553324D01*
X327615000Y-81960000D02*
X326831260Y-82743740D01*
X318893760Y-103490824D02*
X318893760Y-111428324D01*
X336992900Y-81960000D02*
X327615000Y-81960000D01*
X319087500Y-114300000D02*
X320675000Y-112712500D01*
X320675000Y-112712500D02*
X320675000Y-103981250D01*
X320675000Y-103981250D02*
X328612500Y-96043750D01*
X336879150Y-89693750D02*
X336992900Y-89580000D01*
X330200000Y-89693750D02*
X336879150Y-89693750D01*
X328612500Y-91281250D02*
X330200000Y-89693750D01*
X328612500Y-96043750D02*
X328612500Y-91281250D01*
X336992900Y-87040000D02*
X338658750Y-87040000D01*
X338658750Y-87040000D02*
X339725000Y-88106250D01*
X325437500Y-114300000D02*
X322093750Y-110956250D01*
X299824100Y-92700000D02*
X299824100Y-94614858D01*
X299188958Y-95250000D02*
X295275000Y-95250000D01*
X299824100Y-94614858D02*
X299188958Y-95250000D01*
X295037500Y-111750000D02*
X314156250Y-111750000D01*
X339725000Y-88106250D02*
X339725000Y-105275000D01*
X339725000Y-105275000D02*
X337000000Y-108000000D01*
X337000000Y-111600000D02*
X334300000Y-114300000D01*
X337000000Y-108000000D02*
X337000000Y-111600000D01*
X334300000Y-114300000D02*
X325437500Y-114300000D01*
M02*
