G04 #@! TF.GenerationSoftware,KiCad,Pcbnew,(5.1.10)-1*
G04 #@! TF.CreationDate,2022-02-10T09:54:13+11:00*
G04 #@! TF.ProjectId,mf68,6d663638-2e6b-4696-9361-645f70636258,rev?*
G04 #@! TF.SameCoordinates,Original*
G04 #@! TF.FileFunction,Legend,Bot*
G04 #@! TF.FilePolarity,Positive*
%FSLAX46Y46*%
G04 Gerber Fmt 4.6, Leading zero omitted, Abs format (unit mm)*
G04 Created by KiCad (PCBNEW (5.1.10)-1) date 2022-02-10 09:54:13*
%MOMM*%
%LPD*%
G01*
G04 APERTURE LIST*
%ADD10C,0.300000*%
%ADD11C,0.250000*%
%ADD12C,0.150000*%
%ADD13C,0.120000*%
%ADD14C,0.381000*%
%ADD15C,0.200000*%
%ADD16C,2.200000*%
%ADD17C,1.700000*%
%ADD18C,2.000000*%
%ADD19C,3.400000*%
%ADD20C,1.200000*%
%ADD21R,1.600000X1.600000*%
%ADD22C,1.600000*%
%ADD23R,1.200000X1.600000*%
%ADD24O,1.700000X1.700000*%
%ADD25R,1.700000X1.700000*%
%ADD26C,1.500000*%
%ADD27C,1.752600*%
G04 APERTURE END LIST*
D10*
X338964071Y-115208771D02*
X337964071Y-116708771D01*
X337964071Y-115208771D02*
X338964071Y-116708771D01*
X336821214Y-116637342D02*
X336964071Y-116708771D01*
X337249785Y-116708771D01*
X337392642Y-116637342D01*
X337464071Y-116494485D01*
X337464071Y-115923057D01*
X337392642Y-115780200D01*
X337249785Y-115708771D01*
X336964071Y-115708771D01*
X336821214Y-115780200D01*
X336749785Y-115923057D01*
X336749785Y-116065914D01*
X337464071Y-116208771D01*
X335464071Y-116708771D02*
X335464071Y-115923057D01*
X335535500Y-115780200D01*
X335678357Y-115708771D01*
X335964071Y-115708771D01*
X336106928Y-115780200D01*
X335464071Y-116637342D02*
X335606928Y-116708771D01*
X335964071Y-116708771D01*
X336106928Y-116637342D01*
X336178357Y-116494485D01*
X336178357Y-116351628D01*
X336106928Y-116208771D01*
X335964071Y-116137342D01*
X335606928Y-116137342D01*
X335464071Y-116065914D01*
X334035500Y-116708771D02*
X334749785Y-116708771D01*
X334749785Y-115208771D01*
X333464071Y-115208771D02*
X333606928Y-115494485D01*
X332892642Y-116637342D02*
X332749785Y-116708771D01*
X332464071Y-116708771D01*
X332321214Y-116637342D01*
X332249785Y-116494485D01*
X332249785Y-116423057D01*
X332321214Y-116280200D01*
X332464071Y-116208771D01*
X332678357Y-116208771D01*
X332821214Y-116137342D01*
X332892642Y-115994485D01*
X332892642Y-115923057D01*
X332821214Y-115780200D01*
X332678357Y-115708771D01*
X332464071Y-115708771D01*
X332321214Y-115780200D01*
X330464071Y-116708771D02*
X330464071Y-115208771D01*
X329964071Y-116280200D01*
X329464071Y-115208771D01*
X329464071Y-116708771D01*
X328249785Y-115923057D02*
X328749785Y-115923057D01*
X328749785Y-116708771D02*
X328749785Y-115208771D01*
X328035500Y-115208771D01*
X326821214Y-115208771D02*
X327106928Y-115208771D01*
X327249785Y-115280200D01*
X327321214Y-115351628D01*
X327464071Y-115565914D01*
X327535500Y-115851628D01*
X327535500Y-116423057D01*
X327464071Y-116565914D01*
X327392642Y-116637342D01*
X327249785Y-116708771D01*
X326964071Y-116708771D01*
X326821214Y-116637342D01*
X326749785Y-116565914D01*
X326678357Y-116423057D01*
X326678357Y-116065914D01*
X326749785Y-115923057D01*
X326821214Y-115851628D01*
X326964071Y-115780200D01*
X327249785Y-115780200D01*
X327392642Y-115851628D01*
X327464071Y-115923057D01*
X327535500Y-116065914D01*
X325321214Y-115208771D02*
X326035500Y-115208771D01*
X326106928Y-115923057D01*
X326035500Y-115851628D01*
X325892642Y-115780200D01*
X325535500Y-115780200D01*
X325392642Y-115851628D01*
X325321214Y-115923057D01*
X325249785Y-116065914D01*
X325249785Y-116423057D01*
X325321214Y-116565914D01*
X325392642Y-116637342D01*
X325535500Y-116708771D01*
X325892642Y-116708771D01*
X326035500Y-116637342D01*
X326106928Y-116565914D01*
X324606928Y-116137342D02*
X323464071Y-116137342D01*
X322035500Y-116708771D02*
X322749785Y-116708771D01*
X322749785Y-115208771D01*
X321535500Y-116708771D02*
X321535500Y-115208771D01*
X320964071Y-115208771D01*
X320821214Y-115280200D01*
X320749785Y-115351628D01*
X320678357Y-115494485D01*
X320678357Y-115708771D01*
X320749785Y-115851628D01*
X320821214Y-115923057D01*
X320964071Y-115994485D01*
X321535500Y-115994485D01*
D11*
X336328571Y-118328571D02*
X336328571Y-119400000D01*
X336400000Y-119614285D01*
X336542857Y-119757142D01*
X336757142Y-119828571D01*
X336900000Y-119828571D01*
X334900000Y-119828571D02*
X335614285Y-119828571D01*
X335614285Y-118328571D01*
X333542857Y-119685714D02*
X333614285Y-119757142D01*
X333828571Y-119828571D01*
X333971428Y-119828571D01*
X334185714Y-119757142D01*
X334328571Y-119614285D01*
X334400000Y-119471428D01*
X334471428Y-119185714D01*
X334471428Y-118971428D01*
X334400000Y-118685714D01*
X334328571Y-118542857D01*
X334185714Y-118400000D01*
X333971428Y-118328571D01*
X333828571Y-118328571D01*
X333614285Y-118400000D01*
X333542857Y-118471428D01*
X332471428Y-118328571D02*
X332471428Y-119400000D01*
X332542857Y-119614285D01*
X332685714Y-119757142D01*
X332900000Y-119828571D01*
X333042857Y-119828571D01*
X331042857Y-119828571D02*
X331757142Y-119828571D01*
X331757142Y-118328571D01*
X329685714Y-119685714D02*
X329757142Y-119757142D01*
X329971428Y-119828571D01*
X330114285Y-119828571D01*
X330328571Y-119757142D01*
X330471428Y-119614285D01*
X330542857Y-119471428D01*
X330614285Y-119185714D01*
X330614285Y-118971428D01*
X330542857Y-118685714D01*
X330471428Y-118542857D01*
X330328571Y-118400000D01*
X330114285Y-118328571D01*
X329971428Y-118328571D01*
X329757142Y-118400000D01*
X329685714Y-118471428D01*
X328614285Y-118328571D02*
X328614285Y-119400000D01*
X328685714Y-119614285D01*
X328828571Y-119757142D01*
X329042857Y-119828571D01*
X329185714Y-119828571D01*
X327185714Y-119828571D02*
X327900000Y-119828571D01*
X327900000Y-118328571D01*
X325828571Y-119685714D02*
X325900000Y-119757142D01*
X326114285Y-119828571D01*
X326257142Y-119828571D01*
X326471428Y-119757142D01*
X326614285Y-119614285D01*
X326685714Y-119471428D01*
X326757142Y-119185714D01*
X326757142Y-118971428D01*
X326685714Y-118685714D01*
X326614285Y-118542857D01*
X326471428Y-118400000D01*
X326257142Y-118328571D01*
X326114285Y-118328571D01*
X325900000Y-118400000D01*
X325828571Y-118471428D01*
X324757142Y-118328571D02*
X324757142Y-119400000D01*
X324828571Y-119614285D01*
X324971428Y-119757142D01*
X325185714Y-119828571D01*
X325328571Y-119828571D01*
X323328571Y-119828571D02*
X324042857Y-119828571D01*
X324042857Y-118328571D01*
X321971428Y-119685714D02*
X322042857Y-119757142D01*
X322257142Y-119828571D01*
X322400000Y-119828571D01*
X322614285Y-119757142D01*
X322757142Y-119614285D01*
X322828571Y-119471428D01*
X322900000Y-119185714D01*
X322900000Y-118971428D01*
X322828571Y-118685714D01*
X322757142Y-118542857D01*
X322614285Y-118400000D01*
X322400000Y-118328571D01*
X322257142Y-118328571D01*
X322042857Y-118400000D01*
X321971428Y-118471428D01*
D12*
X326985400Y-109892900D02*
X326985400Y-108642900D01*
X329235400Y-109892900D02*
X329235400Y-108642900D01*
X331985400Y-110392900D02*
X331985400Y-108642900D01*
X329985400Y-110392900D02*
X331985400Y-110392900D01*
X329985400Y-110392900D02*
X329985400Y-108642900D01*
X329235400Y-110392900D02*
X329235400Y-109892900D01*
X326985400Y-110392900D02*
X329235400Y-110392900D01*
X326985400Y-109892900D02*
X326985400Y-110392900D01*
D10*
X331306828Y-111065471D02*
X331021114Y-111065471D01*
X330878257Y-111136900D01*
X330735400Y-111279757D01*
X330663971Y-111565471D01*
X330663971Y-112065471D01*
X330735400Y-112351185D01*
X330878257Y-112494042D01*
X331021114Y-112565471D01*
X331306828Y-112565471D01*
X331449685Y-112494042D01*
X331592542Y-112351185D01*
X331663971Y-112065471D01*
X331663971Y-111565471D01*
X331592542Y-111279757D01*
X331449685Y-111136900D01*
X331306828Y-111065471D01*
X330021114Y-111565471D02*
X330021114Y-112565471D01*
X330021114Y-111708328D02*
X329949685Y-111636900D01*
X329806828Y-111565471D01*
X329592542Y-111565471D01*
X329449685Y-111636900D01*
X329378257Y-111779757D01*
X329378257Y-112565471D01*
X327985400Y-111065471D02*
X327699685Y-111065471D01*
X327556828Y-111136900D01*
X327413971Y-111279757D01*
X327342542Y-111565471D01*
X327342542Y-112065471D01*
X327413971Y-112351185D01*
X327556828Y-112494042D01*
X327699685Y-112565471D01*
X327985400Y-112565471D01*
X328128257Y-112494042D01*
X328271114Y-112351185D01*
X328342542Y-112065471D01*
X328342542Y-111565471D01*
X328271114Y-111279757D01*
X328128257Y-111136900D01*
X327985400Y-111065471D01*
X326913971Y-111565471D02*
X326342542Y-111565471D01*
X326699685Y-112565471D02*
X326699685Y-111279757D01*
X326628257Y-111136900D01*
X326485400Y-111065471D01*
X326342542Y-111065471D01*
X326056828Y-111565471D02*
X325485400Y-111565471D01*
X325842542Y-112565471D02*
X325842542Y-111279757D01*
X325771114Y-111136900D01*
X325628257Y-111065471D01*
X325485400Y-111065471D01*
D12*
X337063819Y-97528871D02*
X336920961Y-97576490D01*
X336873342Y-97624109D01*
X336825723Y-97719347D01*
X336825723Y-97862204D01*
X336873342Y-97957442D01*
X336920961Y-98005061D01*
X337016200Y-98052680D01*
X337397152Y-98052680D01*
X337397152Y-97052680D01*
X337063819Y-97052680D01*
X336968580Y-97100300D01*
X336920961Y-97147919D01*
X336873342Y-97243157D01*
X336873342Y-97338395D01*
X336920961Y-97433633D01*
X336968580Y-97481252D01*
X337063819Y-97528871D01*
X337397152Y-97528871D01*
X336397152Y-97671728D02*
X335635247Y-97671728D01*
X334682719Y-97528871D02*
X334539861Y-97576490D01*
X334492242Y-97624109D01*
X334444623Y-97719347D01*
X334444623Y-97862204D01*
X334492242Y-97957442D01*
X334539861Y-98005061D01*
X334635100Y-98052680D01*
X335016052Y-98052680D01*
X335016052Y-97052680D01*
X334682719Y-97052680D01*
X334587480Y-97100300D01*
X334539861Y-97147919D01*
X334492242Y-97243157D01*
X334492242Y-97338395D01*
X334539861Y-97433633D01*
X334587480Y-97481252D01*
X334682719Y-97528871D01*
X335016052Y-97528871D01*
X334016052Y-97671728D02*
X333254147Y-97671728D01*
X333635100Y-98052680D02*
X333635100Y-97290776D01*
X316738000Y-68003250D02*
X318262000Y-68003250D01*
X316738000Y-67876250D02*
X318262000Y-67876250D01*
X318262000Y-67749250D02*
X316738000Y-67749250D01*
X316738000Y-67368250D02*
X318262000Y-67368250D01*
X318262000Y-67495250D02*
X316738000Y-67495250D01*
X316738000Y-67622250D02*
X318262000Y-67622250D01*
X316738000Y-72321250D02*
X316738000Y-71813250D01*
X318262000Y-72321250D02*
X316738000Y-72321250D01*
X318262000Y-67241250D02*
X318262000Y-72321250D01*
X316738000Y-67241250D02*
X318262000Y-67241250D01*
X316738000Y-72321250D02*
X316738000Y-67241250D01*
X297673400Y-125196150D02*
X299197400Y-125196150D01*
X297673400Y-125069150D02*
X299197400Y-125069150D01*
X299197400Y-124942150D02*
X297673400Y-124942150D01*
X297673400Y-124561150D02*
X299197400Y-124561150D01*
X299197400Y-124688150D02*
X297673400Y-124688150D01*
X297673400Y-124815150D02*
X299197400Y-124815150D01*
X297673400Y-129514150D02*
X297673400Y-129006150D01*
X299197400Y-129514150D02*
X297673400Y-129514150D01*
X299197400Y-124434150D02*
X299197400Y-129514150D01*
X297673400Y-124434150D02*
X299197400Y-124434150D01*
X297673400Y-129514150D02*
X297673400Y-124434150D01*
X318292800Y-144203250D02*
X319816800Y-144203250D01*
X318292800Y-144076250D02*
X319816800Y-144076250D01*
X319816800Y-143949250D02*
X318292800Y-143949250D01*
X318292800Y-143568250D02*
X319816800Y-143568250D01*
X319816800Y-143695250D02*
X318292800Y-143695250D01*
X318292800Y-143822250D02*
X319816800Y-143822250D01*
X318292800Y-148521250D02*
X318292800Y-148013250D01*
X319816800Y-148521250D02*
X318292800Y-148521250D01*
X319816800Y-143441250D02*
X319816800Y-148521250D01*
X318292800Y-143441250D02*
X319816800Y-143441250D01*
X318292800Y-148521250D02*
X318292800Y-143441250D01*
X299244000Y-144203250D02*
X300768000Y-144203250D01*
X299244000Y-144076250D02*
X300768000Y-144076250D01*
X300768000Y-143949250D02*
X299244000Y-143949250D01*
X299244000Y-143568250D02*
X300768000Y-143568250D01*
X300768000Y-143695250D02*
X299244000Y-143695250D01*
X299244000Y-143822250D02*
X300768000Y-143822250D01*
X299244000Y-148521250D02*
X299244000Y-148013250D01*
X300768000Y-148521250D02*
X299244000Y-148521250D01*
X300768000Y-143441250D02*
X300768000Y-148521250D01*
X299244000Y-143441250D02*
X300768000Y-143441250D01*
X299244000Y-148521250D02*
X299244000Y-143441250D01*
X280225500Y-144203250D02*
X281749500Y-144203250D01*
X280225500Y-144076250D02*
X281749500Y-144076250D01*
X281749500Y-143949250D02*
X280225500Y-143949250D01*
X280225500Y-143568250D02*
X281749500Y-143568250D01*
X281749500Y-143695250D02*
X280225500Y-143695250D01*
X280225500Y-143822250D02*
X281749500Y-143822250D01*
X280225500Y-148521250D02*
X280225500Y-148013250D01*
X281749500Y-148521250D02*
X280225500Y-148521250D01*
X281749500Y-143441250D02*
X281749500Y-148521250D01*
X280225500Y-143441250D02*
X281749500Y-143441250D01*
X280225500Y-148521250D02*
X280225500Y-143441250D01*
X270670800Y-144272000D02*
X272194800Y-144272000D01*
X270670800Y-144145000D02*
X272194800Y-144145000D01*
X272194800Y-144018000D02*
X270670800Y-144018000D01*
X270670800Y-143637000D02*
X272194800Y-143637000D01*
X272194800Y-143764000D02*
X270670800Y-143764000D01*
X270670800Y-143891000D02*
X272194800Y-143891000D01*
X270670800Y-148590000D02*
X270670800Y-148082000D01*
X272194800Y-148590000D02*
X270670800Y-148590000D01*
X272194800Y-143510000D02*
X272194800Y-148590000D01*
X270670800Y-143510000D02*
X272194800Y-143510000D01*
X270670800Y-148590000D02*
X270670800Y-143510000D01*
X251622000Y-144203250D02*
X253146000Y-144203250D01*
X251622000Y-144076250D02*
X253146000Y-144076250D01*
X253146000Y-143949250D02*
X251622000Y-143949250D01*
X251622000Y-143568250D02*
X253146000Y-143568250D01*
X253146000Y-143695250D02*
X251622000Y-143695250D01*
X251622000Y-143822250D02*
X253146000Y-143822250D01*
X251622000Y-148521250D02*
X251622000Y-148013250D01*
X253146000Y-148521250D02*
X251622000Y-148521250D01*
X253146000Y-143441250D02*
X253146000Y-148521250D01*
X251622000Y-143441250D02*
X253146000Y-143441250D01*
X251622000Y-148521250D02*
X251622000Y-143441250D01*
X231806750Y-144203250D02*
X233330750Y-144203250D01*
X231806750Y-144076250D02*
X233330750Y-144076250D01*
X233330750Y-143949250D02*
X231806750Y-143949250D01*
X231806750Y-143568250D02*
X233330750Y-143568250D01*
X233330750Y-143695250D02*
X231806750Y-143695250D01*
X231806750Y-143822250D02*
X233330750Y-143822250D01*
X231806750Y-148521250D02*
X231806750Y-148013250D01*
X233330750Y-148521250D02*
X231806750Y-148521250D01*
X233330750Y-143441250D02*
X233330750Y-148521250D01*
X231806750Y-143441250D02*
X233330750Y-143441250D01*
X231806750Y-148521250D02*
X231806750Y-143441250D01*
X193706750Y-144203250D02*
X195230750Y-144203250D01*
X193706750Y-144076250D02*
X195230750Y-144076250D01*
X195230750Y-143949250D02*
X193706750Y-143949250D01*
X193706750Y-143568250D02*
X195230750Y-143568250D01*
X195230750Y-143695250D02*
X193706750Y-143695250D01*
X193706750Y-143822250D02*
X195230750Y-143822250D01*
X193706750Y-148521250D02*
X193706750Y-148013250D01*
X195230750Y-148521250D02*
X193706750Y-148521250D01*
X195230750Y-143441250D02*
X195230750Y-148521250D01*
X193706750Y-143441250D02*
X195230750Y-143441250D01*
X193706750Y-148521250D02*
X193706750Y-143441250D01*
X146875500Y-144272000D02*
X148399500Y-144272000D01*
X146875500Y-144145000D02*
X148399500Y-144145000D01*
X148399500Y-144018000D02*
X146875500Y-144018000D01*
X146875500Y-143637000D02*
X148399500Y-143637000D01*
X148399500Y-143764000D02*
X146875500Y-143764000D01*
X146875500Y-143891000D02*
X148399500Y-143891000D01*
X146875500Y-148590000D02*
X146875500Y-148082000D01*
X148399500Y-148590000D02*
X146875500Y-148590000D01*
X148399500Y-143510000D02*
X148399500Y-148590000D01*
X146875500Y-143510000D02*
X148399500Y-143510000D01*
X146875500Y-148590000D02*
X146875500Y-143510000D01*
X118300500Y-144272000D02*
X119824500Y-144272000D01*
X118300500Y-144145000D02*
X119824500Y-144145000D01*
X119824500Y-144018000D02*
X118300500Y-144018000D01*
X118300500Y-143637000D02*
X119824500Y-143637000D01*
X119824500Y-143764000D02*
X118300500Y-143764000D01*
X118300500Y-143891000D02*
X119824500Y-143891000D01*
X118300500Y-148590000D02*
X118300500Y-148082000D01*
X119824500Y-148590000D02*
X118300500Y-148590000D01*
X119824500Y-143510000D02*
X119824500Y-148590000D01*
X118300500Y-143510000D02*
X119824500Y-143510000D01*
X118300500Y-148590000D02*
X118300500Y-143510000D01*
X89725500Y-144272000D02*
X91249500Y-144272000D01*
X89725500Y-144145000D02*
X91249500Y-144145000D01*
X91249500Y-144018000D02*
X89725500Y-144018000D01*
X89725500Y-143637000D02*
X91249500Y-143637000D01*
X91249500Y-143764000D02*
X89725500Y-143764000D01*
X89725500Y-143891000D02*
X91249500Y-143891000D01*
X89725500Y-148590000D02*
X89725500Y-148082000D01*
X91249500Y-148590000D02*
X89725500Y-148590000D01*
X91249500Y-143510000D02*
X91249500Y-148590000D01*
X89725500Y-143510000D02*
X91249500Y-143510000D01*
X89725500Y-148590000D02*
X89725500Y-143510000D01*
X61150500Y-144203250D02*
X62674500Y-144203250D01*
X61150500Y-144076250D02*
X62674500Y-144076250D01*
X62674500Y-143949250D02*
X61150500Y-143949250D01*
X61150500Y-143568250D02*
X62674500Y-143568250D01*
X62674500Y-143695250D02*
X61150500Y-143695250D01*
X61150500Y-143822250D02*
X62674500Y-143822250D01*
X61150500Y-148521250D02*
X61150500Y-148013250D01*
X62674500Y-148521250D02*
X61150500Y-148521250D01*
X62674500Y-143441250D02*
X62674500Y-148521250D01*
X61150500Y-143441250D02*
X62674500Y-143441250D01*
X61150500Y-148521250D02*
X61150500Y-143441250D01*
X294481800Y-87053250D02*
X296005800Y-87053250D01*
X294481800Y-86926250D02*
X296005800Y-86926250D01*
X296005800Y-86799250D02*
X294481800Y-86799250D01*
X294481800Y-86418250D02*
X296005800Y-86418250D01*
X296005800Y-86545250D02*
X294481800Y-86545250D01*
X294481800Y-86672250D02*
X296005800Y-86672250D01*
X294481800Y-91371250D02*
X294481800Y-90863250D01*
X296005800Y-91371250D02*
X294481800Y-91371250D01*
X296005800Y-86291250D02*
X296005800Y-91371250D01*
X294481800Y-86291250D02*
X296005800Y-86291250D01*
X294481800Y-91371250D02*
X294481800Y-86291250D01*
X294481800Y-125188950D02*
X296005800Y-125188950D01*
X294481800Y-125061950D02*
X296005800Y-125061950D01*
X296005800Y-124934950D02*
X294481800Y-124934950D01*
X294481800Y-124553950D02*
X296005800Y-124553950D01*
X296005800Y-124680950D02*
X294481800Y-124680950D01*
X294481800Y-124807950D02*
X296005800Y-124807950D01*
X294481800Y-129506950D02*
X294481800Y-128998950D01*
X296005800Y-129506950D02*
X294481800Y-129506950D01*
X296005800Y-124426950D02*
X296005800Y-129506950D01*
X294481800Y-124426950D02*
X296005800Y-124426950D01*
X294481800Y-129506950D02*
X294481800Y-124426950D01*
X270670800Y-125188950D02*
X272194800Y-125188950D01*
X270670800Y-125061950D02*
X272194800Y-125061950D01*
X272194800Y-124934950D02*
X270670800Y-124934950D01*
X270670800Y-124553950D02*
X272194800Y-124553950D01*
X272194800Y-124680950D02*
X270670800Y-124680950D01*
X270670800Y-124807950D02*
X272194800Y-124807950D01*
X270670800Y-129506950D02*
X270670800Y-128998950D01*
X272194800Y-129506950D02*
X270670800Y-129506950D01*
X272194800Y-124426950D02*
X272194800Y-129506950D01*
X270670800Y-124426950D02*
X272194800Y-124426950D01*
X270670800Y-129506950D02*
X270670800Y-124426950D01*
X251622000Y-125188950D02*
X253146000Y-125188950D01*
X251622000Y-125061950D02*
X253146000Y-125061950D01*
X253146000Y-124934950D02*
X251622000Y-124934950D01*
X251622000Y-124553950D02*
X253146000Y-124553950D01*
X253146000Y-124680950D02*
X251622000Y-124680950D01*
X251622000Y-124807950D02*
X253146000Y-124807950D01*
X251622000Y-129506950D02*
X251622000Y-128998950D01*
X253146000Y-129506950D02*
X251622000Y-129506950D01*
X253146000Y-124426950D02*
X253146000Y-129506950D01*
X251622000Y-124426950D02*
X253146000Y-124426950D01*
X251622000Y-129506950D02*
X251622000Y-124426950D01*
X232573200Y-125188950D02*
X234097200Y-125188950D01*
X232573200Y-125061950D02*
X234097200Y-125061950D01*
X234097200Y-124934950D02*
X232573200Y-124934950D01*
X232573200Y-124553950D02*
X234097200Y-124553950D01*
X234097200Y-124680950D02*
X232573200Y-124680950D01*
X232573200Y-124807950D02*
X234097200Y-124807950D01*
X232573200Y-129506950D02*
X232573200Y-128998950D01*
X234097200Y-129506950D02*
X232573200Y-129506950D01*
X234097200Y-124426950D02*
X234097200Y-129506950D01*
X232573200Y-124426950D02*
X234097200Y-124426950D01*
X232573200Y-129506950D02*
X232573200Y-124426950D01*
X213524400Y-125188950D02*
X215048400Y-125188950D01*
X213524400Y-125061950D02*
X215048400Y-125061950D01*
X215048400Y-124934950D02*
X213524400Y-124934950D01*
X213524400Y-124553950D02*
X215048400Y-124553950D01*
X215048400Y-124680950D02*
X213524400Y-124680950D01*
X213524400Y-124807950D02*
X215048400Y-124807950D01*
X213524400Y-129506950D02*
X213524400Y-128998950D01*
X215048400Y-129506950D02*
X213524400Y-129506950D01*
X215048400Y-124426950D02*
X215048400Y-129506950D01*
X213524400Y-124426950D02*
X215048400Y-124426950D01*
X213524400Y-129506950D02*
X213524400Y-124426950D01*
X194475600Y-125188950D02*
X195999600Y-125188950D01*
X194475600Y-125061950D02*
X195999600Y-125061950D01*
X195999600Y-124934950D02*
X194475600Y-124934950D01*
X194475600Y-124553950D02*
X195999600Y-124553950D01*
X195999600Y-124680950D02*
X194475600Y-124680950D01*
X194475600Y-124807950D02*
X195999600Y-124807950D01*
X194475600Y-129506950D02*
X194475600Y-128998950D01*
X195999600Y-129506950D02*
X194475600Y-129506950D01*
X195999600Y-124426950D02*
X195999600Y-129506950D01*
X194475600Y-124426950D02*
X195999600Y-124426950D01*
X194475600Y-129506950D02*
X194475600Y-124426950D01*
X175426800Y-125188950D02*
X176950800Y-125188950D01*
X175426800Y-125061950D02*
X176950800Y-125061950D01*
X176950800Y-124934950D02*
X175426800Y-124934950D01*
X175426800Y-124553950D02*
X176950800Y-124553950D01*
X176950800Y-124680950D02*
X175426800Y-124680950D01*
X175426800Y-124807950D02*
X176950800Y-124807950D01*
X175426800Y-129506950D02*
X175426800Y-128998950D01*
X176950800Y-129506950D02*
X175426800Y-129506950D01*
X176950800Y-124426950D02*
X176950800Y-129506950D01*
X175426800Y-124426950D02*
X176950800Y-124426950D01*
X175426800Y-129506950D02*
X175426800Y-124426950D01*
X156378000Y-125188950D02*
X157902000Y-125188950D01*
X156378000Y-125061950D02*
X157902000Y-125061950D01*
X157902000Y-124934950D02*
X156378000Y-124934950D01*
X156378000Y-124553950D02*
X157902000Y-124553950D01*
X157902000Y-124680950D02*
X156378000Y-124680950D01*
X156378000Y-124807950D02*
X157902000Y-124807950D01*
X156378000Y-129506950D02*
X156378000Y-128998950D01*
X157902000Y-129506950D02*
X156378000Y-129506950D01*
X157902000Y-124426950D02*
X157902000Y-129506950D01*
X156378000Y-124426950D02*
X157902000Y-124426950D01*
X156378000Y-129506950D02*
X156378000Y-124426950D01*
X137329200Y-125188950D02*
X138853200Y-125188950D01*
X137329200Y-125061950D02*
X138853200Y-125061950D01*
X138853200Y-124934950D02*
X137329200Y-124934950D01*
X137329200Y-124553950D02*
X138853200Y-124553950D01*
X138853200Y-124680950D02*
X137329200Y-124680950D01*
X137329200Y-124807950D02*
X138853200Y-124807950D01*
X137329200Y-129506950D02*
X137329200Y-128998950D01*
X138853200Y-129506950D02*
X137329200Y-129506950D01*
X138853200Y-124426950D02*
X138853200Y-129506950D01*
X137329200Y-124426950D02*
X138853200Y-124426950D01*
X137329200Y-129506950D02*
X137329200Y-124426950D01*
X118280400Y-125188950D02*
X119804400Y-125188950D01*
X118280400Y-125061950D02*
X119804400Y-125061950D01*
X119804400Y-124934950D02*
X118280400Y-124934950D01*
X118280400Y-124553950D02*
X119804400Y-124553950D01*
X119804400Y-124680950D02*
X118280400Y-124680950D01*
X118280400Y-124807950D02*
X119804400Y-124807950D01*
X118280400Y-129506950D02*
X118280400Y-128998950D01*
X119804400Y-129506950D02*
X118280400Y-129506950D01*
X119804400Y-124426950D02*
X119804400Y-129506950D01*
X118280400Y-124426950D02*
X119804400Y-124426950D01*
X118280400Y-129506950D02*
X118280400Y-124426950D01*
X99231600Y-125188950D02*
X100755600Y-125188950D01*
X99231600Y-125061950D02*
X100755600Y-125061950D01*
X100755600Y-124934950D02*
X99231600Y-124934950D01*
X99231600Y-124553950D02*
X100755600Y-124553950D01*
X100755600Y-124680950D02*
X99231600Y-124680950D01*
X99231600Y-124807950D02*
X100755600Y-124807950D01*
X99231600Y-129506950D02*
X99231600Y-128998950D01*
X100755600Y-129506950D02*
X99231600Y-129506950D01*
X100755600Y-124426950D02*
X100755600Y-129506950D01*
X99231600Y-124426950D02*
X100755600Y-124426950D01*
X99231600Y-129506950D02*
X99231600Y-124426950D01*
X75420600Y-125188950D02*
X76944600Y-125188950D01*
X75420600Y-125061950D02*
X76944600Y-125061950D01*
X76944600Y-124934950D02*
X75420600Y-124934950D01*
X75420600Y-124553950D02*
X76944600Y-124553950D01*
X76944600Y-124680950D02*
X75420600Y-124680950D01*
X75420600Y-124807950D02*
X76944600Y-124807950D01*
X75420600Y-129506950D02*
X75420600Y-128998950D01*
X76944600Y-129506950D02*
X75420600Y-129506950D01*
X76944600Y-124426950D02*
X76944600Y-129506950D01*
X75420600Y-124426950D02*
X76944600Y-124426950D01*
X75420600Y-129506950D02*
X75420600Y-124426950D01*
X282606750Y-106140150D02*
X284130750Y-106140150D01*
X282606750Y-106013150D02*
X284130750Y-106013150D01*
X284130750Y-105886150D02*
X282606750Y-105886150D01*
X282606750Y-105505150D02*
X284130750Y-105505150D01*
X284130750Y-105632150D02*
X282606750Y-105632150D01*
X282606750Y-105759150D02*
X284130750Y-105759150D01*
X282606750Y-110458150D02*
X282606750Y-109950150D01*
X284130750Y-110458150D02*
X282606750Y-110458150D01*
X284130750Y-105378150D02*
X284130750Y-110458150D01*
X282606750Y-105378150D02*
X284130750Y-105378150D01*
X282606750Y-110458150D02*
X282606750Y-105378150D01*
X280225500Y-106140150D02*
X281749500Y-106140150D01*
X280225500Y-106013150D02*
X281749500Y-106013150D01*
X281749500Y-105886150D02*
X280225500Y-105886150D01*
X280225500Y-105505150D02*
X281749500Y-105505150D01*
X281749500Y-105632150D02*
X280225500Y-105632150D01*
X280225500Y-105759150D02*
X281749500Y-105759150D01*
X280225500Y-110458150D02*
X280225500Y-109950150D01*
X281749500Y-110458150D02*
X280225500Y-110458150D01*
X281749500Y-105378150D02*
X281749500Y-110458150D01*
X280225500Y-105378150D02*
X281749500Y-105378150D01*
X280225500Y-110458150D02*
X280225500Y-105378150D01*
X261146400Y-106140150D02*
X262670400Y-106140150D01*
X261146400Y-106013150D02*
X262670400Y-106013150D01*
X262670400Y-105886150D02*
X261146400Y-105886150D01*
X261146400Y-105505150D02*
X262670400Y-105505150D01*
X262670400Y-105632150D02*
X261146400Y-105632150D01*
X261146400Y-105759150D02*
X262670400Y-105759150D01*
X261146400Y-110458150D02*
X261146400Y-109950150D01*
X262670400Y-110458150D02*
X261146400Y-110458150D01*
X262670400Y-105378150D02*
X262670400Y-110458150D01*
X261146400Y-105378150D02*
X262670400Y-105378150D01*
X261146400Y-110458150D02*
X261146400Y-105378150D01*
X242097600Y-106140150D02*
X243621600Y-106140150D01*
X242097600Y-106013150D02*
X243621600Y-106013150D01*
X243621600Y-105886150D02*
X242097600Y-105886150D01*
X242097600Y-105505150D02*
X243621600Y-105505150D01*
X243621600Y-105632150D02*
X242097600Y-105632150D01*
X242097600Y-105759150D02*
X243621600Y-105759150D01*
X242097600Y-110458150D02*
X242097600Y-109950150D01*
X243621600Y-110458150D02*
X242097600Y-110458150D01*
X243621600Y-105378150D02*
X243621600Y-110458150D01*
X242097600Y-105378150D02*
X243621600Y-105378150D01*
X242097600Y-110458150D02*
X242097600Y-105378150D01*
X223048800Y-106140150D02*
X224572800Y-106140150D01*
X223048800Y-106013150D02*
X224572800Y-106013150D01*
X224572800Y-105886150D02*
X223048800Y-105886150D01*
X223048800Y-105505150D02*
X224572800Y-105505150D01*
X224572800Y-105632150D02*
X223048800Y-105632150D01*
X223048800Y-105759150D02*
X224572800Y-105759150D01*
X223048800Y-110458150D02*
X223048800Y-109950150D01*
X224572800Y-110458150D02*
X223048800Y-110458150D01*
X224572800Y-105378150D02*
X224572800Y-110458150D01*
X223048800Y-105378150D02*
X224572800Y-105378150D01*
X223048800Y-110458150D02*
X223048800Y-105378150D01*
X204000000Y-106140150D02*
X205524000Y-106140150D01*
X204000000Y-106013150D02*
X205524000Y-106013150D01*
X205524000Y-105886150D02*
X204000000Y-105886150D01*
X204000000Y-105505150D02*
X205524000Y-105505150D01*
X205524000Y-105632150D02*
X204000000Y-105632150D01*
X204000000Y-105759150D02*
X205524000Y-105759150D01*
X204000000Y-110458150D02*
X204000000Y-109950150D01*
X205524000Y-110458150D02*
X204000000Y-110458150D01*
X205524000Y-105378150D02*
X205524000Y-110458150D01*
X204000000Y-105378150D02*
X205524000Y-105378150D01*
X204000000Y-110458150D02*
X204000000Y-105378150D01*
X184951200Y-106140150D02*
X186475200Y-106140150D01*
X184951200Y-106013150D02*
X186475200Y-106013150D01*
X186475200Y-105886150D02*
X184951200Y-105886150D01*
X184951200Y-105505150D02*
X186475200Y-105505150D01*
X186475200Y-105632150D02*
X184951200Y-105632150D01*
X184951200Y-105759150D02*
X186475200Y-105759150D01*
X184951200Y-110458150D02*
X184951200Y-109950150D01*
X186475200Y-110458150D02*
X184951200Y-110458150D01*
X186475200Y-105378150D02*
X186475200Y-110458150D01*
X184951200Y-105378150D02*
X186475200Y-105378150D01*
X184951200Y-110458150D02*
X184951200Y-105378150D01*
X165902400Y-106140150D02*
X167426400Y-106140150D01*
X165902400Y-106013150D02*
X167426400Y-106013150D01*
X167426400Y-105886150D02*
X165902400Y-105886150D01*
X165902400Y-105505150D02*
X167426400Y-105505150D01*
X167426400Y-105632150D02*
X165902400Y-105632150D01*
X165902400Y-105759150D02*
X167426400Y-105759150D01*
X165902400Y-110458150D02*
X165902400Y-109950150D01*
X167426400Y-110458150D02*
X165902400Y-110458150D01*
X167426400Y-105378150D02*
X167426400Y-110458150D01*
X165902400Y-105378150D02*
X167426400Y-105378150D01*
X165902400Y-110458150D02*
X165902400Y-105378150D01*
X146853600Y-106140150D02*
X148377600Y-106140150D01*
X146853600Y-106013150D02*
X148377600Y-106013150D01*
X148377600Y-105886150D02*
X146853600Y-105886150D01*
X146853600Y-105505150D02*
X148377600Y-105505150D01*
X148377600Y-105632150D02*
X146853600Y-105632150D01*
X146853600Y-105759150D02*
X148377600Y-105759150D01*
X146853600Y-110458150D02*
X146853600Y-109950150D01*
X148377600Y-110458150D02*
X146853600Y-110458150D01*
X148377600Y-105378150D02*
X148377600Y-110458150D01*
X146853600Y-105378150D02*
X148377600Y-105378150D01*
X146853600Y-110458150D02*
X146853600Y-105378150D01*
X127804800Y-106140150D02*
X129328800Y-106140150D01*
X127804800Y-106013150D02*
X129328800Y-106013150D01*
X129328800Y-105886150D02*
X127804800Y-105886150D01*
X127804800Y-105505150D02*
X129328800Y-105505150D01*
X129328800Y-105632150D02*
X127804800Y-105632150D01*
X127804800Y-105759150D02*
X129328800Y-105759150D01*
X127804800Y-110458150D02*
X127804800Y-109950150D01*
X129328800Y-110458150D02*
X127804800Y-110458150D01*
X129328800Y-105378150D02*
X129328800Y-110458150D01*
X127804800Y-105378150D02*
X129328800Y-105378150D01*
X127804800Y-110458150D02*
X127804800Y-105378150D01*
X108756000Y-106140150D02*
X110280000Y-106140150D01*
X108756000Y-106013150D02*
X110280000Y-106013150D01*
X110280000Y-105886150D02*
X108756000Y-105886150D01*
X108756000Y-105505150D02*
X110280000Y-105505150D01*
X110280000Y-105632150D02*
X108756000Y-105632150D01*
X108756000Y-105759150D02*
X110280000Y-105759150D01*
X108756000Y-110458150D02*
X108756000Y-109950150D01*
X110280000Y-110458150D02*
X108756000Y-110458150D01*
X110280000Y-105378150D02*
X110280000Y-110458150D01*
X108756000Y-105378150D02*
X110280000Y-105378150D01*
X108756000Y-110458150D02*
X108756000Y-105378150D01*
X89707200Y-106140150D02*
X91231200Y-106140150D01*
X89707200Y-106013150D02*
X91231200Y-106013150D01*
X91231200Y-105886150D02*
X89707200Y-105886150D01*
X89707200Y-105505150D02*
X91231200Y-105505150D01*
X91231200Y-105632150D02*
X89707200Y-105632150D01*
X89707200Y-105759150D02*
X91231200Y-105759150D01*
X89707200Y-110458150D02*
X89707200Y-109950150D01*
X91231200Y-110458150D02*
X89707200Y-110458150D01*
X91231200Y-105378150D02*
X91231200Y-110458150D01*
X89707200Y-105378150D02*
X91231200Y-105378150D01*
X89707200Y-110458150D02*
X89707200Y-105378150D01*
X69881750Y-106103250D02*
X71405750Y-106103250D01*
X69881750Y-105976250D02*
X71405750Y-105976250D01*
X71405750Y-105849250D02*
X69881750Y-105849250D01*
X69881750Y-105468250D02*
X71405750Y-105468250D01*
X71405750Y-105595250D02*
X69881750Y-105595250D01*
X69881750Y-105722250D02*
X71405750Y-105722250D01*
X69881750Y-110421250D02*
X69881750Y-109913250D01*
X71405750Y-110421250D02*
X69881750Y-110421250D01*
X71405750Y-105341250D02*
X71405750Y-110421250D01*
X69881750Y-105341250D02*
X71405750Y-105341250D01*
X69881750Y-110421250D02*
X69881750Y-105341250D01*
X289719600Y-87091350D02*
X291243600Y-87091350D01*
X289719600Y-86964350D02*
X291243600Y-86964350D01*
X291243600Y-86837350D02*
X289719600Y-86837350D01*
X289719600Y-86456350D02*
X291243600Y-86456350D01*
X291243600Y-86583350D02*
X289719600Y-86583350D01*
X289719600Y-86710350D02*
X291243600Y-86710350D01*
X289719600Y-91409350D02*
X289719600Y-90901350D01*
X291243600Y-91409350D02*
X289719600Y-91409350D01*
X291243600Y-86329350D02*
X291243600Y-91409350D01*
X289719600Y-86329350D02*
X291243600Y-86329350D01*
X289719600Y-91409350D02*
X289719600Y-86329350D01*
X270670800Y-87091350D02*
X272194800Y-87091350D01*
X270670800Y-86964350D02*
X272194800Y-86964350D01*
X272194800Y-86837350D02*
X270670800Y-86837350D01*
X270670800Y-86456350D02*
X272194800Y-86456350D01*
X272194800Y-86583350D02*
X270670800Y-86583350D01*
X270670800Y-86710350D02*
X272194800Y-86710350D01*
X270670800Y-91409350D02*
X270670800Y-90901350D01*
X272194800Y-91409350D02*
X270670800Y-91409350D01*
X272194800Y-86329350D02*
X272194800Y-91409350D01*
X270670800Y-86329350D02*
X272194800Y-86329350D01*
X270670800Y-91409350D02*
X270670800Y-86329350D01*
X251622000Y-87091350D02*
X253146000Y-87091350D01*
X251622000Y-86964350D02*
X253146000Y-86964350D01*
X253146000Y-86837350D02*
X251622000Y-86837350D01*
X251622000Y-86456350D02*
X253146000Y-86456350D01*
X253146000Y-86583350D02*
X251622000Y-86583350D01*
X251622000Y-86710350D02*
X253146000Y-86710350D01*
X251622000Y-91409350D02*
X251622000Y-90901350D01*
X253146000Y-91409350D02*
X251622000Y-91409350D01*
X253146000Y-86329350D02*
X253146000Y-91409350D01*
X251622000Y-86329350D02*
X253146000Y-86329350D01*
X251622000Y-91409350D02*
X251622000Y-86329350D01*
X232573200Y-87091350D02*
X234097200Y-87091350D01*
X232573200Y-86964350D02*
X234097200Y-86964350D01*
X234097200Y-86837350D02*
X232573200Y-86837350D01*
X232573200Y-86456350D02*
X234097200Y-86456350D01*
X234097200Y-86583350D02*
X232573200Y-86583350D01*
X232573200Y-86710350D02*
X234097200Y-86710350D01*
X232573200Y-91409350D02*
X232573200Y-90901350D01*
X234097200Y-91409350D02*
X232573200Y-91409350D01*
X234097200Y-86329350D02*
X234097200Y-91409350D01*
X232573200Y-86329350D02*
X234097200Y-86329350D01*
X232573200Y-91409350D02*
X232573200Y-86329350D01*
X213524400Y-87091350D02*
X215048400Y-87091350D01*
X213524400Y-86964350D02*
X215048400Y-86964350D01*
X215048400Y-86837350D02*
X213524400Y-86837350D01*
X213524400Y-86456350D02*
X215048400Y-86456350D01*
X215048400Y-86583350D02*
X213524400Y-86583350D01*
X213524400Y-86710350D02*
X215048400Y-86710350D01*
X213524400Y-91409350D02*
X213524400Y-90901350D01*
X215048400Y-91409350D02*
X213524400Y-91409350D01*
X215048400Y-86329350D02*
X215048400Y-91409350D01*
X213524400Y-86329350D02*
X215048400Y-86329350D01*
X213524400Y-91409350D02*
X213524400Y-86329350D01*
X194475600Y-87091350D02*
X195999600Y-87091350D01*
X194475600Y-86964350D02*
X195999600Y-86964350D01*
X195999600Y-86837350D02*
X194475600Y-86837350D01*
X194475600Y-86456350D02*
X195999600Y-86456350D01*
X195999600Y-86583350D02*
X194475600Y-86583350D01*
X194475600Y-86710350D02*
X195999600Y-86710350D01*
X194475600Y-91409350D02*
X194475600Y-90901350D01*
X195999600Y-91409350D02*
X194475600Y-91409350D01*
X195999600Y-86329350D02*
X195999600Y-91409350D01*
X194475600Y-86329350D02*
X195999600Y-86329350D01*
X194475600Y-91409350D02*
X194475600Y-86329350D01*
X175426800Y-87091350D02*
X176950800Y-87091350D01*
X175426800Y-86964350D02*
X176950800Y-86964350D01*
X176950800Y-86837350D02*
X175426800Y-86837350D01*
X175426800Y-86456350D02*
X176950800Y-86456350D01*
X176950800Y-86583350D02*
X175426800Y-86583350D01*
X175426800Y-86710350D02*
X176950800Y-86710350D01*
X175426800Y-91409350D02*
X175426800Y-90901350D01*
X176950800Y-91409350D02*
X175426800Y-91409350D01*
X176950800Y-86329350D02*
X176950800Y-91409350D01*
X175426800Y-86329350D02*
X176950800Y-86329350D01*
X175426800Y-91409350D02*
X175426800Y-86329350D01*
X156378000Y-87091350D02*
X157902000Y-87091350D01*
X156378000Y-86964350D02*
X157902000Y-86964350D01*
X157902000Y-86837350D02*
X156378000Y-86837350D01*
X156378000Y-86456350D02*
X157902000Y-86456350D01*
X157902000Y-86583350D02*
X156378000Y-86583350D01*
X156378000Y-86710350D02*
X157902000Y-86710350D01*
X156378000Y-91409350D02*
X156378000Y-90901350D01*
X157902000Y-91409350D02*
X156378000Y-91409350D01*
X157902000Y-86329350D02*
X157902000Y-91409350D01*
X156378000Y-86329350D02*
X157902000Y-86329350D01*
X156378000Y-91409350D02*
X156378000Y-86329350D01*
X137329200Y-87091350D02*
X138853200Y-87091350D01*
X137329200Y-86964350D02*
X138853200Y-86964350D01*
X138853200Y-86837350D02*
X137329200Y-86837350D01*
X137329200Y-86456350D02*
X138853200Y-86456350D01*
X138853200Y-86583350D02*
X137329200Y-86583350D01*
X137329200Y-86710350D02*
X138853200Y-86710350D01*
X137329200Y-91409350D02*
X137329200Y-90901350D01*
X138853200Y-91409350D02*
X137329200Y-91409350D01*
X138853200Y-86329350D02*
X138853200Y-91409350D01*
X137329200Y-86329350D02*
X138853200Y-86329350D01*
X137329200Y-91409350D02*
X137329200Y-86329350D01*
X118280400Y-87091350D02*
X119804400Y-87091350D01*
X118280400Y-86964350D02*
X119804400Y-86964350D01*
X119804400Y-86837350D02*
X118280400Y-86837350D01*
X118280400Y-86456350D02*
X119804400Y-86456350D01*
X119804400Y-86583350D02*
X118280400Y-86583350D01*
X118280400Y-86710350D02*
X119804400Y-86710350D01*
X118280400Y-91409350D02*
X118280400Y-90901350D01*
X119804400Y-91409350D02*
X118280400Y-91409350D01*
X119804400Y-86329350D02*
X119804400Y-91409350D01*
X118280400Y-86329350D02*
X119804400Y-86329350D01*
X118280400Y-91409350D02*
X118280400Y-86329350D01*
X99231600Y-87091350D02*
X100755600Y-87091350D01*
X99231600Y-86964350D02*
X100755600Y-86964350D01*
X100755600Y-86837350D02*
X99231600Y-86837350D01*
X99231600Y-86456350D02*
X100755600Y-86456350D01*
X100755600Y-86583350D02*
X99231600Y-86583350D01*
X99231600Y-86710350D02*
X100755600Y-86710350D01*
X99231600Y-91409350D02*
X99231600Y-90901350D01*
X100755600Y-91409350D02*
X99231600Y-91409350D01*
X100755600Y-86329350D02*
X100755600Y-91409350D01*
X99231600Y-86329350D02*
X100755600Y-86329350D01*
X99231600Y-91409350D02*
X99231600Y-86329350D01*
X80182800Y-87091350D02*
X81706800Y-87091350D01*
X80182800Y-86964350D02*
X81706800Y-86964350D01*
X81706800Y-86837350D02*
X80182800Y-86837350D01*
X80182800Y-86456350D02*
X81706800Y-86456350D01*
X81706800Y-86583350D02*
X80182800Y-86583350D01*
X80182800Y-86710350D02*
X81706800Y-86710350D01*
X80182800Y-91409350D02*
X80182800Y-90901350D01*
X81706800Y-91409350D02*
X80182800Y-91409350D01*
X81706800Y-86329350D02*
X81706800Y-91409350D01*
X80182800Y-86329350D02*
X81706800Y-86329350D01*
X80182800Y-91409350D02*
X80182800Y-86329350D01*
X55638000Y-87107946D02*
X57162000Y-87107946D01*
X55638000Y-86980946D02*
X57162000Y-86980946D01*
X57162000Y-86853946D02*
X55638000Y-86853946D01*
X55638000Y-86472946D02*
X57162000Y-86472946D01*
X57162000Y-86599946D02*
X55638000Y-86599946D01*
X55638000Y-86726946D02*
X57162000Y-86726946D01*
X55638000Y-91425946D02*
X55638000Y-90917946D01*
X57162000Y-91425946D02*
X55638000Y-91425946D01*
X57162000Y-86345946D02*
X57162000Y-91425946D01*
X55638000Y-86345946D02*
X57162000Y-86345946D01*
X55638000Y-91425946D02*
X55638000Y-86345946D01*
X280195200Y-68042550D02*
X281719200Y-68042550D01*
X280195200Y-67915550D02*
X281719200Y-67915550D01*
X281719200Y-67788550D02*
X280195200Y-67788550D01*
X280195200Y-67407550D02*
X281719200Y-67407550D01*
X281719200Y-67534550D02*
X280195200Y-67534550D01*
X280195200Y-67661550D02*
X281719200Y-67661550D01*
X280195200Y-72360550D02*
X280195200Y-71852550D01*
X281719200Y-72360550D02*
X280195200Y-72360550D01*
X281719200Y-67280550D02*
X281719200Y-72360550D01*
X280195200Y-67280550D02*
X281719200Y-67280550D01*
X280195200Y-72360550D02*
X280195200Y-67280550D01*
X261146400Y-68042550D02*
X262670400Y-68042550D01*
X261146400Y-67915550D02*
X262670400Y-67915550D01*
X262670400Y-67788550D02*
X261146400Y-67788550D01*
X261146400Y-67407550D02*
X262670400Y-67407550D01*
X262670400Y-67534550D02*
X261146400Y-67534550D01*
X261146400Y-67661550D02*
X262670400Y-67661550D01*
X261146400Y-72360550D02*
X261146400Y-71852550D01*
X262670400Y-72360550D02*
X261146400Y-72360550D01*
X262670400Y-67280550D02*
X262670400Y-72360550D01*
X261146400Y-67280550D02*
X262670400Y-67280550D01*
X261146400Y-72360550D02*
X261146400Y-67280550D01*
X242097600Y-68042550D02*
X243621600Y-68042550D01*
X242097600Y-67915550D02*
X243621600Y-67915550D01*
X243621600Y-67788550D02*
X242097600Y-67788550D01*
X242097600Y-67407550D02*
X243621600Y-67407550D01*
X243621600Y-67534550D02*
X242097600Y-67534550D01*
X242097600Y-67661550D02*
X243621600Y-67661550D01*
X242097600Y-72360550D02*
X242097600Y-71852550D01*
X243621600Y-72360550D02*
X242097600Y-72360550D01*
X243621600Y-67280550D02*
X243621600Y-72360550D01*
X242097600Y-67280550D02*
X243621600Y-67280550D01*
X242097600Y-72360550D02*
X242097600Y-67280550D01*
X223048800Y-68042550D02*
X224572800Y-68042550D01*
X223048800Y-67915550D02*
X224572800Y-67915550D01*
X224572800Y-67788550D02*
X223048800Y-67788550D01*
X223048800Y-67407550D02*
X224572800Y-67407550D01*
X224572800Y-67534550D02*
X223048800Y-67534550D01*
X223048800Y-67661550D02*
X224572800Y-67661550D01*
X223048800Y-72360550D02*
X223048800Y-71852550D01*
X224572800Y-72360550D02*
X223048800Y-72360550D01*
X224572800Y-67280550D02*
X224572800Y-72360550D01*
X223048800Y-67280550D02*
X224572800Y-67280550D01*
X223048800Y-72360550D02*
X223048800Y-67280550D01*
X204000000Y-68042550D02*
X205524000Y-68042550D01*
X204000000Y-67915550D02*
X205524000Y-67915550D01*
X205524000Y-67788550D02*
X204000000Y-67788550D01*
X204000000Y-67407550D02*
X205524000Y-67407550D01*
X205524000Y-67534550D02*
X204000000Y-67534550D01*
X204000000Y-67661550D02*
X205524000Y-67661550D01*
X204000000Y-72360550D02*
X204000000Y-71852550D01*
X205524000Y-72360550D02*
X204000000Y-72360550D01*
X205524000Y-67280550D02*
X205524000Y-72360550D01*
X204000000Y-67280550D02*
X205524000Y-67280550D01*
X204000000Y-72360550D02*
X204000000Y-67280550D01*
X184951200Y-68042550D02*
X186475200Y-68042550D01*
X184951200Y-67915550D02*
X186475200Y-67915550D01*
X186475200Y-67788550D02*
X184951200Y-67788550D01*
X184951200Y-67407550D02*
X186475200Y-67407550D01*
X186475200Y-67534550D02*
X184951200Y-67534550D01*
X184951200Y-67661550D02*
X186475200Y-67661550D01*
X184951200Y-72360550D02*
X184951200Y-71852550D01*
X186475200Y-72360550D02*
X184951200Y-72360550D01*
X186475200Y-67280550D02*
X186475200Y-72360550D01*
X184951200Y-67280550D02*
X186475200Y-67280550D01*
X184951200Y-72360550D02*
X184951200Y-67280550D01*
X165902400Y-68042550D02*
X167426400Y-68042550D01*
X165902400Y-67915550D02*
X167426400Y-67915550D01*
X167426400Y-67788550D02*
X165902400Y-67788550D01*
X165902400Y-67407550D02*
X167426400Y-67407550D01*
X167426400Y-67534550D02*
X165902400Y-67534550D01*
X165902400Y-67661550D02*
X167426400Y-67661550D01*
X165902400Y-72360550D02*
X165902400Y-71852550D01*
X167426400Y-72360550D02*
X165902400Y-72360550D01*
X167426400Y-67280550D02*
X167426400Y-72360550D01*
X165902400Y-67280550D02*
X167426400Y-67280550D01*
X165902400Y-72360550D02*
X165902400Y-67280550D01*
X146853600Y-68042550D02*
X148377600Y-68042550D01*
X146853600Y-67915550D02*
X148377600Y-67915550D01*
X148377600Y-67788550D02*
X146853600Y-67788550D01*
X146853600Y-67407550D02*
X148377600Y-67407550D01*
X148377600Y-67534550D02*
X146853600Y-67534550D01*
X146853600Y-67661550D02*
X148377600Y-67661550D01*
X146853600Y-72360550D02*
X146853600Y-71852550D01*
X148377600Y-72360550D02*
X146853600Y-72360550D01*
X148377600Y-67280550D02*
X148377600Y-72360550D01*
X146853600Y-67280550D02*
X148377600Y-67280550D01*
X146853600Y-72360550D02*
X146853600Y-67280550D01*
X127804800Y-68042550D02*
X129328800Y-68042550D01*
X127804800Y-67915550D02*
X129328800Y-67915550D01*
X129328800Y-67788550D02*
X127804800Y-67788550D01*
X127804800Y-67407550D02*
X129328800Y-67407550D01*
X129328800Y-67534550D02*
X127804800Y-67534550D01*
X127804800Y-67661550D02*
X129328800Y-67661550D01*
X127804800Y-72360550D02*
X127804800Y-71852550D01*
X129328800Y-72360550D02*
X127804800Y-72360550D01*
X129328800Y-67280550D02*
X129328800Y-72360550D01*
X127804800Y-67280550D02*
X129328800Y-67280550D01*
X127804800Y-72360550D02*
X127804800Y-67280550D01*
X108756000Y-68042550D02*
X110280000Y-68042550D01*
X108756000Y-67915550D02*
X110280000Y-67915550D01*
X110280000Y-67788550D02*
X108756000Y-67788550D01*
X108756000Y-67407550D02*
X110280000Y-67407550D01*
X110280000Y-67534550D02*
X108756000Y-67534550D01*
X108756000Y-67661550D02*
X110280000Y-67661550D01*
X108756000Y-72360550D02*
X108756000Y-71852550D01*
X110280000Y-72360550D02*
X108756000Y-72360550D01*
X110280000Y-67280550D02*
X110280000Y-72360550D01*
X108756000Y-67280550D02*
X110280000Y-67280550D01*
X108756000Y-72360550D02*
X108756000Y-67280550D01*
X89725500Y-68042550D02*
X91249500Y-68042550D01*
X89725500Y-67915550D02*
X91249500Y-67915550D01*
X91249500Y-67788550D02*
X89725500Y-67788550D01*
X89725500Y-67407550D02*
X91249500Y-67407550D01*
X91249500Y-67534550D02*
X89725500Y-67534550D01*
X89725500Y-67661550D02*
X91249500Y-67661550D01*
X89725500Y-72360550D02*
X89725500Y-71852550D01*
X91249500Y-72360550D02*
X89725500Y-72360550D01*
X91249500Y-67280550D02*
X91249500Y-72360550D01*
X89725500Y-67280550D02*
X91249500Y-67280550D01*
X89725500Y-72360550D02*
X89725500Y-67280550D01*
X70675500Y-68003250D02*
X72199500Y-68003250D01*
X70675500Y-67876250D02*
X72199500Y-67876250D01*
X72199500Y-67749250D02*
X70675500Y-67749250D01*
X70675500Y-67368250D02*
X72199500Y-67368250D01*
X72199500Y-67495250D02*
X70675500Y-67495250D01*
X70675500Y-67622250D02*
X72199500Y-67622250D01*
X70675500Y-72321250D02*
X70675500Y-71813250D01*
X72199500Y-72321250D02*
X70675500Y-72321250D01*
X72199500Y-67241250D02*
X72199500Y-72321250D01*
X70675500Y-67241250D02*
X72199500Y-67241250D01*
X70675500Y-72321250D02*
X70675500Y-67241250D01*
X51625500Y-68003250D02*
X53149500Y-68003250D01*
X51625500Y-67876250D02*
X53149500Y-67876250D01*
X53149500Y-67749250D02*
X51625500Y-67749250D01*
X51625500Y-67368250D02*
X53149500Y-67368250D01*
X53149500Y-67495250D02*
X51625500Y-67495250D01*
X51625500Y-67622250D02*
X53149500Y-67622250D01*
X51625500Y-72321250D02*
X51625500Y-71813250D01*
X53149500Y-72321250D02*
X51625500Y-72321250D01*
X53149500Y-67241250D02*
X53149500Y-72321250D01*
X51625500Y-67241250D02*
X53149500Y-67241250D01*
X51625500Y-72321250D02*
X51625500Y-67241250D01*
D13*
X332805100Y-99981400D02*
X332805100Y-101311400D01*
X332805100Y-101311400D02*
X334135100Y-101311400D01*
X335405100Y-101311400D02*
X338005100Y-101311400D01*
X338005100Y-98651400D02*
X338005100Y-101311400D01*
X335405100Y-98651400D02*
X338005100Y-98651400D01*
X335405100Y-98651400D02*
X335405100Y-101311400D01*
D14*
X338262900Y-60370000D02*
X338262900Y-62910000D01*
X320482900Y-60370000D02*
X338262900Y-60370000D01*
X320482900Y-62910000D02*
X320482900Y-60370000D01*
X320482900Y-93390000D02*
X320482900Y-62910000D01*
X338262900Y-93390000D02*
X320482900Y-93390000D01*
X338262900Y-62910000D02*
X338262900Y-93390000D01*
D15*
X134207142Y-140898571D02*
X134540476Y-140898571D01*
X134540476Y-141422380D02*
X134540476Y-140422380D01*
X134064285Y-140422380D01*
X133683333Y-141422380D02*
X133683333Y-140422380D01*
X133111904Y-141422380D01*
X133111904Y-140422380D01*
X132683333Y-140517619D02*
X132635714Y-140470000D01*
X132540476Y-140422380D01*
X132302380Y-140422380D01*
X132207142Y-140470000D01*
X132159523Y-140517619D01*
X132111904Y-140612857D01*
X132111904Y-140708095D01*
X132159523Y-140850952D01*
X132730952Y-141422380D01*
X132111904Y-141422380D01*
X172616666Y-141422380D02*
X173092857Y-141422380D01*
X173092857Y-140422380D01*
X172330952Y-141374761D02*
X172188095Y-141422380D01*
X171950000Y-141422380D01*
X171854761Y-141374761D01*
X171807142Y-141327142D01*
X171759523Y-141231904D01*
X171759523Y-141136666D01*
X171807142Y-141041428D01*
X171854761Y-140993809D01*
X171950000Y-140946190D01*
X172140476Y-140898571D01*
X172235714Y-140850952D01*
X172283333Y-140803333D01*
X172330952Y-140708095D01*
X172330952Y-140612857D01*
X172283333Y-140517619D01*
X172235714Y-140470000D01*
X172140476Y-140422380D01*
X171902380Y-140422380D01*
X171759523Y-140470000D01*
X171330952Y-141422380D02*
X171330952Y-140422380D01*
X170950000Y-140422380D01*
X170854761Y-140470000D01*
X170807142Y-140517619D01*
X170759523Y-140612857D01*
X170759523Y-140755714D01*
X170807142Y-140850952D01*
X170854761Y-140898571D01*
X170950000Y-140946190D01*
X171330952Y-140946190D01*
X169759523Y-141327142D02*
X169807142Y-141374761D01*
X169950000Y-141422380D01*
X170045238Y-141422380D01*
X170188095Y-141374761D01*
X170283333Y-141279523D01*
X170330952Y-141184285D01*
X170378571Y-140993809D01*
X170378571Y-140850952D01*
X170330952Y-140660476D01*
X170283333Y-140565238D01*
X170188095Y-140470000D01*
X170045238Y-140422380D01*
X169950000Y-140422380D01*
X169807142Y-140470000D01*
X169759523Y-140517619D01*
X128257276Y-84272380D02*
X128590609Y-83796190D01*
X128828704Y-84272380D02*
X128828704Y-83272380D01*
X128447752Y-83272380D01*
X128352514Y-83320000D01*
X128304895Y-83367619D01*
X128257276Y-83462857D01*
X128257276Y-83605714D01*
X128304895Y-83700952D01*
X128352514Y-83748571D01*
X128447752Y-83796190D01*
X128828704Y-83796190D01*
X310348214Y-121372380D02*
X310348214Y-122181904D01*
X310300595Y-122277142D01*
X310252976Y-122324761D01*
X310157738Y-122372380D01*
X309967261Y-122372380D01*
X309872023Y-122324761D01*
X309824404Y-122277142D01*
X309776785Y-122181904D01*
X309776785Y-121372380D01*
X309300595Y-122372380D02*
X309300595Y-121372380D01*
X308919642Y-121372380D01*
X308824404Y-121420000D01*
X308776785Y-121467619D01*
X308729166Y-121562857D01*
X308729166Y-121705714D01*
X308776785Y-121800952D01*
X308824404Y-121848571D01*
X308919642Y-121896190D01*
X309300595Y-121896190D01*
X329945833Y-141422380D02*
X330279166Y-140946190D01*
X330517261Y-141422380D02*
X330517261Y-140422380D01*
X330136309Y-140422380D01*
X330041071Y-140470000D01*
X329993452Y-140517619D01*
X329945833Y-140612857D01*
X329945833Y-140755714D01*
X329993452Y-140850952D01*
X330041071Y-140898571D01*
X330136309Y-140946190D01*
X330517261Y-140946190D01*
X329517261Y-141422380D02*
X329517261Y-140422380D01*
X328517261Y-140470000D02*
X328612500Y-140422380D01*
X328755357Y-140422380D01*
X328898214Y-140470000D01*
X328993452Y-140565238D01*
X329041071Y-140660476D01*
X329088690Y-140850952D01*
X329088690Y-140993809D01*
X329041071Y-141184285D01*
X328993452Y-141279523D01*
X328898214Y-141374761D01*
X328755357Y-141422380D01*
X328660119Y-141422380D01*
X328517261Y-141374761D01*
X328469642Y-141327142D01*
X328469642Y-140993809D01*
X328660119Y-140993809D01*
X328041071Y-141422380D02*
X328041071Y-140422380D01*
X328041071Y-140898571D02*
X327469642Y-140898571D01*
X327469642Y-141422380D02*
X327469642Y-140422380D01*
X327136309Y-140422380D02*
X326564880Y-140422380D01*
X326850595Y-141422380D02*
X326850595Y-140422380D01*
X311443452Y-141422380D02*
X311443452Y-140422380D01*
X311205357Y-140422380D01*
X311062500Y-140470000D01*
X310967261Y-140565238D01*
X310919642Y-140660476D01*
X310872023Y-140850952D01*
X310872023Y-140993809D01*
X310919642Y-141184285D01*
X310967261Y-141279523D01*
X311062500Y-141374761D01*
X311205357Y-141422380D01*
X311443452Y-141422380D01*
X310252976Y-140422380D02*
X310062500Y-140422380D01*
X309967261Y-140470000D01*
X309872023Y-140565238D01*
X309824404Y-140755714D01*
X309824404Y-141089047D01*
X309872023Y-141279523D01*
X309967261Y-141374761D01*
X310062500Y-141422380D01*
X310252976Y-141422380D01*
X310348214Y-141374761D01*
X310443452Y-141279523D01*
X310491071Y-141089047D01*
X310491071Y-140755714D01*
X310443452Y-140565238D01*
X310348214Y-140470000D01*
X310252976Y-140422380D01*
X309491071Y-140422380D02*
X309252976Y-141422380D01*
X309062500Y-140708095D01*
X308872023Y-141422380D01*
X308633928Y-140422380D01*
X308252976Y-141422380D02*
X308252976Y-140422380D01*
X307681547Y-141422380D01*
X307681547Y-140422380D01*
X291433980Y-141422380D02*
X291910171Y-141422380D01*
X291910171Y-140422380D01*
X291100647Y-140898571D02*
X290767314Y-140898571D01*
X290624457Y-141422380D02*
X291100647Y-141422380D01*
X291100647Y-140422380D01*
X290624457Y-140422380D01*
X289862552Y-140898571D02*
X290195885Y-140898571D01*
X290195885Y-141422380D02*
X290195885Y-140422380D01*
X289719695Y-140422380D01*
X289481600Y-140422380D02*
X288910171Y-140422380D01*
X289195885Y-141422380D02*
X289195885Y-140422380D01*
X262889880Y-141422380D02*
X263223214Y-140946190D01*
X263461309Y-141422380D02*
X263461309Y-140422380D01*
X263080357Y-140422380D01*
X262985119Y-140470000D01*
X262937500Y-140517619D01*
X262889880Y-140612857D01*
X262889880Y-140755714D01*
X262937500Y-140850952D01*
X262985119Y-140898571D01*
X263080357Y-140946190D01*
X263461309Y-140946190D01*
X261937500Y-140470000D02*
X262032738Y-140422380D01*
X262175595Y-140422380D01*
X262318452Y-140470000D01*
X262413690Y-140565238D01*
X262461309Y-140660476D01*
X262508928Y-140850952D01*
X262508928Y-140993809D01*
X262461309Y-141184285D01*
X262413690Y-141279523D01*
X262318452Y-141374761D01*
X262175595Y-141422380D01*
X262080357Y-141422380D01*
X261937500Y-141374761D01*
X261889880Y-141327142D01*
X261889880Y-140993809D01*
X262080357Y-140993809D01*
X261461309Y-140422380D02*
X261461309Y-141231904D01*
X261413690Y-141327142D01*
X261366071Y-141374761D01*
X261270833Y-141422380D01*
X261080357Y-141422380D01*
X260985119Y-141374761D01*
X260937500Y-141327142D01*
X260889880Y-141231904D01*
X260889880Y-140422380D01*
X260413690Y-141422380D02*
X260413690Y-140422380D01*
X243792261Y-141422380D02*
X244125595Y-140946190D01*
X244363690Y-141422380D02*
X244363690Y-140422380D01*
X243982738Y-140422380D01*
X243887500Y-140470000D01*
X243839880Y-140517619D01*
X243792261Y-140612857D01*
X243792261Y-140755714D01*
X243839880Y-140850952D01*
X243887500Y-140898571D01*
X243982738Y-140946190D01*
X244363690Y-140946190D01*
X243411309Y-141136666D02*
X242935119Y-141136666D01*
X243506547Y-141422380D02*
X243173214Y-140422380D01*
X242839880Y-141422380D01*
X242030357Y-141422380D02*
X242506547Y-141422380D01*
X242506547Y-140422380D01*
X241839880Y-140422380D02*
X241268452Y-140422380D01*
X241554166Y-141422380D02*
X241554166Y-140422380D01*
X264056547Y-122324761D02*
X263913690Y-122372380D01*
X263675595Y-122372380D01*
X263580357Y-122324761D01*
X263532738Y-122277142D01*
X263485119Y-122181904D01*
X263485119Y-122086666D01*
X263532738Y-121991428D01*
X263580357Y-121943809D01*
X263675595Y-121896190D01*
X263866071Y-121848571D01*
X263961309Y-121800952D01*
X264008928Y-121753333D01*
X264056547Y-121658095D01*
X264056547Y-121562857D01*
X264008928Y-121467619D01*
X263961309Y-121420000D01*
X263866071Y-121372380D01*
X263627976Y-121372380D01*
X263485119Y-121420000D01*
X262580357Y-122372380D02*
X263056547Y-122372380D01*
X263056547Y-121372380D01*
X262294642Y-122086666D02*
X261818452Y-122086666D01*
X262389880Y-122372380D02*
X262056547Y-121372380D01*
X261723214Y-122372380D01*
X261437500Y-122324761D02*
X261294642Y-122372380D01*
X261056547Y-122372380D01*
X260961309Y-122324761D01*
X260913690Y-122277142D01*
X260866071Y-122181904D01*
X260866071Y-122086666D01*
X260913690Y-121991428D01*
X260961309Y-121943809D01*
X261056547Y-121896190D01*
X261247023Y-121848571D01*
X261342261Y-121800952D01*
X261389880Y-121753333D01*
X261437500Y-121658095D01*
X261437500Y-121562857D01*
X261389880Y-121467619D01*
X261342261Y-121420000D01*
X261247023Y-121372380D01*
X261008928Y-121372380D01*
X260866071Y-121420000D01*
X260437500Y-122372380D02*
X260437500Y-121372380D01*
X260437500Y-121848571D02*
X259866071Y-121848571D01*
X259866071Y-122372380D02*
X259866071Y-121372380D01*
X244054166Y-122372380D02*
X244054166Y-121372380D01*
X243816071Y-121372380D01*
X243673214Y-121420000D01*
X243577976Y-121515238D01*
X243530357Y-121610476D01*
X243482738Y-121800952D01*
X243482738Y-121943809D01*
X243530357Y-122134285D01*
X243577976Y-122229523D01*
X243673214Y-122324761D01*
X243816071Y-122372380D01*
X244054166Y-122372380D01*
X242863690Y-121372380D02*
X242673214Y-121372380D01*
X242577976Y-121420000D01*
X242482738Y-121515238D01*
X242435119Y-121705714D01*
X242435119Y-122039047D01*
X242482738Y-122229523D01*
X242577976Y-122324761D01*
X242673214Y-122372380D01*
X242863690Y-122372380D01*
X242958928Y-122324761D01*
X243054166Y-122229523D01*
X243101785Y-122039047D01*
X243101785Y-121705714D01*
X243054166Y-121515238D01*
X242958928Y-121420000D01*
X242863690Y-121372380D01*
X242149404Y-121372380D02*
X241577976Y-121372380D01*
X241863690Y-122372380D02*
X241863690Y-121372380D01*
X225623214Y-122277142D02*
X225670833Y-122324761D01*
X225813690Y-122372380D01*
X225908928Y-122372380D01*
X226051785Y-122324761D01*
X226147023Y-122229523D01*
X226194642Y-122134285D01*
X226242261Y-121943809D01*
X226242261Y-121800952D01*
X226194642Y-121610476D01*
X226147023Y-121515238D01*
X226051785Y-121420000D01*
X225908928Y-121372380D01*
X225813690Y-121372380D01*
X225670833Y-121420000D01*
X225623214Y-121467619D01*
X225004166Y-121372380D02*
X224813690Y-121372380D01*
X224718452Y-121420000D01*
X224623214Y-121515238D01*
X224575595Y-121705714D01*
X224575595Y-122039047D01*
X224623214Y-122229523D01*
X224718452Y-122324761D01*
X224813690Y-122372380D01*
X225004166Y-122372380D01*
X225099404Y-122324761D01*
X225194642Y-122229523D01*
X225242261Y-122039047D01*
X225242261Y-121705714D01*
X225194642Y-121515238D01*
X225099404Y-121420000D01*
X225004166Y-121372380D01*
X224147023Y-122372380D02*
X224147023Y-121372380D01*
X223813690Y-122086666D01*
X223480357Y-121372380D01*
X223480357Y-122372380D01*
X223004166Y-122372380D02*
X223004166Y-121372380D01*
X222670833Y-122086666D01*
X222337500Y-121372380D01*
X222337500Y-122372380D01*
X221908928Y-122086666D02*
X221432738Y-122086666D01*
X222004166Y-122372380D02*
X221670833Y-121372380D01*
X221337500Y-122372380D01*
X205120833Y-122372380D02*
X205120833Y-121372380D01*
X204787500Y-122086666D01*
X204454166Y-121372380D01*
X204454166Y-122372380D01*
X186023214Y-122372380D02*
X186023214Y-121372380D01*
X185451785Y-122372380D01*
X185451785Y-121372380D01*
X166616071Y-121848571D02*
X166473214Y-121896190D01*
X166425595Y-121943809D01*
X166377976Y-122039047D01*
X166377976Y-122181904D01*
X166425595Y-122277142D01*
X166473214Y-122324761D01*
X166568452Y-122372380D01*
X166949404Y-122372380D01*
X166949404Y-121372380D01*
X166616071Y-121372380D01*
X166520833Y-121420000D01*
X166473214Y-121467619D01*
X166425595Y-121562857D01*
X166425595Y-121658095D01*
X166473214Y-121753333D01*
X166520833Y-121800952D01*
X166616071Y-121848571D01*
X166949404Y-121848571D01*
X147970833Y-121372380D02*
X147637500Y-122372380D01*
X147304166Y-121372380D01*
X128277976Y-122277142D02*
X128325595Y-122324761D01*
X128468452Y-122372380D01*
X128563690Y-122372380D01*
X128706547Y-122324761D01*
X128801785Y-122229523D01*
X128849404Y-122134285D01*
X128897023Y-121943809D01*
X128897023Y-121800952D01*
X128849404Y-121610476D01*
X128801785Y-121515238D01*
X128706547Y-121420000D01*
X128563690Y-121372380D01*
X128468452Y-121372380D01*
X128325595Y-121420000D01*
X128277976Y-121467619D01*
X109870833Y-121372380D02*
X109204166Y-122372380D01*
X109204166Y-121372380D02*
X109870833Y-122372380D01*
X90802533Y-121372380D02*
X90135866Y-121372380D01*
X90802533Y-122372380D01*
X90135866Y-122372380D01*
X272962500Y-103417619D02*
X273057738Y-103370000D01*
X273152976Y-103274761D01*
X273295833Y-103131904D01*
X273391071Y-103084285D01*
X273486309Y-103084285D01*
X273438690Y-103322380D02*
X273533928Y-103274761D01*
X273629166Y-103179523D01*
X273676785Y-102989047D01*
X273676785Y-102655714D01*
X273629166Y-102465238D01*
X273533928Y-102370000D01*
X273438690Y-102322380D01*
X273248214Y-102322380D01*
X273152976Y-102370000D01*
X273057738Y-102465238D01*
X273010119Y-102655714D01*
X273010119Y-102989047D01*
X273057738Y-103179523D01*
X273152976Y-103274761D01*
X273248214Y-103322380D01*
X273438690Y-103322380D01*
X272581547Y-102322380D02*
X272581547Y-103131904D01*
X272533928Y-103227142D01*
X272486309Y-103274761D01*
X272391071Y-103322380D01*
X272200595Y-103322380D01*
X272105357Y-103274761D01*
X272057738Y-103227142D01*
X272010119Y-103131904D01*
X272010119Y-102322380D01*
X271343452Y-102322380D02*
X271152976Y-102322380D01*
X271057738Y-102370000D01*
X270962500Y-102465238D01*
X270914880Y-102655714D01*
X270914880Y-102989047D01*
X270962500Y-103179523D01*
X271057738Y-103274761D01*
X271152976Y-103322380D01*
X271343452Y-103322380D01*
X271438690Y-103274761D01*
X271533928Y-103179523D01*
X271581547Y-102989047D01*
X271581547Y-102655714D01*
X271533928Y-102465238D01*
X271438690Y-102370000D01*
X271343452Y-102322380D01*
X270629166Y-102322380D02*
X270057738Y-102322380D01*
X270343452Y-103322380D02*
X270343452Y-102322380D01*
X269724404Y-102798571D02*
X269391071Y-102798571D01*
X269248214Y-103322380D02*
X269724404Y-103322380D01*
X269724404Y-102322380D01*
X269248214Y-102322380D01*
X256436309Y-103274761D02*
X256293452Y-103322380D01*
X256055357Y-103322380D01*
X255960119Y-103274761D01*
X255912500Y-103227142D01*
X255864880Y-103131904D01*
X255864880Y-103036666D01*
X255912500Y-102941428D01*
X255960119Y-102893809D01*
X256055357Y-102846190D01*
X256245833Y-102798571D01*
X256341071Y-102750952D01*
X256388690Y-102703333D01*
X256436309Y-102608095D01*
X256436309Y-102512857D01*
X256388690Y-102417619D01*
X256341071Y-102370000D01*
X256245833Y-102322380D01*
X256007738Y-102322380D01*
X255864880Y-102370000D01*
X255436309Y-102798571D02*
X255102976Y-102798571D01*
X254960119Y-103322380D02*
X255436309Y-103322380D01*
X255436309Y-102322380D01*
X254960119Y-102322380D01*
X254531547Y-103322380D02*
X254531547Y-102322380D01*
X254198214Y-103036666D01*
X253864880Y-102322380D01*
X253864880Y-103322380D01*
X253388690Y-103322380D02*
X253388690Y-102322380D01*
X252341071Y-103227142D02*
X252388690Y-103274761D01*
X252531547Y-103322380D01*
X252626785Y-103322380D01*
X252769642Y-103274761D01*
X252864880Y-103179523D01*
X252912500Y-103084285D01*
X252960119Y-102893809D01*
X252960119Y-102750952D01*
X252912500Y-102560476D01*
X252864880Y-102465238D01*
X252769642Y-102370000D01*
X252626785Y-102322380D01*
X252531547Y-102322380D01*
X252388690Y-102370000D01*
X252341071Y-102417619D01*
X251722023Y-102322380D02*
X251531547Y-102322380D01*
X251436309Y-102370000D01*
X251341071Y-102465238D01*
X251293452Y-102655714D01*
X251293452Y-102989047D01*
X251341071Y-103179523D01*
X251436309Y-103274761D01*
X251531547Y-103322380D01*
X251722023Y-103322380D01*
X251817261Y-103274761D01*
X251912500Y-103179523D01*
X251960119Y-102989047D01*
X251960119Y-102655714D01*
X251912500Y-102465238D01*
X251817261Y-102370000D01*
X251722023Y-102322380D01*
X250388690Y-103322380D02*
X250864880Y-103322380D01*
X250864880Y-102322380D01*
X249864880Y-102322380D02*
X249674404Y-102322380D01*
X249579166Y-102370000D01*
X249483928Y-102465238D01*
X249436309Y-102655714D01*
X249436309Y-102989047D01*
X249483928Y-103179523D01*
X249579166Y-103274761D01*
X249674404Y-103322380D01*
X249864880Y-103322380D01*
X249960119Y-103274761D01*
X250055357Y-103179523D01*
X250102976Y-102989047D01*
X250102976Y-102655714D01*
X250055357Y-102465238D01*
X249960119Y-102370000D01*
X249864880Y-102322380D01*
X249007738Y-103322380D02*
X249007738Y-102322380D01*
X248436309Y-103322380D01*
X248436309Y-102322380D01*
X233052976Y-103322380D02*
X233529166Y-103322380D01*
X233529166Y-102322380D01*
X214574404Y-103322380D02*
X214574404Y-102322380D01*
X214002976Y-103322380D02*
X214431547Y-102750952D01*
X214002976Y-102322380D02*
X214574404Y-102893809D01*
X195119642Y-102322380D02*
X195119642Y-103036666D01*
X195167261Y-103179523D01*
X195262500Y-103274761D01*
X195405357Y-103322380D01*
X195500595Y-103322380D01*
X176498214Y-103322380D02*
X176498214Y-102322380D01*
X176498214Y-102798571D02*
X175926785Y-102798571D01*
X175926785Y-103322380D02*
X175926785Y-102322380D01*
X156900595Y-102370000D02*
X156995833Y-102322380D01*
X157138690Y-102322380D01*
X157281547Y-102370000D01*
X157376785Y-102465238D01*
X157424404Y-102560476D01*
X157472023Y-102750952D01*
X157472023Y-102893809D01*
X157424404Y-103084285D01*
X157376785Y-103179523D01*
X157281547Y-103274761D01*
X157138690Y-103322380D01*
X157043452Y-103322380D01*
X156900595Y-103274761D01*
X156852976Y-103227142D01*
X156852976Y-102893809D01*
X157043452Y-102893809D01*
X137969642Y-102798571D02*
X138302976Y-102798571D01*
X138302976Y-103322380D02*
X138302976Y-102322380D01*
X137826785Y-102322380D01*
X119324404Y-103322380D02*
X119324404Y-102322380D01*
X119086309Y-102322380D01*
X118943452Y-102370000D01*
X118848214Y-102465238D01*
X118800595Y-102560476D01*
X118752976Y-102750952D01*
X118752976Y-102893809D01*
X118800595Y-103084285D01*
X118848214Y-103179523D01*
X118943452Y-103274761D01*
X119086309Y-103322380D01*
X119324404Y-103322380D01*
X100298214Y-103274761D02*
X100155357Y-103322380D01*
X99917261Y-103322380D01*
X99822023Y-103274761D01*
X99774404Y-103227142D01*
X99726785Y-103131904D01*
X99726785Y-103036666D01*
X99774404Y-102941428D01*
X99822023Y-102893809D01*
X99917261Y-102846190D01*
X100107738Y-102798571D01*
X100202976Y-102750952D01*
X100250595Y-102703333D01*
X100298214Y-102608095D01*
X100298214Y-102512857D01*
X100250595Y-102417619D01*
X100202976Y-102370000D01*
X100107738Y-102322380D01*
X99869642Y-102322380D01*
X99726785Y-102370000D01*
X81200595Y-103036666D02*
X80724404Y-103036666D01*
X81295833Y-103322380D02*
X80962500Y-102322380D01*
X80629166Y-103322380D01*
X281177976Y-84605714D02*
X280939880Y-84605714D01*
X280939880Y-83177142D01*
X281177976Y-83177142D01*
X261747023Y-84605714D02*
X261985119Y-84605714D01*
X261985119Y-83177142D01*
X261747023Y-83177142D01*
X243149404Y-84272380D02*
X243149404Y-83272380D01*
X242768452Y-83272380D01*
X242673214Y-83320000D01*
X242625595Y-83367619D01*
X242577976Y-83462857D01*
X242577976Y-83605714D01*
X242625595Y-83700952D01*
X242673214Y-83748571D01*
X242768452Y-83796190D01*
X243149404Y-83796190D01*
X223932738Y-83272380D02*
X223742261Y-83272380D01*
X223647023Y-83320000D01*
X223551785Y-83415238D01*
X223504166Y-83605714D01*
X223504166Y-83939047D01*
X223551785Y-84129523D01*
X223647023Y-84224761D01*
X223742261Y-84272380D01*
X223932738Y-84272380D01*
X224027976Y-84224761D01*
X224123214Y-84129523D01*
X224170833Y-83939047D01*
X224170833Y-83605714D01*
X224123214Y-83415238D01*
X224027976Y-83320000D01*
X223932738Y-83272380D01*
X204787500Y-84272380D02*
X204787500Y-83272380D01*
X185998914Y-83272380D02*
X185998914Y-84081904D01*
X185951295Y-84177142D01*
X185903676Y-84224761D01*
X185808438Y-84272380D01*
X185617961Y-84272380D01*
X185522723Y-84224761D01*
X185475104Y-84177142D01*
X185427485Y-84081904D01*
X185427485Y-83272380D01*
X166664400Y-83796190D02*
X166664400Y-84272380D01*
X166997733Y-83272380D02*
X166664400Y-83796190D01*
X166331066Y-83272380D01*
X147923214Y-83272380D02*
X147351785Y-83272380D01*
X147637500Y-84272380D02*
X147637500Y-83272380D01*
X109732285Y-83748571D02*
X109398952Y-83748571D01*
X109256095Y-84272380D02*
X109732285Y-84272380D01*
X109732285Y-83272380D01*
X109256095Y-83272380D01*
X90897771Y-83272380D02*
X90659676Y-84272380D01*
X90469200Y-83558095D01*
X90278723Y-84272380D01*
X90040628Y-83272380D01*
X71039447Y-84367619D02*
X71134685Y-84320000D01*
X71229923Y-84224761D01*
X71372780Y-84081904D01*
X71468019Y-84034285D01*
X71563257Y-84034285D01*
X71515638Y-84272380D02*
X71610876Y-84224761D01*
X71706114Y-84129523D01*
X71753733Y-83939047D01*
X71753733Y-83605714D01*
X71706114Y-83415238D01*
X71610876Y-83320000D01*
X71515638Y-83272380D01*
X71325161Y-83272380D01*
X71229923Y-83320000D01*
X71134685Y-83415238D01*
X71087066Y-83605714D01*
X71087066Y-83939047D01*
X71134685Y-84129523D01*
X71229923Y-84224761D01*
X71325161Y-84272380D01*
X71515638Y-84272380D01*
X273099466Y-65222380D02*
X273099466Y-64222380D01*
X272718514Y-64222380D01*
X272623276Y-64270000D01*
X272575657Y-64317619D01*
X272528038Y-64412857D01*
X272528038Y-64555714D01*
X272575657Y-64650952D01*
X272623276Y-64698571D01*
X272718514Y-64746190D01*
X273099466Y-64746190D01*
X271623276Y-65222380D02*
X272099466Y-65222380D01*
X272099466Y-64222380D01*
X271289942Y-64222380D02*
X271289942Y-65031904D01*
X271242323Y-65127142D01*
X271194704Y-65174761D01*
X271099466Y-65222380D01*
X270908990Y-65222380D01*
X270813752Y-65174761D01*
X270766133Y-65127142D01*
X270718514Y-65031904D01*
X270718514Y-64222380D01*
X270289942Y-65174761D02*
X270147085Y-65222380D01*
X269908990Y-65222380D01*
X269813752Y-65174761D01*
X269766133Y-65127142D01*
X269718514Y-65031904D01*
X269718514Y-64936666D01*
X269766133Y-64841428D01*
X269813752Y-64793809D01*
X269908990Y-64746190D01*
X270099466Y-64698571D01*
X270194704Y-64650952D01*
X270242323Y-64603333D01*
X270289942Y-64508095D01*
X270289942Y-64412857D01*
X270242323Y-64317619D01*
X270194704Y-64270000D01*
X270099466Y-64222380D01*
X269861371Y-64222380D01*
X269718514Y-64270000D01*
X254479238Y-65222380D02*
X254479238Y-64222380D01*
X254145904Y-64936666D01*
X253812571Y-64222380D01*
X253812571Y-65222380D01*
X253336380Y-65222380D02*
X253336380Y-64222380D01*
X252860190Y-65222380D02*
X252860190Y-64222380D01*
X252288761Y-65222380D01*
X252288761Y-64222380D01*
X251812571Y-64222380D02*
X251812571Y-65031904D01*
X251764952Y-65127142D01*
X251717333Y-65174761D01*
X251622095Y-65222380D01*
X251431619Y-65222380D01*
X251336380Y-65174761D01*
X251288761Y-65127142D01*
X251241142Y-65031904D01*
X251241142Y-64222380D01*
X250812571Y-65174761D02*
X250669714Y-65222380D01*
X250431619Y-65222380D01*
X250336380Y-65174761D01*
X250288761Y-65127142D01*
X250241142Y-65031904D01*
X250241142Y-64936666D01*
X250288761Y-64841428D01*
X250336380Y-64793809D01*
X250431619Y-64746190D01*
X250622095Y-64698571D01*
X250717333Y-64650952D01*
X250764952Y-64603333D01*
X250812571Y-64508095D01*
X250812571Y-64412857D01*
X250764952Y-64317619D01*
X250717333Y-64270000D01*
X250622095Y-64222380D01*
X250384000Y-64222380D01*
X250241142Y-64270000D01*
X234120914Y-64555714D02*
X233406628Y-64555714D01*
X233835200Y-64127142D02*
X234120914Y-65412857D01*
X233501866Y-64984285D02*
X234216152Y-64984285D01*
X233787580Y-65412857D02*
X233501866Y-64127142D01*
X232882819Y-64222380D02*
X232787580Y-64222380D01*
X232692342Y-64270000D01*
X232644723Y-64317619D01*
X232597104Y-64412857D01*
X232549485Y-64603333D01*
X232549485Y-64841428D01*
X232597104Y-65031904D01*
X232644723Y-65127142D01*
X232692342Y-65174761D01*
X232787580Y-65222380D01*
X232882819Y-65222380D01*
X232978057Y-65174761D01*
X233025676Y-65127142D01*
X233073295Y-65031904D01*
X233120914Y-64841428D01*
X233120914Y-64603333D01*
X233073295Y-64412857D01*
X233025676Y-64317619D01*
X232978057Y-64270000D01*
X232882819Y-64222380D01*
X215072114Y-64555714D02*
X214357828Y-64555714D01*
X214786400Y-64127142D02*
X215072114Y-65412857D01*
X214453066Y-64984285D02*
X215167352Y-64984285D01*
X214738780Y-65412857D02*
X214453066Y-64127142D01*
X213976876Y-65222380D02*
X213786400Y-65222380D01*
X213691161Y-65174761D01*
X213643542Y-65127142D01*
X213548304Y-64984285D01*
X213500685Y-64793809D01*
X213500685Y-64412857D01*
X213548304Y-64317619D01*
X213595923Y-64270000D01*
X213691161Y-64222380D01*
X213881638Y-64222380D01*
X213976876Y-64270000D01*
X214024495Y-64317619D01*
X214072114Y-64412857D01*
X214072114Y-64650952D01*
X214024495Y-64746190D01*
X213976876Y-64793809D01*
X213881638Y-64841428D01*
X213691161Y-64841428D01*
X213595923Y-64793809D01*
X213548304Y-64746190D01*
X213500685Y-64650952D01*
X196023314Y-64555714D02*
X195309028Y-64555714D01*
X195737600Y-64127142D02*
X196023314Y-65412857D01*
X195404266Y-64984285D02*
X196118552Y-64984285D01*
X195689980Y-65412857D02*
X195404266Y-64127142D01*
X194832838Y-64650952D02*
X194928076Y-64603333D01*
X194975695Y-64555714D01*
X195023314Y-64460476D01*
X195023314Y-64412857D01*
X194975695Y-64317619D01*
X194928076Y-64270000D01*
X194832838Y-64222380D01*
X194642361Y-64222380D01*
X194547123Y-64270000D01*
X194499504Y-64317619D01*
X194451885Y-64412857D01*
X194451885Y-64460476D01*
X194499504Y-64555714D01*
X194547123Y-64603333D01*
X194642361Y-64650952D01*
X194832838Y-64650952D01*
X194928076Y-64698571D01*
X194975695Y-64746190D01*
X195023314Y-64841428D01*
X195023314Y-65031904D01*
X194975695Y-65127142D01*
X194928076Y-65174761D01*
X194832838Y-65222380D01*
X194642361Y-65222380D01*
X194547123Y-65174761D01*
X194499504Y-65127142D01*
X194451885Y-65031904D01*
X194451885Y-64841428D01*
X194499504Y-64746190D01*
X194547123Y-64698571D01*
X194642361Y-64650952D01*
X176974514Y-64555714D02*
X176260228Y-64555714D01*
X176688800Y-64127142D02*
X176974514Y-65412857D01*
X176355466Y-64984285D02*
X177069752Y-64984285D01*
X176641180Y-65412857D02*
X176355466Y-64127142D01*
X176022133Y-64222380D02*
X175355466Y-64222380D01*
X175784038Y-65222380D01*
X157925714Y-64555714D02*
X157211428Y-64555714D01*
X157640000Y-64127142D02*
X157925714Y-65412857D01*
X157306666Y-64984285D02*
X158020952Y-64984285D01*
X157592380Y-65412857D02*
X157306666Y-64127142D01*
X156449523Y-64222380D02*
X156640000Y-64222380D01*
X156735238Y-64270000D01*
X156782857Y-64317619D01*
X156878095Y-64460476D01*
X156925714Y-64650952D01*
X156925714Y-65031904D01*
X156878095Y-65127142D01*
X156830476Y-65174761D01*
X156735238Y-65222380D01*
X156544761Y-65222380D01*
X156449523Y-65174761D01*
X156401904Y-65127142D01*
X156354285Y-65031904D01*
X156354285Y-64793809D01*
X156401904Y-64698571D01*
X156449523Y-64650952D01*
X156544761Y-64603333D01*
X156735238Y-64603333D01*
X156830476Y-64650952D01*
X156878095Y-64698571D01*
X156925714Y-64793809D01*
X138876914Y-64555714D02*
X138162628Y-64555714D01*
X138591200Y-64127142D02*
X138876914Y-65412857D01*
X138257866Y-64984285D02*
X138972152Y-64984285D01*
X138543580Y-65412857D02*
X138257866Y-64127142D01*
X137353104Y-64222380D02*
X137829295Y-64222380D01*
X137876914Y-64698571D01*
X137829295Y-64650952D01*
X137734057Y-64603333D01*
X137495961Y-64603333D01*
X137400723Y-64650952D01*
X137353104Y-64698571D01*
X137305485Y-64793809D01*
X137305485Y-65031904D01*
X137353104Y-65127142D01*
X137400723Y-65174761D01*
X137495961Y-65222380D01*
X137734057Y-65222380D01*
X137829295Y-65174761D01*
X137876914Y-65127142D01*
X119848214Y-64555714D02*
X119133928Y-64555714D01*
X119562500Y-64127142D02*
X119848214Y-65412857D01*
X119229166Y-64984285D02*
X119943452Y-64984285D01*
X119514880Y-65412857D02*
X119229166Y-64127142D01*
X118372023Y-64555714D02*
X118372023Y-65222380D01*
X118610119Y-64174761D02*
X118848214Y-64889047D01*
X118229166Y-64889047D01*
X100798214Y-64555714D02*
X100083928Y-64555714D01*
X100512500Y-64127142D02*
X100798214Y-65412857D01*
X100179166Y-64984285D02*
X100893452Y-64984285D01*
X100464880Y-65412857D02*
X100179166Y-64127142D01*
X99845833Y-64222380D02*
X99226785Y-64222380D01*
X99560119Y-64603333D01*
X99417261Y-64603333D01*
X99322023Y-64650952D01*
X99274404Y-64698571D01*
X99226785Y-64793809D01*
X99226785Y-65031904D01*
X99274404Y-65127142D01*
X99322023Y-65174761D01*
X99417261Y-65222380D01*
X99702976Y-65222380D01*
X99798214Y-65174761D01*
X99845833Y-65127142D01*
X81748214Y-64555714D02*
X81033928Y-64555714D01*
X81462500Y-64127142D02*
X81748214Y-65412857D01*
X81129166Y-64984285D02*
X81843452Y-64984285D01*
X81414880Y-65412857D02*
X81129166Y-64127142D01*
X80748214Y-64317619D02*
X80700595Y-64270000D01*
X80605357Y-64222380D01*
X80367261Y-64222380D01*
X80272023Y-64270000D01*
X80224404Y-64317619D01*
X80176785Y-64412857D01*
X80176785Y-64508095D01*
X80224404Y-64650952D01*
X80795833Y-65222380D01*
X80176785Y-65222380D01*
X62698214Y-64555714D02*
X61983928Y-64555714D01*
X62412500Y-64127142D02*
X62698214Y-65412857D01*
X62079166Y-64984285D02*
X62793452Y-64984285D01*
X62364880Y-65412857D02*
X62079166Y-64127142D01*
X61126785Y-65222380D02*
X61698214Y-65222380D01*
X61412500Y-65222380D02*
X61412500Y-64222380D01*
X61507738Y-64365238D01*
X61602976Y-64460476D01*
X61698214Y-64508095D01*
X44052976Y-64698571D02*
X43719642Y-64698571D01*
X43576785Y-65222380D02*
X44052976Y-65222380D01*
X44052976Y-64222380D01*
X43576785Y-64222380D01*
X43195833Y-65174761D02*
X43052976Y-65222380D01*
X42814880Y-65222380D01*
X42719642Y-65174761D01*
X42672023Y-65127142D01*
X42624404Y-65031904D01*
X42624404Y-64936666D01*
X42672023Y-64841428D01*
X42719642Y-64793809D01*
X42814880Y-64746190D01*
X43005357Y-64698571D01*
X43100595Y-64650952D01*
X43148214Y-64603333D01*
X43195833Y-64508095D01*
X43195833Y-64412857D01*
X43148214Y-64317619D01*
X43100595Y-64270000D01*
X43005357Y-64222380D01*
X42767261Y-64222380D01*
X42624404Y-64270000D01*
X41624404Y-65127142D02*
X41672023Y-65174761D01*
X41814880Y-65222380D01*
X41910119Y-65222380D01*
X42052976Y-65174761D01*
X42148214Y-65079523D01*
X42195833Y-64984285D01*
X42243452Y-64793809D01*
X42243452Y-64650952D01*
X42195833Y-64460476D01*
X42148214Y-64365238D01*
X42052976Y-64270000D01*
X41910119Y-64222380D01*
X41814880Y-64222380D01*
X41672023Y-64270000D01*
X41624404Y-64317619D01*
X105679761Y-141422380D02*
X106155952Y-141422380D01*
X106155952Y-140422380D01*
X105394047Y-141136666D02*
X104917857Y-141136666D01*
X105489285Y-141422380D02*
X105155952Y-140422380D01*
X104822619Y-141422380D01*
X104013095Y-141422380D02*
X104489285Y-141422380D01*
X104489285Y-140422380D01*
X103822619Y-140422380D02*
X103251190Y-140422380D01*
X103536904Y-141422380D02*
X103536904Y-140422380D01*
X77152380Y-141422380D02*
X77628571Y-141422380D01*
X77628571Y-140422380D01*
X76295238Y-140470000D02*
X76390476Y-140422380D01*
X76533333Y-140422380D01*
X76676190Y-140470000D01*
X76771428Y-140565238D01*
X76819047Y-140660476D01*
X76866666Y-140850952D01*
X76866666Y-140993809D01*
X76819047Y-141184285D01*
X76771428Y-141279523D01*
X76676190Y-141374761D01*
X76533333Y-141422380D01*
X76438095Y-141422380D01*
X76295238Y-141374761D01*
X76247619Y-141327142D01*
X76247619Y-140993809D01*
X76438095Y-140993809D01*
X75819047Y-140422380D02*
X75819047Y-141231904D01*
X75771428Y-141327142D01*
X75723809Y-141374761D01*
X75628571Y-141422380D01*
X75438095Y-141422380D01*
X75342857Y-141374761D01*
X75295238Y-141327142D01*
X75247619Y-141231904D01*
X75247619Y-140422380D01*
X74771428Y-141422380D02*
X74771428Y-140422380D01*
X48598130Y-141412996D02*
X49074320Y-141412996D01*
X49074320Y-140412996D01*
X47693368Y-141317758D02*
X47740987Y-141365377D01*
X47883844Y-141412996D01*
X47979082Y-141412996D01*
X48121939Y-141365377D01*
X48217178Y-141270139D01*
X48264797Y-141174901D01*
X48312416Y-140984425D01*
X48312416Y-140841568D01*
X48264797Y-140651092D01*
X48217178Y-140555854D01*
X48121939Y-140460616D01*
X47979082Y-140412996D01*
X47883844Y-140412996D01*
X47740987Y-140460616D01*
X47693368Y-140508235D01*
X47407654Y-140412996D02*
X46836225Y-140412996D01*
X47121939Y-141412996D02*
X47121939Y-140412996D01*
X46026701Y-141412996D02*
X46502892Y-141412996D01*
X46502892Y-140412996D01*
X308490766Y-83748571D02*
X308347909Y-83796190D01*
X308300290Y-83843809D01*
X308252671Y-83939047D01*
X308252671Y-84081904D01*
X308300290Y-84177142D01*
X308347909Y-84224761D01*
X308443147Y-84272380D01*
X308824100Y-84272380D01*
X308824100Y-83272380D01*
X308490766Y-83272380D01*
X308395528Y-83320000D01*
X308347909Y-83367619D01*
X308300290Y-83462857D01*
X308300290Y-83558095D01*
X308347909Y-83653333D01*
X308395528Y-83700952D01*
X308490766Y-83748571D01*
X308824100Y-83748571D01*
X307871719Y-83986666D02*
X307395528Y-83986666D01*
X307966957Y-84272380D02*
X307633623Y-83272380D01*
X307300290Y-84272380D01*
X306395528Y-84177142D02*
X306443147Y-84224761D01*
X306586004Y-84272380D01*
X306681242Y-84272380D01*
X306824100Y-84224761D01*
X306919338Y-84129523D01*
X306966957Y-84034285D01*
X307014576Y-83843809D01*
X307014576Y-83700952D01*
X306966957Y-83510476D01*
X306919338Y-83415238D01*
X306824100Y-83320000D01*
X306681242Y-83272380D01*
X306586004Y-83272380D01*
X306443147Y-83320000D01*
X306395528Y-83367619D01*
X305966957Y-84272380D02*
X305966957Y-83272380D01*
X305395528Y-84272380D02*
X305824100Y-83700952D01*
X305395528Y-83272380D02*
X305966957Y-83843809D01*
X305014576Y-84224761D02*
X304871719Y-84272380D01*
X304633623Y-84272380D01*
X304538385Y-84224761D01*
X304490766Y-84177142D01*
X304443147Y-84081904D01*
X304443147Y-83986666D01*
X304490766Y-83891428D01*
X304538385Y-83843809D01*
X304633623Y-83796190D01*
X304824100Y-83748571D01*
X304919338Y-83700952D01*
X304966957Y-83653333D01*
X305014576Y-83558095D01*
X305014576Y-83462857D01*
X304966957Y-83367619D01*
X304919338Y-83320000D01*
X304824100Y-83272380D01*
X304586004Y-83272380D01*
X304443147Y-83320000D01*
X303538385Y-84272380D02*
X304014576Y-84272380D01*
X304014576Y-83272380D01*
X303252671Y-83986666D02*
X302776480Y-83986666D01*
X303347909Y-84272380D02*
X303014576Y-83272380D01*
X302681242Y-84272380D01*
X302395528Y-84224761D02*
X302252671Y-84272380D01*
X302014576Y-84272380D01*
X301919338Y-84224761D01*
X301871719Y-84177142D01*
X301824100Y-84081904D01*
X301824100Y-83986666D01*
X301871719Y-83891428D01*
X301919338Y-83843809D01*
X302014576Y-83796190D01*
X302205052Y-83748571D01*
X302300290Y-83700952D01*
X302347909Y-83653333D01*
X302395528Y-83558095D01*
X302395528Y-83462857D01*
X302347909Y-83367619D01*
X302300290Y-83320000D01*
X302205052Y-83272380D01*
X301966957Y-83272380D01*
X301824100Y-83320000D01*
X301395528Y-84272380D02*
X301395528Y-83272380D01*
X301395528Y-83748571D02*
X300824100Y-83748571D01*
X300824100Y-84272380D02*
X300824100Y-83272380D01*
X287488095Y-122372380D02*
X287821428Y-121896190D01*
X288059523Y-122372380D02*
X288059523Y-121372380D01*
X287678571Y-121372380D01*
X287583333Y-121420000D01*
X287535714Y-121467619D01*
X287488095Y-121562857D01*
X287488095Y-121705714D01*
X287535714Y-121800952D01*
X287583333Y-121848571D01*
X287678571Y-121896190D01*
X288059523Y-121896190D01*
X287107142Y-122324761D02*
X286964285Y-122372380D01*
X286726190Y-122372380D01*
X286630952Y-122324761D01*
X286583333Y-122277142D01*
X286535714Y-122181904D01*
X286535714Y-122086666D01*
X286583333Y-121991428D01*
X286630952Y-121943809D01*
X286726190Y-121896190D01*
X286916666Y-121848571D01*
X287011904Y-121800952D01*
X287059523Y-121753333D01*
X287107142Y-121658095D01*
X287107142Y-121562857D01*
X287059523Y-121467619D01*
X287011904Y-121420000D01*
X286916666Y-121372380D01*
X286678571Y-121372380D01*
X286535714Y-121420000D01*
X286107142Y-122372380D02*
X286107142Y-121372380D01*
X286107142Y-121848571D02*
X285535714Y-121848571D01*
X285535714Y-122372380D02*
X285535714Y-121372380D01*
X285059523Y-122372380D02*
X285059523Y-121372380D01*
X284250000Y-121848571D02*
X284583333Y-121848571D01*
X284583333Y-122372380D02*
X284583333Y-121372380D01*
X284107142Y-121372380D01*
X283869047Y-121372380D02*
X283297619Y-121372380D01*
X283583333Y-122372380D02*
X283583333Y-121372380D01*
X58888095Y-122372380D02*
X59364285Y-122372380D01*
X59364285Y-121372380D01*
X58602380Y-122324761D02*
X58459523Y-122372380D01*
X58221428Y-122372380D01*
X58126190Y-122324761D01*
X58078571Y-122277142D01*
X58030952Y-122181904D01*
X58030952Y-122086666D01*
X58078571Y-121991428D01*
X58126190Y-121943809D01*
X58221428Y-121896190D01*
X58411904Y-121848571D01*
X58507142Y-121800952D01*
X58554761Y-121753333D01*
X58602380Y-121658095D01*
X58602380Y-121562857D01*
X58554761Y-121467619D01*
X58507142Y-121420000D01*
X58411904Y-121372380D01*
X58173809Y-121372380D01*
X58030952Y-121420000D01*
X57602380Y-122372380D02*
X57602380Y-121372380D01*
X57602380Y-121848571D02*
X57030952Y-121848571D01*
X57030952Y-122372380D02*
X57030952Y-121372380D01*
X56554761Y-122372380D02*
X56554761Y-121372380D01*
X55745238Y-121848571D02*
X56078571Y-121848571D01*
X56078571Y-122372380D02*
X56078571Y-121372380D01*
X55602380Y-121372380D01*
X55364285Y-121372380D02*
X54792857Y-121372380D01*
X55078571Y-122372380D02*
X55078571Y-121372380D01*
X48836225Y-83266668D02*
X48264797Y-83266668D01*
X48550511Y-84266668D02*
X48550511Y-83266668D01*
X47979082Y-83980954D02*
X47502892Y-83980954D01*
X48074320Y-84266668D02*
X47740987Y-83266668D01*
X47407654Y-84266668D01*
X46740987Y-83742859D02*
X46598130Y-83790478D01*
X46550511Y-83838097D01*
X46502892Y-83933335D01*
X46502892Y-84076192D01*
X46550511Y-84171430D01*
X46598130Y-84219049D01*
X46693368Y-84266668D01*
X47074320Y-84266668D01*
X47074320Y-83266668D01*
X46740987Y-83266668D01*
X46645749Y-83314288D01*
X46598130Y-83361907D01*
X46550511Y-83457145D01*
X46550511Y-83552383D01*
X46598130Y-83647621D01*
X46645749Y-83695240D01*
X46740987Y-83742859D01*
X47074320Y-83742859D01*
D12*
X331293671Y-99195685D02*
X331341290Y-99338542D01*
X331388909Y-99386161D01*
X331484147Y-99433780D01*
X331627004Y-99433780D01*
X331722242Y-99386161D01*
X331769861Y-99338542D01*
X331817480Y-99243304D01*
X331817480Y-98862352D01*
X330817480Y-98862352D01*
X330817480Y-99195685D01*
X330865100Y-99290923D01*
X330912719Y-99338542D01*
X331007957Y-99386161D01*
X331103195Y-99386161D01*
X331198433Y-99338542D01*
X331246052Y-99290923D01*
X331293671Y-99195685D01*
X331293671Y-98862352D01*
X330817480Y-99719495D02*
X330817480Y-100290923D01*
X331817480Y-100005209D02*
X330817480Y-100005209D01*
X331817480Y-101148066D02*
X331817480Y-100576638D01*
X331817480Y-100862352D02*
X330817480Y-100862352D01*
X330960338Y-100767114D01*
X331055576Y-100671876D01*
X331103195Y-100576638D01*
D10*
X334154614Y-91290571D02*
X334154614Y-92290571D01*
X334154614Y-91433428D02*
X334083185Y-91362000D01*
X333940328Y-91290571D01*
X333726042Y-91290571D01*
X333583185Y-91362000D01*
X333511757Y-91504857D01*
X333511757Y-92290571D01*
X332797471Y-92290571D02*
X332797471Y-91290571D01*
X332797471Y-90790571D02*
X332868900Y-90862000D01*
X332797471Y-90933428D01*
X332726042Y-90862000D01*
X332797471Y-90790571D01*
X332797471Y-90933428D01*
X331440328Y-92219142D02*
X331583185Y-92290571D01*
X331868900Y-92290571D01*
X332011757Y-92219142D01*
X332083185Y-92147714D01*
X332154614Y-92004857D01*
X332154614Y-91576285D01*
X332083185Y-91433428D01*
X332011757Y-91362000D01*
X331868900Y-91290571D01*
X331583185Y-91290571D01*
X331440328Y-91362000D01*
X330226042Y-92219142D02*
X330368900Y-92290571D01*
X330654614Y-92290571D01*
X330797471Y-92219142D01*
X330868900Y-92076285D01*
X330868900Y-91504857D01*
X330797471Y-91362000D01*
X330654614Y-91290571D01*
X330368900Y-91290571D01*
X330226042Y-91362000D01*
X330154614Y-91504857D01*
X330154614Y-91647714D01*
X330868900Y-91790571D01*
X329511757Y-92147714D02*
X329440328Y-92219142D01*
X329511757Y-92290571D01*
X329583185Y-92219142D01*
X329511757Y-92147714D01*
X329511757Y-92290571D01*
X329511757Y-91719142D02*
X329583185Y-90862000D01*
X329511757Y-90790571D01*
X329440328Y-90862000D01*
X329511757Y-91719142D01*
X329511757Y-90790571D01*
X328797471Y-91290571D02*
X328797471Y-92290571D01*
X328797471Y-91433428D02*
X328726042Y-91362000D01*
X328583185Y-91290571D01*
X328368900Y-91290571D01*
X328226042Y-91362000D01*
X328154614Y-91504857D01*
X328154614Y-92290571D01*
X326797471Y-92290571D02*
X326797471Y-91504857D01*
X326868900Y-91362000D01*
X327011757Y-91290571D01*
X327297471Y-91290571D01*
X327440328Y-91362000D01*
X326797471Y-92219142D02*
X326940328Y-92290571D01*
X327297471Y-92290571D01*
X327440328Y-92219142D01*
X327511757Y-92076285D01*
X327511757Y-91933428D01*
X327440328Y-91790571D01*
X327297471Y-91719142D01*
X326940328Y-91719142D01*
X326797471Y-91647714D01*
X326083185Y-91290571D02*
X326083185Y-92290571D01*
X326083185Y-91433428D02*
X326011757Y-91362000D01*
X325868900Y-91290571D01*
X325654614Y-91290571D01*
X325511757Y-91362000D01*
X325440328Y-91504857D01*
X325440328Y-92290571D01*
X324511757Y-92290571D02*
X324654614Y-92219142D01*
X324726042Y-92147714D01*
X324797471Y-92004857D01*
X324797471Y-91576285D01*
X324726042Y-91433428D01*
X324654614Y-91362000D01*
X324511757Y-91290571D01*
X324297471Y-91290571D01*
X324154614Y-91362000D01*
X324083185Y-91433428D01*
X324011757Y-91576285D01*
X324011757Y-92004857D01*
X324083185Y-92147714D01*
X324154614Y-92219142D01*
X324297471Y-92290571D01*
X324511757Y-92290571D01*
D12*
X324635709Y-89141904D02*
X324559518Y-89141904D01*
X324483328Y-89180000D01*
X324445232Y-89218095D01*
X324407137Y-89294285D01*
X324369042Y-89446666D01*
X324369042Y-89637142D01*
X324407137Y-89789523D01*
X324445232Y-89865714D01*
X324483328Y-89903809D01*
X324559518Y-89941904D01*
X324635709Y-89941904D01*
X324711899Y-89903809D01*
X324749994Y-89865714D01*
X324788089Y-89789523D01*
X324826185Y-89637142D01*
X324826185Y-89446666D01*
X324788089Y-89294285D01*
X324749994Y-89218095D01*
X324711899Y-89180000D01*
X324635709Y-89141904D01*
X323607137Y-89941904D02*
X324064280Y-89941904D01*
X323835709Y-89941904D02*
X323835709Y-89141904D01*
X323911899Y-89256190D01*
X323988089Y-89332380D01*
X324064280Y-89370476D01*
X323111899Y-89141904D02*
X323035709Y-89141904D01*
X322959518Y-89180000D01*
X322921423Y-89218095D01*
X322883328Y-89294285D01*
X322845232Y-89446666D01*
X322845232Y-89637142D01*
X322883328Y-89789523D01*
X322921423Y-89865714D01*
X322959518Y-89903809D01*
X323035709Y-89941904D01*
X323111899Y-89941904D01*
X323188089Y-89903809D01*
X323226185Y-89865714D01*
X323264280Y-89789523D01*
X323302375Y-89637142D01*
X323302375Y-89446666D01*
X323264280Y-89294285D01*
X323226185Y-89218095D01*
X323188089Y-89180000D01*
X323111899Y-89141904D01*
X324369042Y-82321904D02*
X324826185Y-82321904D01*
X324597613Y-82321904D02*
X324597613Y-81521904D01*
X324673804Y-81636190D01*
X324749994Y-81712380D01*
X324826185Y-81750476D01*
X323607137Y-82321904D02*
X324064280Y-82321904D01*
X323835709Y-82321904D02*
X323835709Y-81521904D01*
X323911899Y-81636190D01*
X323988089Y-81712380D01*
X324064280Y-81750476D01*
X322883328Y-81521904D02*
X323264280Y-81521904D01*
X323302375Y-81902857D01*
X323264280Y-81864761D01*
X323188089Y-81826666D01*
X322997613Y-81826666D01*
X322921423Y-81864761D01*
X322883328Y-81902857D01*
X322845232Y-81979047D01*
X322845232Y-82169523D01*
X322883328Y-82245714D01*
X322921423Y-82283809D01*
X322997613Y-82321904D01*
X323188089Y-82321904D01*
X323264280Y-82283809D01*
X323302375Y-82245714D01*
X324635709Y-78981904D02*
X324559518Y-78981904D01*
X324483328Y-79020000D01*
X324445232Y-79058095D01*
X324407137Y-79134285D01*
X324369042Y-79286666D01*
X324369042Y-79477142D01*
X324407137Y-79629523D01*
X324445232Y-79705714D01*
X324483328Y-79743809D01*
X324559518Y-79781904D01*
X324635709Y-79781904D01*
X324711899Y-79743809D01*
X324749994Y-79705714D01*
X324788089Y-79629523D01*
X324826185Y-79477142D01*
X324826185Y-79286666D01*
X324788089Y-79134285D01*
X324749994Y-79058095D01*
X324711899Y-79020000D01*
X324635709Y-78981904D01*
X323873804Y-78981904D02*
X323797613Y-78981904D01*
X323721423Y-79020000D01*
X323683328Y-79058095D01*
X323645232Y-79134285D01*
X323607137Y-79286666D01*
X323607137Y-79477142D01*
X323645232Y-79629523D01*
X323683328Y-79705714D01*
X323721423Y-79743809D01*
X323797613Y-79781904D01*
X323873804Y-79781904D01*
X323949994Y-79743809D01*
X323988089Y-79705714D01*
X324026185Y-79629523D01*
X324064280Y-79477142D01*
X324064280Y-79286666D01*
X324026185Y-79134285D01*
X323988089Y-79058095D01*
X323949994Y-79020000D01*
X323873804Y-78981904D01*
X323302375Y-79058095D02*
X323264280Y-79020000D01*
X323188089Y-78981904D01*
X322997613Y-78981904D01*
X322921423Y-79020000D01*
X322883328Y-79058095D01*
X322845232Y-79134285D01*
X322845232Y-79210476D01*
X322883328Y-79324761D01*
X323340470Y-79781904D01*
X322845232Y-79781904D01*
X324635709Y-76441904D02*
X324559518Y-76441904D01*
X324483328Y-76480000D01*
X324445232Y-76518095D01*
X324407137Y-76594285D01*
X324369042Y-76746666D01*
X324369042Y-76937142D01*
X324407137Y-77089523D01*
X324445232Y-77165714D01*
X324483328Y-77203809D01*
X324559518Y-77241904D01*
X324635709Y-77241904D01*
X324711899Y-77203809D01*
X324749994Y-77165714D01*
X324788089Y-77089523D01*
X324826185Y-76937142D01*
X324826185Y-76746666D01*
X324788089Y-76594285D01*
X324749994Y-76518095D01*
X324711899Y-76480000D01*
X324635709Y-76441904D01*
X324064280Y-76518095D02*
X324026185Y-76480000D01*
X323949994Y-76441904D01*
X323759518Y-76441904D01*
X323683328Y-76480000D01*
X323645232Y-76518095D01*
X323607137Y-76594285D01*
X323607137Y-76670476D01*
X323645232Y-76784761D01*
X324102375Y-77241904D01*
X323607137Y-77241904D01*
X323226185Y-77241904D02*
X323073804Y-77241904D01*
X322997613Y-77203809D01*
X322959518Y-77165714D01*
X322883328Y-77051428D01*
X322845232Y-76899047D01*
X322845232Y-76594285D01*
X322883328Y-76518095D01*
X322921423Y-76480000D01*
X322997613Y-76441904D01*
X323149994Y-76441904D01*
X323226185Y-76480000D01*
X323264280Y-76518095D01*
X323302375Y-76594285D01*
X323302375Y-76784761D01*
X323264280Y-76860952D01*
X323226185Y-76899047D01*
X323149994Y-76937142D01*
X322997613Y-76937142D01*
X322921423Y-76899047D01*
X322883328Y-76860952D01*
X322845232Y-76784761D01*
X324451565Y-64541904D02*
X324718232Y-64160952D01*
X324908708Y-64541904D02*
X324908708Y-63741904D01*
X324603946Y-63741904D01*
X324527756Y-63780000D01*
X324489661Y-63818095D01*
X324451565Y-63894285D01*
X324451565Y-64008571D01*
X324489661Y-64084761D01*
X324527756Y-64122857D01*
X324603946Y-64160952D01*
X324908708Y-64160952D01*
X324146804Y-64313333D02*
X323765851Y-64313333D01*
X324222994Y-64541904D02*
X323956327Y-63741904D01*
X323689661Y-64541904D01*
X323499185Y-63741904D02*
X323308708Y-64541904D01*
X323156327Y-63970476D01*
X323003946Y-64541904D01*
X322813470Y-63741904D01*
X324527756Y-66320000D02*
X324603947Y-66281904D01*
X324718233Y-66281904D01*
X324832518Y-66320000D01*
X324908709Y-66396190D01*
X324946804Y-66472380D01*
X324984899Y-66624761D01*
X324984899Y-66739047D01*
X324946804Y-66891428D01*
X324908709Y-66967619D01*
X324832518Y-67043809D01*
X324718233Y-67081904D01*
X324642042Y-67081904D01*
X324527756Y-67043809D01*
X324489661Y-67005714D01*
X324489661Y-66739047D01*
X324642042Y-66739047D01*
X324146804Y-67081904D02*
X324146804Y-66281904D01*
X323689661Y-67081904D01*
X323689661Y-66281904D01*
X323308709Y-67081904D02*
X323308709Y-66281904D01*
X323118233Y-66281904D01*
X323003947Y-66320000D01*
X322927756Y-66396190D01*
X322889661Y-66472380D01*
X322851566Y-66624761D01*
X322851566Y-66739047D01*
X322889661Y-66891428D01*
X322927756Y-66967619D01*
X323003947Y-67043809D01*
X323118233Y-67081904D01*
X323308709Y-67081904D01*
X324222995Y-69621904D02*
X324489661Y-69240952D01*
X324680138Y-69621904D02*
X324680138Y-68821904D01*
X324375376Y-68821904D01*
X324299185Y-68860000D01*
X324261090Y-68898095D01*
X324222995Y-68974285D01*
X324222995Y-69088571D01*
X324261090Y-69164761D01*
X324299185Y-69202857D01*
X324375376Y-69240952D01*
X324680138Y-69240952D01*
X323918233Y-69583809D02*
X323803947Y-69621904D01*
X323613471Y-69621904D01*
X323537280Y-69583809D01*
X323499185Y-69545714D01*
X323461090Y-69469523D01*
X323461090Y-69393333D01*
X323499185Y-69317142D01*
X323537280Y-69279047D01*
X323613471Y-69240952D01*
X323765852Y-69202857D01*
X323842042Y-69164761D01*
X323880138Y-69126666D01*
X323918233Y-69050476D01*
X323918233Y-68974285D01*
X323880138Y-68898095D01*
X323842042Y-68860000D01*
X323765852Y-68821904D01*
X323575376Y-68821904D01*
X323461090Y-68860000D01*
X323232519Y-68821904D02*
X322775376Y-68821904D01*
X323003947Y-69621904D02*
X323003947Y-68821904D01*
X324902375Y-71361904D02*
X324635709Y-72161904D01*
X324369042Y-71361904D01*
X323645232Y-72085714D02*
X323683328Y-72123809D01*
X323797613Y-72161904D01*
X323873804Y-72161904D01*
X323988089Y-72123809D01*
X324064280Y-72047619D01*
X324102375Y-71971428D01*
X324140470Y-71819047D01*
X324140470Y-71704761D01*
X324102375Y-71552380D01*
X324064280Y-71476190D01*
X323988089Y-71400000D01*
X323873804Y-71361904D01*
X323797613Y-71361904D01*
X323683328Y-71400000D01*
X323645232Y-71438095D01*
X322845232Y-72085714D02*
X322883328Y-72123809D01*
X322997613Y-72161904D01*
X323073804Y-72161904D01*
X323188089Y-72123809D01*
X323264280Y-72047619D01*
X323302375Y-71971428D01*
X323340470Y-71819047D01*
X323340470Y-71704761D01*
X323302375Y-71552380D01*
X323264280Y-71476190D01*
X323188089Y-71400000D01*
X323073804Y-71361904D01*
X322997613Y-71361904D01*
X322883328Y-71400000D01*
X322845232Y-71438095D01*
X324635709Y-73901904D02*
X324559518Y-73901904D01*
X324483328Y-73940000D01*
X324445232Y-73978095D01*
X324407137Y-74054285D01*
X324369042Y-74206666D01*
X324369042Y-74397142D01*
X324407137Y-74549523D01*
X324445232Y-74625714D01*
X324483328Y-74663809D01*
X324559518Y-74701904D01*
X324635709Y-74701904D01*
X324711899Y-74663809D01*
X324749994Y-74625714D01*
X324788089Y-74549523D01*
X324826185Y-74397142D01*
X324826185Y-74206666D01*
X324788089Y-74054285D01*
X324749994Y-73978095D01*
X324711899Y-73940000D01*
X324635709Y-73901904D01*
X324102375Y-73901904D02*
X323607137Y-73901904D01*
X323873804Y-74206666D01*
X323759518Y-74206666D01*
X323683328Y-74244761D01*
X323645232Y-74282857D01*
X323607137Y-74359047D01*
X323607137Y-74549523D01*
X323645232Y-74625714D01*
X323683328Y-74663809D01*
X323759518Y-74701904D01*
X323988089Y-74701904D01*
X324064280Y-74663809D01*
X324102375Y-74625714D01*
X322845232Y-74701904D02*
X323302375Y-74701904D01*
X323073804Y-74701904D02*
X323073804Y-73901904D01*
X323149994Y-74016190D01*
X323226185Y-74092380D01*
X323302375Y-74130476D01*
X324369042Y-84861904D02*
X324826185Y-84861904D01*
X324597613Y-84861904D02*
X324597613Y-84061904D01*
X324673804Y-84176190D01*
X324749994Y-84252380D01*
X324826185Y-84290476D01*
X323607137Y-84861904D02*
X324064280Y-84861904D01*
X323835709Y-84861904D02*
X323835709Y-84061904D01*
X323911899Y-84176190D01*
X323988089Y-84252380D01*
X324064280Y-84290476D01*
X323340470Y-84061904D02*
X322845232Y-84061904D01*
X323111899Y-84366666D01*
X322997613Y-84366666D01*
X322921423Y-84404761D01*
X322883328Y-84442857D01*
X322845232Y-84519047D01*
X322845232Y-84709523D01*
X322883328Y-84785714D01*
X322921423Y-84823809D01*
X322997613Y-84861904D01*
X323226185Y-84861904D01*
X323302375Y-84823809D01*
X323340470Y-84785714D01*
X324369042Y-87401904D02*
X324826185Y-87401904D01*
X324597613Y-87401904D02*
X324597613Y-86601904D01*
X324673804Y-86716190D01*
X324749994Y-86792380D01*
X324826185Y-86830476D01*
X323607137Y-87401904D02*
X324064280Y-87401904D01*
X323835709Y-87401904D02*
X323835709Y-86601904D01*
X323911899Y-86716190D01*
X323988089Y-86792380D01*
X324064280Y-86830476D01*
X322845232Y-87401904D02*
X323302375Y-87401904D01*
X323073804Y-87401904D02*
X323073804Y-86601904D01*
X323149994Y-86716190D01*
X323226185Y-86792380D01*
X323302375Y-86830476D01*
X335443423Y-89941904D02*
X335900566Y-89941904D01*
X335671994Y-89941904D02*
X335671994Y-89141904D01*
X335748185Y-89256190D01*
X335824375Y-89332380D01*
X335900566Y-89370476D01*
X334948185Y-89141904D02*
X334871994Y-89141904D01*
X334795804Y-89180000D01*
X334757709Y-89218095D01*
X334719613Y-89294285D01*
X334681518Y-89446666D01*
X334681518Y-89637142D01*
X334719613Y-89789523D01*
X334757709Y-89865714D01*
X334795804Y-89903809D01*
X334871994Y-89941904D01*
X334948185Y-89941904D01*
X335024375Y-89903809D01*
X335062470Y-89865714D01*
X335100566Y-89789523D01*
X335138661Y-89637142D01*
X335138661Y-89446666D01*
X335100566Y-89294285D01*
X335062470Y-89218095D01*
X335024375Y-89180000D01*
X334948185Y-89141904D01*
X333995804Y-89408571D02*
X333995804Y-89941904D01*
X334186280Y-89103809D02*
X334376756Y-89675238D01*
X333881518Y-89675238D01*
X335443423Y-84861904D02*
X335900566Y-84861904D01*
X335671994Y-84861904D02*
X335671994Y-84061904D01*
X335748185Y-84176190D01*
X335824375Y-84252380D01*
X335900566Y-84290476D01*
X334948185Y-84061904D02*
X334871994Y-84061904D01*
X334795804Y-84100000D01*
X334757709Y-84138095D01*
X334719613Y-84214285D01*
X334681518Y-84366666D01*
X334681518Y-84557142D01*
X334719613Y-84709523D01*
X334757709Y-84785714D01*
X334795804Y-84823809D01*
X334871994Y-84861904D01*
X334948185Y-84861904D01*
X335024375Y-84823809D01*
X335062470Y-84785714D01*
X335100566Y-84709523D01*
X335138661Y-84557142D01*
X335138661Y-84366666D01*
X335100566Y-84214285D01*
X335062470Y-84138095D01*
X335024375Y-84100000D01*
X334948185Y-84061904D01*
X334186280Y-84061904D02*
X334110090Y-84061904D01*
X334033899Y-84100000D01*
X333995804Y-84138095D01*
X333957709Y-84214285D01*
X333919613Y-84366666D01*
X333919613Y-84557142D01*
X333957709Y-84709523D01*
X333995804Y-84785714D01*
X334033899Y-84823809D01*
X334110090Y-84861904D01*
X334186280Y-84861904D01*
X334262470Y-84823809D01*
X334300566Y-84785714D01*
X334338661Y-84709523D01*
X334376756Y-84557142D01*
X334376756Y-84366666D01*
X334338661Y-84214285D01*
X334300566Y-84138095D01*
X334262470Y-84100000D01*
X334186280Y-84061904D01*
X335710090Y-81521904D02*
X335633899Y-81521904D01*
X335557709Y-81560000D01*
X335519613Y-81598095D01*
X335481518Y-81674285D01*
X335443423Y-81826666D01*
X335443423Y-82017142D01*
X335481518Y-82169523D01*
X335519613Y-82245714D01*
X335557709Y-82283809D01*
X335633899Y-82321904D01*
X335710090Y-82321904D01*
X335786280Y-82283809D01*
X335824375Y-82245714D01*
X335862470Y-82169523D01*
X335900566Y-82017142D01*
X335900566Y-81826666D01*
X335862470Y-81674285D01*
X335824375Y-81598095D01*
X335786280Y-81560000D01*
X335710090Y-81521904D01*
X335138661Y-81598095D02*
X335100566Y-81560000D01*
X335024375Y-81521904D01*
X334833899Y-81521904D01*
X334757709Y-81560000D01*
X334719613Y-81598095D01*
X334681518Y-81674285D01*
X334681518Y-81750476D01*
X334719613Y-81864761D01*
X335176756Y-82321904D01*
X334681518Y-82321904D01*
X333995804Y-81788571D02*
X333995804Y-82321904D01*
X334186280Y-81483809D02*
X334376756Y-82055238D01*
X333881518Y-82055238D01*
X335710090Y-79011904D02*
X335633899Y-79011904D01*
X335557709Y-79050000D01*
X335519613Y-79088095D01*
X335481518Y-79164285D01*
X335443423Y-79316666D01*
X335443423Y-79507142D01*
X335481518Y-79659523D01*
X335519613Y-79735714D01*
X335557709Y-79773809D01*
X335633899Y-79811904D01*
X335710090Y-79811904D01*
X335786280Y-79773809D01*
X335824375Y-79735714D01*
X335862470Y-79659523D01*
X335900566Y-79507142D01*
X335900566Y-79316666D01*
X335862470Y-79164285D01*
X335824375Y-79088095D01*
X335786280Y-79050000D01*
X335710090Y-79011904D01*
X335138661Y-79088095D02*
X335100566Y-79050000D01*
X335024375Y-79011904D01*
X334833899Y-79011904D01*
X334757709Y-79050000D01*
X334719613Y-79088095D01*
X334681518Y-79164285D01*
X334681518Y-79240476D01*
X334719613Y-79354761D01*
X335176756Y-79811904D01*
X334681518Y-79811904D01*
X334376756Y-79088095D02*
X334338661Y-79050000D01*
X334262470Y-79011904D01*
X334071994Y-79011904D01*
X333995804Y-79050000D01*
X333957709Y-79088095D01*
X333919613Y-79164285D01*
X333919613Y-79240476D01*
X333957709Y-79354761D01*
X334414851Y-79811904D01*
X333919613Y-79811904D01*
X335443423Y-68860000D02*
X335519614Y-68821904D01*
X335633900Y-68821904D01*
X335748185Y-68860000D01*
X335824376Y-68936190D01*
X335862471Y-69012380D01*
X335900566Y-69164761D01*
X335900566Y-69279047D01*
X335862471Y-69431428D01*
X335824376Y-69507619D01*
X335748185Y-69583809D01*
X335633900Y-69621904D01*
X335557709Y-69621904D01*
X335443423Y-69583809D01*
X335405328Y-69545714D01*
X335405328Y-69279047D01*
X335557709Y-69279047D01*
X335062471Y-69621904D02*
X335062471Y-68821904D01*
X334605328Y-69621904D01*
X334605328Y-68821904D01*
X334224376Y-69621904D02*
X334224376Y-68821904D01*
X334033900Y-68821904D01*
X333919614Y-68860000D01*
X333843423Y-68936190D01*
X333805328Y-69012380D01*
X333767233Y-69164761D01*
X333767233Y-69279047D01*
X333805328Y-69431428D01*
X333843423Y-69507619D01*
X333919614Y-69583809D01*
X334033900Y-69621904D01*
X334224376Y-69621904D01*
X335443423Y-71400000D02*
X335519614Y-71361904D01*
X335633900Y-71361904D01*
X335748185Y-71400000D01*
X335824376Y-71476190D01*
X335862471Y-71552380D01*
X335900566Y-71704761D01*
X335900566Y-71819047D01*
X335862471Y-71971428D01*
X335824376Y-72047619D01*
X335748185Y-72123809D01*
X335633900Y-72161904D01*
X335557709Y-72161904D01*
X335443423Y-72123809D01*
X335405328Y-72085714D01*
X335405328Y-71819047D01*
X335557709Y-71819047D01*
X335062471Y-72161904D02*
X335062471Y-71361904D01*
X334605328Y-72161904D01*
X334605328Y-71361904D01*
X334224376Y-72161904D02*
X334224376Y-71361904D01*
X334033900Y-71361904D01*
X333919614Y-71400000D01*
X333843423Y-71476190D01*
X333805328Y-71552380D01*
X333767233Y-71704761D01*
X333767233Y-71819047D01*
X333805328Y-71971428D01*
X333843423Y-72047619D01*
X333919614Y-72123809D01*
X334033900Y-72161904D01*
X334224376Y-72161904D01*
X335710090Y-73911904D02*
X335633899Y-73911904D01*
X335557709Y-73950000D01*
X335519613Y-73988095D01*
X335481518Y-74064285D01*
X335443423Y-74216666D01*
X335443423Y-74407142D01*
X335481518Y-74559523D01*
X335519613Y-74635714D01*
X335557709Y-74673809D01*
X335633899Y-74711904D01*
X335710090Y-74711904D01*
X335786280Y-74673809D01*
X335824375Y-74635714D01*
X335862470Y-74559523D01*
X335900566Y-74407142D01*
X335900566Y-74216666D01*
X335862470Y-74064285D01*
X335824375Y-73988095D01*
X335786280Y-73950000D01*
X335710090Y-73911904D01*
X334681518Y-74711904D02*
X335138661Y-74711904D01*
X334910090Y-74711904D02*
X334910090Y-73911904D01*
X334986280Y-74026190D01*
X335062470Y-74102380D01*
X335138661Y-74140476D01*
X334414851Y-73911904D02*
X333881518Y-73911904D01*
X334224375Y-74711904D01*
X335710090Y-76511904D02*
X335633899Y-76511904D01*
X335557709Y-76550000D01*
X335519613Y-76588095D01*
X335481518Y-76664285D01*
X335443423Y-76816666D01*
X335443423Y-77007142D01*
X335481518Y-77159523D01*
X335519613Y-77235714D01*
X335557709Y-77273809D01*
X335633899Y-77311904D01*
X335710090Y-77311904D01*
X335786280Y-77273809D01*
X335824375Y-77235714D01*
X335862470Y-77159523D01*
X335900566Y-77007142D01*
X335900566Y-76816666D01*
X335862470Y-76664285D01*
X335824375Y-76588095D01*
X335786280Y-76550000D01*
X335710090Y-76511904D01*
X335138661Y-76588095D02*
X335100566Y-76550000D01*
X335024375Y-76511904D01*
X334833899Y-76511904D01*
X334757709Y-76550000D01*
X334719613Y-76588095D01*
X334681518Y-76664285D01*
X334681518Y-76740476D01*
X334719613Y-76854761D01*
X335176756Y-77311904D01*
X334681518Y-77311904D01*
X334186280Y-76511904D02*
X334110090Y-76511904D01*
X334033899Y-76550000D01*
X333995804Y-76588095D01*
X333957709Y-76664285D01*
X333919613Y-76816666D01*
X333919613Y-77007142D01*
X333957709Y-77159523D01*
X333995804Y-77235714D01*
X334033899Y-77273809D01*
X334110090Y-77311904D01*
X334186280Y-77311904D01*
X334262470Y-77273809D01*
X334300566Y-77235714D01*
X334338661Y-77159523D01*
X334376756Y-77007142D01*
X334376756Y-76816666D01*
X334338661Y-76664285D01*
X334300566Y-76588095D01*
X334262470Y-76550000D01*
X334186280Y-76511904D01*
X335710090Y-66211904D02*
X335633899Y-66211904D01*
X335557709Y-66250000D01*
X335519613Y-66288095D01*
X335481518Y-66364285D01*
X335443423Y-66516666D01*
X335443423Y-66707142D01*
X335481518Y-66859523D01*
X335519613Y-66935714D01*
X335557709Y-66973809D01*
X335633899Y-67011904D01*
X335710090Y-67011904D01*
X335786280Y-66973809D01*
X335824375Y-66935714D01*
X335862470Y-66859523D01*
X335900566Y-66707142D01*
X335900566Y-66516666D01*
X335862470Y-66364285D01*
X335824375Y-66288095D01*
X335786280Y-66250000D01*
X335710090Y-66211904D01*
X334948185Y-66211904D02*
X334871994Y-66211904D01*
X334795804Y-66250000D01*
X334757709Y-66288095D01*
X334719613Y-66364285D01*
X334681518Y-66516666D01*
X334681518Y-66707142D01*
X334719613Y-66859523D01*
X334757709Y-66935714D01*
X334795804Y-66973809D01*
X334871994Y-67011904D01*
X334948185Y-67011904D01*
X335024375Y-66973809D01*
X335062470Y-66935714D01*
X335100566Y-66859523D01*
X335138661Y-66707142D01*
X335138661Y-66516666D01*
X335100566Y-66364285D01*
X335062470Y-66288095D01*
X335024375Y-66250000D01*
X334948185Y-66211904D01*
X334224375Y-66554761D02*
X334300566Y-66516666D01*
X334338661Y-66478571D01*
X334376756Y-66402380D01*
X334376756Y-66364285D01*
X334338661Y-66288095D01*
X334300566Y-66250000D01*
X334224375Y-66211904D01*
X334071994Y-66211904D01*
X333995804Y-66250000D01*
X333957709Y-66288095D01*
X333919613Y-66364285D01*
X333919613Y-66402380D01*
X333957709Y-66478571D01*
X333995804Y-66516666D01*
X334071994Y-66554761D01*
X334224375Y-66554761D01*
X334300566Y-66592857D01*
X334338661Y-66630952D01*
X334376756Y-66707142D01*
X334376756Y-66859523D01*
X334338661Y-66935714D01*
X334300566Y-66973809D01*
X334224375Y-67011904D01*
X334071994Y-67011904D01*
X333995804Y-66973809D01*
X333957709Y-66935714D01*
X333919613Y-66859523D01*
X333919613Y-66707142D01*
X333957709Y-66630952D01*
X333995804Y-66592857D01*
X334071994Y-66554761D01*
X335710090Y-63741904D02*
X335633899Y-63741904D01*
X335557709Y-63780000D01*
X335519613Y-63818095D01*
X335481518Y-63894285D01*
X335443423Y-64046666D01*
X335443423Y-64237142D01*
X335481518Y-64389523D01*
X335519613Y-64465714D01*
X335557709Y-64503809D01*
X335633899Y-64541904D01*
X335710090Y-64541904D01*
X335786280Y-64503809D01*
X335824375Y-64465714D01*
X335862470Y-64389523D01*
X335900566Y-64237142D01*
X335900566Y-64046666D01*
X335862470Y-63894285D01*
X335824375Y-63818095D01*
X335786280Y-63780000D01*
X335710090Y-63741904D01*
X334948185Y-63741904D02*
X334871994Y-63741904D01*
X334795804Y-63780000D01*
X334757709Y-63818095D01*
X334719613Y-63894285D01*
X334681518Y-64046666D01*
X334681518Y-64237142D01*
X334719613Y-64389523D01*
X334757709Y-64465714D01*
X334795804Y-64503809D01*
X334871994Y-64541904D01*
X334948185Y-64541904D01*
X335024375Y-64503809D01*
X335062470Y-64465714D01*
X335100566Y-64389523D01*
X335138661Y-64237142D01*
X335138661Y-64046666D01*
X335100566Y-63894285D01*
X335062470Y-63818095D01*
X335024375Y-63780000D01*
X334948185Y-63741904D01*
X333995804Y-63741904D02*
X334148185Y-63741904D01*
X334224375Y-63780000D01*
X334262470Y-63818095D01*
X334338661Y-63932380D01*
X334376756Y-64084761D01*
X334376756Y-64389523D01*
X334338661Y-64465714D01*
X334300566Y-64503809D01*
X334224375Y-64541904D01*
X334071994Y-64541904D01*
X333995804Y-64503809D01*
X333957709Y-64465714D01*
X333919613Y-64389523D01*
X333919613Y-64199047D01*
X333957709Y-64122857D01*
X333995804Y-64084761D01*
X334071994Y-64046666D01*
X334224375Y-64046666D01*
X334300566Y-64084761D01*
X334338661Y-64122857D01*
X334376756Y-64199047D01*
%LPC*%
D16*
X322000000Y-58000000D03*
X341000000Y-108000000D03*
X337000000Y-58000000D03*
X280000000Y-58000000D03*
X218000000Y-58000000D03*
X156000000Y-58000000D03*
X31000000Y-58000000D03*
X93000000Y-58000000D03*
X218000000Y-158000000D03*
X280000000Y-158000000D03*
X156000000Y-158000000D03*
X93000000Y-158000000D03*
X31000000Y-108000000D03*
X341000000Y-158000000D03*
X31000000Y-158000000D03*
D17*
X138850000Y-146050000D03*
X127850000Y-146050000D03*
D18*
X128350000Y-149850000D03*
X133350000Y-151950000D03*
D19*
X133350000Y-146050000D03*
D20*
X138570000Y-141850000D03*
D17*
X176950000Y-146050000D03*
X165950000Y-146050000D03*
D18*
X166450000Y-149850000D03*
X171450000Y-151950000D03*
D19*
X171450000Y-146050000D03*
D20*
X176670000Y-141850000D03*
D17*
X305506000Y-69850000D03*
X294506000Y-69850000D03*
D18*
X295006000Y-73650000D03*
X300006000Y-75750000D03*
D19*
X300006000Y-69850000D03*
D20*
X305226000Y-65650000D03*
D17*
X219812500Y-146050000D03*
X208812500Y-146050000D03*
D18*
X209312500Y-149850000D03*
X214312500Y-151950000D03*
D19*
X214312500Y-146050000D03*
D20*
X219532500Y-141850000D03*
D17*
X305537500Y-107950000D03*
X294537500Y-107950000D03*
D18*
X295037500Y-111750000D03*
X300037500Y-113850000D03*
D19*
X300037500Y-107950000D03*
D20*
X305257500Y-103750000D03*
D17*
X57887500Y-107950000D03*
X46887500Y-107950000D03*
D18*
X47387500Y-111750000D03*
X52387500Y-113850000D03*
D19*
X52387500Y-107950000D03*
D20*
X57607500Y-103750000D03*
D21*
X317500000Y-65881250D03*
D22*
X317500000Y-73681250D03*
D23*
X317500000Y-71181250D03*
X317500000Y-68381250D03*
D21*
X298435400Y-123074150D03*
D22*
X298435400Y-130874150D03*
D23*
X298435400Y-128374150D03*
X298435400Y-125574150D03*
D21*
X319054800Y-142081250D03*
D22*
X319054800Y-149881250D03*
D23*
X319054800Y-147381250D03*
X319054800Y-144581250D03*
D21*
X300006000Y-142081250D03*
D22*
X300006000Y-149881250D03*
D23*
X300006000Y-147381250D03*
X300006000Y-144581250D03*
D21*
X280987500Y-142081250D03*
D22*
X280987500Y-149881250D03*
D23*
X280987500Y-147381250D03*
X280987500Y-144581250D03*
D21*
X271432800Y-142150000D03*
D22*
X271432800Y-149950000D03*
D23*
X271432800Y-147450000D03*
X271432800Y-144650000D03*
D21*
X252384000Y-142081250D03*
D22*
X252384000Y-149881250D03*
D23*
X252384000Y-147381250D03*
X252384000Y-144581250D03*
D21*
X232568750Y-142081250D03*
D22*
X232568750Y-149881250D03*
D23*
X232568750Y-147381250D03*
X232568750Y-144581250D03*
D21*
X194468750Y-142081250D03*
D22*
X194468750Y-149881250D03*
D23*
X194468750Y-147381250D03*
X194468750Y-144581250D03*
D21*
X147637500Y-142150000D03*
D22*
X147637500Y-149950000D03*
D23*
X147637500Y-147450000D03*
X147637500Y-144650000D03*
D21*
X119062500Y-142150000D03*
D22*
X119062500Y-149950000D03*
D23*
X119062500Y-147450000D03*
X119062500Y-144650000D03*
D21*
X90487500Y-142150000D03*
D22*
X90487500Y-149950000D03*
D23*
X90487500Y-147450000D03*
X90487500Y-144650000D03*
D21*
X61912500Y-142081250D03*
D22*
X61912500Y-149881250D03*
D23*
X61912500Y-147381250D03*
X61912500Y-144581250D03*
D21*
X295243800Y-84931250D03*
D22*
X295243800Y-92731250D03*
D23*
X295243800Y-90231250D03*
X295243800Y-87431250D03*
D21*
X295243800Y-123066950D03*
D22*
X295243800Y-130866950D03*
D23*
X295243800Y-128366950D03*
X295243800Y-125566950D03*
D21*
X271432800Y-123066950D03*
D22*
X271432800Y-130866950D03*
D23*
X271432800Y-128366950D03*
X271432800Y-125566950D03*
D21*
X252384000Y-123066950D03*
D22*
X252384000Y-130866950D03*
D23*
X252384000Y-128366950D03*
X252384000Y-125566950D03*
D21*
X233335200Y-123066950D03*
D22*
X233335200Y-130866950D03*
D23*
X233335200Y-128366950D03*
X233335200Y-125566950D03*
D21*
X214286400Y-123066950D03*
D22*
X214286400Y-130866950D03*
D23*
X214286400Y-128366950D03*
X214286400Y-125566950D03*
D21*
X195237600Y-123066950D03*
D22*
X195237600Y-130866950D03*
D23*
X195237600Y-128366950D03*
X195237600Y-125566950D03*
D21*
X176188800Y-123066950D03*
D22*
X176188800Y-130866950D03*
D23*
X176188800Y-128366950D03*
X176188800Y-125566950D03*
D21*
X157140000Y-123066950D03*
D22*
X157140000Y-130866950D03*
D23*
X157140000Y-128366950D03*
X157140000Y-125566950D03*
D21*
X138091200Y-123066950D03*
D22*
X138091200Y-130866950D03*
D23*
X138091200Y-128366950D03*
X138091200Y-125566950D03*
D21*
X119042400Y-123066950D03*
D22*
X119042400Y-130866950D03*
D23*
X119042400Y-128366950D03*
X119042400Y-125566950D03*
D21*
X99993600Y-123066950D03*
D22*
X99993600Y-130866950D03*
D23*
X99993600Y-128366950D03*
X99993600Y-125566950D03*
D21*
X76182600Y-123066950D03*
D22*
X76182600Y-130866950D03*
D23*
X76182600Y-128366950D03*
X76182600Y-125566950D03*
D21*
X283368750Y-104018150D03*
D22*
X283368750Y-111818150D03*
D23*
X283368750Y-109318150D03*
X283368750Y-106518150D03*
D21*
X280987500Y-104018150D03*
D22*
X280987500Y-111818150D03*
D23*
X280987500Y-109318150D03*
X280987500Y-106518150D03*
D21*
X261908400Y-104018150D03*
D22*
X261908400Y-111818150D03*
D23*
X261908400Y-109318150D03*
X261908400Y-106518150D03*
D21*
X242859600Y-104018150D03*
D22*
X242859600Y-111818150D03*
D23*
X242859600Y-109318150D03*
X242859600Y-106518150D03*
D21*
X223810800Y-104018150D03*
D22*
X223810800Y-111818150D03*
D23*
X223810800Y-109318150D03*
X223810800Y-106518150D03*
D21*
X204762000Y-104018150D03*
D22*
X204762000Y-111818150D03*
D23*
X204762000Y-109318150D03*
X204762000Y-106518150D03*
D21*
X185713200Y-104018150D03*
D22*
X185713200Y-111818150D03*
D23*
X185713200Y-109318150D03*
X185713200Y-106518150D03*
D21*
X166664400Y-104018150D03*
D22*
X166664400Y-111818150D03*
D23*
X166664400Y-109318150D03*
X166664400Y-106518150D03*
D21*
X147615600Y-104018150D03*
D22*
X147615600Y-111818150D03*
D23*
X147615600Y-109318150D03*
X147615600Y-106518150D03*
D21*
X128566800Y-104018150D03*
D22*
X128566800Y-111818150D03*
D23*
X128566800Y-109318150D03*
X128566800Y-106518150D03*
D21*
X109518000Y-104018150D03*
D22*
X109518000Y-111818150D03*
D23*
X109518000Y-109318150D03*
X109518000Y-106518150D03*
D21*
X90469200Y-104018150D03*
D22*
X90469200Y-111818150D03*
D23*
X90469200Y-109318150D03*
X90469200Y-106518150D03*
D21*
X70643750Y-103981250D03*
D22*
X70643750Y-111781250D03*
D23*
X70643750Y-109281250D03*
X70643750Y-106481250D03*
D21*
X290481600Y-84969350D03*
D22*
X290481600Y-92769350D03*
D23*
X290481600Y-90269350D03*
X290481600Y-87469350D03*
D21*
X271432800Y-84969350D03*
D22*
X271432800Y-92769350D03*
D23*
X271432800Y-90269350D03*
X271432800Y-87469350D03*
D21*
X252384000Y-84969350D03*
D22*
X252384000Y-92769350D03*
D23*
X252384000Y-90269350D03*
X252384000Y-87469350D03*
D21*
X233335200Y-84969350D03*
D22*
X233335200Y-92769350D03*
D23*
X233335200Y-90269350D03*
X233335200Y-87469350D03*
D21*
X214286400Y-84969350D03*
D22*
X214286400Y-92769350D03*
D23*
X214286400Y-90269350D03*
X214286400Y-87469350D03*
D21*
X195237600Y-84969350D03*
D22*
X195237600Y-92769350D03*
D23*
X195237600Y-90269350D03*
X195237600Y-87469350D03*
D21*
X176188800Y-84969350D03*
D22*
X176188800Y-92769350D03*
D23*
X176188800Y-90269350D03*
X176188800Y-87469350D03*
D21*
X157140000Y-84969350D03*
D22*
X157140000Y-92769350D03*
D23*
X157140000Y-90269350D03*
X157140000Y-87469350D03*
D21*
X138091200Y-84969350D03*
D22*
X138091200Y-92769350D03*
D23*
X138091200Y-90269350D03*
X138091200Y-87469350D03*
D21*
X119042400Y-84969350D03*
D22*
X119042400Y-92769350D03*
D23*
X119042400Y-90269350D03*
X119042400Y-87469350D03*
D21*
X99993600Y-84969350D03*
D22*
X99993600Y-92769350D03*
D23*
X99993600Y-90269350D03*
X99993600Y-87469350D03*
D21*
X80944800Y-84969350D03*
D22*
X80944800Y-92769350D03*
D23*
X80944800Y-90269350D03*
X80944800Y-87469350D03*
D21*
X56400000Y-84985946D03*
D22*
X56400000Y-92785946D03*
D23*
X56400000Y-90285946D03*
X56400000Y-87485946D03*
D21*
X280957200Y-65920550D03*
D22*
X280957200Y-73720550D03*
D23*
X280957200Y-71220550D03*
X280957200Y-68420550D03*
D21*
X261908400Y-65920550D03*
D22*
X261908400Y-73720550D03*
D23*
X261908400Y-71220550D03*
X261908400Y-68420550D03*
D21*
X242859600Y-65920550D03*
D22*
X242859600Y-73720550D03*
D23*
X242859600Y-71220550D03*
X242859600Y-68420550D03*
D21*
X223810800Y-65920550D03*
D22*
X223810800Y-73720550D03*
D23*
X223810800Y-71220550D03*
X223810800Y-68420550D03*
D21*
X204762000Y-65920550D03*
D22*
X204762000Y-73720550D03*
D23*
X204762000Y-71220550D03*
X204762000Y-68420550D03*
D21*
X185713200Y-65920550D03*
D22*
X185713200Y-73720550D03*
D23*
X185713200Y-71220550D03*
X185713200Y-68420550D03*
D21*
X166664400Y-65920550D03*
D22*
X166664400Y-73720550D03*
D23*
X166664400Y-71220550D03*
X166664400Y-68420550D03*
D21*
X147615600Y-65920550D03*
D22*
X147615600Y-73720550D03*
D23*
X147615600Y-71220550D03*
X147615600Y-68420550D03*
D21*
X128566800Y-65920550D03*
D22*
X128566800Y-73720550D03*
D23*
X128566800Y-71220550D03*
X128566800Y-68420550D03*
D21*
X109518000Y-65920550D03*
D22*
X109518000Y-73720550D03*
D23*
X109518000Y-71220550D03*
X109518000Y-68420550D03*
D21*
X90487500Y-65920550D03*
D22*
X90487500Y-73720550D03*
D23*
X90487500Y-71220550D03*
X90487500Y-68420550D03*
D21*
X71437500Y-65881250D03*
D22*
X71437500Y-73681250D03*
D23*
X71437500Y-71181250D03*
X71437500Y-68381250D03*
D21*
X52387500Y-65881250D03*
D22*
X52387500Y-73681250D03*
D23*
X52387500Y-71181250D03*
X52387500Y-68381250D03*
D17*
X134066800Y-88900000D03*
X123066800Y-88900000D03*
D18*
X123566800Y-92700000D03*
X128566800Y-94800000D03*
D19*
X128566800Y-88900000D03*
D20*
X133786800Y-84700000D03*
D17*
X315062500Y-127000000D03*
X304062500Y-127000000D03*
D18*
X304562500Y-130800000D03*
X309562500Y-132900000D03*
D19*
X309562500Y-127000000D03*
D20*
X314782500Y-122800000D03*
D17*
X334112500Y-146050000D03*
X323112500Y-146050000D03*
D18*
X323612500Y-149850000D03*
X328612500Y-151950000D03*
D19*
X328612500Y-146050000D03*
D20*
X333832500Y-141850000D03*
D17*
X315062500Y-146050000D03*
X304062500Y-146050000D03*
D18*
X304562500Y-149850000D03*
X309562500Y-151950000D03*
D19*
X309562500Y-146050000D03*
D20*
X314782500Y-141850000D03*
D17*
X295981600Y-146050000D03*
X284981600Y-146050000D03*
D18*
X285481600Y-149850000D03*
X290481600Y-151950000D03*
D19*
X290481600Y-146050000D03*
D20*
X295701600Y-141850000D03*
D17*
X267437500Y-146050000D03*
X256437500Y-146050000D03*
D18*
X256937500Y-149850000D03*
X261937500Y-151950000D03*
D19*
X261937500Y-146050000D03*
D20*
X267157500Y-141850000D03*
D17*
X248387500Y-146050000D03*
X237387500Y-146050000D03*
D18*
X237887500Y-149850000D03*
X242887500Y-151950000D03*
D19*
X242887500Y-146050000D03*
D20*
X248107500Y-141850000D03*
D17*
X267437500Y-127000000D03*
X256437500Y-127000000D03*
D18*
X256937500Y-130800000D03*
X261937500Y-132900000D03*
D19*
X261937500Y-127000000D03*
D20*
X267157500Y-122800000D03*
D17*
X248387500Y-127000000D03*
X237387500Y-127000000D03*
D18*
X237887500Y-130800000D03*
X242887500Y-132900000D03*
D19*
X242887500Y-127000000D03*
D20*
X248107500Y-122800000D03*
D17*
X229337500Y-127000000D03*
X218337500Y-127000000D03*
D18*
X218837500Y-130800000D03*
X223837500Y-132900000D03*
D19*
X223837500Y-127000000D03*
D20*
X229057500Y-122800000D03*
D17*
X210287500Y-127000000D03*
X199287500Y-127000000D03*
D18*
X199787500Y-130800000D03*
X204787500Y-132900000D03*
D19*
X204787500Y-127000000D03*
D20*
X210007500Y-122800000D03*
D17*
X191237500Y-127000000D03*
X180237500Y-127000000D03*
D18*
X180737500Y-130800000D03*
X185737500Y-132900000D03*
D19*
X185737500Y-127000000D03*
D20*
X190957500Y-122800000D03*
D17*
X172187500Y-127000000D03*
X161187500Y-127000000D03*
D18*
X161687500Y-130800000D03*
X166687500Y-132900000D03*
D19*
X166687500Y-127000000D03*
D20*
X171907500Y-122800000D03*
D17*
X153137500Y-127000000D03*
X142137500Y-127000000D03*
D18*
X142637500Y-130800000D03*
X147637500Y-132900000D03*
D19*
X147637500Y-127000000D03*
D20*
X152857500Y-122800000D03*
D17*
X134087500Y-127000000D03*
X123087500Y-127000000D03*
D18*
X123587500Y-130800000D03*
X128587500Y-132900000D03*
D19*
X128587500Y-127000000D03*
D20*
X133807500Y-122800000D03*
D17*
X115037500Y-127000000D03*
X104037500Y-127000000D03*
D18*
X104537500Y-130800000D03*
X109537500Y-132900000D03*
D19*
X109537500Y-127000000D03*
D20*
X114757500Y-122800000D03*
D17*
X95969200Y-127000000D03*
X84969200Y-127000000D03*
D18*
X85469200Y-130800000D03*
X90469200Y-132900000D03*
D19*
X90469200Y-127000000D03*
D20*
X95689200Y-122800000D03*
D17*
X276962500Y-107950000D03*
X265962500Y-107950000D03*
D18*
X266462500Y-111750000D03*
X271462500Y-113850000D03*
D19*
X271462500Y-107950000D03*
D20*
X276682500Y-103750000D03*
D17*
X257912500Y-107950000D03*
X246912500Y-107950000D03*
D18*
X247412500Y-111750000D03*
X252412500Y-113850000D03*
D19*
X252412500Y-107950000D03*
D20*
X257632500Y-103750000D03*
D17*
X238862500Y-107950000D03*
X227862500Y-107950000D03*
D18*
X228362500Y-111750000D03*
X233362500Y-113850000D03*
D19*
X233362500Y-107950000D03*
D20*
X238582500Y-103750000D03*
D17*
X219812500Y-107950000D03*
X208812500Y-107950000D03*
D18*
X209312500Y-111750000D03*
X214312500Y-113850000D03*
D19*
X214312500Y-107950000D03*
D20*
X219532500Y-103750000D03*
D17*
X200762500Y-107950000D03*
X189762500Y-107950000D03*
D18*
X190262500Y-111750000D03*
X195262500Y-113850000D03*
D19*
X195262500Y-107950000D03*
D20*
X200482500Y-103750000D03*
D17*
X181712500Y-107950000D03*
X170712500Y-107950000D03*
D18*
X171212500Y-111750000D03*
X176212500Y-113850000D03*
D19*
X176212500Y-107950000D03*
D20*
X181432500Y-103750000D03*
D17*
X162662500Y-107950000D03*
X151662500Y-107950000D03*
D18*
X152162500Y-111750000D03*
X157162500Y-113850000D03*
D19*
X157162500Y-107950000D03*
D20*
X162382500Y-103750000D03*
D17*
X143612500Y-107950000D03*
X132612500Y-107950000D03*
D18*
X133112500Y-111750000D03*
X138112500Y-113850000D03*
D19*
X138112500Y-107950000D03*
D20*
X143332500Y-103750000D03*
D17*
X124562500Y-107950000D03*
X113562500Y-107950000D03*
D18*
X114062500Y-111750000D03*
X119062500Y-113850000D03*
D19*
X119062500Y-107950000D03*
D20*
X124282500Y-103750000D03*
D17*
X105512500Y-107950000D03*
X94512500Y-107950000D03*
D18*
X95012500Y-111750000D03*
X100012500Y-113850000D03*
D19*
X100012500Y-107950000D03*
D20*
X105232500Y-103750000D03*
D17*
X86462500Y-107950000D03*
X75462500Y-107950000D03*
D18*
X75962500Y-111750000D03*
X80962500Y-113850000D03*
D19*
X80962500Y-107950000D03*
D20*
X86182500Y-103750000D03*
D17*
X286487500Y-88900000D03*
X275487500Y-88900000D03*
D18*
X275987500Y-92700000D03*
X280987500Y-94800000D03*
D19*
X280987500Y-88900000D03*
D20*
X286207500Y-84700000D03*
D17*
X267437500Y-88900000D03*
X256437500Y-88900000D03*
D18*
X256937500Y-92700000D03*
X261937500Y-94800000D03*
D19*
X261937500Y-88900000D03*
D20*
X267157500Y-84700000D03*
D17*
X248387500Y-88900000D03*
X237387500Y-88900000D03*
D18*
X237887500Y-92700000D03*
X242887500Y-94800000D03*
D19*
X242887500Y-88900000D03*
D20*
X248107500Y-84700000D03*
D17*
X229337500Y-88900000D03*
X218337500Y-88900000D03*
D18*
X218837500Y-92700000D03*
X223837500Y-94800000D03*
D19*
X223837500Y-88900000D03*
D20*
X229057500Y-84700000D03*
D17*
X210287500Y-88900000D03*
X199287500Y-88900000D03*
D18*
X199787500Y-92700000D03*
X204787500Y-94800000D03*
D19*
X204787500Y-88900000D03*
D20*
X210007500Y-84700000D03*
D17*
X191213200Y-88900000D03*
X180213200Y-88900000D03*
D18*
X180713200Y-92700000D03*
X185713200Y-94800000D03*
D19*
X185713200Y-88900000D03*
D20*
X190933200Y-84700000D03*
D17*
X172164400Y-88900000D03*
X161164400Y-88900000D03*
D18*
X161664400Y-92700000D03*
X166664400Y-94800000D03*
D19*
X166664400Y-88900000D03*
D20*
X171884400Y-84700000D03*
D17*
X153137500Y-88900000D03*
X142137500Y-88900000D03*
D18*
X142637500Y-92700000D03*
X147637500Y-94800000D03*
D19*
X147637500Y-88900000D03*
D20*
X152857500Y-84700000D03*
D17*
X115018000Y-88900000D03*
X104018000Y-88900000D03*
D18*
X104518000Y-92700000D03*
X109518000Y-94800000D03*
D19*
X109518000Y-88900000D03*
D20*
X114738000Y-84700000D03*
D17*
X95969200Y-88900000D03*
X84969200Y-88900000D03*
D18*
X85469200Y-92700000D03*
X90469200Y-94800000D03*
D19*
X90469200Y-88900000D03*
D20*
X95689200Y-84700000D03*
D17*
X76920400Y-88900000D03*
X65920400Y-88900000D03*
D18*
X66420400Y-92700000D03*
X71420400Y-94800000D03*
D19*
X71420400Y-88900000D03*
D20*
X76640400Y-84700000D03*
D17*
X276932800Y-69850000D03*
X265932800Y-69850000D03*
D18*
X266432800Y-73650000D03*
X271432800Y-75750000D03*
D19*
X271432800Y-69850000D03*
D20*
X276652800Y-65650000D03*
D17*
X257884000Y-69850000D03*
X246884000Y-69850000D03*
D18*
X247384000Y-73650000D03*
X252384000Y-75750000D03*
D19*
X252384000Y-69850000D03*
D20*
X257604000Y-65650000D03*
D17*
X238835200Y-69850000D03*
X227835200Y-69850000D03*
D18*
X228335200Y-73650000D03*
X233335200Y-75750000D03*
D19*
X233335200Y-69850000D03*
D20*
X238555200Y-65650000D03*
D17*
X219786400Y-69850000D03*
X208786400Y-69850000D03*
D18*
X209286400Y-73650000D03*
X214286400Y-75750000D03*
D19*
X214286400Y-69850000D03*
D20*
X219506400Y-65650000D03*
D17*
X200737600Y-69850000D03*
X189737600Y-69850000D03*
D18*
X190237600Y-73650000D03*
X195237600Y-75750000D03*
D19*
X195237600Y-69850000D03*
D20*
X200457600Y-65650000D03*
D17*
X181688800Y-69850000D03*
X170688800Y-69850000D03*
D18*
X171188800Y-73650000D03*
X176188800Y-75750000D03*
D19*
X176188800Y-69850000D03*
D20*
X181408800Y-65650000D03*
D17*
X162640000Y-69850000D03*
X151640000Y-69850000D03*
D18*
X152140000Y-73650000D03*
X157140000Y-75750000D03*
D19*
X157140000Y-69850000D03*
D20*
X162360000Y-65650000D03*
D17*
X143591200Y-69850000D03*
X132591200Y-69850000D03*
D18*
X133091200Y-73650000D03*
X138091200Y-75750000D03*
D19*
X138091200Y-69850000D03*
D20*
X143311200Y-65650000D03*
D17*
X124562500Y-69850000D03*
X113562500Y-69850000D03*
D18*
X114062500Y-73650000D03*
X119062500Y-75750000D03*
D19*
X119062500Y-69850000D03*
D20*
X124282500Y-65650000D03*
D17*
X105512500Y-69850000D03*
X94512500Y-69850000D03*
D18*
X95012500Y-73650000D03*
X100012500Y-75750000D03*
D19*
X100012500Y-69850000D03*
D20*
X105232500Y-65650000D03*
D17*
X86462500Y-69850000D03*
X75462500Y-69850000D03*
D18*
X75962500Y-73650000D03*
X80962500Y-75750000D03*
D19*
X80962500Y-69850000D03*
D20*
X86182500Y-65650000D03*
D17*
X67412500Y-69850000D03*
X56412500Y-69850000D03*
D18*
X56912500Y-73650000D03*
X61912500Y-75750000D03*
D19*
X61912500Y-69850000D03*
D20*
X67132500Y-65650000D03*
D17*
X48362500Y-69850000D03*
X37362500Y-69850000D03*
D18*
X37862500Y-73650000D03*
X42862500Y-75750000D03*
D19*
X42862500Y-69850000D03*
D20*
X48082500Y-65650000D03*
D17*
X110275000Y-146050000D03*
X99275000Y-146050000D03*
D18*
X99775000Y-149850000D03*
X104775000Y-151950000D03*
D19*
X104775000Y-146050000D03*
D20*
X109995000Y-141850000D03*
D17*
X81700000Y-146050000D03*
X70700000Y-146050000D03*
D18*
X71200000Y-149850000D03*
X76200000Y-151950000D03*
D19*
X76200000Y-146050000D03*
D20*
X81420000Y-141850000D03*
D17*
X53121940Y-146040616D03*
X42121940Y-146040616D03*
D18*
X42621940Y-149840616D03*
X47621940Y-151940616D03*
D19*
X47621940Y-146040616D03*
D20*
X52841940Y-141840616D03*
D17*
X310324100Y-88900000D03*
X299324100Y-88900000D03*
D18*
X299824100Y-92700000D03*
X304824100Y-94800000D03*
D19*
X304824100Y-88900000D03*
D20*
X310044100Y-84700000D03*
D17*
X291250000Y-127000000D03*
X280250000Y-127000000D03*
D18*
X280750000Y-130800000D03*
X285750000Y-132900000D03*
D19*
X285750000Y-127000000D03*
D20*
X290970000Y-122800000D03*
D17*
X62650000Y-127000000D03*
X51650000Y-127000000D03*
D18*
X52150000Y-130800000D03*
X57150000Y-132900000D03*
D19*
X57150000Y-127000000D03*
D20*
X62370000Y-122800000D03*
D17*
X53121940Y-88894288D03*
X42121940Y-88894288D03*
D18*
X42621940Y-92694288D03*
X47621940Y-94794288D03*
D19*
X47621940Y-88894288D03*
D20*
X52841940Y-84694288D03*
D24*
X336675100Y-99981400D03*
D25*
X334135100Y-99981400D03*
D26*
X331900000Y-107918400D03*
X329400000Y-107918400D03*
X326900000Y-107918400D03*
D27*
X336992900Y-64180000D03*
X336992900Y-66720000D03*
X336992900Y-69260000D03*
X336992900Y-71800000D03*
X336992900Y-74340000D03*
X336992900Y-76880000D03*
X336992900Y-79420000D03*
X336992900Y-81960000D03*
X336992900Y-84500000D03*
X336992900Y-87040000D03*
X336992900Y-89580000D03*
X321752900Y-92120000D03*
X321752900Y-89580000D03*
X321752900Y-87040000D03*
X321752900Y-84500000D03*
X321752900Y-81960000D03*
X321752900Y-79420000D03*
X321752900Y-76880000D03*
X321752900Y-74340000D03*
X321752900Y-71800000D03*
X321752900Y-69260000D03*
X321752900Y-66720000D03*
X336992900Y-92120000D03*
X321752900Y-64180000D03*
X334452900Y-87040000D03*
X331912900Y-87040000D03*
X329372900Y-87040000D03*
M02*
