G04 #@! TF.GenerationSoftware,KiCad,Pcbnew,(5.1.10)-1*
G04 #@! TF.CreationDate,2022-02-10T09:54:13+11:00*
G04 #@! TF.ProjectId,mf68,6d663638-2e6b-4696-9361-645f70636258,rev?*
G04 #@! TF.SameCoordinates,Original*
G04 #@! TF.FileFunction,Soldermask,Bot*
G04 #@! TF.FilePolarity,Negative*
%FSLAX46Y46*%
G04 Gerber Fmt 4.6, Leading zero omitted, Abs format (unit mm)*
G04 Created by KiCad (PCBNEW (5.1.10)-1) date 2022-02-10 09:54:13*
%MOMM*%
%LPD*%
G01*
G04 APERTURE LIST*
%ADD10C,2.200000*%
%ADD11C,1.700000*%
%ADD12C,2.000000*%
%ADD13C,3.400000*%
%ADD14C,1.200000*%
%ADD15R,1.600000X1.600000*%
%ADD16C,1.600000*%
%ADD17R,1.200000X1.600000*%
%ADD18O,1.700000X1.700000*%
%ADD19R,1.700000X1.700000*%
%ADD20C,1.500000*%
%ADD21C,1.752600*%
G04 APERTURE END LIST*
D10*
X322000000Y-58000000D03*
X341000000Y-108000000D03*
X337000000Y-58000000D03*
X280000000Y-58000000D03*
X218000000Y-58000000D03*
X156000000Y-58000000D03*
X31000000Y-58000000D03*
X93000000Y-58000000D03*
X218000000Y-158000000D03*
X280000000Y-158000000D03*
X156000000Y-158000000D03*
X93000000Y-158000000D03*
X31000000Y-108000000D03*
X341000000Y-158000000D03*
X31000000Y-158000000D03*
D11*
X138850000Y-146050000D03*
X127850000Y-146050000D03*
D12*
X128350000Y-149850000D03*
X133350000Y-151950000D03*
D13*
X133350000Y-146050000D03*
D14*
X138570000Y-141850000D03*
D11*
X176950000Y-146050000D03*
X165950000Y-146050000D03*
D12*
X166450000Y-149850000D03*
X171450000Y-151950000D03*
D13*
X171450000Y-146050000D03*
D14*
X176670000Y-141850000D03*
D11*
X305506000Y-69850000D03*
X294506000Y-69850000D03*
D12*
X295006000Y-73650000D03*
X300006000Y-75750000D03*
D13*
X300006000Y-69850000D03*
D14*
X305226000Y-65650000D03*
D11*
X219812500Y-146050000D03*
X208812500Y-146050000D03*
D12*
X209312500Y-149850000D03*
X214312500Y-151950000D03*
D13*
X214312500Y-146050000D03*
D14*
X219532500Y-141850000D03*
D11*
X305537500Y-107950000D03*
X294537500Y-107950000D03*
D12*
X295037500Y-111750000D03*
X300037500Y-113850000D03*
D13*
X300037500Y-107950000D03*
D14*
X305257500Y-103750000D03*
D11*
X57887500Y-107950000D03*
X46887500Y-107950000D03*
D12*
X47387500Y-111750000D03*
X52387500Y-113850000D03*
D13*
X52387500Y-107950000D03*
D14*
X57607500Y-103750000D03*
D15*
X317500000Y-65881250D03*
D16*
X317500000Y-73681250D03*
D17*
X317500000Y-71181250D03*
X317500000Y-68381250D03*
D15*
X298435400Y-123074150D03*
D16*
X298435400Y-130874150D03*
D17*
X298435400Y-128374150D03*
X298435400Y-125574150D03*
D15*
X319054800Y-142081250D03*
D16*
X319054800Y-149881250D03*
D17*
X319054800Y-147381250D03*
X319054800Y-144581250D03*
D15*
X300006000Y-142081250D03*
D16*
X300006000Y-149881250D03*
D17*
X300006000Y-147381250D03*
X300006000Y-144581250D03*
D15*
X280987500Y-142081250D03*
D16*
X280987500Y-149881250D03*
D17*
X280987500Y-147381250D03*
X280987500Y-144581250D03*
D15*
X271432800Y-142150000D03*
D16*
X271432800Y-149950000D03*
D17*
X271432800Y-147450000D03*
X271432800Y-144650000D03*
D15*
X252384000Y-142081250D03*
D16*
X252384000Y-149881250D03*
D17*
X252384000Y-147381250D03*
X252384000Y-144581250D03*
D15*
X232568750Y-142081250D03*
D16*
X232568750Y-149881250D03*
D17*
X232568750Y-147381250D03*
X232568750Y-144581250D03*
D15*
X194468750Y-142081250D03*
D16*
X194468750Y-149881250D03*
D17*
X194468750Y-147381250D03*
X194468750Y-144581250D03*
D15*
X147637500Y-142150000D03*
D16*
X147637500Y-149950000D03*
D17*
X147637500Y-147450000D03*
X147637500Y-144650000D03*
D15*
X119062500Y-142150000D03*
D16*
X119062500Y-149950000D03*
D17*
X119062500Y-147450000D03*
X119062500Y-144650000D03*
D15*
X90487500Y-142150000D03*
D16*
X90487500Y-149950000D03*
D17*
X90487500Y-147450000D03*
X90487500Y-144650000D03*
D15*
X61912500Y-142081250D03*
D16*
X61912500Y-149881250D03*
D17*
X61912500Y-147381250D03*
X61912500Y-144581250D03*
D15*
X295243800Y-84931250D03*
D16*
X295243800Y-92731250D03*
D17*
X295243800Y-90231250D03*
X295243800Y-87431250D03*
D15*
X295243800Y-123066950D03*
D16*
X295243800Y-130866950D03*
D17*
X295243800Y-128366950D03*
X295243800Y-125566950D03*
D15*
X271432800Y-123066950D03*
D16*
X271432800Y-130866950D03*
D17*
X271432800Y-128366950D03*
X271432800Y-125566950D03*
D15*
X252384000Y-123066950D03*
D16*
X252384000Y-130866950D03*
D17*
X252384000Y-128366950D03*
X252384000Y-125566950D03*
D15*
X233335200Y-123066950D03*
D16*
X233335200Y-130866950D03*
D17*
X233335200Y-128366950D03*
X233335200Y-125566950D03*
D15*
X214286400Y-123066950D03*
D16*
X214286400Y-130866950D03*
D17*
X214286400Y-128366950D03*
X214286400Y-125566950D03*
D15*
X195237600Y-123066950D03*
D16*
X195237600Y-130866950D03*
D17*
X195237600Y-128366950D03*
X195237600Y-125566950D03*
D15*
X176188800Y-123066950D03*
D16*
X176188800Y-130866950D03*
D17*
X176188800Y-128366950D03*
X176188800Y-125566950D03*
D15*
X157140000Y-123066950D03*
D16*
X157140000Y-130866950D03*
D17*
X157140000Y-128366950D03*
X157140000Y-125566950D03*
D15*
X138091200Y-123066950D03*
D16*
X138091200Y-130866950D03*
D17*
X138091200Y-128366950D03*
X138091200Y-125566950D03*
D15*
X119042400Y-123066950D03*
D16*
X119042400Y-130866950D03*
D17*
X119042400Y-128366950D03*
X119042400Y-125566950D03*
D15*
X99993600Y-123066950D03*
D16*
X99993600Y-130866950D03*
D17*
X99993600Y-128366950D03*
X99993600Y-125566950D03*
D15*
X76182600Y-123066950D03*
D16*
X76182600Y-130866950D03*
D17*
X76182600Y-128366950D03*
X76182600Y-125566950D03*
D15*
X283368750Y-104018150D03*
D16*
X283368750Y-111818150D03*
D17*
X283368750Y-109318150D03*
X283368750Y-106518150D03*
D15*
X280987500Y-104018150D03*
D16*
X280987500Y-111818150D03*
D17*
X280987500Y-109318150D03*
X280987500Y-106518150D03*
D15*
X261908400Y-104018150D03*
D16*
X261908400Y-111818150D03*
D17*
X261908400Y-109318150D03*
X261908400Y-106518150D03*
D15*
X242859600Y-104018150D03*
D16*
X242859600Y-111818150D03*
D17*
X242859600Y-109318150D03*
X242859600Y-106518150D03*
D15*
X223810800Y-104018150D03*
D16*
X223810800Y-111818150D03*
D17*
X223810800Y-109318150D03*
X223810800Y-106518150D03*
D15*
X204762000Y-104018150D03*
D16*
X204762000Y-111818150D03*
D17*
X204762000Y-109318150D03*
X204762000Y-106518150D03*
D15*
X185713200Y-104018150D03*
D16*
X185713200Y-111818150D03*
D17*
X185713200Y-109318150D03*
X185713200Y-106518150D03*
D15*
X166664400Y-104018150D03*
D16*
X166664400Y-111818150D03*
D17*
X166664400Y-109318150D03*
X166664400Y-106518150D03*
D15*
X147615600Y-104018150D03*
D16*
X147615600Y-111818150D03*
D17*
X147615600Y-109318150D03*
X147615600Y-106518150D03*
D15*
X128566800Y-104018150D03*
D16*
X128566800Y-111818150D03*
D17*
X128566800Y-109318150D03*
X128566800Y-106518150D03*
D15*
X109518000Y-104018150D03*
D16*
X109518000Y-111818150D03*
D17*
X109518000Y-109318150D03*
X109518000Y-106518150D03*
D15*
X90469200Y-104018150D03*
D16*
X90469200Y-111818150D03*
D17*
X90469200Y-109318150D03*
X90469200Y-106518150D03*
D15*
X70643750Y-103981250D03*
D16*
X70643750Y-111781250D03*
D17*
X70643750Y-109281250D03*
X70643750Y-106481250D03*
D15*
X290481600Y-84969350D03*
D16*
X290481600Y-92769350D03*
D17*
X290481600Y-90269350D03*
X290481600Y-87469350D03*
D15*
X271432800Y-84969350D03*
D16*
X271432800Y-92769350D03*
D17*
X271432800Y-90269350D03*
X271432800Y-87469350D03*
D15*
X252384000Y-84969350D03*
D16*
X252384000Y-92769350D03*
D17*
X252384000Y-90269350D03*
X252384000Y-87469350D03*
D15*
X233335200Y-84969350D03*
D16*
X233335200Y-92769350D03*
D17*
X233335200Y-90269350D03*
X233335200Y-87469350D03*
D15*
X214286400Y-84969350D03*
D16*
X214286400Y-92769350D03*
D17*
X214286400Y-90269350D03*
X214286400Y-87469350D03*
D15*
X195237600Y-84969350D03*
D16*
X195237600Y-92769350D03*
D17*
X195237600Y-90269350D03*
X195237600Y-87469350D03*
D15*
X176188800Y-84969350D03*
D16*
X176188800Y-92769350D03*
D17*
X176188800Y-90269350D03*
X176188800Y-87469350D03*
D15*
X157140000Y-84969350D03*
D16*
X157140000Y-92769350D03*
D17*
X157140000Y-90269350D03*
X157140000Y-87469350D03*
D15*
X138091200Y-84969350D03*
D16*
X138091200Y-92769350D03*
D17*
X138091200Y-90269350D03*
X138091200Y-87469350D03*
D15*
X119042400Y-84969350D03*
D16*
X119042400Y-92769350D03*
D17*
X119042400Y-90269350D03*
X119042400Y-87469350D03*
D15*
X99993600Y-84969350D03*
D16*
X99993600Y-92769350D03*
D17*
X99993600Y-90269350D03*
X99993600Y-87469350D03*
D15*
X80944800Y-84969350D03*
D16*
X80944800Y-92769350D03*
D17*
X80944800Y-90269350D03*
X80944800Y-87469350D03*
D15*
X56400000Y-84985946D03*
D16*
X56400000Y-92785946D03*
D17*
X56400000Y-90285946D03*
X56400000Y-87485946D03*
D15*
X280957200Y-65920550D03*
D16*
X280957200Y-73720550D03*
D17*
X280957200Y-71220550D03*
X280957200Y-68420550D03*
D15*
X261908400Y-65920550D03*
D16*
X261908400Y-73720550D03*
D17*
X261908400Y-71220550D03*
X261908400Y-68420550D03*
D15*
X242859600Y-65920550D03*
D16*
X242859600Y-73720550D03*
D17*
X242859600Y-71220550D03*
X242859600Y-68420550D03*
D15*
X223810800Y-65920550D03*
D16*
X223810800Y-73720550D03*
D17*
X223810800Y-71220550D03*
X223810800Y-68420550D03*
D15*
X204762000Y-65920550D03*
D16*
X204762000Y-73720550D03*
D17*
X204762000Y-71220550D03*
X204762000Y-68420550D03*
D15*
X185713200Y-65920550D03*
D16*
X185713200Y-73720550D03*
D17*
X185713200Y-71220550D03*
X185713200Y-68420550D03*
D15*
X166664400Y-65920550D03*
D16*
X166664400Y-73720550D03*
D17*
X166664400Y-71220550D03*
X166664400Y-68420550D03*
D15*
X147615600Y-65920550D03*
D16*
X147615600Y-73720550D03*
D17*
X147615600Y-71220550D03*
X147615600Y-68420550D03*
D15*
X128566800Y-65920550D03*
D16*
X128566800Y-73720550D03*
D17*
X128566800Y-71220550D03*
X128566800Y-68420550D03*
D15*
X109518000Y-65920550D03*
D16*
X109518000Y-73720550D03*
D17*
X109518000Y-71220550D03*
X109518000Y-68420550D03*
D15*
X90487500Y-65920550D03*
D16*
X90487500Y-73720550D03*
D17*
X90487500Y-71220550D03*
X90487500Y-68420550D03*
D15*
X71437500Y-65881250D03*
D16*
X71437500Y-73681250D03*
D17*
X71437500Y-71181250D03*
X71437500Y-68381250D03*
D15*
X52387500Y-65881250D03*
D16*
X52387500Y-73681250D03*
D17*
X52387500Y-71181250D03*
X52387500Y-68381250D03*
D11*
X134066800Y-88900000D03*
X123066800Y-88900000D03*
D12*
X123566800Y-92700000D03*
X128566800Y-94800000D03*
D13*
X128566800Y-88900000D03*
D14*
X133786800Y-84700000D03*
D11*
X315062500Y-127000000D03*
X304062500Y-127000000D03*
D12*
X304562500Y-130800000D03*
X309562500Y-132900000D03*
D13*
X309562500Y-127000000D03*
D14*
X314782500Y-122800000D03*
D11*
X334112500Y-146050000D03*
X323112500Y-146050000D03*
D12*
X323612500Y-149850000D03*
X328612500Y-151950000D03*
D13*
X328612500Y-146050000D03*
D14*
X333832500Y-141850000D03*
D11*
X315062500Y-146050000D03*
X304062500Y-146050000D03*
D12*
X304562500Y-149850000D03*
X309562500Y-151950000D03*
D13*
X309562500Y-146050000D03*
D14*
X314782500Y-141850000D03*
D11*
X295981600Y-146050000D03*
X284981600Y-146050000D03*
D12*
X285481600Y-149850000D03*
X290481600Y-151950000D03*
D13*
X290481600Y-146050000D03*
D14*
X295701600Y-141850000D03*
D11*
X267437500Y-146050000D03*
X256437500Y-146050000D03*
D12*
X256937500Y-149850000D03*
X261937500Y-151950000D03*
D13*
X261937500Y-146050000D03*
D14*
X267157500Y-141850000D03*
D11*
X248387500Y-146050000D03*
X237387500Y-146050000D03*
D12*
X237887500Y-149850000D03*
X242887500Y-151950000D03*
D13*
X242887500Y-146050000D03*
D14*
X248107500Y-141850000D03*
D11*
X267437500Y-127000000D03*
X256437500Y-127000000D03*
D12*
X256937500Y-130800000D03*
X261937500Y-132900000D03*
D13*
X261937500Y-127000000D03*
D14*
X267157500Y-122800000D03*
D11*
X248387500Y-127000000D03*
X237387500Y-127000000D03*
D12*
X237887500Y-130800000D03*
X242887500Y-132900000D03*
D13*
X242887500Y-127000000D03*
D14*
X248107500Y-122800000D03*
D11*
X229337500Y-127000000D03*
X218337500Y-127000000D03*
D12*
X218837500Y-130800000D03*
X223837500Y-132900000D03*
D13*
X223837500Y-127000000D03*
D14*
X229057500Y-122800000D03*
D11*
X210287500Y-127000000D03*
X199287500Y-127000000D03*
D12*
X199787500Y-130800000D03*
X204787500Y-132900000D03*
D13*
X204787500Y-127000000D03*
D14*
X210007500Y-122800000D03*
D11*
X191237500Y-127000000D03*
X180237500Y-127000000D03*
D12*
X180737500Y-130800000D03*
X185737500Y-132900000D03*
D13*
X185737500Y-127000000D03*
D14*
X190957500Y-122800000D03*
D11*
X172187500Y-127000000D03*
X161187500Y-127000000D03*
D12*
X161687500Y-130800000D03*
X166687500Y-132900000D03*
D13*
X166687500Y-127000000D03*
D14*
X171907500Y-122800000D03*
D11*
X153137500Y-127000000D03*
X142137500Y-127000000D03*
D12*
X142637500Y-130800000D03*
X147637500Y-132900000D03*
D13*
X147637500Y-127000000D03*
D14*
X152857500Y-122800000D03*
D11*
X134087500Y-127000000D03*
X123087500Y-127000000D03*
D12*
X123587500Y-130800000D03*
X128587500Y-132900000D03*
D13*
X128587500Y-127000000D03*
D14*
X133807500Y-122800000D03*
D11*
X115037500Y-127000000D03*
X104037500Y-127000000D03*
D12*
X104537500Y-130800000D03*
X109537500Y-132900000D03*
D13*
X109537500Y-127000000D03*
D14*
X114757500Y-122800000D03*
D11*
X95969200Y-127000000D03*
X84969200Y-127000000D03*
D12*
X85469200Y-130800000D03*
X90469200Y-132900000D03*
D13*
X90469200Y-127000000D03*
D14*
X95689200Y-122800000D03*
D11*
X276962500Y-107950000D03*
X265962500Y-107950000D03*
D12*
X266462500Y-111750000D03*
X271462500Y-113850000D03*
D13*
X271462500Y-107950000D03*
D14*
X276682500Y-103750000D03*
D11*
X257912500Y-107950000D03*
X246912500Y-107950000D03*
D12*
X247412500Y-111750000D03*
X252412500Y-113850000D03*
D13*
X252412500Y-107950000D03*
D14*
X257632500Y-103750000D03*
D11*
X238862500Y-107950000D03*
X227862500Y-107950000D03*
D12*
X228362500Y-111750000D03*
X233362500Y-113850000D03*
D13*
X233362500Y-107950000D03*
D14*
X238582500Y-103750000D03*
D11*
X219812500Y-107950000D03*
X208812500Y-107950000D03*
D12*
X209312500Y-111750000D03*
X214312500Y-113850000D03*
D13*
X214312500Y-107950000D03*
D14*
X219532500Y-103750000D03*
D11*
X200762500Y-107950000D03*
X189762500Y-107950000D03*
D12*
X190262500Y-111750000D03*
X195262500Y-113850000D03*
D13*
X195262500Y-107950000D03*
D14*
X200482500Y-103750000D03*
D11*
X181712500Y-107950000D03*
X170712500Y-107950000D03*
D12*
X171212500Y-111750000D03*
X176212500Y-113850000D03*
D13*
X176212500Y-107950000D03*
D14*
X181432500Y-103750000D03*
D11*
X162662500Y-107950000D03*
X151662500Y-107950000D03*
D12*
X152162500Y-111750000D03*
X157162500Y-113850000D03*
D13*
X157162500Y-107950000D03*
D14*
X162382500Y-103750000D03*
D11*
X143612500Y-107950000D03*
X132612500Y-107950000D03*
D12*
X133112500Y-111750000D03*
X138112500Y-113850000D03*
D13*
X138112500Y-107950000D03*
D14*
X143332500Y-103750000D03*
D11*
X124562500Y-107950000D03*
X113562500Y-107950000D03*
D12*
X114062500Y-111750000D03*
X119062500Y-113850000D03*
D13*
X119062500Y-107950000D03*
D14*
X124282500Y-103750000D03*
D11*
X105512500Y-107950000D03*
X94512500Y-107950000D03*
D12*
X95012500Y-111750000D03*
X100012500Y-113850000D03*
D13*
X100012500Y-107950000D03*
D14*
X105232500Y-103750000D03*
D11*
X86462500Y-107950000D03*
X75462500Y-107950000D03*
D12*
X75962500Y-111750000D03*
X80962500Y-113850000D03*
D13*
X80962500Y-107950000D03*
D14*
X86182500Y-103750000D03*
D11*
X286487500Y-88900000D03*
X275487500Y-88900000D03*
D12*
X275987500Y-92700000D03*
X280987500Y-94800000D03*
D13*
X280987500Y-88900000D03*
D14*
X286207500Y-84700000D03*
D11*
X267437500Y-88900000D03*
X256437500Y-88900000D03*
D12*
X256937500Y-92700000D03*
X261937500Y-94800000D03*
D13*
X261937500Y-88900000D03*
D14*
X267157500Y-84700000D03*
D11*
X248387500Y-88900000D03*
X237387500Y-88900000D03*
D12*
X237887500Y-92700000D03*
X242887500Y-94800000D03*
D13*
X242887500Y-88900000D03*
D14*
X248107500Y-84700000D03*
D11*
X229337500Y-88900000D03*
X218337500Y-88900000D03*
D12*
X218837500Y-92700000D03*
X223837500Y-94800000D03*
D13*
X223837500Y-88900000D03*
D14*
X229057500Y-84700000D03*
D11*
X210287500Y-88900000D03*
X199287500Y-88900000D03*
D12*
X199787500Y-92700000D03*
X204787500Y-94800000D03*
D13*
X204787500Y-88900000D03*
D14*
X210007500Y-84700000D03*
D11*
X191213200Y-88900000D03*
X180213200Y-88900000D03*
D12*
X180713200Y-92700000D03*
X185713200Y-94800000D03*
D13*
X185713200Y-88900000D03*
D14*
X190933200Y-84700000D03*
D11*
X172164400Y-88900000D03*
X161164400Y-88900000D03*
D12*
X161664400Y-92700000D03*
X166664400Y-94800000D03*
D13*
X166664400Y-88900000D03*
D14*
X171884400Y-84700000D03*
D11*
X153137500Y-88900000D03*
X142137500Y-88900000D03*
D12*
X142637500Y-92700000D03*
X147637500Y-94800000D03*
D13*
X147637500Y-88900000D03*
D14*
X152857500Y-84700000D03*
D11*
X115018000Y-88900000D03*
X104018000Y-88900000D03*
D12*
X104518000Y-92700000D03*
X109518000Y-94800000D03*
D13*
X109518000Y-88900000D03*
D14*
X114738000Y-84700000D03*
D11*
X95969200Y-88900000D03*
X84969200Y-88900000D03*
D12*
X85469200Y-92700000D03*
X90469200Y-94800000D03*
D13*
X90469200Y-88900000D03*
D14*
X95689200Y-84700000D03*
D11*
X76920400Y-88900000D03*
X65920400Y-88900000D03*
D12*
X66420400Y-92700000D03*
X71420400Y-94800000D03*
D13*
X71420400Y-88900000D03*
D14*
X76640400Y-84700000D03*
D11*
X276932800Y-69850000D03*
X265932800Y-69850000D03*
D12*
X266432800Y-73650000D03*
X271432800Y-75750000D03*
D13*
X271432800Y-69850000D03*
D14*
X276652800Y-65650000D03*
D11*
X257884000Y-69850000D03*
X246884000Y-69850000D03*
D12*
X247384000Y-73650000D03*
X252384000Y-75750000D03*
D13*
X252384000Y-69850000D03*
D14*
X257604000Y-65650000D03*
D11*
X238835200Y-69850000D03*
X227835200Y-69850000D03*
D12*
X228335200Y-73650000D03*
X233335200Y-75750000D03*
D13*
X233335200Y-69850000D03*
D14*
X238555200Y-65650000D03*
D11*
X219786400Y-69850000D03*
X208786400Y-69850000D03*
D12*
X209286400Y-73650000D03*
X214286400Y-75750000D03*
D13*
X214286400Y-69850000D03*
D14*
X219506400Y-65650000D03*
D11*
X200737600Y-69850000D03*
X189737600Y-69850000D03*
D12*
X190237600Y-73650000D03*
X195237600Y-75750000D03*
D13*
X195237600Y-69850000D03*
D14*
X200457600Y-65650000D03*
D11*
X181688800Y-69850000D03*
X170688800Y-69850000D03*
D12*
X171188800Y-73650000D03*
X176188800Y-75750000D03*
D13*
X176188800Y-69850000D03*
D14*
X181408800Y-65650000D03*
D11*
X162640000Y-69850000D03*
X151640000Y-69850000D03*
D12*
X152140000Y-73650000D03*
X157140000Y-75750000D03*
D13*
X157140000Y-69850000D03*
D14*
X162360000Y-65650000D03*
D11*
X143591200Y-69850000D03*
X132591200Y-69850000D03*
D12*
X133091200Y-73650000D03*
X138091200Y-75750000D03*
D13*
X138091200Y-69850000D03*
D14*
X143311200Y-65650000D03*
D11*
X124562500Y-69850000D03*
X113562500Y-69850000D03*
D12*
X114062500Y-73650000D03*
X119062500Y-75750000D03*
D13*
X119062500Y-69850000D03*
D14*
X124282500Y-65650000D03*
D11*
X105512500Y-69850000D03*
X94512500Y-69850000D03*
D12*
X95012500Y-73650000D03*
X100012500Y-75750000D03*
D13*
X100012500Y-69850000D03*
D14*
X105232500Y-65650000D03*
D11*
X86462500Y-69850000D03*
X75462500Y-69850000D03*
D12*
X75962500Y-73650000D03*
X80962500Y-75750000D03*
D13*
X80962500Y-69850000D03*
D14*
X86182500Y-65650000D03*
D11*
X67412500Y-69850000D03*
X56412500Y-69850000D03*
D12*
X56912500Y-73650000D03*
X61912500Y-75750000D03*
D13*
X61912500Y-69850000D03*
D14*
X67132500Y-65650000D03*
D11*
X48362500Y-69850000D03*
X37362500Y-69850000D03*
D12*
X37862500Y-73650000D03*
X42862500Y-75750000D03*
D13*
X42862500Y-69850000D03*
D14*
X48082500Y-65650000D03*
D11*
X110275000Y-146050000D03*
X99275000Y-146050000D03*
D12*
X99775000Y-149850000D03*
X104775000Y-151950000D03*
D13*
X104775000Y-146050000D03*
D14*
X109995000Y-141850000D03*
D11*
X81700000Y-146050000D03*
X70700000Y-146050000D03*
D12*
X71200000Y-149850000D03*
X76200000Y-151950000D03*
D13*
X76200000Y-146050000D03*
D14*
X81420000Y-141850000D03*
D11*
X53121940Y-146040616D03*
X42121940Y-146040616D03*
D12*
X42621940Y-149840616D03*
X47621940Y-151940616D03*
D13*
X47621940Y-146040616D03*
D14*
X52841940Y-141840616D03*
D11*
X310324100Y-88900000D03*
X299324100Y-88900000D03*
D12*
X299824100Y-92700000D03*
X304824100Y-94800000D03*
D13*
X304824100Y-88900000D03*
D14*
X310044100Y-84700000D03*
D11*
X291250000Y-127000000D03*
X280250000Y-127000000D03*
D12*
X280750000Y-130800000D03*
X285750000Y-132900000D03*
D13*
X285750000Y-127000000D03*
D14*
X290970000Y-122800000D03*
D11*
X62650000Y-127000000D03*
X51650000Y-127000000D03*
D12*
X52150000Y-130800000D03*
X57150000Y-132900000D03*
D13*
X57150000Y-127000000D03*
D14*
X62370000Y-122800000D03*
D11*
X53121940Y-88894288D03*
X42121940Y-88894288D03*
D12*
X42621940Y-92694288D03*
X47621940Y-94794288D03*
D13*
X47621940Y-88894288D03*
D14*
X52841940Y-84694288D03*
D18*
X336675100Y-99981400D03*
D19*
X334135100Y-99981400D03*
D20*
X331900000Y-107918400D03*
X329400000Y-107918400D03*
X326900000Y-107918400D03*
D21*
X336992900Y-64180000D03*
X336992900Y-66720000D03*
X336992900Y-69260000D03*
X336992900Y-71800000D03*
X336992900Y-74340000D03*
X336992900Y-76880000D03*
X336992900Y-79420000D03*
X336992900Y-81960000D03*
X336992900Y-84500000D03*
X336992900Y-87040000D03*
X336992900Y-89580000D03*
X321752900Y-92120000D03*
X321752900Y-89580000D03*
X321752900Y-87040000D03*
X321752900Y-84500000D03*
X321752900Y-81960000D03*
X321752900Y-79420000D03*
X321752900Y-76880000D03*
X321752900Y-74340000D03*
X321752900Y-71800000D03*
X321752900Y-69260000D03*
X321752900Y-66720000D03*
X336992900Y-92120000D03*
X321752900Y-64180000D03*
X334452900Y-87040000D03*
X331912900Y-87040000D03*
X329372900Y-87040000D03*
M02*
